<?xml version="1.0" encoding="UTF-8"?>
<svg id="_лой_1" data-name="‘лой_1" xmlns="http://www.w3.org/2000/svg" version="1.1" viewBox="0 0 2952.5 2000">
  <defs>
    <style>
      .cls-1 {
        fill: #e2915a;
      }

      .cls-1, .cls-2, .cls-3, .cls-4, .cls-5, .cls-6, .cls-7, .cls-8, .cls-9, .cls-10, .cls-11, .cls-12, .cls-13, .cls-14, .cls-15, .cls-16, .cls-17, .cls-18, .cls-19, .cls-20, .cls-21, .cls-22, .cls-23, .cls-24, .cls-25, .cls-26, .cls-27, .cls-28 {
        stroke-width: 0px;
      }

      .cls-2 {
        fill: #d2e3fc;
      }

      .cls-2, .cls-4, .cls-12, .cls-18, .cls-29, .cls-28 {
        display: none;
      }

      .cls-3 {
        fill: #213f7a;
      }

      .cls-4, .cls-21 {
        fill: #78a2ff;
      }

      .cls-5, .cls-18 {
        fill: #ffab6c;
      }

      .cls-6 {
        fill: #233862;
      }

      .cls-7 {
        fill: #f2ccaa;
      }

      .cls-8 {
        fill: #aec3ff;
      }

      .cls-9 {
        fill: #f99746;
      }

      .cls-10, .cls-12 {
        fill: #f9ddbf;
      }

      .cls-11 {
        fill: #abddda;
      }

      .cls-13 {
        fill: #2b478b;
      }

      .cls-14 {
        fill: #163560;
      }

      .cls-15 {
        fill: #ed975d;
      }

      .cls-16 {
        fill: #e8945b;
      }

      .cls-17 {
        fill: #ebf3fa;
      }

      .cls-19 {
        fill: #ffebde;
      }

      .cls-20, .cls-28 {
        fill: #fff;
      }

      .cls-22 {
        fill: #9db0f4;
      }

      .cls-23 {
        fill: #91cecf;
      }

      .cls-24 {
        fill: #1c468a;
      }

      .cls-25 {
        fill: #ed7d2b;
      }

      .cls-26 {
        fill: #ffb27d;
      }

      .cls-27 {
        fill: #c65447;
      }

      .cls-28 {
        opacity: .5;
      }
    </style>
  </defs>
  <rect class="cls-2" x="106.2" y="100" width="2736" height="1787.4"/>
  <rect class="cls-4" x="106.2" y="1403.1" width="2736" height="328.1"/>
  <polygon class="cls-28" points="850.8 1361.9 964 100 1501.2 100 939.2 1378.5 850.8 1361.9"/>
  <g class="cls-29">
    <path class="cls-24" d="M887,1412.6c24.4,4.6,47.6-9.8,51.8-32.1l-88.3-16.6c-4.2,22.3,12.2,44.1,36.6,48.7Z"/>
    <path class="cls-19" d="M939.2,1378.5c-2.3,12.2-23.9,18.4-48.3,13.8-24.4-4.6-42.3-18.2-40-30.4,2.3-12.2,23.9-18.4,48.3-13.8,24.4,4.6,42.3,18.2,40,30.4Z"/>
  </g>
  <polygon class="cls-28" points="2173.2 1361.9 2174.2 100 1629.9 100 2084.9 1378.5 2173.2 1361.9"/>
  <g class="cls-29">
    <path class="cls-24" d="M2137,1412.6c-24.4,4.6-47.6-9.8-51.8-32.1l88.3-16.6c4.2,22.3-12.2,44.1-36.5,48.7Z"/>
    <path class="cls-19" d="M2084.9,1378.5c2.3,12.2,23.9,18.4,48.3,13.8,24.4-4.6,42.3-18.2,40-30.4-2.3-12.2-23.9-18.4-48.3-13.8-24.4,4.6-42.3,18.2-40,30.4Z"/>
  </g>
  <polygon class="cls-28" points="213.4 1361.9 326.6 100 926.5 100 301.7 1378.5 213.4 1361.9"/>
  <rect class="cls-18" x="106.2" y="1464.7" width="2736" height="422.7"/>
  <path class="cls-25" d="M2184.5,1559.4c-207.7-15.7-465.7-24.9-745.2-24.9s-537.4,9.3-745.2,24.9H194.6v100.3c0,69.2,557.3,125.3,1244.7,125.3s1244.7-56.1,1244.7-125.3v-100.3h-499.5Z"/>
  <ellipse class="cls-10" cx="1439.3" cy="1559.4" rx="1244.7" ry="125.3"/>
  <g>
    <path class="cls-8" d="M2367.1,584.3s-49.9,8.8-61.1,38.2c-11.3,29.4-69,426.1-69,426.1,0,0,37.6,23.3,105.3,14.3,67.7-9,24.8-478.6,24.8-478.6Z"/>
    <path class="cls-6" d="M2292.9,1520.6c-.2,8.5-1.7,22.1-4.8,25.3h-123.3c1.6-4.5,6-16.7,18.7-18.8,14.4-2.3,37-9.3,50.1-23.2,4.7-4.9,8.2-10.8,9.7-17.6,5.8-25.9,48.2,7.9,48.2,7.9,0,0,1.7,13.7,1.4,26.3Z"/>
    <path class="cls-6" d="M2479.7,1520.6c-.2,8.5-1.7,22.1-4.8,25.3h-123.3c1.6-4.5,6-16.7,18.7-18.8,14.4-2.3,37-9.3,50.1-23.2,4.7-4.9,8.2-10.8,9.7-17.6,5.8-25.9,48.2,7.9,48.2,7.9,0,0,1.7,13.7,1.4,26.3Z"/>
    <path class="cls-25" d="M2239.6,1508c13.8,4.4,40.3,17.9,57.1,11.5,10.9-4.1,71.5-179.6,75.5-256.4.3-5.6,1.4-13.4,3.1-22.9,3.6-19.8,9.9-47,17.1-77.1,19.4-80.5,45.7-181.2,45.1-213.4-.9-50-148.9-10.5-148.9-10.5,0,0-10.2,41-12.2,100.3-4,117.8-15.1,316.7-45.1,454.9-1.3,5.9,2.6,11.7,8.3,13.5Z"/>
    <path class="cls-9" d="M2342.3,950l66.7,563.1s45.9,12.2,72.6,5.6c0,0,22.9-301.6,21-374.5-1.9-72.9,16.4-195.1-4.2-208.6-20.6-13.5-156.1,14.4-156.1,14.4Z"/>
    <path class="cls-20" d="M2508.3,610.3s-82.2-53.2-141.2-26c-9.4,4.3-20.1,16.4-27.8,24.9-21.3,23.5-50.8,330.1-50.8,330.1,0,0,97.7,38.5,211.4-15.1l8.3-313.9Z"/>
    <path class="cls-8" d="M2367.1,584.3s-74.3,17.4-85.5,43.6c-11.3,26.2-85.7,151.7-64.9,206.1,6.7,17.6,67.2,19.6,77.4-10.8,8.5-25.3,73-238.8,73-238.8Z"/>
    <g>
      <path class="cls-26" d="M2379.7,609c18.2,3.6,44.9-.2,64.4-13.1-8.8-21.1-12.4-37.7-13.7-48.5,0-.6-.1-1.1-.2-1.7-.6-5.6-.5-9.4-.2-11.1h-47s-12.8,5.9-12.8,9.9,0,4.2,0,6.2c0,5.4-.3,10.1-.6,14.2-.9,13.2-2.4,19.4-2.4,19.4,0,0-5.7,21,12.6,24.6Z"/>
      <path class="cls-1" d="M2369.5,565c35.6,6.9,56.3-12.6,60.9-17.6.7-.7,1-1.1,1-1.1-.4-.2-.8-.4-1.2-.5-13.2-5.4-43.3-1.1-60.1,5.1,0,5.4-.3,10.1-.6,14.2Z"/>
      <path class="cls-26" d="M2442,526.9c-6.4,34.2-50.5,33.1-69.6,31-5.4-.6-8.8-1.3-8.8-1.3-6.1-1.6-9.4-11.2-11-23.7-3.1-24.7.8-61,5-70.3,6.3-14,18.1-29.1,62.6-18.2,44.5,10.9,29.9,38.6,21.8,82.5Z"/>
      <path class="cls-6" d="M2356,443.5c6.1-8.4,19-18.7,30.7-25,25.1-13.6,57.3.4,57.5.5,36.3,16,45.8,43.8,26.6,87.1-20.4,45.8-39.8,40.6-39.8,40.6,0,0,4.1-2.6,3.7-16.8,0-.8,0-1.5,0-2.1-.2-2.9.8-5.9,3-7.8,4.5-4,6.7-16.2,2.9-19.6-4.6-4.1-11,.9-13,4.7-1.8,2.7-5,3.6-8,1.8-11.3-7.1-4-21.4-14.8-30.2-10.8-8.7-32.7-1.4-48.9-8.4-21.2-7.9-4.5-18.4.1-24.7Z"/>
    </g>
    <path class="cls-8" d="M2392.3,1065c7.2,1.8,47.6,17.5,137.6,6.2,1.1-.1-1-34.3-5.4-147-.4-11.6-.9-23.3-1.4-34.9-.2-4.9-.4-9.8-.6-14.7-4-99.7-7.9-189.7-8.7-194.5-1.9-11-3.7-20.3-5.6-28.4-5.6-23.6-12.6-36.6-27.9-47.7-1.5-1.1-13.7-7.3-24.4-12.6-8.9-4.4-16.8-8.3-16.8-8.3h0c-3.5,1.7-7.8,9.9-12.3,21.3-8.2,21-17,53.2-23.2,77.2,0,0,0,.1,0,.1h0c-4,15.5-6.8,27.6-7.6,31.1-1.4,5.9-3.2,17.2-5.3,32.5-2.9,20.9-6.4,49.3-10,81.5-.4,3.3-.8,6.7-1.1,10-.4,3.9,12.1,221.6,12.6,228.1Z"/>
    <path class="cls-22" d="M2472.3,720.3c0,.2,2.9,100.8-72.8,113-75.6,12.2-25.4,15.4-25.4,15.4,0,0,142.3-6,144.7-9.8s-46.5-118.6-46.5-118.6Z"/>
    <path class="cls-22" d="M2408.4,876.5s1.4,1,4.1,2.8c0,0,0,0,.1,0,11.5,7.4,45.8,27.4,95.6,40.9,5.2,1.4,10.6,2.8,16.2,4-.4-11.6-.9-23.3-1.4-34.9,6.6-.5,12.9-1.4,18.7-2.6-.2-1.5-.4-3.1-.6-4.6-6.3-2.6-12.6-5.1-18.7-7.5-5-1.9-9.7-3.8-14.3-5.5-20.5-7.8-35.7-13.1-35.7-13.1l-60.6,19.2-3.6,1.2Z"/>
    <path class="cls-8" d="M2392.3,874.8s7.8,1.9,20.2,4.4c0,0,0,0,.1,0,22.9,4.6,61.3,11,95.7,10.7,5.1,0,10-.3,14.9-.6,6.6-.5,12.9-1.4,18.7-2.6,12.6-2.6,23.1-7.1,29.9-14.1,51.1-52-27.9-238.8-44.5-257-19.4-21.2-54.8-28.7-74.3-31.2-.8-.1-1.6-.2-2.4-.3-6.9-.8-11.3-1-11.5-1h0s1.5,4.9,4.1,13.3c1,3.2,2.2,7,3.4,11.2,12,39.3,35.1,116.5,45.4,160.1,3.7,15.9,5.7,27.4,4.8,30.8-4,14.9-45.3,22.5-71.4,25.9-10.9,1.4-19.2,2.1-21,2.2-.1,0-.3,0-.4,0l-1.5,6.2-3.6,14.9-3.6,14.6-3.1,12.6Z"/>
    <path class="cls-20" d="M2383,534.6s-5.8,5.3-15.2,3.7c-5.6-1-8.7-8.2-8.7-8.2,0,0,10.7-1.9,23.9,4.6Z"/>
    <path class="cls-22" d="M2435.7,572.4l28.9,13.8-38.2,103.2-13.6-2.6,3.8,12.8-27,54.2s16.9-126.8,46.1-181.4Z"/>
    <polygon class="cls-22" points="2369 570.9 2367.1 584.3 2322.2 732.2 2320.2 686.1 2325.9 679.7 2318 667.3 2347.3 589.9 2369 570.9"/>
    <path class="cls-20" d="M2433.1,562.4c0-.3-46.9,37.8-46.9,37.8l-17.2-29.4-6,29.1,14.3,10.9h6.2s34,7.5,34.7,6.2c.7-1.3,17.5-44.7,17.5-44.7l-2.6-10Z"/>
    <g>
      <path class="cls-9" d="M2382.2,602.7s38.2-19.1,39.5-15.9c1.4,3.2,1.1,35.9-3.3,37.3-4.4,1.4-36.2-21.4-36.2-21.4Z"/>
      <path class="cls-9" d="M2385.4,601.7s-15.1-24.7-20.1-21.4c-4.9,3.3-8.3,34.5-3.7,35.5s21.8-9.7,23.8-14.1Z"/>
      <circle class="cls-9" cx="2384.8" cy="602.7" r="6.2"/>
    </g>
    <path class="cls-6" d="M2369,650.8c0-1.2,1-2.2,2.2-2.2s2.2,1,2.2,2.2-1,2.2-2.2,2.2-2.2-1-2.2-2.2Z"/>
    <path class="cls-6" d="M2360.8,689c0-1.2,1-2.2,2.2-2.2s2.2,1,2.2,2.2-1,2.2-2.2,2.2-2.2-1-2.2-2.2Z"/>
    <path class="cls-6" d="M2353.4,729.3c0-1.2,1-2.2,2.2-2.2s2.2,1,2.2,2.2-1,2.2-2.2,2.2-2.2-1-2.2-2.2Z"/>
    <path class="cls-26" d="M2405.5,826.8s-8.4-5.2-11.6-7.3c-3.2-2.1-6.1-4.1-6.1-4.1l.6,5.6,6.6,9.5,10.5-3.6Z"/>
    <g>
      <polygon class="cls-6" points="2262.5 913.4 2398.1 915.8 2380.7 745.6 2245.1 743.3 2262.5 913.4"/>
      <path class="cls-27" d="M2335.8,744.8s-.8-4.7-7-4.6c-6.2.2-40.9-.2-40.9-.2,0,0-6.7-.5-6.3,3.8l54.1.9Z"/>
    </g>
    <path class="cls-26" d="M2404.1,826.6s-34.2-2.4-35.9,5.6c-4,18.6,29.4,33.8,40.2,32.8,10.8-1,3.6-39.6-4.3-38.3Z"/>
    <g>
      <path class="cls-26" d="M2233.2,789.9c.9-.1,23.1-17.9,23-12.9-.1,5-9.9,14.5-9.9,14.5l-13.1-1.6Z"/>
      <path class="cls-26" d="M2233,789.3s32.7-10.2,36.2-2.9c8.2,17.1-20.7,39.7-31.5,41.2-10.8,1.5-12.6-37.7-4.7-38.3Z"/>
    </g>
  </g>
  <g>
    <path class="cls-14" d="M1062.8,686.8c-3.8-7.4,83.3-33.9,84.7,38.8,0,0,163.2-4,85.3-95-27-31.5-24.2-57.5-23.4-81.8.8-24.2-16.8-94.7-77.2-87.6,0,0-15.8-6.4-35.6,3.8-44.9,23.3-145.5,248.6-33.8,221.8Z"/>
    <path class="cls-26" d="M1329.7,768.1s10.6-16.2,19.2-16.5c8.6-.3,24.4-4.8,23.2-1.6-1.3,3.2-11.1,3.5-12.1,5.4-1,1.9,14.6,4.8,19,5.1,4.4.3,14.9,0,14.6,2.2-.3,2.2-18.9,11.4-31.9,10.1-13.1-1.3-29.3,3.8-29.3,3.8l-2.7-8.6Z"/>
    <path class="cls-10" d="M1176,773.3s5.8,11.4,16.2,24.6c12.6,15.8,32.1,34.1,56.5,37.7,11.7,1.7,23.1-.8,33.6-5.5,0,0,0,0,0,0,29.7-13.2,52-43.5,52-43.5,5.2-14.3-3.3-23.9-3.3-23.9,0,0-59.9,13.5-65.6,10.6-5.7-2.9-39-98.8-46.9-110.8-7.9-12.1-35-18.3-35-18.3l-7.5,129.1Z"/>
    <path class="cls-7" d="M1192.3,797.9c12.6,15.8,32.1,34.1,56.5,37.7,11.7,1.7,23.1-.8,33.6-5.5-1.2.2-30.8,3.8-42.6-17.3-12.1-21.6-25.1-55.8-43-44.4-7.7,4.9-7.4,17.2-4.5,29.5Z"/>
    <path class="cls-6" d="M952.4,1420.3s-18.3,16.7-14.7,28.5c3.6,11.9,20.1,19.8,22.3,34.3,2.2,14.5,11.2,22.4,19.2,22.4h38.3s5.9-10.2-8.4-13.3c-14.3-3.1-19.7-20.1-18.8-35.9.9-15.8-1.3-36.9-1.3-36.9l-30.3-7-6.2,7.9Z"/>
    <path class="cls-6" d="M1107.2,1427.4s-6.6,70.7,1.4,74.7l102.8-.2s0-11.9-16.5-14.5c-16.5-2.6-45.5-12.3-50.4-33.8-4.9-21.5-37.3-26.1-37.3-26.1Z"/>
    <path class="cls-26" d="M1034,920.1c21.1-47.4,34.1-61,31.6-75.8-1.8-11,5.6-204.2,5.6-204.2,2.5-.8,7.5-1.5,10.3-2.1,8.7-1.9,15.9-8,18.8-16.4,3.6-10.1,6.5-25,6.4-43.6l2.7.5,45.5,9s-1,14.3-1.1,27.8c0,.1,0,.2,0,.3,0,11.7,7.6,22.1,18.9,25.3,5.8,1.7,10.8,3.1,10.8,3.1,0,0,16.7,47.7,19.9,96.8,3.2,49.1-30.4,70.4.3,168.4,31.3,100.1-181.4,37-169.8,10.8Z"/>
    <path class="cls-16" d="M1155,587.6s-1,14.3-1.1,27.8c-25.5-.7-39-24-44.5-36.9l45.5,9Z"/>
    <path class="cls-26" d="M1163.5,600.3s-60.3,1-60.3-36.6c0-37.6-7.9-62.7,30.6-65,38.5-2.2,46,12.1,49.1,24.6,3.1,12.5-3.7,75.7-19.4,76.9Z"/>
    <path class="cls-14" d="M1161.3,497.9s-16.5,44.1-41.8,50.6c-25.3,6.5-36.3-.3-36.3-.3,0,0,19.4-15.4,23.5-42.4,0,0,42.3-28.9,54.7-7.9Z"/>
    <path class="cls-14" d="M1157.2,501.5s12.2,4.6,17.3,13.5c4.9,8.7,9.1,20.3,8.2,34.5,0,0,12.4-30-1.5-46.9-14.8-18-23.9-1.1-23.9-1.1Z"/>
    <path class="cls-17" d="M1150.4,577s4.2,5.5,12.5,5.1c6.7-.3,9.3-6.1,9.3-6.1,0,0-12.3-3-21.8,1.1Z"/>
    <path class="cls-10" d="M1028.2,725.6s-1.5,21.6,0,47.5c1,17.2,18.4,40.2,20.9,45.9,6.2,14.3,13.2,16.6,13.2,16.6l54,13.2,19,4.6,59.8-17.9s27.2-76.1,16.3-118.9c-10.9-42.8-27.7-72.5-27.7-72.5,0,0-48.8,47.8-112.4-4.1l-43,85.5Z"/>
    <path class="cls-7" d="M1044,780.1c1,17.2,2.6,33.2,5.1,38.9,6.2,14.3,13.2,16.6,13.2,16.6l54,13.2,23.4-6.9s-78.2-11.9-69.6-79.2l-26,17.4Z"/>
    <path class="cls-6" d="M1191.1,847.1s29.6,92.2,31.5,123.6c1.9,31.4-56.6,446-59,460.5-2.2,13.6-19.2,22.3-19.2,22.3,0,0-7.8,4.6-18.9,1.5-15.4-4.4-20.3-9.6-20.3-9.6,0,0-23.1-295.7-8.8-401.3,14.3-105.6,14.4-197,14.4-197h80.2Z"/>
    <path class="cls-24" d="M1065.6,844.3s-45.2,60.6-49.4,101.6c-4.2,41-6.6,185-15.6,224.9-9,40-42,116.9-42,241.5,0,0,3.4,7.1,14,10.9,3.4,1.2,7.9,2.4,12.3,3.4,8.7,2,17.7-2.3,21.7-10.3,22.3-44.9,93.3-189.7,97-219.7,2.6-21.3,25-162,73.9-244.6,11.7-19.8-7.2-98.7-7.2-98.7l-104.7-9.1Z"/>
    <path class="cls-20" d="M1151.7,578s1,4.4,12.1,3.7c0,0,9.2-.6,9-5.4,0,0-9-3.5-21,1.7Z"/>
    <path class="cls-6" d="M1195.9,832.9s-11.9,9.4-35.5,9.9c-28.2.6-98.1-7.2-98.1-7.2,0,0-3.1,8.7-3,17.8,0,0,85.4,21.5,134.9,3.1,0,0,6.4-12,1.8-23.7Z"/>
    <path class="cls-20" d="M1154.2,852.5c0-8,5.8-14.6,12.9-14.6s12.9,6.5,12.9,14.6-5.8,14.6-12.9,14.6-12.9-6.5-12.9-14.6ZM1158.5,852.5c0,5.7,3.9,10.3,8.6,10.3s8.6-4.6,8.6-10.3-3.9-10.3-8.6-10.3-8.6,4.6-8.6,10.3Z"/>
    <path class="cls-26" d="M1081.9,849.8s32.1,3.7,32,11.4-8,23.2-11.9,23.9c-4,.7-26.1-21.1-26.1-21.1l6.1-14.2Z"/>
    <path class="cls-10" d="M1071.2,640.1s-42.8,3-59.2,42.9c-16.4,39.9-47.5,106.9-47.5,118.1s17.4,46,110.8,66c0,0,9.7-10.2,9.1-18.2,0,0-58.3-50.1-58.1-55.9.3-11.1,9.6-25.7,60.7-76.9,13.9-13.9-15.7-76-15.7-76Z"/>
  </g>
  <g>
    <path class="cls-26" d="M1885,732.1s10.8-13.1,16.6-14.9c5.8-1.8,17-10.5,18.5-7,1.5,3.6-7.6,9.1-7.1,13.2.5,4.1,28.7,10.7,28.5,15-.2,4.3-6.6,14.8-17.4,13.6-10.8-1.2-38-7.7-43.6-4.9-5.6,2.8,4.5-15.1,4.5-15.1Z"/>
    <path class="cls-11" d="M1594.2,668.3c15.9,21.4,34.6,38.3,53.7,51.6,60.9,42.4,126.9,48.7,126.9,48.7,15.8-5.1,64.4-10.4,93.2-15h0c12.5-2,21.3-3.9,21.9-5.6l-.7-25s-105.4-5.6-122.9-13.7c-27.5-23.7-51.9-54.5-67.7-78.6-13.4-20.3-28.4-35.3-53.1-44.1-35.7-12.7-100.7,15.3-51.3,81.7Z"/>
    <path class="cls-23" d="M1642.6,704.2l5.4,15.7c60.9,42.4,126.9,48.7,126.9,48.7,12.7,0,64.4-10.4,93.2-15-1.1,0-78.2,6.1-95.3,4.4-17.2-1.8-97.1-71-97.1-71l-33.1,17.2Z"/>
    <path class="cls-6" d="M1711.4,1497.2h-116.5c-8.3-5.7,2.3-61,2.3-61,0,0,31.8-12.1,37.3,12.5,5.5,24.5,40.5,32.3,59,35.3,12.7,2.1,16.7,9,17.9,13.2Z"/>
    <path class="cls-6" d="M1538.6,1497.2h-116.5c-8.3-5.7,2.3-61,2.3-61,0,0,31.8-12.1,37.3,12.5,5.5,24.5,40.5,32.3,59,35.3,12.7,2.1,16.7,9,17.9,13.2Z"/>
    <path class="cls-13" d="M1680,932.5s-5.2,65.3-11.4,143.9c-8.4,106.7-30.9,371.3-30.9,371.3,0,0-14.8,12.6-47.6,5.7,0,0-27.9-91.3-36.2-195.4-.1-1.7-.3-3.4-.4-5.1-7.8-106-19.8-329.4-19.8-329.4l146.3,9.1Z"/>
    <path class="cls-6" d="M1681.8,909.9s-7,87.9-13.2,166.5l-114.7,181.5c-.1-1.7-.3-3.4-.4-5.1-7.8-106-19.8-329.4-19.8-329.4l148.1-13.5Z"/>
    <path class="cls-13" d="M1648.4,909.9s-83.2,207.1-109.8,285.7c-19,55.9-72.4,252.1-72.4,252.1,0,0-23.2,7.1-42.8-6.6,0,0-19.9-200.5,20.3-257,21.3-30,5.3-311.7,91.7-314.1,86.4-2.4,113,39.9,113,39.9Z"/>
    <path class="cls-26" d="M1611.2,604.5c-12.7,6.7-25.1,7.1-35.9,4.8-9.8-2.1-18.3-6.4-24.3-10.3-6.2-3.9-9.8-7.4-9.8-7.4,0,0,.4-.6,1.2-1.8,3.8-6.4,15.1-29.5,10.1-66.6,0-.5,3.6.2,9.2,1.5,16.5,3.9,49.7,13.3,51.2,13.7h0s.4,7.8,1.8,21.8c.1,1.2.2,2.5.4,3.9.2,1.6.3,3.4.5,5.2,1.5,14.5-4.4,35.2-4.4,35.2Z"/>
    <path class="cls-15" d="M1614.7,560.3c-24.7,5.7-61.4-30.7-61.4-30.7,2.7-2,5.5-3.6,8.4-4.8,16.5,3.9,49.7,13.3,51.2,13.7h0s.4,7.8,1.8,21.8Z"/>
    <path class="cls-26" d="M1623,536.6s-10.1,3.6-23.1,5.4c-18.9,2.6-43.7,1-51.6-21.8-13.1-38.5-29.9-61.6,8.7-77.3,20.7-8.4,34-8.9,43-5.6,7.8,2.8,12.4,8.3,15.9,13.8,7.5,11.8,22.6,78.8,7,85.6Z"/>
    <path class="cls-14" d="M1646.5,454c-22.4,16.1-53.4.3-63,4.6-9.6,4.3-11.4,20.4-11.5,25.5-.2,5.1-.8,9.5-13.9,6.4-2.1-.5-3.7-.4-4.7.3-5.4,3.2,1.5,18.8,3.6,22.2,0,0,3,11.2-3.7,16.6-.8.6-13.9,6.4-45.5-42-5-7.6-9.7-24.7-2-41.1,7.7-16.5,39.7-32.4,66.8-40.8,10.2-3.2,17.7-3,23.6-.9,9.8,3.6,15.1,12.9,20.3,22.2,8.7,15.7,30.1,27,30.1,27Z"/>
    <path class="cls-11" d="M1693.1,875c-1.8,23.7-6.8,40.7-17.8,40.7,0,0-48.9,17.2-107.3,17.7-11.4,0-27.6-2.1-41-4.4-13.7-2.3-24.5-4.7-24.5-4.7-11.7-2.7-24.7-10-23-23.4,1-7.6,1.7-17.5,2.1-28.9,1.3-31,1.1-73.8,1.2-114.7.1-25.1.4-49.6,1.2-70.2,0,0-11.5-81,1.3-94.3,15-15.5,59.1-20.3,61.8-19.7.8-.2,1.7-.4,2.5-.5,0,0,37.5,21.1,65.4,5.5,0,0,.3,0,.8.1,6.8,1.1,40.7,8.9,52.4,21.3,4,4.3,20.2,30.4,20.6,59.1.6,40-1,85.5-1,85.5.4,6.5,1.1,14.9,1.9,24.4.8,10.2,1.7,21.7,2.5,33.7.4,6.1.7,12.2,1,18.4.9,19.1,1.1,38.2,0,54.3Z"/>
    <path class="cls-23" d="M1547.2,573.2s41.5,42.8,71.2,34.1c0,0,4-5.8-9.4-7.6-13.4-1.9-27.8-1.1-61.8-26.4Z"/>
    <path class="cls-20" d="M1623.3,511.7s.8,5-10.8,9c0,0-9.7,3.3-11.5-1.8,0,0,7.7-7.4,22.3-7.2Z"/>
    <path class="cls-23" d="M1520.9,723.7s0,115.8-39.4,148.3c1.3-31,1.1-73.8,1.2-114.7l38.2-33.6Z"/>
    <path class="cls-26" d="M1399.6,940.5s-20.1,31.6-21.2,43.6c-.8,8.2,1.1,40.6,5.2,40.7,5.8.2,11.6-20,13.8-25.2,2.2-5.2,4.9-9.3,7.1-9.3s-4.9,20.2,0,17.9c4.9-2.2,13.1-20.9,13.8-25.4.7-4.5-4.4-18.8-1.9-24.5s-16.8-17.9-16.8-17.9Z"/>
    <path class="cls-11" d="M1489.1,588.5s-27.2,12.8-49.9,107.8c-17.2,71.6-50,254.4-50,254.4l27.8,11.4s101.8-233.7,116.3-266.5c14.6-32.9-44.2-107.1-44.2-107.1Z"/>
  </g>
  <g>
    <path class="cls-9" d="M1289.6,1460.7l22.6,36.9c5.3,8.6-.9,19.8-11.1,19.8h-249c-11.3,0-18.1-12.5-11.9-22l22.6-34.6-14.3-125.1-7.7-66.7-10.1-88-7.7-66.7-10.8-93.7h312l-7.4,93.7-7.7,97.7-4.5,57-5.3,66.7-9.8,125.1Z"/>
    <path class="cls-25" d="M1036.6,1500.9l26.1-40.1h226.9l24.8,40.5c4.3,7.1-.8,16.1-9,16.1h-259.8c-8.5,0-13.6-9.4-9-16.5Z"/>
    <path class="cls-25" d="M1016.5,1057.1c7.1.2,68.1-27.9,142.7-27.9s161.8,32.8,161.8,32.8l3.3-41.4h-312l4.2,36.5Z"/>
    <rect class="cls-21" x="1000.1" y="830.4" width="338.2" height="192.3"/>
    <path class="cls-13" d="M1344.7,1029.1h-351.1v-205.1h351.1v205.1ZM1006.5,1016.3h325.4v-179.4h-325.4v179.4Z"/>
    <g>
      <path class="cls-20" d="M1124.1,880.8v13.9h-1c-4,0-7.6.5-10.8,1.6-3.2,1-6,2.5-8.3,4.4-2.3,1.9-4.2,4.2-5.6,7-1.4,2.7-2.4,5.8-2.8,9.2,2.1-2.1,4.5-3.8,7.4-5.1,2.9-1.3,6.1-1.9,9.8-1.9s7.5.8,10.6,2.3c3,1.5,5.6,3.6,7.6,6.3,2,2.6,3.6,5.7,4.6,9.2,1,3.5,1.5,7.2,1.5,11.2s-.7,8-2,11.6c-1.3,3.6-3.3,6.7-5.8,9.3-2.5,2.6-5.5,4.7-9.1,6.2-3.5,1.5-7.5,2.3-11.9,2.3s-8.7-.8-12.4-2.5c-3.7-1.7-6.9-4-9.5-7-2.6-3-4.6-6.6-6-10.7-1.4-4.2-2.1-8.7-2.1-13.7v-6.6c0-6.9,1-13.2,2.9-18.9,2-5.7,4.8-10.7,8.5-14.8,3.7-4.1,8.3-7.4,13.7-9.7,5.4-2.3,11.5-3.5,18.4-3.5h2.4ZM1107.6,923.5c-1.5,0-2.9.2-4.2.6-1.3.4-2.5,1-3.5,1.7-1.1.7-2,1.6-2.8,2.5-.8,1-1.4,2-1.9,3v5.1c0,3,.3,5.6.9,7.9.6,2.3,1.5,4.2,2.6,5.7,1.1,1.5,2.5,2.6,4,3.4,1.6.7,3.3,1.1,5.2,1.1s3.5-.4,5-1.2c1.5-.8,2.8-1.9,3.8-3.2,1.1-1.4,1.9-3,2.5-4.9.6-1.9.9-4,.9-6.2s-.3-4.3-.8-6.2c-.6-1.9-1.4-3.5-2.5-4.9-1.1-1.4-2.4-2.5-4-3.2-1.5-.8-3.3-1.1-5.2-1.1Z"/>
      <path class="cls-20" d="M1204.4,931.7c0,6.4-.7,11.9-2.1,16.5-1.4,4.6-3.3,8.4-5.9,11.3-2.5,3-5.5,5.1-9.1,6.5-3.5,1.4-7.5,2.1-11.7,2.1s-8.2-.7-11.7-2.1c-3.5-1.4-6.6-3.6-9.1-6.5-2.5-3-4.5-6.7-5.9-11.3-1.4-4.6-2.1-10.1-2.1-16.5v-14.8c0-6.4.7-11.9,2.1-16.5,1.4-4.6,3.3-8.4,5.9-11.3,2.5-2.9,5.6-5.1,9.1-6.5,3.5-1.4,7.4-2.1,11.7-2.1s8.2.7,11.7,2.1c3.5,1.4,6.6,3.6,9.1,6.5,2.5,3,4.5,6.7,5.9,11.3,1.4,4.6,2.1,10.1,2.1,16.5v14.8ZM1187.4,914.5c0-3.8-.3-7-.8-9.6-.5-2.6-1.3-4.7-2.3-6.2-1-1.6-2.3-2.7-3.8-3.4-1.5-.7-3.2-1.1-5-1.1s-3.5.4-5,1.1c-1.5.7-2.7,1.8-3.7,3.4-1,1.6-1.8,3.7-2.3,6.2-.5,2.6-.8,5.8-.8,9.6v19.5c0,3.8.3,7.1.8,9.7.5,2.6,1.3,4.7,2.3,6.4,1,1.6,2.3,2.8,3.8,3.5,1.5.7,3.2,1.1,5,1.1s3.6-.4,5-1.1c1.5-.7,2.7-1.9,3.7-3.5,1-1.6,1.8-3.7,2.3-6.4.5-2.6.8-5.8.8-9.7v-19.5Z"/>
      <path class="cls-20" d="M1273.2,931.7c0,6.4-.7,11.9-2.1,16.5-1.4,4.6-3.3,8.4-5.9,11.3-2.5,3-5.5,5.1-9.1,6.5-3.5,1.4-7.5,2.1-11.8,2.1s-8.2-.7-11.7-2.1c-3.5-1.4-6.6-3.6-9.1-6.5-2.5-3-4.5-6.7-5.9-11.3-1.4-4.6-2.1-10.1-2.1-16.5v-14.8c0-6.4.7-11.9,2.1-16.5,1.4-4.6,3.3-8.4,5.9-11.3,2.5-2.9,5.6-5.1,9.1-6.5,3.5-1.4,7.4-2.1,11.7-2.1s8.2.7,11.7,2.1c3.5,1.4,6.6,3.6,9.1,6.5,2.5,3,4.5,6.7,5.9,11.3,1.4,4.6,2.1,10.1,2.1,16.5v14.8ZM1256.3,914.5c0-3.8-.3-7-.8-9.6-.5-2.6-1.3-4.7-2.3-6.2-1-1.6-2.3-2.7-3.8-3.4-1.5-.7-3.2-1.1-5-1.1s-3.5.4-5,1.1c-1.5.7-2.7,1.8-3.7,3.4-1,1.6-1.8,3.7-2.3,6.2-.5,2.6-.8,5.8-.8,9.6v19.5c0,3.8.3,7.1.8,9.7.5,2.6,1.3,4.7,2.3,6.4,1,1.6,2.3,2.8,3.8,3.5,1.5.7,3.2,1.1,5,1.1s3.6-.4,5-1.1c1.5-.7,2.7-1.9,3.7-3.5,1-1.6,1.8-3.7,2.3-6.4.5-2.6.8-5.8.8-9.7v-19.5Z"/>
    </g>
    <polygon class="cls-5" points="1316.9 1114.3 1309.2 1212 1304.7 1269 1299.5 1335.7 1048.5 1335.7 1040.8 1269 1030.7 1181 1023 1114.3 1316.9 1114.3"/>
    <circle class="cls-20" cx="1171.2" cy="1225" r="73.4" transform="translate(-523.1 1186.9) rotate(-45)"/>
    <path class="cls-9" d="M1200.3,1269h-58.5v-11.6l27.6-29.4c2.1-2.3,3.8-4.3,5.2-6.2,1.4-1.9,2.6-3.6,3.5-5.2.9-1.6,1.5-3,1.9-4.4.4-1.3.6-2.6.6-3.9,0-3.8-1-6.8-2.9-8.9-1.9-2.2-4.6-3.3-8.2-3.3s-3.8.4-5.3,1.1c-1.5.7-2.8,1.7-3.9,3-1,1.3-1.8,2.8-2.4,4.5-.5,1.8-.8,3.7-.8,5.7h-17c0-3.8.7-7.4,2.1-10.8,1.4-3.4,3.3-6.4,5.9-8.9,2.6-2.5,5.7-4.6,9.3-6,3.7-1.5,7.8-2.2,12.3-2.2s8.5.6,11.9,1.7c3.5,1.1,6.4,2.7,8.7,4.8,2.3,2.1,4.1,4.6,5.3,7.6,1.2,3,1.8,6.4,1.8,10.1s-.4,5.6-1.3,8.3c-.9,2.7-2.2,5.3-3.8,8-1.6,2.7-3.6,5.3-5.9,8.1-2.3,2.7-4.9,5.5-7.8,8.5l-15.1,15.9h36.7v13.7Z"/>
  </g>
  <g>
    <path class="cls-9" d="M1768.6,1460.7l22.6,36.9c5.3,8.6-.9,19.8-11.1,19.8h-249c-11.3,0-18.1-12.5-11.9-22l22.6-34.6-14.3-125.1-7.7-66.7-10.1-88-7.7-66.7-10.8-93.7h312l-7.4,93.7-7.7,97.7-4.5,57-5.3,66.7-9.8,125.1Z"/>
    <path class="cls-25" d="M1515.6,1500.9l26.1-40.1h226.9l24.8,40.5c4.3,7.1-.8,16.1-9,16.1h-259.8c-8.5,0-13.6-9.4-9-16.5Z"/>
    <path class="cls-25" d="M1495.4,1057.1c7.1.2,68.1-27.9,142.7-27.9s161.8,32.8,161.8,32.8l3.3-41.4h-312l4.2,36.5Z"/>
    <rect class="cls-21" x="1479" y="830.4" width="338.2" height="192.3"/>
    <path class="cls-13" d="M1823.6,1029.1h-351.1v-205.1h351.1v205.1ZM1485.4,1016.3h325.3v-179.4h-325.3v179.4Z"/>
    <g>
      <path class="cls-20" d="M1559.6,925.1l4.9-43.4h47.8v14.1h-33.9l-2.1,18.3c.6-.3,1.3-.7,2.2-1,.9-.4,1.8-.7,3-1.1,1.1-.3,2.3-.6,3.6-.8,1.3-.2,2.7-.3,4.1-.3,4.1,0,7.8.7,11,2,3.2,1.3,5.9,3.2,8.2,5.7,2.2,2.5,3.9,5.5,5.1,9,1.2,3.6,1.8,7.6,1.8,12.1s-.6,7.4-1.8,10.8c-1.2,3.4-3,6.5-5.3,9.1-2.4,2.6-5.4,4.7-9,6.3-3.6,1.6-7.9,2.3-12.7,2.3s-7.2-.6-10.7-1.7c-3.4-1.1-6.5-2.7-9.1-4.9-2.7-2.1-4.8-4.7-6.4-7.8-1.6-3.1-2.5-6.6-2.6-10.5h16.8c.4,3.6,1.6,6.3,3.7,8.3,2.1,2,4.9,3,8.4,3s4-.4,5.5-1.2c1.5-.8,2.7-1.9,3.7-3.3,1-1.4,1.7-3.1,2.1-5,.4-1.9.7-4,.7-6.2s-.3-4.3-.8-6.1c-.5-1.9-1.4-3.4-2.5-4.7-1.1-1.3-2.6-2.3-4.3-3-1.7-.7-3.8-1.1-6.1-1.1s-2.9.1-4.1.4c-1.2.3-2.2.6-3.1,1.1-.9.4-1.7.9-2.4,1.5-.7.6-1.3,1.1-1.9,1.7l-13.5-3.3Z"/>
      <path class="cls-20" d="M1628.4,925.1l4.9-43.4h47.8v14.1h-33.9l-2.1,18.3c.6-.3,1.3-.7,2.2-1,.9-.4,1.8-.7,3-1.1,1.1-.3,2.3-.6,3.6-.8,1.3-.2,2.7-.3,4.1-.3,4.1,0,7.8.7,11,2,3.2,1.3,5.9,3.2,8.2,5.7,2.2,2.5,3.9,5.5,5.1,9,1.2,3.6,1.8,7.6,1.8,12.1s-.6,7.4-1.8,10.8c-1.2,3.4-3,6.5-5.3,9.1-2.4,2.6-5.4,4.7-9,6.3s-7.9,2.3-12.7,2.3-7.2-.6-10.7-1.7c-3.4-1.1-6.5-2.7-9.1-4.9-2.7-2.1-4.8-4.7-6.4-7.8-1.6-3.1-2.5-6.6-2.6-10.5h16.8c.4,3.6,1.6,6.3,3.7,8.3,2.1,2,4.9,3,8.4,3s4-.4,5.5-1.2c1.5-.8,2.7-1.9,3.7-3.3,1-1.4,1.7-3.1,2.1-5s.7-4,.7-6.2-.3-4.3-.8-6.1c-.5-1.9-1.4-3.4-2.5-4.7-1.1-1.3-2.6-2.3-4.3-3-1.7-.7-3.8-1.1-6.1-1.1s-2.9.1-4.1.4c-1.2.3-2.2.6-3.1,1.1-.9.4-1.7.9-2.4,1.5-.7.6-1.3,1.1-1.9,1.7l-13.5-3.3Z"/>
      <path class="cls-20" d="M1752.2,931.7c0,6.4-.7,11.9-2.1,16.5-1.4,4.6-3.3,8.4-5.9,11.3-2.5,3-5.5,5.1-9.1,6.5-3.5,1.4-7.5,2.1-11.7,2.1s-8.2-.7-11.8-2.1c-3.5-1.4-6.6-3.6-9.1-6.5-2.5-3-4.5-6.7-5.9-11.3-1.4-4.6-2.1-10.1-2.1-16.5v-14.8c0-6.4.7-11.9,2.1-16.5,1.4-4.6,3.3-8.4,5.9-11.3,2.5-2.9,5.6-5.1,9.1-6.5,3.5-1.4,7.4-2.1,11.7-2.1s8.2.7,11.7,2.1c3.5,1.4,6.6,3.6,9.1,6.5,2.5,3,4.5,6.7,5.9,11.3,1.4,4.6,2.1,10.1,2.1,16.5v14.8ZM1735.3,914.5c0-3.8-.3-7-.8-9.6s-1.3-4.7-2.3-6.2c-1-1.6-2.3-2.7-3.8-3.4-1.5-.7-3.2-1.1-5-1.1s-3.5.4-5,1.1c-1.5.7-2.7,1.8-3.7,3.4-1,1.6-1.8,3.7-2.3,6.2-.5,2.6-.8,5.8-.8,9.6v19.5c0,3.8.3,7.1.8,9.7.5,2.6,1.3,4.7,2.3,6.4,1,1.6,2.3,2.8,3.8,3.5,1.5.7,3.2,1.1,5,1.1s3.6-.4,5-1.1c1.5-.7,2.7-1.9,3.7-3.5,1-1.6,1.8-3.7,2.3-6.4.5-2.6.8-5.8.8-9.7v-19.5Z"/>
    </g>
    <polygon class="cls-5" points="1795.8 1114.3 1788.1 1212 1783.7 1269 1778.4 1335.7 1527.4 1335.7 1519.7 1269 1509.6 1181 1502 1114.3 1795.8 1114.3"/>
    <circle class="cls-20" cx="1650.1" cy="1225" r="73.4" transform="translate(-382.9 1525.6) rotate(-45)"/>
    <path class="cls-9" d="M1637.9,1218.8h9c4.3,0,7.5-1.1,9.6-3.2,2.1-2.1,3.1-5,3.1-8.6s-.2-3-.7-4.4c-.5-1.3-1.2-2.5-2.1-3.5-1-1-2.2-1.7-3.6-2.3-1.4-.5-3.1-.8-5.1-.8s-3,.2-4.4.7c-1.4.5-2.6,1.1-3.6,1.9-1,.8-1.9,1.8-2.5,3-.6,1.2-.9,2.5-.9,4h-16.9c0-3.5.7-6.7,2.2-9.6,1.5-2.9,3.5-5.3,6-7.3,2.5-2,5.5-3.6,8.9-4.7,3.4-1.1,7-1.7,10.9-1.7s8.2.5,11.8,1.6c3.5,1,6.6,2.6,9.1,4.6,2.5,2.1,4.5,4.6,5.9,7.6,1.4,3,2.1,6.5,2.1,10.5s-.3,3.7-.8,5.4c-.6,1.8-1.4,3.5-2.5,5.1-1.1,1.6-2.5,3-4.1,4.4-1.6,1.3-3.4,2.5-5.5,3.4,4.8,1.7,8.4,4.3,10.8,7.7,2.4,3.4,3.5,7.5,3.5,12.2s-.8,7.5-2.3,10.7c-1.5,3.1-3.7,5.8-6.4,7.9-2.7,2.1-5.9,3.8-9.6,4.9-3.7,1.1-7.7,1.7-12,1.7s-7.2-.5-10.7-1.5c-3.5-1-6.6-2.5-9.3-4.5-2.7-2-4.9-4.6-6.6-7.6-1.7-3.1-2.5-6.7-2.5-10.9h16.9c0,1.6.3,3.1.9,4.4.6,1.3,1.5,2.5,2.6,3.4,1.1,1,2.4,1.7,4,2.3,1.5.5,3.2.8,5,.8s3.8-.3,5.4-.8c1.6-.5,3-1.3,4.1-2.4,1.1-1,2-2.3,2.5-3.7.6-1.4.9-3,.9-4.8s-.3-4.2-1-5.8c-.6-1.6-1.6-2.9-2.8-4-1.2-1-2.7-1.8-4.4-2.3-1.7-.5-3.7-.7-5.8-.7h-9v-13.2Z"/>
  </g>
  <g class="cls-29">
    <path class="cls-24" d="M249.6,1412.6c24.4,4.6,47.6-9.8,51.8-32.1l-88.3-16.6c-4.2,22.3,12.2,44.1,36.5,48.7Z"/>
    <path class="cls-19" d="M301.7,1378.5c-2.3,12.2-23.9,18.4-48.3,13.8-24.4-4.6-42.3-18.2-40-30.4,2.3-12.2,23.9-18.4,48.3-13.8,24.4,4.6,42.3,18.2,40,30.4Z"/>
  </g>
  <g>
    <path class="cls-9" d="M665.5,576.9s70-.6,86.8,23c16.8,23.6,39.2,173.5,34.5,193-11,45.2-55.3-17.5-75.4-43.4-20-25.9-46-172.6-46-172.6Z"/>
    <polygon class="cls-9" points="785.2 751.9 804.1 903 750.1 903 735.4 785.2 785.2 751.9"/>
    <path class="cls-6" d="M618.6,1510.7s-2.6-20.1-8.6-32.1c-6-12-44.1-4.4-44.1-4.4,0,0-7.6,6.5-9.2,37l61.9-.5Z"/>
    <path class="cls-6" d="M748.4,1510.4c-8.9-5.5-3.9-46.2-3.9-46.2,0,0,41.7-33.4,47.4-7.8,5.7,25.5,39.6,37,58.9,40.1,13.3,2.2,17.4,9.5,18.7,13.9h-121.2Z"/>
    <path class="cls-3" d="M662,1214c1.7,9.4,2.8,17,3.1,22.5,3.9,75.6,63.6,248.5,74.3,252.5,16.5,6.2,42.6-7,56.2-11.4,5.6-1.8,9.5-7.5,8.2-13.3-29.6-136.1-40.5-332-44.4-448-2-58.4-12-98.8-12-98.8,0,0-145.8-38.9-146.6,10.3-.8,43.5,48.3,214.3,61.3,286.1Z"/>
    <path class="cls-6" d="M662,1214l97.4-197.6c-2-58.4-12-98.8-12-98.8,0,0-145.8-38.9-146.6,10.3-.8,43.5,48.3,214.3,61.3,286.1Z"/>
    <path class="cls-3" d="M694.4,928.1l-77.1,558.5s-33.8,8.2-60.2,1.6c0,0-22.6-297.1-20.7-368.9,1.9-71.8-16.2-192.2,4.1-205.4,20.3-13.3,153.8,14.1,153.8,14.1Z"/>
    <path class="cls-25" d="M769.7,903s-29.1-153-27.4-202.4c0,0-40.2,141.2-33.6,169.5,6.6,28.3,53,53.8,61,32.8Z"/>
    <path class="cls-9" d="M535.2,784.7l-9.6,134.1c-.4,5,2.9,9.6,7.7,11,10.7,3.1,23.1,5.3,47,10.2,22.5,4.7,52.7,8.8,89.8,9,59,.4,81.4-20,81.4-20,2.5,0-1.3-12.3-4.8-71.1-1.2-19.9-2.3-45.1-3.2-77-.7-28.7-1.2-62.8-1.3-103.2,0-48.6-75.3-101-76.7-101h0c0,7-11,19.9-28,21.1-20.2,1.3-45.4-13.2-45.4-24.9s-3.5,3.4-4.9,5.7c-8,13.4-33,66.2-44.1,119.5-1.6,7.9-2.9,16.2-3.9,25,0,.1,0,.3,0,.4-.2,1.6-.4,3.2-.5,4.8,0,.3,0,.6,0,.9-.1,1.5-.3,3-.4,4.5,0,.4.3,1.2-.1,1.3-4,1-15.1,38-2.3,37.7,3.9-.1-.3,7.9-.5,11.9,0,.1,0,.2,0,.3v-.3Z"/>
    <path class="cls-26" d="M666.2,566.2v7.2s1.9,22.6-25.9,25.9c-27.9,3.3-49-8.8-48.2-26.3,2.5-13.5,5.3-22.8,5.5-34,0-4.2-.2-8.6-1-13.5l54-1.1,15.9,2.6-.2,39.1Z"/>
    <path class="cls-1" d="M666.4,527.1l-.2,28c-5.7,2.7-16.3,2.9-24.4,1.4-24.4-4.4-36.1-12.7-44.5-25.9,0-4.2,0,0-.8-5l54-1.1,15.9,2.6Z"/>
    <path class="cls-26" d="M592.4,516.9c6.3,33.7,49.8,32.6,68.6,30.5,5.3-.6,8.6-1.3,8.6-1.3,6-1.6,9.3-11,10.8-23.3,3.1-24.4-.8-60.1-4.9-69.3-6.2-13.8-17.9-28.6-61.7-17.9-43.8,10.7-29.5,38-21.4,81.2Z"/>
    <path class="cls-6" d="M689,421.5s-19.3-1.5-42-11.4c-18.5-8-41.8.8-49.3,4.8.2-1.2.7-2.9,1.8-4.5,0,0-3.4,2.4-3.9,5.8-.3.3-.5.4-.4.5,0,0-3.8-.7-6.3.4,0,0,1.7-.2,2.3.9,0,.1.2.2.3.3-28.8,13.9-31.5,59.4-22.2,70,11.1,12.7,25.9,38.5,25.9,38.5,0,0,3.5-4.1,1.4-15.2-2-11.1,7.6-11.1,19.8-16.2,12.2-5.1,2-19.3,12.7-27.9,10.6-8.6,49.7-3.5,49.2-10.1,14.5-5.3,10.7-34.3,10.7-35.8Z"/>
    <path class="cls-25" d="M557.7,674.8s-34.4,119.9,74.1,134.7c0,0-131.4-9.8-131.4-11.5s57.3-123.2,57.3-123.2Z"/>
    <path class="cls-9" d="M592.1,573.1s-73,5.9-86.2,21.5c-13.1,15.6-51.9,188.9-39.8,222.5,7.4,20.6,100.9,5.6,150.5,7l7.8-14s-93.5-37.8-93.5-44.3c0-16.2,61.2-192.8,61.2-192.8Z"/>
    <path class="cls-26" d="M624.4,810.2s23.8-2.9,30,0c6.2,2.9,20.5,11.5,20.5,14s-58.3,0-58.3,0l7.8-14Z"/>
  </g>
  <g>
    <path class="cls-9" d="M766.2,1460.7l22.6,36.9c5.3,8.6-.9,19.8-11.1,19.8h-249c-11.3,0-18.1-12.5-11.9-22l22.6-34.6-14.3-125.1-7.7-66.7-10.1-88-7.7-66.7-10.8-93.7h312l-7.4,93.7-7.7,97.7-4.5,57-5.3,66.7-9.8,125.1Z"/>
    <path class="cls-25" d="M513.2,1500.9l26.1-40.1h226.9l24.8,40.5c4.3,7.1-.8,16.1-9,16.1h-259.8c-8.5,0-13.6-9.4-9-16.5Z"/>
    <path class="cls-25" d="M493,1057.1c7.1.2,68.1-27.9,142.7-27.9s161.8,32.8,161.8,32.8l3.3-41.4h-312l4.2,36.5Z"/>
    <rect class="cls-21" x="476.6" y="830.4" width="338.2" height="192.3"/>
    <path class="cls-13" d="M821.2,1029.1h-351.1v-205.1h351.1v205.1ZM483,1016.3h325.4v-179.4h-325.4v179.4Z"/>
    <g>
      <path class="cls-20" d="M610.3,904.4c0,4.1-1,7.8-3.1,11-2.1,3.2-4.9,5.8-8.6,7.7,4.1,2,7.4,4.7,9.8,8.2,2.4,3.5,3.6,7.6,3.6,12.3s-.7,7.6-2.2,10.7c-1.4,3-3.4,5.6-6,7.7-2.6,2.1-5.6,3.6-9.1,4.7-3.5,1-7.3,1.6-11.5,1.6s-7.9-.5-11.5-1.6c-3.5-1-6.6-2.6-9.2-4.7-2.6-2.1-4.6-4.6-6.1-7.7-1.5-3-2.2-6.6-2.2-10.7s1.2-8.8,3.6-12.4c2.4-3.5,5.7-6.2,9.8-8.2-3.6-1.9-6.5-4.5-8.5-7.7-2.1-3.2-3.1-6.9-3.1-11s.7-7.3,2-10.2c1.3-2.9,3.2-5.4,5.6-7.5,2.4-2,5.2-3.6,8.5-4.6,3.3-1,6.9-1.6,10.9-1.6s7.6.5,10.9,1.6c3.3,1,6.2,2.6,8.6,4.6,2.4,2,4.3,4.5,5.6,7.5,1.3,3,2,6.4,2,10.2ZM595.1,942.4c0-1.9-.3-3.6-.9-5.1-.6-1.5-1.4-2.8-2.4-3.9-1-1.1-2.3-1.9-3.8-2.4-1.5-.6-3.1-.8-4.9-.8s-3.4.3-4.9.8c-1.4.6-2.7,1.4-3.7,2.4-1,1.1-1.8,2.3-2.4,3.9-.6,1.5-.8,3.2-.8,5.1s.3,3.6.8,5.1c.6,1.5,1.4,2.8,2.4,3.8,1,1.1,2.3,1.9,3.8,2.4,1.5.5,3.1.8,5,.8,3.7,0,6.6-1.1,8.6-3.2,2.1-2.1,3.1-5.1,3.1-8.9ZM593.4,905.2c0-3.3-.9-6-2.6-8-1.8-2-4.2-3-7.4-3s-5.6,1-7.4,2.9c-1.8,2-2.6,4.6-2.6,8.1s.9,6.1,2.6,8.2c1.8,2.1,4.2,3.1,7.4,3.1s5.7-1,7.4-3.1c1.7-2.1,2.6-4.8,2.6-8.2Z"/>
      <path class="cls-20" d="M681,931.7c0,6.4-.7,11.9-2.1,16.5-1.4,4.6-3.3,8.4-5.9,11.3-2.5,3-5.5,5.1-9.1,6.5-3.5,1.4-7.5,2.1-11.7,2.1s-8.2-.7-11.7-2.1c-3.5-1.4-6.6-3.6-9.1-6.5-2.5-3-4.5-6.7-5.9-11.3-1.4-4.6-2.1-10.1-2.1-16.5v-14.8c0-6.4.7-11.9,2.1-16.5,1.4-4.6,3.3-8.4,5.9-11.3,2.5-2.9,5.6-5.1,9.1-6.5,3.5-1.4,7.4-2.1,11.7-2.1s8.2.7,11.7,2.1c3.5,1.4,6.6,3.6,9.1,6.5,2.5,3,4.5,6.7,5.9,11.3,1.4,4.6,2.1,10.1,2.1,16.5v14.8ZM664,914.5c0-3.8-.3-7-.8-9.6-.5-2.6-1.3-4.7-2.3-6.2-1-1.6-2.3-2.7-3.8-3.4-1.5-.7-3.2-1.1-5-1.1s-3.5.4-5,1.1c-1.5.7-2.7,1.8-3.7,3.4-1,1.6-1.8,3.7-2.3,6.2-.5,2.6-.8,5.8-.8,9.6v19.5c0,3.8.3,7.1.8,9.7.5,2.6,1.3,4.7,2.3,6.4,1,1.6,2.3,2.8,3.8,3.5,1.5.7,3.2,1.1,5,1.1s3.6-.4,5-1.1c1.5-.7,2.7-1.9,3.7-3.5,1-1.6,1.8-3.7,2.3-6.4.5-2.6.8-5.8.8-9.7v-19.5Z"/>
      <path class="cls-20" d="M749.8,931.7c0,6.4-.7,11.9-2.1,16.5-1.4,4.6-3.3,8.4-5.9,11.3-2.5,3-5.5,5.1-9.1,6.5-3.5,1.4-7.5,2.1-11.7,2.1s-8.2-.7-11.7-2.1c-3.5-1.4-6.6-3.6-9.1-6.5-2.5-3-4.5-6.7-5.9-11.3-1.4-4.6-2.1-10.1-2.1-16.5v-14.8c0-6.4.7-11.9,2.1-16.5,1.4-4.6,3.3-8.4,5.9-11.3,2.5-2.9,5.6-5.1,9.1-6.5,3.5-1.4,7.4-2.1,11.7-2.1s8.2.7,11.7,2.1c3.5,1.4,6.6,3.6,9.1,6.5,2.5,3,4.5,6.7,5.9,11.3,1.4,4.6,2.1,10.1,2.1,16.5v14.8ZM732.9,914.5c0-3.8-.3-7-.8-9.6-.5-2.6-1.3-4.7-2.3-6.2-1-1.6-2.3-2.7-3.8-3.4-1.5-.7-3.2-1.1-5-1.1s-3.5.4-5,1.1c-1.5.7-2.7,1.8-3.7,3.4-1,1.6-1.8,3.7-2.3,6.2-.5,2.6-.8,5.8-.8,9.6v19.5c0,3.8.3,7.1.8,9.7.5,2.6,1.3,4.7,2.3,6.4,1,1.6,2.3,2.8,3.8,3.5,1.5.7,3.2,1.1,5,1.1s3.6-.4,5-1.1c1.5-.7,2.7-1.9,3.7-3.5,1-1.6,1.8-3.7,2.3-6.4.5-2.6.8-5.8.8-9.7v-19.5Z"/>
    </g>
    <polygon class="cls-5" points="793.5 1114.3 785.8 1212 781.3 1269 776 1335.7 525 1335.7 517.3 1269 507.2 1181 499.6 1114.3 793.5 1114.3"/>
    <circle class="cls-20" cx="647.7" cy="1225" r="73.4" transform="translate(-676.5 816.8) rotate(-45)"/>
    <path class="cls-9" d="M659.4,1269h-16.9v-65.3l-20.2,6.3v-13.8l35.3-12.7h1.8v85.4Z"/>
  </g>
  <path class="cls-12" d="M1350,1734.6c0-10,8.1-18.1,18.1-18.1s18.1,8.1,18.1,18.1-8.1,18.1-18.1,18.1-18.1-8.1-18.1-18.1Z"/>
  <path class="cls-12" d="M988.4,1725c0-10,8.1-18.1,18.1-18.1s18.1,8.1,18.1,18.1-8.1,18.1-18.1,18.1-18.1-8.1-18.1-18.1Z"/>
  <path class="cls-12" d="M705,1713.1c0-10,8.1-18.1,18.1-18.1s18.1,8.1,18.1,18.1-8.1,18.1-18.1,18.1-18.1-8.1-18.1-18.1Z"/>
  <circle class="cls-12" cx="488.8" cy="1689.5" r="18.1" transform="translate(-1257.4 1899.8) rotate(-80.7)"/>
  <path class="cls-12" d="M1614.9,1734.6c0-10,8.1-18.1,18.1-18.1s18.1,8.1,18.1,18.1-8.1,18.1-18.1,18.1-18.1-8.1-18.1-18.1Z"/>
  <circle class="cls-12" cx="1908.8" cy="1726.7" r="18.1"/>
  <path class="cls-12" d="M2129.1,1713.1c0-10,8.1-18.1,18.1-18.1s18.1,8.1,18.1,18.1-8.1,18.1-18.1,18.1-18.1-8.1-18.1-18.1Z"/>
  <circle class="cls-12" cx="2410.3" cy="1684.6" r="18.1" transform="translate(-461.2 1050.6) rotate(-22.5)"/>
  <path class="cls-12" d="M2592.8,1648.4c0-10,6.3-18.1,14-18.1s14,8.1,14,18.1-6.3,18.1-14,18.1-14-8.1-14-18.1Z"/>
  <path class="cls-12" d="M287.3,1659.7c0-10,6.3-18.1,14-18.1s14,8.1,14,18.1-6.3,18.1-14,18.1-14-8.1-14-18.1Z"/>
</svg>