<?xml version="1.0" encoding="UTF-8"?>
<svg xmlns="http://www.w3.org/2000/svg" version="1.1" viewBox="0 0 500 500">
  <defs>
    <style>
      .cls-1, .cls-2, .cls-3, .cls-4, .cls-5, .cls-6, .cls-7, .cls-8, .cls-9, .cls-10, .cls-11, .cls-12, .cls-13, .cls-14, .cls-15, .cls-16, .cls-17, .cls-18, .cls-19, .cls-20, .cls-21, .cls-22, .cls-23, .cls-24, .cls-25, .cls-26, .cls-27, .cls-28, .cls-29 {
        stroke-width: 0px;
      }

      .cls-1, .cls-3 {
        fill: #263238;
      }

      .cls-2, .cls-5, .cls-12, .cls-15, .cls-16, .cls-19, .cls-25, .cls-28, .cls-29 {
        fill: #000;
      }

      .cls-2, .cls-18 {
        opacity: .5;
      }

      .cls-3 {
        opacity: .6;
      }

      .cls-4 {
        fill: #455a64;
      }

      .cls-6 {
        fill: #ffa8a7;
      }

      .cls-7, .cls-13, .cls-18, .cls-21, .cls-27 {
        fill: #fff;
      }

      .cls-7, .cls-28 {
        opacity: .3;
      }

      .cls-8 {
        fill: #b16668;
      }

      .cls-9 {
        fill: #f28f8f;
      }

      .cls-10 {
        fill: #f0f0f0;
      }

      .cls-11 {
        fill: #9a4a4d;
      }

      .cls-12 {
        opacity: .1;
      }

      .cls-13 {
        opacity: .7;
      }

      .cls-14 {
        fill: #27debf;
      }

      .cls-30 {
        opacity: .8;
      }

      .cls-15 {
        opacity: .6;
      }

      .cls-16 {
        opacity: .4;
      }

      .cls-17 {
        fill: #f5f5f5;
      }

      .cls-19 {
        opacity: .4;
      }

      .cls-20 {
        fill: #e0e0e0;
      }

      .cls-21, .cls-29 {
        opacity: .2;
      }

      .cls-22 {
        fill: #ffbda7;
      }

      .cls-23 {
        fill: #f0997a;
      }

      .cls-24 {
        fill: #fafafa;
      }

      .cls-25 {
        opacity: .2;
      }

      .cls-26 {
        fill: #37474f;
      }

      .cls-27 {
        opacity: 0;
      }
    </style>
  </defs>
  <g id="Floor">
    <path id="Floor-2" data-name="Floor" class="cls-10" d="M409.1,228.4c90.8,52.4,90.8,137.5,0,189.9-90.8,52.4-238.1,52.4-328.9,0-90.8-52.4-90.8-137.5,0-189.9,90.8-52.4,238.1-52.4,328.9,0Z"/>
  </g>
  <g id="Shadows">
    <path id="Shadow" class="cls-20" d="M197.5,292.7l182.3,105.2c2.4,1.4,6.3,1.4,8.7,0l60.4-34.9c2.4-1.4,2.4-3.6,0-5l-182.6-105.2c-2.4-1.4-6.3-1.4-8.7,0l-60.1,34.9c-2.4,1.4-2.4,3.6,0,5Z"/>
    <path id="Shadow-2" data-name="Shadow" class="cls-20" d="M26.8,302.1l64.5,37.2c2.4,1.4,6.3,1.4,8.7,0l137.6-79.4c2.4-1.4,2.4-3.6,0-5l-64.5-37.2c-2.4-1.4-6.3-1.4-8.7,0L26.8,297.1c-2.4,1.4-2.4,3.6,0,5Z"/>
    <g id="Shadows-2" data-name="Shadows">
      <path class="cls-20" d="M249.4,416c-2,0-3.7-1.5-4.1-3.4l-.9-5c-2.2-.4-4.3-.9-6.3-1.6,0,0-.1,0-.2,0l-8.8,4.1c-.6.3-1.3.4-2,.4s-1.8-.2-2.5-.6l-8.8-5.1c-1.1-.6-1.8-1.7-1.8-2.9,0-1.2.5-2.3,1.5-3l5.3-3.8c-.5-.7-.9-1.3-1.3-2l-11.2-.7c-2.1-.1-3.7-1.9-3.7-4v-6.5c0-2.1,1.6-3.9,3.7-4l11.2-.7c.4-.7.8-1.4,1.3-2l-5.3-3.8c-1-.7-1.6-1.9-1.5-3.1,0-1.2.7-2.3,1.8-2.9l8.8-5.1c.7-.4,1.6-.6,2.5-.6s1.4.1,2.1.4l8.8,4.1s0,0,.1,0c0,0,0,0,0,0,2-.6,4.2-1.2,6.4-1.6l.9-5c.4-1.9,2.1-3.4,4.1-3.4h12.9c2,0,3.7,1.5,4.1,3.4l.9,5c2.2.4,4.3.9,6.3,1.6,0,0,.1,0,.2,0l8.8-4.1c.6-.3,1.3-.4,2-.4s1.8.2,2.5.6l8.8,5.1c1.1.6,1.8,1.7,1.8,2.9,0,1.2-.5,2.3-1.5,3l-5.3,3.8c.5.7.9,1.3,1.3,2l11.2.7c2.1.1,3.7,1.9,3.7,4v6.5c0,2.1-1.6,3.9-3.7,4l-11.2.7c-.4.7-.8,1.4-1.3,2l5.3,3.8c1,.7,1.6,1.9,1.5,3.1,0,1.2-.7,2.3-1.8,2.9l-8.8,5.1c-.7.4-1.6.6-2.5.6s-1.4-.1-2-.4l-8.8-4.1s0,0-.1,0c0,0,0,0,0,0-2,.6-4.2,1.2-6.4,1.6l-.9,5c-.4,1.9-2.1,3.4-4.1,3.4h-12.9ZM255.9,376c-5.1,0-9.9,1.1-13.4,3.2-3,1.7-4.7,4-4.7,6.1s1.7,4.4,4.7,6.1c3.5,2,8.3,3.2,13.4,3.2s9.9-1.1,13.4-3.2c3-1.7,4.7-4,4.7-6.1s-1.7-4.4-4.7-6.1c-3.5-2-8.3-3.2-13.4-3.2Z"/>
      <path class="cls-20" d="M166.9,363.2c-.3,0-.6,0-.9,0l-9.8-2.3c-1-.2-1.9-.9-2.3-1.9-.5-1-.4-2.2,0-3.2l1.5-3c-.9-.5-1.8-1-2.6-1.6l-8.8,1.5c-.2,0-.5,0-.8,0-1.4,0-2.7-.6-3.4-1.6l-3.8-5.3-.8-.5v-2.3c.1,0,.3-.2.3-.2,0-.2.2-.5.3-.7h0c.5-.9,1.2-1.4,2.1-1.7l6.8-2.2c0-.2,0-.4,0-.7l-7-2.2c-1.2-.4-2.1-1.4-2.3-2.6v-.2c0,0,0-.1,0-.1h0s0-.3,0-.3c0-.8.3-1.5.7-2.2l3.5-4.9c.8-1.1,2.2-1.9,3.6-1.9s.4,0,.6,0l9,1.5s0,0,0,0c.6-.4,1.3-.8,2-1.3.2,0,.3-.2.5-.3l-1.6-3.2c-.3-.5-.4-1-.3-1.5,0-1.6,1.2-3,2.9-3.4l9.4-2.3c.3,0,.7-.1,1.1-.1,1.2,0,2.4.4,3.1,1.2l4.1,4.3c.9,0,1.8,0,2.8,0s2,0,3,0l3.9-4.1c.9-.9,2.2-1.5,3.4-1.5s.6,0,.9.1l9.8,2.3c1.5.4,2.5,1.5,2.7,2.9h0c0,.1,0,.5,0,.5,0,.6-.2,1.1-.4,1.6l-1.5,2.9c.2,0,.3.2.5.3.7.4,1.4.9,2.1,1.3l8.8-1.5c.3,0,.5,0,.8,0,1.4,0,2.7.6,3.4,1.6l3.9,5.4c.4.5.6,1.2.6,1.9h0c0,0,0,.2,0,.2,0,1.5-1.1,2.7-2.7,3.2l-6.8,2.1c0,.2,0,.4,0,.7l7,2.2c1.4.4,2.4,1.7,2.4,3.2,0,.8-.3,1.5-.7,2.2l-3.6,5c-.8,1.1-2.2,1.9-3.6,1.9s-.4,0-.6,0l-9-1.5s0,0,0,0c-.8.5-1.6,1.1-2.5,1.6l1.6,3.2c.5.9.5,2,0,2.9-.5,1-1.4,1.8-2.6,2l-9.5,2.3c-.4,0-.7.1-1.1.1-1.2,0-2.4-.4-3.1-1.2l-4.1-4.3c-.9,0-1.9,0-2.9,0s-1.9,0-2.9,0l-3.9,4.1c-.9.9-2.2,1.5-3.4,1.5ZM163.8,335.3c0,0-.2.2-.2.3-.1.1-.2.3-.3.4,0,0-.2.3-.2.3-.7,1.3-.6,2.5.3,3.8.4.6,1,1.2,1.7,1.7.4.3.8.5,1.2.8,2.8,1.6,6.7,2.5,10.7,2.5s4-.2,5.9-.7c1.8-.4,3.4-1,4.8-1.8.4-.2.8-.5,1.2-.7.9-.6,1.5-1.3,2-2h0s.2-.5.2-.5v-.2c.5-1.1.4-2.2-.5-3.3-2.1-3-7.6-5-13.6-5s-4,.2-5.9.7c-3,.7-5.5,2-7,3.5l-.3.3Z"/>
      <path class="cls-20" d="M149.1,423.4c-.3,0-.6,0-.9,0l-9.8-2.4c-1-.2-1.9-.9-2.3-1.9-.5-1-.4-2.2,0-3.2l1.5-3c-.9-.5-1.8-1-2.6-1.6l-8.8,1.5c-.2,0-.5,0-.8,0-1.4,0-2.7-.6-3.4-1.6l-3.8-5.3-.8-.5.2-2.4v-.3c.2-.2.3-.4.4-.5h0c.5-.9,1.2-1.4,2.1-1.7l6.8-2.2c0-.2,0-.4,0-.7l-7-2.2c-1.2-.4-2.1-1.4-2.3-2.6v-.2c0,0,0-.1,0-.1h0s0-.3,0-.3c0-.8.3-1.5.7-2.2l3.5-4.9c.8-1.1,2.2-1.9,3.6-1.9s.4,0,.6,0l9,1.5s0,0,0,0c.6-.4,1.3-.8,2-1.3.2,0,.3-.2.5-.3l-1.6-3.2c-.2-.5-.4-1-.3-1.5,0-1.6,1.2-3,2.9-3.4l9.4-2.3c.4,0,.7-.1,1.1-.1,1.2,0,2.4.4,3.1,1.2l4.1,4.3c.9,0,1.8,0,2.8,0s2,0,3,0l3.9-4.1c.9-.9,2.2-1.5,3.4-1.5s.6,0,.9.1l9.8,2.3c1.5.4,2.5,1.5,2.7,3h0c0,.1,0,.5,0,.5,0,.6-.2,1.2-.4,1.6l-1.5,2.9c.2,0,.3.2.5.3.7.4,1.4.9,2.1,1.3l8.8-1.5c.3,0,.5,0,.8,0,1.4,0,2.7.6,3.4,1.6l3.9,5.4c.4.5.6,1.2.6,1.9h0c0,0,0,.2,0,.2,0,1.5-1.1,2.7-2.7,3.2l-6.8,2.1c0,.2,0,.4,0,.7l7,2.2c1.4.4,2.4,1.7,2.4,3.2,0,.8-.3,1.5-.7,2.2l-3.6,5c-.8,1.1-2.2,1.9-3.6,1.9s-.4,0-.6,0l-9-1.5s0,0,0,0c-.8.5-1.6,1.1-2.5,1.6l1.6,3.2c.5.9.5,2,0,2.9-.5,1-1.4,1.8-2.6,2l-9.5,2.3c-.4,0-.7.1-1.1.1-1.2,0-2.4-.4-3.1-1.2l-4.1-4.3c-.9,0-1.9,0-2.8,0s-1.9,0-2.9,0l-3.9,4.1c-.9.9-2.2,1.5-3.4,1.5ZM159.2,390.9c-2,0-4,.2-5.9.7-3,.7-5.5,2-7,3.5l-.3.3s-.2.2-.2.3c-.1.1-.2.2-.3.4,0,0-.2.3-.2.3-.7,1.3-.6,2.5.3,3.8.4.6,1,1.2,1.7,1.7.4.3.8.5,1.2.8,2.8,1.6,6.7,2.5,10.7,2.5s4-.2,5.9-.7c1.8-.4,3.4-1,4.8-1.8.4-.2.8-.5,1.2-.7.9-.6,1.5-1.3,2-2h0s.2-.4.2-.4h0c0-.1,0-.3,0-.3.4-1.1.3-2.2-.6-3.3-2.1-3-7.6-5-13.6-5Z"/>
    </g>
  </g>
  <g id="Robotic_Arms" data-name="Robotic Arms">
    <g id="Mechanical_arm" data-name="Mechanical arm">
      <path class="cls-14" d="M461.4,202.6c2.2-2,7.3,1.7,7.3,3.9l-24.4,44-12.1-5.8,29.2-42.1Z"/>
      <path class="cls-13" d="M461.4,202.6c2.2-2,7.3,1.7,7.3,3.9l-24.4,44-12.1-5.8,29.2-42.1Z"/>
      <g>
        <g>
          <path class="cls-14" d="M426.4,244.4c0-1.3-.3-2.4-.8-3.2l.3-.5-1.7-.9h0c-1.3-.8-3.2-.7-5.3.5-4,2.4-7.3,8.2-7.2,12.9,0,2.4.9,4.1,2.4,4.8h0l1.7.9.3-.6c.9,0,2-.4,3.1-1,4-2.4,7.3-8.2,7.2-12.9Z"/>
          <path class="cls-7" d="M426.4,244.4c0-1.3-.3-2.4-.8-3.2l.3-.5-1.7-.9h0c-1.3-.8-3.2-.7-5.3.5-4,2.4-7.3,8.2-7.2,12.9,0,2.4.9,4.1,2.4,4.8h0l1.7.9.3-.6c.9,0,2-.4,3.1-1,4-2.4,7.3-8.2,7.2-12.9Z"/>
          <path class="cls-14" d="M420.9,241.2c-4,2.4-7.3,8.2-7.2,12.9,0,4.7,3.4,6.6,7.4,4.2,4-2.4,7.3-8.2,7.2-12.9,0-4.7-3.4-6.6-7.4-4.2Z"/>
          <path class="cls-12" d="M420.9,241.2c-4,2.4-7.3,8.2-7.2,12.9,0,4.7,3.4,6.6,7.4,4.2,4-2.4,7.3-8.2,7.2-12.9,0-4.7-3.4-6.6-7.4-4.2Z"/>
        </g>
        <path class="cls-1" d="M461.4,303.7h0v-8.3h-6.2c-.6-.4-1.3-.9-2.1-1.3-11.1-6.4-29-6.4-40.1,0-.7.4-1.4.9-2.1,1.3h-6.2v8.3h0c-.1,3.4,2.6,6.7,8.3,10,11.1,6.4,29.1,6.4,40.1,0,5.7-3.3,8.4-6.6,8.3-10Z"/>
        <path class="cls-26" d="M413,306.9c-11.1-6.4-11.1-16.8,0-23.2,11.1-6.4,29.1-6.4,40.1,0,11.1,6.4,11.1,16.8,0,23.2-11.1,6.4-29.1,6.4-40.1,0Z"/>
        <path class="cls-4" d="M451.5,295.4s0,0,0,0v-38.1s0,0,0,0c0-10.2-8.3-18.5-18.5-18.5s-18.5,8.3-18.5,18.5v38.2h0c0,2.7,1.8,5.4,5.4,7.5,7.3,4.1,19,4.1,26.2,0,3.6-2.1,5.4-4.8,5.4-7.5h0Z"/>
        <g>
          <path class="cls-14" d="M449,257.1c0-1.3-.3-2.4-.7-3.2l.3-.5-1.7-1h0c-1.3-.8-3.2-.7-5.3.5-4.1,2.4-7.4,8.1-7.3,12.8,0,2.4.9,4.1,2.3,4.8h0l1.6,1,.3-.6c.9,0,2-.4,3.1-1,4.1-2.4,7.4-8.1,7.3-12.8Z"/>
          <path class="cls-7" d="M449,257.1c0-1.3-.3-2.4-.7-3.2l.3-.5-1.7-1h0c-1.3-.8-3.2-.7-5.3.5-4.1,2.4-7.4,8.1-7.3,12.8,0,2.4.9,4.1,2.3,4.8h0l1.6,1,.3-.6c.9,0,2-.4,3.1-1,4.1-2.4,7.4-8.1,7.3-12.8Z"/>
          <path class="cls-14" d="M443.5,253.9c-4.1,2.4-7.4,8.1-7.3,12.8,0,4.7,3.3,6.6,7.4,4.2,4.1-2.4,7.4-8.1,7.3-12.8s-3.3-6.6-7.4-4.2Z"/>
          <path class="cls-13" d="M443.5,253.9c-4.1,2.4-7.4,8.1-7.3,12.8,0,4.7,3.3,6.6,7.4,4.2,4.1-2.4,7.4-8.1,7.3-12.8s-3.3-6.6-7.4-4.2Z"/>
          <path class="cls-14" d="M440,264.5c0,.6.1,1,.3,1.4.5,1.2,1.8,1.4,3.2.6,1.9-1.1,3.5-3.9,3.5-6.1,0-1.5-.7-2.3-1.7-2.5-.5,0-1.2,0-1.9.5-1.9,1.1-3.5,3.9-3.5,6.1Z"/>
          <path class="cls-4" d="M440,264.5c0,.6.1,1,.3,1.4.5,0,1.2,0,1.9-.5,1.9-1.1,3.5-3.9,3.5-6.1,0-.6-.1-1-.3-1.4-.5,0-1.2,0-1.9.5-1.9,1.1-3.5,3.9-3.5,6.1Z"/>
        </g>
        <g>
          <path class="cls-14" d="M439.6,284.2c0-1.6,1.1-3.5,2.5-4.3.7-.4,1.3-.4,1.8-.1h0s1.1.7,1.1.7l-.5.8s0,0,0,0c0,1.6-1.1,3.5-2.5,4.3,0,0,0,0,0,0l-.5.9-1.2-.7s0,0,0,0h0s0,0,0,0c-.4-.3-.7-.8-.7-1.6Z"/>
          <path class="cls-28" d="M439.6,284.2c0-1.6,1.1-3.5,2.5-4.3.7-.4,1.3-.4,1.8-.1h0s1.1.7,1.1.7l-.5.8s0,0,0,0c0,1.6-1.1,3.5-2.5,4.3,0,0,0,0,0,0l-.5.9-1.2-.7s0,0,0,0h0s0,0,0,0c-.4-.3-.7-.8-.7-1.6Z"/>
          <path class="cls-14" d="M445.8,282.1c0,1.6-1.1,3.5-2.5,4.3-1.4.8-2.5.2-2.5-1.4s1.1-3.5,2.5-4.3c1.4-.8,2.5-.2,2.5,1.4Z"/>
        </g>
        <g>
          <path class="cls-20" d="M439.6,294.8c0-1.6,1.1-3.5,2.5-4.3.7-.4,1.3-.4,1.8-.1h0s1.1.7,1.1.7l-.5.8s0,0,0,0c0,1.6-1.1,3.5-2.5,4.3,0,0,0,0,0,0l-.5.9-1.2-.7s0,0,0,0h0s0,0,0,0c-.4-.3-.7-.8-.7-1.6Z"/>
          <path class="cls-17" d="M445.8,292.7c0,1.6-1.1,3.5-2.5,4.3-1.4.8-2.5.2-2.5-1.4s1.1-3.5,2.5-4.3,2.5-.2,2.5,1.4Z"/>
        </g>
      </g>
      <g>
        <g>
          <polygon class="cls-1" points="423.2 203.6 420.1 219.8 415.6 217.3 418.8 201 423.2 203.6"/>
          <polygon class="cls-4" points="407.5 226.3 420.3 218.7 415.9 215.9 403 223.7 407.5 226.3"/>
          <polygon class="cls-1" points="403 226.2 407.5 228.7 407.5 226.3 403 223.7 403 226.2"/>
        </g>
        <polygon class="cls-26" points="425.8 202.1 423.2 203.6 420.3 218.7 407.5 226.3 407.5 228.7 422.4 219.8 422.9 217.1 422.9 217.1 425.8 202.1"/>
        <g>
          <path class="cls-14" d="M462.8,182c2.2-1.8,4.3-2.3,6.1-1.6h0s10.7,5.1,10.7,5.1l-.2.7c.7.9,1.2,2.1,1.5,3.6.9,5.5-1.7,12.8-6,16.4-1.2,1-2.3,1.6-3.4,1.8l-.3.7-10.7-5.1h0c-1.8-.6-3.2-2.4-3.6-5.2-.9-5.5,1.7-12.8,6-16.4Z"/>
          <path class="cls-12" d="M462.8,182c2.2-1.8,4.3-2.3,6.1-1.6h0s10.7,5.1,10.7,5.1l-.2.7c.7.9,1.2,2.1,1.5,3.6.9,5.5-1.7,12.8-6,16.4-1.2,1-2.3,1.6-3.4,1.8l-.3.7-10.7-5.1h0c-1.8-.6-3.2-2.4-3.6-5.2-.9-5.5,1.7-12.8,6-16.4Z"/>
          <path class="cls-14" d="M473.8,187.2c-4.3,3.6-7,10.9-6,16.4.9,5.5,5.2,7,9.5,3.5,4.3-3.6,7-10.9,6-16.4-.9-5.5-5.2-7-9.5-3.5Z"/>
          <path class="cls-14" d="M471.8,200.2c.1.7.3,1.2.6,1.6.8,1.2,2.4,1.3,3.9,0,2-1.7,3.3-5.2,2.9-7.8-.3-1.7-1.2-2.6-2.4-2.6-.7,0-1.4.3-2.1.9-2,1.7-3.3,5.2-2.9,7.8Z"/>
          <path class="cls-28" d="M471.8,200.2c.1.7.3,1.2.6,1.6.8,1.2,2.4,1.3,3.9,0,2-1.7,3.3-5.2,2.9-7.8-.3-1.7-1.2-2.6-2.4-2.6-.7,0-1.4.3-2.1.9-2,1.7-3.3,5.2-2.9,7.8Z"/>
          <path class="cls-4" d="M471.8,200.2c.1.7.3,1.2.6,1.6.7,0,1.4-.3,2.1-.9,2-1.7,3.3-5.2,2.9-7.8-.1-.7-.3-1.2-.6-1.6-.7,0-1.4.3-2.1.9-2,1.7-3.3,5.2-2.9,7.8Z"/>
        </g>
        <path class="cls-14" d="M428.2,200.5l35.2-2.8c2-.3,3.3-2.2,3-4.1-.3-2-2.2-3.3-4.1-3,0,0,0,0-.1,0l-34.9,4.5c-1.5.3-2.5,1.7-2.2,3.2.3,1.5,1.7,2.4,3.1,2.2Z"/>
        <path class="cls-13" d="M428.2,200.5l35.2-2.8c2-.3,3.3-2.2,3-4.1-.3-2-2.2-3.3-4.1-3,0,0,0,0-.1,0l-34.9,4.5c-1.5.3-2.5,1.7-2.2,3.2.3,1.5,1.7,2.4,3.1,2.2Z"/>
        <g>
          <path class="cls-14" d="M419.5,188.2c1.5-1.3,3.1-1.6,4.3-1.1h0s7.6,3.9,7.6,3.9l-.2.5c.5.6.9,1.5,1.1,2.6.7,3.9-1.2,9.1-4.3,11.6-.8.7-1.7,1.1-2.4,1.3l-.2.5-7.6-3.9h0c-1.3-.4-2.2-1.7-2.6-3.7-.7-3.9,1.2-9.1,4.3-11.6Z"/>
          <path class="cls-12" d="M419.5,188.2c1.5-1.3,3.1-1.6,4.3-1.1h0s7.6,3.9,7.6,3.9l-.2.5c.5.6.9,1.5,1.1,2.6.7,3.9-1.2,9.1-4.3,11.6-.8.7-1.7,1.1-2.4,1.3l-.2.5-7.6-3.9h0c-1.3-.4-2.2-1.7-2.6-3.7-.7-3.9,1.2-9.1,4.3-11.6Z"/>
          <path class="cls-14" d="M427.2,192.2c-3,2.5-5,7.7-4.3,11.6.7,3.9,3.7,5,6.7,2.5,3-2.5,5-7.7,4.3-11.6-.7-3.9-3.7-5-6.7-2.5Z"/>
          <path class="cls-14" d="M425.8,201.4c0,.5.2.9.4,1.1.6.9,1.7.9,2.8,0,1.4-1.2,2.4-3.7,2-5.6-.2-1.2-.9-1.9-1.7-1.8-.5,0-1,.2-1.5.6-1.5,1.2-2.4,3.7-2,5.6Z"/>
          <path class="cls-28" d="M425.8,201.4c0,.5.2.9.4,1.1.6.9,1.7.9,2.8,0,1.4-1.2,2.4-3.7,2-5.6-.2-1.2-.9-1.9-1.7-1.8-.5,0-1,.2-1.5.6-1.5,1.2-2.4,3.7-2,5.6Z"/>
          <path class="cls-4" d="M425.8,201.4c0,.5.2.9.4,1.1.5,0,1-.2,1.5-.6,1.4-1.2,2.4-3.7,2-5.6,0-.5-.2-.9-.4-1.1-.5,0-1,.2-1.5.6-1.5,1.2-2.4,3.7-2,5.6Z"/>
        </g>
        <g>
          <polygon class="cls-1" points="423.7 193.4 419.2 190.8 414.6 179.6 418.2 178.8 423.7 193.4"/>
          <polygon class="cls-26" points="423.7 193.4 425.4 191.5 420 178.1 420 178.1 418.9 175.3 402.6 184.3 402.6 187.5 417.9 179.3 423.7 193.4"/>
          <polygon class="cls-1" points="402.6 187.5 395.9 183.6 395.9 180.4 402.6 184.3 402.6 187.5"/>
          <polygon class="cls-4" points="395.9 180.4 412.2 171.5 418.9 175.3 402.6 184.3 395.9 180.4"/>
        </g>
      </g>
    </g>
    <g id="Mechanical_arm-2" data-name="Mechanical arm">
      <path class="cls-14" d="M324.7,130.5c1.5-2.6,7.5-.5,8.1,1.5l-10.2,49.3-13.2-1.9,15.3-48.9Z"/>
      <path class="cls-13" d="M324.7,130.5c1.5-2.6,7.5-.5,8.1,1.5l-10.2,49.3-13.2-1.9,15.3-48.9Z"/>
      <g>
        <g>
          <path class="cls-14" d="M308.6,176.3c0-1.3-.3-2.4-.8-3.2l.3-.5-1.7-.9h0c-1.3-.8-3.2-.7-5.3.5-4,2.4-7.3,8.2-7.2,12.9,0,2.4.9,4.1,2.4,4.8h0l1.7.9.3-.6c.9,0,2-.4,3.1-1,4-2.4,7.3-8.2,7.2-12.9Z"/>
          <path class="cls-7" d="M308.6,176.3c0-1.3-.3-2.4-.8-3.2l.3-.5-1.7-.9h0c-1.3-.8-3.2-.7-5.3.5-4,2.4-7.3,8.2-7.2,12.9,0,2.4.9,4.1,2.4,4.8h0l1.7.9.3-.6c.9,0,2-.4,3.1-1,4-2.4,7.3-8.2,7.2-12.9Z"/>
          <path class="cls-14" d="M303.1,173.2c-4,2.4-7.3,8.2-7.2,12.9,0,4.7,3.4,6.6,7.4,4.2,4-2.4,7.3-8.2,7.2-12.9,0-4.7-3.4-6.6-7.4-4.2Z"/>
          <path class="cls-12" d="M303.1,173.2c-4,2.4-7.3,8.2-7.2,12.9,0,4.7,3.4,6.6,7.4,4.2,4-2.4,7.3-8.2,7.2-12.9,0-4.7-3.4-6.6-7.4-4.2Z"/>
        </g>
        <path class="cls-1" d="M343.6,235.6h0v-8.3h-6.2c-.6-.4-1.3-.9-2.1-1.3-11.1-6.4-29-6.4-40.1,0-.7.4-1.4.9-2.1,1.3h-6.2v8.3h0c-.1,3.4,2.6,6.7,8.3,10,11.1,6.4,29.1,6.4,40.1,0,5.7-3.3,8.4-6.6,8.3-10Z"/>
        <path class="cls-26" d="M295.2,238.9c-11.1-6.4-11.1-16.8,0-23.2,11.1-6.4,29.1-6.4,40.1,0,11.1,6.4,11.1,16.8,0,23.2-11.1,6.4-29.1,6.4-40.1,0Z"/>
        <path class="cls-4" d="M333.7,227.3s0,0,0,0v-38.1s0,0,0,0c0-10.2-8.3-18.5-18.5-18.5s-18.5,8.3-18.5,18.5v38.2h0c0,2.7,1.8,5.4,5.4,7.5,7.3,4.1,19,4.1,26.2,0,3.6-2.1,5.4-4.8,5.4-7.5h0Z"/>
        <g>
          <path class="cls-14" d="M331.2,189.1c0-1.3-.3-2.4-.7-3.2l.3-.5-1.7-1h0c-1.3-.8-3.2-.7-5.3.5-4.1,2.4-7.4,8.1-7.3,12.8,0,2.4.9,4.1,2.3,4.8h0l1.6,1,.3-.6c.9,0,2-.4,3.1-1,4.1-2.4,7.4-8.1,7.3-12.8Z"/>
          <path class="cls-7" d="M331.2,189.1c0-1.3-.3-2.4-.7-3.2l.3-.5-1.7-1h0c-1.3-.8-3.2-.7-5.3.5-4.1,2.4-7.4,8.1-7.3,12.8,0,2.4.9,4.1,2.3,4.8h0l1.6,1,.3-.6c.9,0,2-.4,3.1-1,4.1-2.4,7.4-8.1,7.3-12.8Z"/>
          <path class="cls-14" d="M325.7,185.9c-4.1,2.4-7.4,8.1-7.3,12.8,0,4.7,3.3,6.6,7.4,4.2,4.1-2.4,7.4-8.1,7.3-12.8s-3.3-6.6-7.4-4.2Z"/>
          <path class="cls-13" d="M325.7,185.9c-4.1,2.4-7.4,8.1-7.3,12.8,0,4.7,3.3,6.6,7.4,4.2,4.1-2.4,7.4-8.1,7.3-12.8s-3.3-6.6-7.4-4.2Z"/>
          <path class="cls-14" d="M322.2,196.5c0,.6.1,1,.3,1.4.5,1.2,1.8,1.4,3.2.6,1.9-1.1,3.5-3.9,3.5-6.1,0-1.5-.7-2.3-1.7-2.5-.5,0-1.2,0-1.9.5-1.9,1.1-3.5,3.9-3.5,6.1Z"/>
          <path class="cls-4" d="M322.2,196.5c0,.6.1,1,.3,1.4.5,0,1.2,0,1.9-.5,1.9-1.1,3.5-3.9,3.5-6.1,0-.6-.1-1-.3-1.4-.5,0-1.2,0-1.9.5-1.9,1.1-3.5,3.9-3.5,6.1Z"/>
        </g>
        <g>
          <path class="cls-14" d="M321.8,216.2c0-1.6,1.1-3.5,2.5-4.3.7-.4,1.3-.4,1.8-.1h0s1.1.7,1.1.7l-.5.8s0,0,0,0c0,1.6-1.1,3.5-2.5,4.3,0,0,0,0,0,0l-.5.9-1.2-.7s0,0,0,0h0s0,0,0,0c-.4-.3-.7-.8-.7-1.6Z"/>
          <path class="cls-28" d="M321.8,216.2c0-1.6,1.1-3.5,2.5-4.3.7-.4,1.3-.4,1.8-.1h0s1.1.7,1.1.7l-.5.8s0,0,0,0c0,1.6-1.1,3.5-2.5,4.3,0,0,0,0,0,0l-.5.9-1.2-.7s0,0,0,0h0s0,0,0,0c-.4-.3-.7-.8-.7-1.6Z"/>
          <path class="cls-14" d="M328,214.1c0,1.6-1.1,3.5-2.5,4.3-1.4.8-2.5.2-2.5-1.4s1.1-3.5,2.5-4.3c1.4-.8,2.5-.2,2.5,1.4Z"/>
        </g>
        <g>
          <path class="cls-20" d="M321.8,226.8c0-1.6,1.1-3.5,2.5-4.3.7-.4,1.3-.4,1.8-.1h0s1.1.7,1.1.7l-.5.8s0,0,0,0c0,1.6-1.1,3.5-2.5,4.3,0,0,0,0,0,0l-.5.9-1.2-.7s0,0,0,0h0s0,0,0,0c-.4-.3-.7-.8-.7-1.6Z"/>
          <path class="cls-17" d="M328,224.7c0,1.6-1.1,3.5-2.5,4.3-1.4.8-2.5.2-2.5-1.4s1.1-3.5,2.5-4.3,2.5-.2,2.5,1.4Z"/>
        </g>
      </g>
      <g>
        <g>
          <polygon class="cls-1" points="288.6 133.3 288.6 150.7 284.8 148.5 284.8 131.2 288.6 133.3"/>
          <rect class="cls-4" x="275.4" y="154" width="15.1" height="4.3" transform="translate(6.3 323.2) rotate(-60)"/>
          <polygon class="cls-26" points="288.6 133.3 288.6 150.7 281 163.8 282.2 166.1 290.8 152 290.8 132.1 288.6 133.3"/>
          <polygon class="cls-4" points="282.2 166.1 278.4 163.9 277.3 161.6 281 163.8 282.2 166.1"/>
        </g>
        <g>
          <path class="cls-14" d="M326,110.3c2.2-1.8,4.3-2.3,6.1-1.6h0s10.7,5.1,10.7,5.1l-.2.7c.7.9,1.2,2.1,1.5,3.6.9,5.5-1.7,12.8-6,16.4-1.2,1-2.3,1.6-3.4,1.8l-.3.7-10.7-5.1h0c-1.8-.6-3.2-2.4-3.6-5.2-.9-5.5,1.7-12.8,6-16.4Z"/>
          <path class="cls-12" d="M326,110.3c2.2-1.8,4.3-2.3,6.1-1.6h0s10.7,5.1,10.7,5.1l-.2.7c.7.9,1.2,2.1,1.5,3.6.9,5.5-1.7,12.8-6,16.4-1.2,1-2.3,1.6-3.4,1.8l-.3.7-10.7-5.1h0c-1.8-.6-3.2-2.4-3.6-5.2-.9-5.5,1.7-12.8,6-16.4Z"/>
          <path class="cls-14" d="M337,115.5c-4.3,3.6-7,10.9-6,16.4.9,5.5,5.2,7,9.5,3.5,4.3-3.6,7-10.9,6-16.4-.9-5.5-5.2-7-9.5-3.5Z"/>
          <path class="cls-14" d="M335,128.5c.1.7.3,1.2.6,1.6.8,1.2,2.4,1.3,3.9,0,2-1.7,3.3-5.2,2.9-7.8-.3-1.7-1.2-2.6-2.4-2.6-.7,0-1.4.3-2.1.9-2,1.7-3.3,5.2-2.9,7.8Z"/>
          <path class="cls-28" d="M335,128.5c.1.7.3,1.2.6,1.6.8,1.2,2.4,1.3,3.9,0,2-1.7,3.3-5.2,2.9-7.8-.3-1.7-1.2-2.6-2.4-2.6-.7,0-1.4.3-2.1.9-2,1.7-3.3,5.2-2.9,7.8Z"/>
          <path class="cls-4" d="M335,128.5c.1.7.3,1.2.6,1.6.7,0,1.4-.3,2.1-.9,2-1.7,3.3-5.2,2.9-7.8-.1-.7-.3-1.2-.6-1.6-.7,0-1.4.3-2.1.9-2,1.7-3.3,5.2-2.9,7.8Z"/>
        </g>
        <path class="cls-14" d="M291.5,128.8l35.2-2.8c2-.3,3.3-2.2,3-4.1-.3-2-2.2-3.3-4.1-3,0,0,0,0-.1,0l-34.9,4.5c-1.5.3-2.5,1.7-2.2,3.2.3,1.5,1.7,2.4,3.1,2.2Z"/>
        <path class="cls-13" d="M291.5,128.8l35.2-2.8c2-.3,3.3-2.2,3-4.1-.3-2-2.2-3.3-4.1-3,0,0,0,0-.1,0l-34.9,4.5c-1.5.3-2.5,1.7-2.2,3.2.3,1.5,1.7,2.4,3.1,2.2Z"/>
        <g>
          <path class="cls-14" d="M282.7,116.5c1.5-1.3,3.1-1.6,4.3-1.1h0s7.6,3.9,7.6,3.9l-.2.5c.5.6.9,1.5,1.1,2.6.7,3.9-1.2,9.1-4.3,11.6-.8.7-1.7,1.1-2.4,1.3l-.2.5-7.6-3.9h0c-1.3-.4-2.2-1.7-2.6-3.7-.7-3.9,1.2-9.1,4.3-11.6Z"/>
          <path class="cls-12" d="M282.7,116.5c1.5-1.3,3.1-1.6,4.3-1.1h0s7.6,3.9,7.6,3.9l-.2.5c.5.6.9,1.5,1.1,2.6.7,3.9-1.2,9.1-4.3,11.6-.8.7-1.7,1.1-2.4,1.3l-.2.5-7.6-3.9h0c-1.3-.4-2.2-1.7-2.6-3.7-.7-3.9,1.2-9.1,4.3-11.6Z"/>
          <path class="cls-14" d="M290.4,120.5c-3,2.5-5,7.7-4.3,11.6.7,3.9,3.7,5,6.7,2.5,3-2.5,5-7.7,4.3-11.6-.7-3.9-3.7-5-6.7-2.5Z"/>
          <path class="cls-14" d="M289,129.7c0,.5.2.9.4,1.1.6.9,1.7.9,2.8,0,1.4-1.2,2.4-3.7,2-5.6-.2-1.2-.9-1.9-1.7-1.8-.5,0-1,.2-1.5.6-1.5,1.2-2.4,3.7-2,5.6Z"/>
          <path class="cls-28" d="M289,129.7c0,.5.2.9.4,1.1.6.9,1.7.9,2.8,0,1.4-1.2,2.4-3.7,2-5.6-.2-1.2-.9-1.9-1.7-1.8-.5,0-1,.2-1.5.6-1.5,1.2-2.4,3.7-2,5.6Z"/>
          <path class="cls-4" d="M289,129.7c0,.5.2.9.4,1.1.5,0,1-.2,1.5-.6,1.4-1.2,2.4-3.7,2-5.6,0-.5-.2-.9-.4-1.1-.5,0-1,.2-1.5.6-1.5,1.2-2.4,3.7-2,5.6Z"/>
        </g>
        <g>
          <polygon class="cls-4" points="284.8 126.8 281 124.6 262.2 126.8 266 129 284.8 126.8"/>
          <polygon class="cls-1" points="266 129 262.2 144.2 258.4 142 262.2 126.8 266 129"/>
          <polygon class="cls-26" points="284.8 129.5 284.8 126.8 266 129 262.2 144.2 264.8 144.2 267.9 131.5 284.8 129.5"/>
        </g>
      </g>
    </g>
  </g>
  <g id="Character_3" data-name="Character 3">
    <g id="Character">
      <path class="cls-14" d="M378,166.8c0,.4-1.3,1.2-1.3,1.2l.4-2.4,1,1.2Z"/>
      <path class="cls-28" d="M378,166.8c0,.4-1.3,1.2-1.3,1.2l.4-2.4,1,1.2Z"/>
      <g>
        <path class="cls-22" d="M360.8,183.7c-3.8,1.3-4.7,1.5-7.3,5.6-2.5,3.9-5.1,11.1-7.4,16.9-4.2-1.2-13-3.2-15.9-4.9-2.9-1.7-2.6-2.9-3.8-3.9-1.4-1.3-2.8-4.3-3.9-2.6-.8,1.1.8,1.9.7,3.3,0,1.4-4.4-1.9-6.2-3.2-1.2-.8-3.9,1.8-2.8,4.6,1,2.5,2.5,4.1,5.4,5.3,3,1.3,4.5,1.9,8.2,3.6,3.9,1.7,19.9,8.9,21.5,7.9,3.6-1.8,6.9-13,9.1-17.8s.7-9.8,2.3-14.6Z"/>
        <path class="cls-26" d="M361.7,183.3c-1.6,2.1-1,1.3-1.5,4.6-.4,2.7-6,28.2-11,29.2-2.2.5-18.2-6.8-22.1-9,1.3-1.9,2.6-4.3,3.1-6.7,4.6,1.8,12.6,3.6,15.5,4.5,1.3-3.7,3-7.5,4.5-11.3,2.9-7.1,4.5-12.2,11.5-11.3Z"/>
      </g>
      <g>
        <rect class="cls-23" x="377.1" y="298.9" width="6.2" height="10.7"/>
        <polygon class="cls-23" points="360.2 302.9 353.5 303.2 353.1 290.9 360.8 290.6 360.2 302.9"/>
        <path class="cls-14" d="M382.6,226.4c0,5.7.4,38.6.4,38.6.1,1.6,1.7,4.5,1.8,10.4.2,8.5-1.1,28.6-1.1,28.6,0,0-2.9,1.7-6.6.1,0,0-4.7-28.4-5.7-36.8-.9-7.4-3.6-26.6-3.6-26.6l-4,25s.7,4,.3,9c-.3,3.9-3.2,23.3-3.2,23.3,0,0-3.9,1.4-7.9,0,0,0-.6-30.2-.7-33.8,0-4.1,1.7-39.1,1.7-39.1l28.6,1.2Z"/>
        <path class="cls-19" d="M382.6,226.4c0,5.7.4,38.6.4,38.6.1,1.6,1.7,4.5,1.8,10.4.2,8.5-1.1,28.6-1.1,28.6,0,0-2.9,1.7-6.6.1,0,0-4.7-28.4-5.7-36.8-.9-7.4-3.6-26.6-3.6-26.6l-4,25s.7,4,.3,9c-.3,3.9-3.2,23.3-3.2,23.3,0,0-3.9,1.4-7.9,0,0,0-.6-30.2-.7-33.8,0-4.1,1.7-39.1,1.7-39.1l28.6,1.2Z"/>
        <path class="cls-1" d="M377.1,306.5s0-.9,0-.9c-.3,0-.5.3-.7,1.1,0,.6-.2,1-.4,1.8-.3,1.2-.5,1.9-1.1,3.2-.9,2.2-1.6,3-3.6,5.5-.5.6-1.6,1.6-1.9,2.2-.4.7-.5,2.5.1,3,2.3,1.6,5.9,1.6,8.4.9,1.9-.6,3.3-2.1,3.7-4.1,0-.6,0-1.2.1-1.7.2-1.3.8-2.5,1.6-3.6.4-.6.9-1.3,1.2-2,.5-1.3.1-2.7-.2-4-.3-1.1-.6-2.3-1-2.2,0,.1,0,.7,0,.7-.5.5-1.7,1-3.1,1.1-.9,0-3.1-.1-3.1-.8Z"/>
        <path class="cls-1" d="M353.4,301.1c-.4,0-.6.5-1.4,1.4-.9,1-2.5,2.1-4,2.9-2.5,1.3-7.5,3.2-9.7,4.2-1.4.6-1.3,2.3.1,3.3,1.4,1,4.9,1.7,9.1.7,2.3-.5,5.3-2.6,7.1-2.5,1.9.1,5.4,0,6.8-.9,1.4-1,.8-3,.4-4.8-.4-1.9-.9-4.9-1.5-4.8v.7c-.8,1.2-5.1,1.7-6.9.8v-1Z"/>
        <path class="cls-12" d="M367.8,240.7s-5.3-1.7-8.8-5.1c0,0,1.6,3,6.3,5.8l-1.1,21.9,3.6-22.5Z"/>
      </g>
      <g>
        <path class="cls-4" d="M372.4,183.2c1.3.3,4.3.7,6.5,1.3,1.6.5,2.3,2.5,2.7,4,1.1,4.8,1.3,15,1.3,15v23.6c-4,3-20.8,4.5-29.4-1.8,0,0,1.1-28.1,1.1-32.5s2.4-9.6,9.1-10l8.7.4Z"/>
        <path class="cls-14" d="M373.2,183.3h0c.9.2,1.5,1.2,1.1,2.1-.7,1.8-2,3.9-3.6,5.6-2.4,2.8-7.6,5-7.6,5,0,0-2.6-2.9-2.1-6.2s1.8-6,2.8-6.8c.3-.3.9-.4.9-.4v-.4s-2.6-.3-4.3.5-4.8,2.1-5.8,7.5c-1,5.4-1.8,35.6-1.8,35.6,0,0,10.4,9.4,30.8,2.5v-24.9s.4-11.6-2.7-19.2h0l-7.5-1.4v.4Z"/>
        <path class="cls-24" d="M353.1,213.3c1.7,3,9.5,4.8,16.2,4.9s12.3-1.8,14.2-3.6v-2.9c-1.9,1.8-7.5,3.7-14.2,3.6s-14.4-1.9-16.1-4.9v2.9Z"/>
        <path class="cls-24" d="M383.5,220c-1.9,1.8-7.5,3.7-14.2,3.6s-14.7-2-16.4-5v-2.9c1.8,3,9.6,4.9,16.4,5s12.3-1.8,14.2-3.6v3Z"/>
        <path class="cls-12" d="M363.1,196.1l-.5,34.3c-.5-.1-1-.2-1.5-.4l2-33.9Z"/>
        <g>
          <path class="cls-22" d="M390.3,216.3c-.9,1.4-1.9,2.8-2.8,4.3-.7,1-1.4,2-2.1,3.1-.5.7-.9,1.5-1.6,1.9-1.2.5-2.5.8-3.7.9-.8,0-1.5.1-2.2.4-.8.3-1.7.4-2.5.6-.2,0-.4.1-.6.3-.1.2,0,.5.2.7s.5.2.7.3c1,.2,2,.2,3,.1.1,0,.2,0,.3,0,0,0,.2.2.1.2,0,0,0,0-.1.1-.9.6-2,1-3,1.5-.9.5-1.8,1-2.7,1.5-.8.5-1.2,1.4-.8,2.2,0,0,0,.2.1.3.6,1.2,2.9,4.3,9.8,1.4,2.8-1.2,6.8-5.5,8.6-7.7,2.7-3.2,6.4-9.5,6.4-9.5l-7.1-2.6Z"/>
          <path class="cls-26" d="M380.7,184.4c4.7,0,6,2.8,10.5,10.7,3.9,6.9,9,15.5,9.2,19.1,0,1.2-5,9.2-8.6,13.3-3.1-.1-5.4-1.3-6.8-3.2.9-1.4,5.5-9.8,5.5-9.8l-8.3-12.7s-2.5-2.8-3.4-6.7c-.9-4.2-.2-8.4.5-10,0-.2.8-.5,1.4-.6Z"/>
        </g>
      </g>
      <g>
        <g>
          <path class="cls-1" d="M370.4,164.1c0,4.3-3.5,7.9-7.9,7.9s-7.9-3.5-7.9-7.9,3.5-7.9,7.9-7.9,7.9,3.5,7.9,7.9Z"/>
          <path class="cls-1" d="M376.7,169.9s-1.3,6-1.8,7c-.5,1-1.6,1.3-1.6,1.3v-4.2c0,0,3.4-4,3.4-4Z"/>
          <path class="cls-1" d="M375.2,160.5s1.3,0,2.3,1c1.1,1.1.5,5.1-.8,8.4l-2.4.3.9-9.7Z"/>
          <path class="cls-22" d="M373.6,170.2c.5.3,1.2-.6,1.8-1.3.6-.6,2.5-1.5,3.5.6,1,2.1-.9,4.8-2.4,5.3-2.6.8-3-.9-3-.9l-.2,9.8h0c-1.8,2.3-5,2.9-7.2,2.5-1.8-.3-3.1-1.1-1.4-3v-2.9s-2.4.4-3.5.2c-1.9-.3-3.2-1.8-3.7-3.9-.9-3.4-1.3-6.1-.5-12.7.9-7.3,9.3-7.3,13.9-4.5s2.8,10.8,2.8,10.8Z"/>
          <path class="cls-1" d="M363.2,163.6c2-.2,3.8-1.2,5.6-2.1.2.7.3,1.4.9,2,1.1,1.1,1.7,1.1,2.2,1.4.2,1.3.2,3,.2,4.3,0,.4,0,2.8,1.1,2.1.3-.2.7-.7.9-1,.4-.5.8-.9,1.2-1.3.3-.3.3-.9.3-1.3,0-.8,0-1.6,0-2.4,0-.8-.2-1.6-.3-2.4,0-.5.2-.9.3-1.3.1-.5.2-1,.2-1.5,0-1.6-1.3-3-2.8-3.7-2-1-4.5-1.2-6.7-1-1.5.1-2.9.2-4.3.4-.4,0-.8,0-1.2,0-.4,0-.9.3-1.3.5-.8.4-1.6.9-2.2,1.6-.7.8-1.3,1.8-1.4,2.9,0,.5,0,.8.3,1.1.4.3.9.7,1.4.9,1.6.9,3.8,1.1,5.6.9Z"/>
          <path class="cls-23" d="M364.7,180.3s4.3-.9,5.8-1.7c1-.5,1.8-1.5,2.1-2.1,0,0-.3,1.3-1.2,2.4-1.1,1.4-6.7,2.5-6.7,2.5v-1.1Z"/>
        </g>
        <g>
          <path class="cls-1" d="M364.8,169.3c0,.5.4,1,.9,1,.5,0,.9-.4.9-1s-.4-1-.9-1c-.5,0-.9.4-.9,1Z"/>
          <path class="cls-1" d="M365.7,166.2l1.9,1.1c.3-.6,0-1.2-.4-1.5-.5-.3-1.2,0-1.5.5Z"/>
          <path class="cls-23" d="M365,175l-2.1.8c.2.6.9.9,1.5.7.6-.2.9-.9.7-1.5Z"/>
          <path class="cls-1" d="M357.1,167l1.7-1.3c-.4-.5-1-.6-1.5-.2-.5.4-.6,1.1-.2,1.6Z"/>
          <path class="cls-1" d="M357.5,169.1c0,.5.4.9.9.9.5,0,.9-.4.9-.9s-.4-.9-.9-.9c-.5,0-.9.4-.9.9Z"/>
          <polygon class="cls-23" points="362.6 167.8 362.3 173.4 359.4 172.4 362.6 167.8"/>
        </g>
      </g>
      <g>
        <path class="cls-14" d="M378.5,163.4c0,1.2-.2,2.3-.5,3.4-.3-.3-.6-.6-.9-.8-1.7-1.4-3.9-2.6-6.2-3.4h0c-5.2-1.8-11.4-2.1-16.1-.2,0-1,.3-2,.6-2.9,1.6-4.6,6-7.9,11.2-7.9s11.9,5.3,11.9,11.9Z"/>
        <path class="cls-14" d="M372.3,152.1c-.6-.2-3.7-.8-3.9-.9-1.6-.3-4.1,0-6.4,2.3-3,3-3.4,6.8-3.4,6.8l3.3.7h1c.1-2.4,2.7-7.7,7-8.3.2,0,.4,0,.6,0,.5,0,1.1,0,1.7.2,0,0,1.2.7,1.8,1.2,0,0-.2-1.4-1.7-1.9Z"/>
        <path class="cls-18" d="M372.3,152.1c-.6-.2-3.7-.8-3.9-.9-1.6-.3-4.1,0-6.4,2.3-3,3-3.4,6.8-3.4,6.8l3.3.7h1c.1-2.4,2.7-7.7,7-8.3.2,0,.4,0,.6,0,.5,0,1.1,0,1.7.2,0,0,1.2.7,1.8,1.2,0,0-.2-1.4-1.7-1.9Z"/>
        <path class="cls-14" d="M362.9,161c.2-2.7,3.7-9.6,9.3-8.1,0,0,1.2.7,1.8,1.2,0,0-.2-1.4-1.7-1.9-1.5-.5-4.4-.6-7.1,2.1-3,3-3.4,6.8-3.4,6.8h1Z"/>
        <path class="cls-28" d="M362.9,161c.2-2.7,3.7-9.6,9.3-8.1,0,0,1.2.7,1.8,1.2,0,0-.2-1.4-1.7-1.9-1.5-.5-4.4-.6-7.1,2.1-3,3-3.4,6.8-3.4,6.8h1Z"/>
        <path class="cls-14" d="M370.9,161.5c-.2-.2-1.6-2.4-5.7-4.2-2.6-1.1-7.5-.7-9.8-.4-3.9.4-4.8,1.4-4.7,1.9,0,.1,0,.8,0,.9,0,.1,0,.3.1.4.7.8,4,2.1,4,2.1,4.8-1.8,10.9-1.6,16.1.2v-.9Z"/>
        <path class="cls-12" d="M370.9,161.5c-.2-.2-1.6-2.4-5.7-4.2-2.6-1.1-7.5-.7-9.8-.4-3.9.4-4.8,1.4-4.7,1.9,0,.1,0,.8,0,.9,0,.1,0,.3.1.4.7.8,4,2.1,4,2.1,4.8-1.8,10.9-1.6,16.1.2v-.9Z"/>
        <path class="cls-14" d="M370.9,162.5c-5.2-1.8-11.4-2.1-16.1-.2,0,0-3.3-1.2-4-2.1-.4-.5-.2-1.7,4.6-2.3,2.2-.2,7.2-.7,9.8.4,4.1,1.7,5.5,4,5.7,4.2Z"/>
        <path class="cls-28" d="M370.9,162.5c-5.2-1.8-11.4-2.1-16.1-.2,0,0-3.3-1.2-4-2.1-.4-.5-.2-1.7,4.6-2.3,2.2-.2,7.2-.7,9.8.4,4.1,1.7,5.5,4,5.7,4.2Z"/>
      </g>
    </g>
  </g>
  <g id="Character_2" data-name="Character 2">
    <g id="Character-2" data-name="Character">
      <path class="cls-1" d="M230.9,85.6c2.4,1.4,3,4.9,1.2,7.9s-5.1,4.3-7.5,2.9c-2.4-1.4-3-4.9-1.2-7.9s5.1-4.3,7.5-2.9Z"/>
      <path class="cls-26" d="M210.4,95s-3.7-.9-6.4,5.4c-1.5,3.5-6.6,16.5-6.6,16.5,0,0-7.3.7-12.3.7v6.5c5.9.5,14.9,1.1,16.7,0,2.4-1.4,10.1-20.2,10.1-20.2.8-7-1.5-8.9-1.5-8.9Z"/>
      <path class="cls-8" d="M180.6,117.2c-.9-.4-1.3-1.6-1.6-2.3-.5-1.3-.3-2.8-.3-3.3,0-.9-1.5-.3-1.8,1.3-.3,1.1,0,2.2-.5,2.4-.1,0-1.8-.4-2-.5-.9-.4-2.6-.9-3.5-.2-.3.2-.5.6-.5,1,0,.6.2,1.1,0,1.7,0,.3-.2.5-.2.8,0,.4.2.6.3,1,0,.5-.4.9-.3,1.4,0,.3.3.6.4,1,0,.2,0,.5,0,.7.1.4.5.7.9.9,1.4.7,2.7.8,4.2.9,1.2,0,2.8,0,4.2,0,.5,0,2.5.2,5.2.4v-6.5c-2.2,0-4,0-4.5-.4Z"/>
      <g>
        <path class="cls-14" d="M228.2,121.7c1.1,1.6,4.6,6.1,6.3,13.1,2.9,11.6-1.6,36.3-1.6,36.3.1,1.7,2.1,5,2.8,12.4.8,8.7-1.6,32.1-1.6,32.1,0,0-2.3,1.7-5.6.1,0,0-6.1-34.3-7.2-43-1-7.6-2.9-23.3-2.9-23.3l-4.4,23.2s.6,4.2.9,7.5c.5,5.1-4.5,30.7-4.5,30.7,0,0-2.3,1.2-5.6-.1,0,0-2.2-33.1-2.7-39.2-.5-6.3,1.2-21.1,2.4-32.8.4-3.5,2.2-14.4,2.8-17.5l20.9.5Z"/>
        <path class="cls-19" d="M228.2,121.7c1.1,1.6,4.6,6.1,6.3,13.1,2.9,11.6-1.6,36.3-1.6,36.3.1,1.7,2.1,5,2.8,12.4.8,8.7-1.6,32.1-1.6,32.1,0,0-2.3,1.7-5.6.1,0,0-6.1-34.3-7.2-43-1-7.6-2.9-23.3-2.9-23.3l-4.4,23.2s.6,4.2.9,7.5c.5,5.1-4.5,30.7-4.5,30.7,0,0-2.3,1.2-5.6-.1,0,0-2.2-33.1-2.7-39.2-.5-6.3,1.2-21.1,2.4-32.8.4-3.5,2.2-14.4,2.8-17.5l20.9.5Z"/>
        <path class="cls-1" d="M211.9,207.1c.6-4,2.6-9,1-9.5l-.3,1.8s-1.2.9-4,.9-4.5-1.6-4.5-1.6v-1.4c-1,.2-.9.8-.5,3.4.4,2.5,1,9.7.7,11.1-.3,1.3.7,2.3-2.5,5-3.2,2.7-5.5,4.7-7.7,5.8-2.1,1.1-4,2.3-1.3,3.9,0,0,0,0,0,0,.9.7,2.3,1.1,4.1,1.2,2.1,0,5.1-1.2,6.5-2.6,1.1-1.1,3.2-2.5,4.7-2.8,1.5-.2,3.6-1.6,3.8-2.6.2-.9,0-2.8-.4-4,0-.4-.1-.7-.2-1-.2-2.2,0-3.6.6-7.5Z"/>
        <path class="cls-3" d="M218.4,149.3l-1-7.2s-4.2,0-8.4-2.7c0,0,2.6,3.5,7.1,3.9l.7,6.4-2.1,20,3.8-20.4Z"/>
        <path class="cls-1" d="M234.6,219c0-3.2.8-10.7,1-13.2.2-2.4-.4-2.2-.4-2.2v1.5c-.1,0-1.3,1-4,1.1-2.7,0-4.5-1-4.5-1,0-.7-.2-1.4-.2-1.4-.8.5-.2,2.1.7,6.8s1.2,4.7.6,10.9-.8,9.4-.7,11.2h.1c.1,1,.4,2,1,3.2,1.3,2.7,4.3,1.3,5.5-.4.9-1.3,1.4-2.2,1.5-4h0s0,0,0,0c0-.5,0-1,0-1.6,0-1.9-.4-3-.6-4.7v-.5c0-.1,0-.2,0-.4,0,0,0-2.3,0-5.5Z"/>
      </g>
      <path class="cls-4" d="M206.9,114c.1,2.1.5,7.1.5,7.1,8.6,5.8,20.9.5,20.9.5l1.8-12.2s-4.5-6.3-.3-12.9l-6.7-1.3-8-.7-4.7.4c-2.6,1.9-4.4,5.8-5.2,8-.9,2.2-2.1,6.5,1.7,11Z"/>
      <path class="cls-14" d="M230,121.8l.5-12s-4.3-6.7-.1-13.3l-7-1.6v.7s1.3.3,1.3.3c-.8,2.3-5.8,7-10.9,7.8-2.5-2.3-1-6.1,0-8l.8-.2c.4-.3.5-.8.5-.8l-4.7.4c-2.6,1.9-4.6,6-5.4,8.2-.9,2.2-2.1,6.3,1.8,10.8.1,2.1.1,7.1.1,7.1l-2.3,14.6c19.1,6.2,30.5-1.4,30.5-1.4-1.7-4.3-5-12.4-5-12.4Z"/>
      <path class="cls-24" d="M206.8,119.6c.8,1.6,8.2,1.9,13.1,1.8,4.9-.1,10.2-2.2,10.2-2.2v-2.5c0,0-5.4,2-10.2,2.2-4.9.1-12.3-.2-13.1-1.8v2.5Z"/>
      <path class="cls-24" d="M230.9,124.1c-.5-1.3-.9-2.2-.9-2.2h0c-1,.3-5.8,1.9-10.1,2.1-4.9.1-12.3-.2-13.1-1.8v2.5c.8,1.6,8.2,1.9,13.1,1.8,4-.1,9.3-1.8,11-2.4Z"/>
      <path class="cls-12" d="M214.2,137.8c.8,0,1.5.2,2.2.2-.9-3.4-2.1-8.6-2.7-14.2-1.1-9.3,0-20.1,0-20.1-2.1,5.1-1.8,21.9.5,34.1Z"/>
      <g>
        <polygon class="cls-26" points="188.9 119.9 210.7 121.4 221.7 145.9 201 144 188.9 119.9"/>
        <path class="cls-12" d="M209.1,136.9c.2.7,1.4,2.8,3.9,3.1,2.9.4,5.6-1.1,5.6-1.1l-.9-2h-8.6Z"/>
        <path class="cls-12" d="M195.7,122.5s-.1-.3-.3-.8c-.2-.4,1-.7,2.7-.6l3.2.2c1.7.1,3.2.5,3.3.9l.3.8-9.3-.6Z"/>
        <g>
          <path class="cls-14" d="M193.7,119.8c-.1-.3.4-.4,1.1-.4h1.3c0,.1-.7-1.5,2.1-1.5,2.8,0,3.8,1.9,3.8,1.9,0,0,.6,0,1.4.1.8,0,1.5.3,1.6.6l.2.5-11.2-.8s0-.2-.2-.5Z"/>
          <path class="cls-28" d="M193.7,119.8c-.1-.3.4-.4,1.1-.4h1.3c0,.1-.7-1.5,2.1-1.5,2.8,0,3.8,1.9,3.8,1.9,0,0,.6,0,1.4.1.8,0,1.5.3,1.6.6l.2.5-11.2-.8s0-.2-.2-.5Z"/>
          <path class="cls-14" d="M204.5,122.4c-.1-.3-1.2-.7-2.5-.9,0,0,0,0,0-.1-.1-.4,0-.6.8-.6v-.3s-7.7-.5-7.7-.5l.4.3c1,0,1.5,0,1.7.7,0,0,0,0,0,.1-1.2,0-2,.2-1.9.6.2.4.3.8.3.8l9.3.6-.3-.8Z"/>
          <path class="cls-19" d="M204.5,122.4c-.1-.3-1.2-.7-2.5-.9,0,0,0,0,0-.1-.1-.4,0-.6.8-.6v-.3s-7.7-.5-7.7-.5l.4.3c1,0,1.5,0,1.7.7,0,0,0,0,0,.1-1.2,0-2,.2-1.9.6.2.4.3.8.3.8l9.3.6-.3-.8Z"/>
        </g>
      </g>
      <path class="cls-8" d="M222.9,129.1c-.7.4-1.2.8-1.7,1.1-.6.3-1.5-.1-2.1-.3-1.8-.4-2.9,0-4.5,0-1.3,0-2-.3-2.1,0-.2.4-.1,1.3.9,1.8.5.3,1.3.4,2.4.6,0,0-1.7.9-4.2,1.2-3.3.4-4.5,1.5-1.4,4.5,1.9,1.9,4.6,2.2,10.2-.7,1.1-.6,3.3-1.8,5.4-3l-2.8-5.2Z"/>
      <path class="cls-26" d="M237.5,104.2c-1.9-6.9-4.6-7.5-8.7-7.8-4.2,7.3,1.1,13.6,1.1,13.6l3.8,11.4c-.6.6-7,5.2-10.8,7.6l2.8,5.2c1-.5,1.9-1,2.7-1.4,5.9-2.9,13.7-6,13.8-9s-2.7-12.4-4.8-19.7Z"/>
      <g>
        <path class="cls-1" d="M206.6,81.6c-.1,0-.3,0-.4-.2-.8-.3-1.5-.9-2-1.6-.6-.9-.8-2-.6-3.1.2-1.1.8-2.1,2.2-3.3.5-.4.4-.2.8-.7.5-.5.8-1.1,1.1-1.7.1-.3.3-.6.4-.9.2-.5.5-1,.7-1.4.2-.3.5-.6.8-.8.7-.5,1.4-.9,2.2-1.3,1.6-.7,3.4-1.1,5.2-1.1,2.3,0,4.7.5,6.7,1.6,2.2,1.2,3.8,2.5,4.6,4.9.9,2.7,1.6,5.3,1.6,8.1,0,1.9-1,4-2,5.6-2.4,3.7-3.8,4.6-4.6,7.1-.3.8-1.5-.3-2.2-.5-2.1-.6-4.4-1-6.5-1.6-1.2-.4-2.1-1.5-2.7-2.5-.4-.5-.7-1.1-1-1.7-.8-1.4-1.5-2.9-2.7-4-.3-.3-.5-.5-.9-.7-.3-.1-.5-.2-.8-.3Z"/>
        <path class="cls-8" d="M209,73.8c-1.5.8-2.8,1.9-2.8,9.8,0,6.7,2.1,8.4,3.2,8.9,1.1.5,3.2.3,5.2,0v3s-1.5,3.4,2.5,3.7c5.5.4,6.3-3.2,6.3-3.2l.2-8.8s1.4,1.1,3.1-.6c1.6-1.7,1.4-4,.4-4.8-1.5-1.2-2.9-.8-3.8,1-4.4,0-6-5.5-6.3-8.6-2.4-2.5-5.3,4-7.9-.5Z"/>
        <path class="cls-1" d="M222.5,85.3l1-3.4c-.9-.3-2.3,0-2.3.9,0,1.1.3,2.2,1.3,2.5Z"/>
        <path class="cls-1" d="M207.2,73.3s1.1,6.2,9.8,6.4v-7.1l-9.8.6Z"/>
        <g>
          <path class="cls-1" d="M214,82c0,.5.3.9.8,1,.5,0,.9-.3.9-.8,0-.5-.3-.9-.8-1-.5,0-.9.3-.9.8Z"/>
          <path class="cls-11" d="M214.7,87.4l-2.6.8c.2.8,1,1.2,1.7,1,.7-.2,1.2-1,1-1.8Z"/>
          <path class="cls-1" d="M207,79.4l1.7-1.1c-.3-.5-.9-.6-1.4-.3-.5.3-.6.9-.3,1.4Z"/>
          <path class="cls-1" d="M207.2,81.6c0,.5.3.9.8,1,.5,0,.9-.3.9-.8,0-.5-.3-.9-.8-1-.5,0-.9.3-.9.8Z"/>
          <polygon class="cls-11" points="211.5 81.2 211.5 86.6 208.9 85.7 211.5 81.2"/>
          <path class="cls-11" d="M214.5,92.4c2.1-.2,6.5-1.3,7.2-3,0,0-.3,1.1-1.6,2.1-1.3,1.1-5.6,2.2-5.6,2.2v-1.3Z"/>
        </g>
      </g>
      <g>
        <path class="cls-14" d="M230.7,76.6c0,1.2-.4,2.4-.8,3.6-.3-.3-.6-.7-.9-1-1.7-1.7-3.8-3.1-6.2-4.1h0c-5.3-2.4-11.8-3.1-17-1.6.2-1,.5-2.1.9-3,2.1-4.7,7-7.8,12.5-7.4,6.9.6,12.1,6.6,11.5,13.6Z"/>
        <path class="cls-14" d="M225.1,64.2c-.6-.3-3.8-1.2-4.1-1.3-1.7-.5-4.3-.4-7,1.9-3.5,2.9-4.1,6.9-4.1,6.9l3.4,1h1.1c.4-2.4,3.5-7.8,8.1-8.1.2,0,.4,0,.6,0,.6,0,1.2.1,1.8.3,0,0,1.2.8,1.8,1.4,0,0-.1-1.5-1.6-2.2Z"/>
        <path class="cls-18" d="M225.1,64.2c-.6-.3-3.8-1.2-4.1-1.3-1.7-.5-4.3-.4-7,1.9-3.5,2.9-4.1,6.9-4.1,6.9l3.4,1h1.1c.4-2.4,3.5-7.8,8.1-8.1.2,0,.4,0,.6,0,.6,0,1.2.1,1.8.3,0,0,1.2.8,1.8,1.4,0,0-.1-1.5-1.6-2.2Z"/>
        <path class="cls-14" d="M214.4,72.8c.4-2.9,4.7-9.8,10.6-7.8,0,0,1.2.8,1.8,1.4,0,0-.1-1.5-1.6-2.2-1.5-.7-4.6-1-7.7,1.6-3.5,2.9-4.1,6.9-4.1,6.9h1.1Z"/>
        <path class="cls-28" d="M214.4,72.8c.4-2.9,4.7-9.8,10.6-7.8,0,0,1.2.8,1.8,1.4,0,0-.1-1.5-1.6-2.2-1.5-.7-4.6-1-7.7,1.6-3.5,2.9-4.1,6.9-4.1,6.9h1.1Z"/>
        <path class="cls-14" d="M222.9,74.1c-.2-.2-1.5-2.7-5.7-4.9-2.6-1.3-7.9-1.3-10.3-1.2-4.2.1-5.1,1-5.2,1.6,0,.1,0,.8,0,1,0,.2,0,.3,0,.4.6.9,4,2.5,4,2.5,5.2-1.5,11.7-.8,17,1.6v-1Z"/>
        <path class="cls-12" d="M222.9,74.1c-.2-.2-1.5-2.7-5.7-4.9-2.6-1.3-7.9-1.3-10.3-1.2-4.2.1-5.1,1-5.2,1.6,0,.1,0,.8,0,1,0,.2,0,.3,0,.4.6.9,4,2.5,4,2.5,5.2-1.5,11.7-.8,17,1.6v-1Z"/>
        <path class="cls-14" d="M222.8,75.1c-5.3-2.4-11.8-3.1-17-1.6,0,0-3.4-1.6-4-2.5-.3-.5,0-1.9,5.1-2,2.4,0,7.7,0,10.3,1.2,4.2,2.2,5.4,4.7,5.7,4.9Z"/>
        <path class="cls-28" d="M222.8,75.1c-5.3-2.4-11.8-3.1-17-1.6,0,0-3.4-1.6-4-2.5-.3-.5,0-1.9,5.1-2,2.4,0,7.7,0,10.3,1.2,4.2,2.2,5.4,4.7,5.7,4.9Z"/>
      </g>
    </g>
  </g>
  <g id="Character_1" data-name="Character 1">
    <g id="Character-3" data-name="Character">
      <g>
        <path class="cls-6" d="M101.5,133.9c3.8,1.3,4.8,1.6,7.4,5.7,2.6,4,5.2,11.3,7.5,17.2,4.2-1.2,13.2-3.3,16.1-5,3-1.7,2.7-2.9,3.9-4,1.4-1.3,2.9-4.3,4-2.7.8,1.1-.8,1.9-.7,3.3,0,1.4,4.5-2,6.3-3.2,1.2-.8,4,1.8,2.9,4.7-1,2.5-2.6,4.2-5.4,5.4-3,1.3-4.6,1.9-8.4,3.6-4,1.8-20.3,9-21.9,8-3.7-1.8-7-13.2-9.3-18.1-2.2-4.9-.8-10-2.4-14.9Z"/>
        <path class="cls-26" d="M100.5,133.4c1.6,2.2,1,1.3,1.5,4.6.4,2.7,6.1,28.6,11.2,29.7,2.3.5,18.5-7,22.4-9.1-1.3-2-2.7-4.4-3.1-6.9-4.7,1.8-12.9,3.7-15.8,4.6-1.4-3.8-3-7.6-4.6-11.4-3-7.2-4.6-12.4-11.7-11.5Z"/>
      </g>
      <g>
        <rect class="cls-6" x="78.5" y="251" width="6.3" height="10.8" transform="translate(163.3 512.9) rotate(180)"/>
        <polygon class="cls-6" points="102 255.1 108.9 255.3 109.3 242.8 101.4 242.6 102 255.1"/>
        <path class="cls-14" d="M79.3,177.3c0,5.8-.4,39.2-.4,39.2-.1,1.7-1.7,4.6-1.9,10.6-.2,8.7,1.2,29,1.2,29,0,0,2.9,1.7,6.7.1,0,0,4.7-28.8,5.8-37.4.9-7.5,3.6-27,3.6-27l4.1,25.4s-.7,4.1-.3,9.2c.3,4,3.3,23.7,3.3,23.7,0,0,3.9,1.5,8,0,0,0,.6-30.7.7-34.3,0-4.1-1.7-39.8-1.7-39.8l-29.1,1.2Z"/>
        <path class="cls-19" d="M79.3,177.3c0,5.8-.4,39.2-.4,39.2-.1,1.7-1.7,4.6-1.9,10.6-.2,8.7,1.2,29,1.2,29,0,0,2.9,1.7,6.7.1,0,0,4.7-28.8,5.8-37.4.9-7.5,3.6-27,3.6-27l4.1,25.4s-.7,4.1-.3,9.2c.3,4,3.3,23.7,3.3,23.7,0,0,3.9,1.5,8,0,0,0,.6-30.7.7-34.3,0-4.1-1.7-39.8-1.7-39.8l-29.1,1.2Z"/>
        <path class="cls-1" d="M84.8,258.7s0-.9,0-.9c.3,0,.5.3.7,1.1,0,.6.2,1,.4,1.8.3,1.2.6,1.9,1.1,3.2.9,2.2,1.6,3,3.7,5.6.5.6,1.6,1.6,2,2.3s.5,2.6-.1,3c-2.4,1.6-6,1.6-8.6.9-2-.6-3.4-2.2-3.7-4.2,0-.6,0-1.2-.1-1.8-.2-1.3-.8-2.6-1.6-3.7-.4-.6-.9-1.3-1.2-2-.5-1.3-.1-2.8.2-4.1.3-1.1.6-2.3,1-2.2,0,.1,0,.7,0,.7.5.5,1.7,1,3.2,1.1.9,0,3.2-.1,3.2-.9Z"/>
        <path class="cls-1" d="M109,253.2c.4,0,.7.5,1.4,1.4,1,1,2.5,2.2,4.1,2.9,2.6,1.3,7.6,3.3,9.9,4.3,1.4.6,1.4,2.4-.1,3.3-1.5,1-5,1.7-9.3.7-2.3-.5-5.3-2.7-7.3-2.5-1.9.1-5.5,0-6.9-.9-1.4-1-.8-3.1-.4-4.8.4-1.9.9-5,1.5-4.9v.7c.9,1.3,5.2,1.7,7,.8v-1.1Z"/>
        <path class="cls-12" d="M94.3,191.9s5.4-1.8,9-5.2c0,0-1.6,3-6.4,5.9l1.2,22.3-3.7-22.9Z"/>
      </g>
      <g>
        <path class="cls-4" d="M89.7,133.3c-1.3.3-4.4.7-6.6,1.3-1.7.5-2.4,2.5-2.7,4-1.1,4.9-1.3,15.2-1.3,15.2v24c4.1,3,21.2,4.6,29.9-1.8,0,0-1.1-28.6-1.1-33s-2.5-9.8-9.3-10.2l-8.9.4Z"/>
        <path class="cls-14" d="M88.8,133.5h0c-1,.2-1.5,1.2-1.1,2.2.8,1.8,2.1,3.9,3.7,5.7,2.5,2.8,7.7,5.1,7.7,5.1,0,0,2.6-2.9,2.1-6.3-.5-3.3-1.8-6.1-2.8-6.9-.3-.3-.9-.4-.9-.4v-.4s2.6-.3,4.4.5c1.8.8,4.9,2.1,5.9,7.6,1,5.5,1.9,36.2,1.9,36.2,0,0-10.5,9.6-31.3,2.6v-25.3s-.4-11.8,2.8-19.6h0l7.6-1.5v.4Z"/>
        <path class="cls-24" d="M109.3,164c-1.7,3.1-9.6,4.9-16.4,5-6.8.1-12.5-1.9-14.4-3.7v-3c1.9,1.8,7.6,3.8,14.4,3.7,6.8-.1,14.6-2,16.3-5v3Z"/>
        <path class="cls-24" d="M78.4,170.8c1.9,1.8,7.6,3.8,14.4,3.7,6.8-.1,14.9-2,16.6-5.1v-3c-1.8,3.1-9.8,4.9-16.6,5.1-6.8.1-12.5-1.9-14.4-3.7v3Z"/>
        <path class="cls-12" d="M99.1,146.5l.5,34.8c.5-.1,1-.2,1.5-.4l-2-34.5Z"/>
        <g>
          <path class="cls-6" d="M71.5,167.1c1,1.5,1.9,2.9,2.9,4.3.7,1,1.4,2.1,2.1,3.1.5.7.9,1.6,1.7,1.9,1.2.6,2.5.8,3.8.9.8,0,1.5.1,2.2.4.8.3,1.7.4,2.6.6.2,0,.4.1.6.3.2.2,0,.6-.2.7-.2.2-.5.3-.8.3-1,.2-2,.3-3.1.1-.1,0-.2,0-.3,0s-.2.2-.1.3c0,0,0,0,.1.1,1,.6,2,1,3.1,1.5.9.5,1.9,1,2.8,1.6.8.5,1.2,1.4.8,2.3,0,0,0,.2-.1.3-.6,1.2-3,4.4-9.9,1.4-2.9-1.2-6.9-5.6-8.8-7.9-2.8-3.3-6.5-9.6-6.5-9.6,0,0,7.3-2.6,7.3-2.6Z"/>
          <path class="cls-26" d="M81.2,134.6c-4.8,0-6.1,2.8-10.7,10.9-4,7-9.2,15.8-9.3,19.4,0,1.2,5.1,9.3,8.7,13.5,3.2-.1,5.5-1.4,7-3.2-.9-1.5-5.6-10-5.6-10l8.4-13s2.5-2.8,3.4-6.8c1-4.2.2-8.5-.5-10.2,0-.2-.8-.5-1.4-.6Z"/>
        </g>
      </g>
      <g>
        <g>
          <circle class="cls-1" cx="99.1" cy="114.2" r="8" transform="translate(-17 17.4) rotate(-9.2)"/>
          <path class="cls-1" d="M85.3,119.9s1.3,6.1,1.8,7.1c.5,1,1.6,1.3,1.6,1.3v-4.3c0,0-3.4-4.1-3.4-4.1Z"/>
          <path class="cls-1" d="M86.8,110.3s-1.3,0-2.4,1c-1.1,1.1-.5,5.2.8,8.6l2.4.3-.9-9.9Z"/>
          <path class="cls-6" d="M88.5,120.2c-.5.3-1.2-.6-1.8-1.3-.6-.6-2.6-1.5-3.6.6-1,2.1.9,4.9,2.4,5.4,2.7.8,3.1-.9,3.1-.9l.2,9.9h0c1.8,2.4,5.1,2.9,7.3,2.5,1.8-.3,3.1-1.1,1.4-3.1v-2.9s2.4.4,3.6.2c2-.3,3.2-1.9,3.8-4,1-3.4,1.3-6.2.5-12.9-.9-7.4-9.5-7.5-14.1-4.5-4.6,2.9-2.9,11-2.9,11Z"/>
          <path class="cls-1" d="M99,113.5c-2-.2-3.9-1.2-5.7-2.1-.2.7-.3,1.4-.9,2-1.1,1.1-1.8,1.2-2.2,1.4-.2,1.3-.2,3-.2,4.4,0,.5,0,2.8-1.1,2.1-.3-.2-.7-.8-.9-1-.4-.5-.8-1-1.2-1.4-.3-.3-.3-1-.3-1.3,0-.8,0-1.6,0-2.4,0-.8.2-1.6.3-2.5,0-.5-.2-.9-.3-1.4-.1-.5-.2-1-.2-1.6,0-1.7,1.4-3.1,2.8-3.8,2.1-1,4.6-1.2,6.9-1,1.5.1,2.9.2,4.4.4,1.6.2,3.2.1,4.9,0,.7,0,1.6-.2,2.1.3.4.4.5,1.1.4,1.7-.2.6-.5,1.1-.9,1.6.2-.2.6-.1.7,0s.2.6,0,.8c-.5,1.1-1.8,2.2-2.8,2.7-1.6.9-3.8,1.1-5.7.9Z"/>
          <path class="cls-1" d="M86.4,111.1l-3-1.6c.4-.8,1.4-1.2,2.2-.7.8.4,1.1,1.5.7,2.3Z"/>
          <path class="cls-9" d="M97.5,130.4s-4.4-.9-5.9-1.7c-1-.5-1.9-1.5-2.1-2.1,0,0,.3,1.3,1.2,2.5,1.1,1.4,6.8,2.5,6.8,2.5v-1.2Z"/>
        </g>
        <g>
          <path class="cls-1" d="M97.4,119.3c0,.5-.4,1-.9,1-.5,0-.9-.4-.9-1s.4-1,.9-1c.5,0,.9.4.9,1Z"/>
          <path class="cls-1" d="M96.4,116.1l-1.9,1.1c-.3-.6,0-1.3.5-1.6.5-.3,1.2,0,1.5.5Z"/>
          <path class="cls-9" d="M97.2,125l2.2.8c-.2.6-.9.9-1.5.7-.6-.2-.9-.9-.7-1.5Z"/>
          <path class="cls-1" d="M105.2,116.9l-1.8-1.4c.4-.5,1.1-.6,1.5-.2.5.4.6,1.1.2,1.6Z"/>
          <path class="cls-1" d="M104.8,119.1c0,.5-.4.9-.9.9-.5,0-.9-.4-.9-.9s.4-.9.9-.9c.5,0,.9.4.9.9Z"/>
          <polygon class="cls-9" points="99.6 117.7 99.9 123.4 102.9 122.4 99.6 117.7"/>
        </g>
      </g>
    </g>
  </g>
  <g id="Machine">
    <g id="Production_Line" data-name="Production Line">
      <g>
        <g>
          <g>
            <polygon class="cls-14" points="112.8 309.5 95.6 319.4 95.6 323 112.8 313.1 112.8 309.5"/>
            <polygon class="cls-15" points="112.8 309.5 95.6 319.4 95.6 323 112.8 313.1 112.8 309.5"/>
            <polygon class="cls-14" points="95.6 319.4 46.9 291.3 46.9 294.9 95.6 323 95.6 319.4"/>
            <polygon class="cls-2" points="95.6 319.4 46.9 291.3 46.9 294.9 95.6 323 95.6 319.4"/>
            <polygon class="cls-14" points="95.6 319.4 112.8 309.5 64.1 281.4 46.9 291.3 95.6 319.4"/>
            <polygon class="cls-16" points="95.6 319.4 112.8 309.5 64.1 281.4 46.9 291.3 95.6 319.4"/>
          </g>
          <g>
            <polygon class="cls-26" points="102.6 282.5 102.6 310.7 99.7 312.4 99.7 284.2 102.6 282.5"/>
            <polygon class="cls-1" points="96.8 282.5 96.8 310.7 99.7 312.4 99.7 284.2 96.8 282.5"/>
          </g>
          <polygon class="cls-4" points="108.8 275.4 91.6 285.4 91.6 289 108.8 279 108.8 275.4"/>
          <polygon class="cls-26" points="91.6 289 88.5 287.2 91.6 285.4 91.6 289"/>
        </g>
        <g>
          <g>
            <polygon class="cls-14" points="173.8 274.3 156.6 284.3 156.6 287.9 173.8 277.9 173.8 274.3"/>
            <polygon class="cls-15" points="173.8 274.3 156.6 284.3 156.6 287.9 173.8 277.9 173.8 274.3"/>
            <polygon class="cls-14" points="156.6 284.3 107.8 256.1 107.8 259.7 156.6 287.9 156.6 284.3"/>
            <polygon class="cls-2" points="156.6 284.3 107.8 256.1 107.8 259.7 156.6 287.9 156.6 284.3"/>
            <polygon class="cls-14" points="156.6 284.3 173.8 274.3 125 246.2 107.8 256.1 156.6 284.3"/>
            <polygon class="cls-16" points="156.6 284.3 173.8 274.3 125 246.2 107.8 256.1 156.6 284.3"/>
          </g>
          <g>
            <polygon class="cls-26" points="163.5 247.4 163.5 275.6 160.6 277.2 160.6 249 163.5 247.4"/>
            <polygon class="cls-1" points="157.7 247.4 157.7 275.6 160.6 277.2 160.6 249 157.7 247.4"/>
          </g>
          <polygon class="cls-4" points="169.7 240.3 152.5 250.2 152.5 253.8 169.7 243.9 169.7 240.3"/>
          <polygon class="cls-26" points="152.5 253.8 149.4 252 152.5 250.2 152.5 253.8"/>
        </g>
        <g>
          <g>
            <polygon class="cls-14" points="214.4 250.9 197.2 260.8 197.2 264.4 214.4 254.5 214.4 250.9"/>
            <polygon class="cls-15" points="214.4 250.9 197.2 260.8 197.2 264.4 214.4 254.5 214.4 250.9"/>
            <polygon class="cls-14" points="197.2 260.8 148.4 232.7 148.4 236.3 197.2 264.4 197.2 260.8"/>
            <polygon class="cls-2" points="197.2 260.8 148.4 232.7 148.4 236.3 197.2 264.4 197.2 260.8"/>
            <polygon class="cls-14" points="197.2 260.8 214.4 250.9 165.6 222.7 148.4 232.7 197.2 260.8"/>
            <polygon class="cls-16" points="197.2 260.8 214.4 250.9 165.6 222.7 148.4 232.7 197.2 260.8"/>
          </g>
          <g>
            <polygon class="cls-26" points="204.2 223.9 204.2 252.1 201.2 253.8 201.2 225.6 204.2 223.9"/>
            <polygon class="cls-1" points="198.3 223.9 198.3 252.1 201.2 253.8 201.2 225.6 198.3 223.9"/>
          </g>
          <polygon class="cls-4" points="210.3 216.8 193.1 226.7 193.1 230.3 210.3 220.4 210.3 216.8"/>
          <polygon class="cls-26" points="193.1 230.3 190 228.5 193.1 226.7 193.1 230.3"/>
        </g>
        <g>
          <path class="cls-14" d="M31.9,253.1l150.3-86.8c2-1.2,3.9-1.3,5.2-.6l44.5,25.7c1.2.7,1.9,2.1,1.9,4.2,0,4.3-3.2,9.5-7.1,11.8l-149.8,86.5c-2.1,1.2-4,1.3-5.4.5l-44.4-25.6c-1.2-.7-2-2.1-2-4-.1-4.2,2.9-9.4,6.8-11.6Z"/>
          <path class="cls-14" d="M226.6,207.4l-149.8,86.5c-2.1,1.2-4,1.3-5.4.5-1.2-.7-1.9-2.1-2-4-.1-4.2,2.9-9.4,6.8-11.6l150.3-86.8c2-1.2,3.9-1.3,5.2-.6,1.2.7,1.9,2.1,1.9,4.2,0,4.3-3.2,9.5-7.1,11.8Z"/>
          <path class="cls-29" d="M226.6,207.4l-149.8,86.5c-2.1,1.2-4,1.3-5.4.5-1.2-.7-1.9-2.1-2-4-.1-4.2,2.9-9.4,6.8-11.6l150.3-86.8c2-1.2,3.9-1.3,5.2-.6,1.2.7,1.9,2.1,1.9,4.2,0,4.3-3.2,9.5-7.1,11.8Z"/>
          <path class="cls-4" d="M73.5,292.7c.5,0,1.3-.1,2.3-.8l149.8-86.5c3.3-1.9,6-6.4,6-9.9s-.3-2-.8-2.3c-.2-.1-.4-.2-.7-.2-.4,0-1.2.1-2.2.7l-150.3,86.8c-3.2,1.9-5.9,6.3-5.7,9.7,0,.6.2,1.7.9,2.2.2.1.5.2.9.2h0Z"/>
          <g>
            <path class="cls-1" d="M80.6,281.4c-1.2.7-2.2,2.4-2.2,3.8s1,2,2.2,1.3c1.2-.7,2.2-2.4,2.2-3.8s-1-2-2.2-1.3Z"/>
            <path class="cls-1" d="M80.6,281.4c-1.2.7-2.2,2.4-2.2,3.8s1,2,2.2,1.3c1.2-.7,2.2-2.4,2.2-3.8s-1-2-2.2-1.3Z"/>
            <path class="cls-1" d="M100.9,269.7c-1.2.7-2.2,2.4-2.2,3.8s1,2,2.2,1.3c1.2-.7,2.2-2.4,2.2-3.8s-1-2-2.2-1.3Z"/>
            <path class="cls-1" d="M121.1,258c-1.2.7-2.2,2.4-2.2,3.8s1,2,2.2,1.3c1.2-.7,2.2-2.4,2.2-3.8s-1-2-2.2-1.3Z"/>
            <path class="cls-1" d="M141.4,246.4c-1.2.7-2.2,2.4-2.2,3.8,0,1.4,1,2,2.2,1.3,1.2-.7,2.2-2.4,2.2-3.8s-1-2-2.2-1.3Z"/>
            <path class="cls-1" d="M161.6,234.7c-1.2.7-2.2,2.4-2.2,3.8,0,1.4,1,2,2.2,1.3,1.2-.7,2.2-2.4,2.2-3.8s-1-2-2.2-1.3Z"/>
            <path class="cls-1" d="M181.9,223c-1.2.7-2.2,2.4-2.2,3.8s1,2,2.2,1.3c1.2-.7,2.2-2.4,2.2-3.8s-1-2-2.2-1.3Z"/>
            <path class="cls-1" d="M202.1,211.3c-1.2.7-2.2,2.4-2.2,3.8s1,2,2.2,1.3c1.2-.7,2.2-2.4,2.2-3.8s-1-2-2.2-1.3Z"/>
            <path class="cls-1" d="M222.4,199.6c-1.2.7-2.2,2.4-2.2,3.8s1,2,2.2,1.3c1.2-.7,2.2-2.4,2.2-3.8s-1-2-2.2-1.3Z"/>
          </g>
          <g>
            <polygon class="cls-29" points="90.6 273 88.4 274.3 88.4 271.8 90.6 270.5 90.6 273"/>
            <polygon class="cls-29" points="90.4 273.2 88.2 274.4 88.2 271.9 90.4 270.6 90.4 273.2"/>
            <polygon class="cls-29" points="110.5 261.5 108.3 262.8 108.3 260.3 110.5 259 110.5 261.5"/>
            <polygon class="cls-29" points="130.7 249.9 128.5 251.2 128.5 248.7 130.7 247.4 130.7 249.9"/>
            <polygon class="cls-29" points="150.8 238.3 148.6 239.6 148.6 237 150.8 235.7 150.8 238.3"/>
            <polygon class="cls-29" points="171 226.6 168.7 227.9 168.7 225.4 171 224.1 171 226.6"/>
            <polygon class="cls-29" points="191.1 215 188.9 216.3 188.9 213.8 191.1 212.5 191.1 215"/>
            <polygon class="cls-29" points="211.2 203.4 209 204.7 209 202.1 211.2 200.9 211.2 203.4"/>
          </g>
          <g>
            <polygon class="cls-29" points="88.4 271.8 90.6 270.5 46.2 244.9 43.9 246.1 88.4 271.8"/>
            <polygon class="cls-29" points="88.2 271.9 90.4 270.6 45.9 245 43.7 246.3 88.2 271.9"/>
            <polygon class="cls-29" points="108.3 260.3 110.5 259 66.1 233.3 63.9 234.6 108.3 260.3"/>
            <polygon class="cls-29" points="128.5 248.7 130.7 247.4 86.2 221.7 84 223 128.5 248.7"/>
            <polygon class="cls-29" points="148.6 237 150.8 235.7 106.4 210.1 104.1 211.4 148.6 237"/>
            <polygon class="cls-29" points="168.7 225.4 171 224.1 126.5 198.5 124.3 199.7 168.7 225.4"/>
            <polygon class="cls-29" points="188.9 213.8 191.1 212.5 146.6 186.8 144.4 188.1 188.9 213.8"/>
            <polygon class="cls-29" points="209 202.1 211.2 200.9 166.8 175.2 164.6 176.5 209 202.1"/>
          </g>
        </g>
      </g>
      <g>
        <g>
          <g>
            <polygon class="cls-14" points="354.7 365.8 371.9 375.7 371.9 379.3 354.7 369.4 354.7 365.8"/>
            <polygon class="cls-15" points="354.7 365.8 371.9 375.7 371.9 379.3 354.7 369.4 354.7 365.8"/>
            <polygon class="cls-14" points="371.9 375.7 420.6 347.6 420.6 351.2 371.9 379.3 371.9 375.7"/>
            <polygon class="cls-2" points="371.9 375.7 420.6 347.6 420.6 351.2 371.9 379.3 371.9 375.7"/>
            <polygon class="cls-14" points="371.9 375.7 354.7 365.8 403.4 337.7 420.6 347.6 371.9 375.7"/>
            <polygon class="cls-16" points="371.9 375.7 354.7 365.8 403.4 337.7 420.6 347.6 371.9 375.7"/>
          </g>
          <g>
            <polygon class="cls-26" points="364.9 338.8 364.9 367 367.8 368.7 367.8 340.5 364.9 338.8"/>
            <polygon class="cls-1" points="370.7 338.8 370.7 367 367.8 368.7 367.8 340.5 370.7 338.8"/>
          </g>
          <polygon class="cls-4" points="358.7 331.7 375.9 341.6 375.9 345.2 358.7 335.3 358.7 331.7"/>
          <polygon class="cls-26" points="375.9 345.2 379 343.4 375.9 341.6 375.9 345.2"/>
        </g>
        <g>
          <g>
            <polygon class="cls-14" points="283.6 324.8 300.8 334.7 300.8 338.3 283.6 328.4 283.6 324.8"/>
            <polygon class="cls-15" points="283.6 324.8 300.8 334.7 300.8 338.3 283.6 328.4 283.6 324.8"/>
            <polygon class="cls-14" points="300.8 334.7 349.5 306.5 349.5 310.1 300.8 338.3 300.8 334.7"/>
            <polygon class="cls-2" points="300.8 334.7 349.5 306.5 349.5 310.1 300.8 338.3 300.8 334.7"/>
            <polygon class="cls-14" points="300.8 334.7 283.6 324.8 332.3 296.6 349.5 306.5 300.8 334.7"/>
            <polygon class="cls-16" points="300.8 334.7 283.6 324.8 332.3 296.6 349.5 306.5 300.8 334.7"/>
          </g>
          <g>
            <polygon class="cls-26" points="293.8 297.8 293.8 326 296.7 327.7 296.7 299.5 293.8 297.8"/>
            <polygon class="cls-1" points="299.6 297.8 299.6 326 296.7 327.7 296.7 299.5 299.6 297.8"/>
          </g>
          <polygon class="cls-4" points="287.6 290.7 304.8 300.6 304.8 304.2 287.6 294.3 287.6 290.7"/>
          <polygon class="cls-26" points="304.8 304.2 307.9 302.4 304.8 300.6 304.8 304.2"/>
        </g>
        <g>
          <g>
            <polygon class="cls-14" points="212.5 283.7 229.7 293.6 229.7 297.2 212.5 287.3 212.5 283.7"/>
            <polygon class="cls-15" points="212.5 283.7 229.7 293.6 229.7 297.2 212.5 287.3 212.5 283.7"/>
            <polygon class="cls-14" points="229.7 293.6 278.4 265.5 278.4 269.1 229.7 297.2 229.7 293.6"/>
            <polygon class="cls-2" points="229.7 293.6 278.4 265.5 278.4 269.1 229.7 297.2 229.7 293.6"/>
            <polygon class="cls-14" points="229.7 293.6 212.5 283.7 261.2 255.6 278.4 265.5 229.7 293.6"/>
            <polygon class="cls-16" points="229.7 293.6 212.5 283.7 261.2 255.6 278.4 265.5 229.7 293.6"/>
          </g>
          <g>
            <polygon class="cls-26" points="222.7 256.7 222.7 284.9 225.6 286.6 225.6 258.4 222.7 256.7"/>
            <polygon class="cls-1" points="228.5 256.7 228.5 284.9 225.6 286.6 225.6 258.4 228.5 256.7"/>
          </g>
          <polygon class="cls-4" points="216.5 249.6 233.7 259.6 233.7 263.2 216.5 253.2 216.5 249.6"/>
          <polygon class="cls-26" points="233.7 263.2 236.9 261.4 233.7 259.6 233.7 263.2"/>
        </g>
        <g>
          <path class="cls-14" d="M438.1,310.8l-190.8-110.2c-2-1.2-3.9-1.3-5.2-.6l-44.5,25.7c-1.2.7-1.9,2.1-1.9,4.2,0,4.3,3.2,9.5,7.1,11.8l190.3,109.8c2.1,1.2,4,1.3,5.4.5l44.4-25.6c1.2-.7,2-2.1,2-4,.1-4.2-2.9-9.4-6.8-11.6Z"/>
          <path class="cls-14" d="M202.8,241.7l190.3,109.8c2.1,1.2,4,1.3,5.4.5,1.2-.7,1.9-2.1,2-4,.1-4.2-2.9-9.4-6.8-11.6l-190.8-110.2c-2-1.2-3.9-1.3-5.2-.6-1.2.7-1.9,2.1-1.9,4.2,0,4.3,3.2,9.5,7.1,11.8Z"/>
          <path class="cls-29" d="M202.8,241.7l190.3,109.8c2.1,1.2,4,1.3,5.4.5,1.2-.7,1.9-2.1,2-4,.1-4.2-2.9-9.4-6.8-11.6l-190.8-110.2c-2-1.2-3.9-1.3-5.2-.6-1.2.7-1.9,2.1-1.9,4.2,0,4.3,3.2,9.5,7.1,11.8Z"/>
          <path class="cls-4" d="M396.5,350.4c-.5,0-1.3-.1-2.3-.8l-190.3-109.8c-3.3-1.9-6-6.4-6-9.9s.3-2,.8-2.3c.2-.1.4-.2.7-.2.4,0,1.2.1,2.2.7l190.8,110.2c3.2,1.9,5.9,6.3,5.7,9.7,0,.6-.2,1.7-.9,2.2-.2.1-.5.2-.9.2h0Z"/>
          <g>
            <path class="cls-1" d="M389.3,339.1c1.2.7,2.2,2.4,2.2,3.8s-1,2-2.2,1.3c-1.2-.7-2.2-2.4-2.2-3.8s1-2,2.2-1.3Z"/>
            <path class="cls-1" d="M369.1,327.4c1.2.7,2.2,2.4,2.2,3.8s-1,2-2.2,1.3c-1.2-.7-2.2-2.4-2.2-3.8s1-2,2.2-1.3Z"/>
            <path class="cls-1" d="M348.9,315.8c1.2.7,2.2,2.4,2.2,3.8s-1,2-2.2,1.3c-1.2-.7-2.2-2.4-2.2-3.8s1-2,2.2-1.3Z"/>
            <path class="cls-1" d="M328.6,304.1c1.2.7,2.2,2.4,2.2,3.8,0,1.4-1,2-2.2,1.3-1.2-.7-2.2-2.4-2.2-3.8s1-2,2.2-1.3Z"/>
            <path class="cls-1" d="M308.4,292.4c1.2.7,2.2,2.4,2.2,3.8s-1,2-2.2,1.3c-1.2-.7-2.2-2.4-2.2-3.8s1-2,2.2-1.3Z"/>
            <path class="cls-1" d="M288.1,280.7c1.2.7,2.2,2.4,2.2,3.8s-1,2-2.2,1.3c-1.2-.7-2.2-2.4-2.2-3.8s1-2,2.2-1.3Z"/>
            <path class="cls-1" d="M267.9,269c1.2.7,2.2,2.4,2.2,3.8s-1,2-2.2,1.3c-1.2-.7-2.2-2.4-2.2-3.8s1-2,2.2-1.3Z"/>
            <path class="cls-1" d="M247.6,257.3c1.2.7,2.2,2.4,2.2,3.8s-1,2-2.2,1.3c-1.2-.7-2.2-2.4-2.2-3.8s1-2,2.2-1.3Z"/>
            <path class="cls-1" d="M227.4,245.6c1.2.7,2.2,2.4,2.2,3.8s-1,2-2.2,1.3c-1.2-.7-2.2-2.4-2.2-3.8s1-2,2.2-1.3Z"/>
            <path class="cls-1" d="M207.1,233.9c1.2.7,2.2,2.4,2.2,3.8s-1,2-2.2,1.3c-1.2-.7-2.2-2.4-2.2-3.8s1-2,2.2-1.3Z"/>
          </g>
          <g>
            <polygon class="cls-29" points="379.3 330.8 381.6 332 381.6 329.5 379.3 328.2 379.3 330.8"/>
            <polygon class="cls-29" points="359.2 319.1 361.4 320.4 361.4 317.9 359.2 316.6 359.2 319.1"/>
            <polygon class="cls-29" points="339.1 307.5 341.3 308.8 341.3 306.3 339.1 305 339.1 307.5"/>
            <polygon class="cls-29" points="318.9 295.9 321.1 297.2 321.2 294.6 318.9 293.3 318.9 295.9"/>
            <polygon class="cls-29" points="298.8 284.2 301 285.5 301 283 298.8 281.7 298.8 284.2"/>
            <polygon class="cls-29" points="278.6 272.6 280.9 273.9 280.9 271.4 278.6 270.1 278.6 272.6"/>
            <polygon class="cls-29" points="258.5 261 260.7 262.3 260.7 259.7 258.5 258.5 258.5 261"/>
            <polygon class="cls-29" points="238.4 249.4 240.6 250.6 240.6 248.1 238.4 246.8 238.4 249.4"/>
            <polygon class="cls-29" points="218.2 237.7 220.4 239 220.4 236.5 218.2 235.2 218.2 237.7"/>
          </g>
          <g>
            <polygon class="cls-29" points="381.6 329.5 379.3 328.2 423.8 302.6 426 303.9 381.6 329.5"/>
            <polygon class="cls-29" points="361.4 317.9 359.2 316.6 403.7 290.9 405.9 292.2 361.4 317.9"/>
            <polygon class="cls-29" points="341.3 306.3 339.1 305 383.5 279.3 385.7 280.6 341.3 306.3"/>
            <polygon class="cls-29" points="321.2 294.6 318.9 293.3 363.4 267.7 365.6 269 321.2 294.6"/>
            <polygon class="cls-29" points="301 283 298.8 281.7 343.2 256.1 345.5 257.3 301 283"/>
            <polygon class="cls-29" points="280.9 271.4 278.6 270.1 323.1 244.4 325.3 245.7 280.9 271.4"/>
            <polygon class="cls-29" points="260.7 259.7 258.5 258.5 303 232.8 305.2 234.1 260.7 259.7"/>
            <polygon class="cls-29" points="240.6 248.1 238.4 246.8 282.8 221.2 285 222.5 240.6 248.1"/>
            <polygon class="cls-29" points="220.4 236.5 218.2 235.2 262.7 209.5 264.9 210.8 220.4 236.5"/>
          </g>
        </g>
      </g>
    </g>
  </g>
  <g id="Boxes">
    <g id="Box">
      <g id="Box-2" data-name="Box">
        <g id="Back_box" data-name="Back box">
          <polygon class="cls-5" points="61.7 245.9 87.5 231 113.3 245.9 87.5 260.8 61.7 245.9"/>
          <polygon class="cls-26" points="87.5 231 87.5 205.5 61.2 220.7 83.2 233.5 87.5 231"/>
          <polygon class="cls-1" points="87.5 205.5 87.5 231 91.8 233.5 113.9 220.7 87.5 205.5"/>
        </g>
        <g id="Front_Box" data-name="Front Box">
          <polygon class="cls-1" points="61.2 220.7 61.2 245.6 87.5 260.8 87.5 236 61.2 220.7"/>
          <g>
            <polygon class="cls-26" points="87.5 236 87.5 260.8 113.9 245.6 113.9 220.7 87.5 236"/>
            <polygon class="cls-4" points="87.5 236 88 259.9 107.2 249.5 87.5 260.8 87.5 236"/>
          </g>
          <g class="cls-30">
            <g>
              <path class="cls-20" d="M94.6,254.3c0,0-.1,0-.1-.1v-3.2c0,0,0-.1.1-.1s.1,0,.1.1v3.2c0,0,0,.1-.1.1Z"/>
              <path class="cls-20" d="M94.2,252.1s0,0,0,0c0,0-.1-.1,0-.2l.5-1.2.6.6c0,0,0,.1,0,.2,0,0-.1,0-.2,0l-.3-.3-.3.7c0,0,0,0-.1,0Z"/>
            </g>
            <g>
              <path class="cls-20" d="M95.9,253.5c0,0-.1,0-.1-.1v-3.2c0,0,0-.1.1-.1s.1,0,.1.1v3.2c0,0,0,.1-.1.1Z"/>
              <path class="cls-20" d="M95.5,251.3s0,0,0,0c0,0-.1-.1,0-.2l.5-1.2.6.6c0,0,0,.1,0,.2,0,0-.1,0-.2,0l-.3-.3-.3.7c0,0,0,0-.1,0Z"/>
            </g>
          </g>
          <g class="cls-30">
            <path class="cls-20" d="M90.8,256.4c0,0-.1,0-.2,0-.1,0-.2-.2-.2-.3v-.4c0,0,0-.1.1-.1s.1,0,.1.1v.4c0,0,0,0,0,0,0,0,0,0,0,0,.1,0,.3-.4.3-.6v-1.6c0,0,0-.1.1-.1s.1,0,.1.1v1.6c0,.4-.2.7-.4.9,0,0-.1,0-.2,0Z"/>
            <path class="cls-20" d="M89.4,255.1v-.2c0-1.1.8-2.5,1.8-3.1.5-.3,1-.3,1.4-.1.4.2.6.7.6,1.2h0c0,0-3.7,2.2-3.7,2.2ZM92,251.8c-.2,0-.5,0-.7.2-.8.5-1.5,1.6-1.6,2.6l3.2-1.8c0-.4-.2-.8-.4-.9-.1,0-.2,0-.4,0Z"/>
          </g>
        </g>
      </g>
      <polygon class="cls-4" points="87.5 205.5 61.2 220.7 87.5 236 113.9 220.7 87.5 205.5"/>
      <polygon class="cls-27" points="61.2 220.7 87.5 235 113.9 220.7 87.5 236 61.2 220.7"/>
      <polygon class="cls-14" points="72.1 214.4 98.5 229.6 102.5 227.3 76.2 212 72.1 214.4"/>
      <g>
        <polygon class="cls-14" points="102.5 227.3 102.5 232.4 102 232.1 101.5 233 101 232.7 100.5 233.6 100 233.3 99.5 234.2 99 233.9 98.5 234.8 98.5 229.6 102.5 227.3"/>
        <polygon class="cls-25" points="102.5 227.3 102.5 232.4 102 232.1 101.5 233 101 232.7 100.5 233.6 100 233.3 99.5 234.2 99 233.9 98.5 234.8 98.5 229.6 102.5 227.3"/>
      </g>
    </g>
    <g id="Box-3" data-name="Box">
      <g id="Box-4" data-name="Box">
        <g id="Back_box-2" data-name="Back box">
          <polygon class="cls-5" points="122.6 210.7 148.4 195.8 174.3 210.7 148.4 225.6 122.6 210.7"/>
          <polygon class="cls-26" points="148.4 195.8 148.4 170.3 122.1 185.5 144.1 198.3 148.4 195.8"/>
          <polygon class="cls-1" points="148.4 170.3 148.4 195.8 152.7 198.3 174.8 185.5 148.4 170.3"/>
        </g>
        <g id="Front_Box-2" data-name="Front Box">
          <polygon class="cls-1" points="122.1 185.5 122.1 210.4 148.4 225.6 148.4 200.8 122.1 185.5"/>
          <g>
            <polygon class="cls-26" points="148.4 200.8 148.4 225.6 174.8 210.4 174.8 185.5 148.4 200.8"/>
            <polygon class="cls-4" points="148.4 200.8 149 224.7 168.1 214.3 148.4 225.6 148.4 200.8"/>
          </g>
          <g class="cls-30">
            <g>
              <path class="cls-20" d="M155.5,219.1c0,0-.1,0-.1-.1v-3.2c0,0,0-.1.1-.1s.1,0,.1.1v3.2c0,0,0,.1-.1.1Z"/>
              <path class="cls-20" d="M155.1,216.9s0,0,0,0c0,0-.1-.1,0-.2l.5-1.2.6.6c0,0,0,.1,0,.2,0,0-.1,0-.2,0l-.3-.3-.3.7c0,0,0,0-.1,0Z"/>
            </g>
            <g>
              <path class="cls-20" d="M156.8,218.4c0,0-.1,0-.1-.1v-3.2c0,0,0-.1.1-.1s.1,0,.1.1v3.2c0,0,0,.1-.1.1Z"/>
              <path class="cls-20" d="M156.4,216.2s0,0,0,0c0,0-.1-.1,0-.2l.5-1.2.6.6c0,0,0,.1,0,.2,0,0-.1,0-.2,0l-.3-.3-.3.7c0,0,0,0-.1,0Z"/>
            </g>
          </g>
          <g class="cls-30">
            <path class="cls-20" d="M151.8,221.2c0,0-.1,0-.2,0-.1,0-.2-.2-.2-.3v-.4c0,0,0-.1.1-.1s.1,0,.1.1v.4c0,0,0,0,0,0,0,0,0,0,0,0,.1,0,.3-.4.3-.6v-1.6c0,0,0-.1.1-.1s.1,0,.1.1v1.6c0,.4-.2.7-.4.9,0,0-.1,0-.2,0Z"/>
            <path class="cls-20" d="M150.3,219.9v-.2c0-1.1.8-2.5,1.8-3.1.5-.3,1-.3,1.4-.1.4.2.6.7.6,1.2h0c0,0-3.7,2.2-3.7,2.2ZM152.9,216.6c-.2,0-.5,0-.7.2-.8.5-1.5,1.6-1.6,2.6l3.2-1.8c0-.4-.2-.8-.4-.9-.1,0-.2,0-.4,0Z"/>
          </g>
        </g>
      </g>
      <polygon class="cls-4" points="148.4 170.3 122.1 185.5 148.4 200.8 174.8 185.5 148.4 170.3"/>
      <polygon class="cls-27" points="122.1 185.5 148.4 199.8 174.8 185.5 148.4 200.8 122.1 185.5"/>
      <polygon class="cls-14" points="133 179.2 159.4 194.4 163.5 192.1 137.1 176.9 133 179.2"/>
      <g>
        <polygon class="cls-14" points="163.5 192.1 163.5 197.2 163 197 162.5 197.8 161.9 197.5 161.4 198.4 160.9 198.1 160.4 199 159.9 198.7 159.4 199.6 159.4 194.4 163.5 192.1"/>
        <polygon class="cls-25" points="163.5 192.1 163.5 197.2 163 197 162.5 197.8 161.9 197.5 161.4 198.4 160.9 198.1 160.4 199 159.9 198.7 159.4 199.6 159.4 194.4 163.5 192.1"/>
      </g>
    </g>
    <g id="Open_Box" data-name="Open Box">
      <g id="Box-5" data-name="Box">
        <g id="Back_box-3" data-name="Back box">
          <polygon class="cls-5" points="228.2 230.7 254.1 215.8 279.9 230.7 254.1 245.6 228.2 230.7"/>
          <polygon class="cls-26" points="254.1 215.8 254.1 190.3 227.7 205.5 249.7 218.3 254.1 215.8"/>
          <polygon class="cls-1" points="254.1 190.3 254.1 215.8 258.4 218.3 280.4 205.5 254.1 190.3"/>
        </g>
        <g id="Front_Box-3" data-name="Front Box">
          <polygon class="cls-1" points="227.7 205.5 227.7 230.4 254.1 245.6 254.1 220.8 227.7 205.5"/>
          <g>
            <polygon class="cls-4" points="227.7 205.5 219.3 217.2 245.7 232.5 254.1 220.8 227.7 205.5"/>
            <polygon class="cls-21" points="219.3 217.2 245.5 231.8 254.1 220.8 245.7 232.5 219.3 217.2"/>
          </g>
          <g>
            <polyline class="cls-26" points="280.4 205.5 280.4 230.4 254.1 245.6 254.1 220.8"/>
            <polygon class="cls-4" points="254.1 220.8 254.6 244.7 273.7 234.3 254.1 245.6 254.1 220.8"/>
          </g>
          <polygon class="cls-4" points="280.4 205.5 288.8 217.2 262.4 232.5 254.1 220.8 280.4 205.5"/>
          <g class="cls-30">
            <g>
              <path class="cls-20" d="M261.1,239.1c0,0-.1,0-.1-.1v-3.2c0,0,0-.1.1-.1s.1,0,.1.1v3.2c0,0,0,.1-.1.1Z"/>
              <path class="cls-20" d="M260.7,236.9s0,0,0,0c0,0-.1-.1,0-.2l.5-1.2.6.6c0,0,0,.1,0,.2,0,0-.1,0-.2,0l-.3-.3-.3.7c0,0,0,0-.1,0Z"/>
            </g>
            <g>
              <path class="cls-20" d="M262.4,238.4c0,0-.1,0-.1-.1v-3.2c0,0,0-.1.1-.1s.1,0,.1.1v3.2c0,0,0,.1-.1.1Z"/>
              <path class="cls-20" d="M262,236.2s0,0,0,0c0,0-.1-.1,0-.2l.5-1.2.6.6c0,0,0,.1,0,.2,0,0-.1,0-.2,0l-.3-.3-.3.7c0,0,0,0-.1,0Z"/>
            </g>
          </g>
          <g class="cls-30">
            <path class="cls-20" d="M257.4,241.3c0,0-.1,0-.2,0-.1,0-.2-.2-.2-.3v-.4c0,0,0-.1.1-.1s.1,0,.1.1v.4c0,0,0,0,0,0,0,0,0,0,0,0,.1,0,.3-.4.3-.6v-1.6c0,0,0-.1.1-.1s.1,0,.1.1v1.6c0,.4-.2.7-.4.9,0,0-.1,0-.2,0Z"/>
            <path class="cls-20" d="M255.9,240v-.2c0-1.1.8-2.5,1.8-3.1.5-.3,1-.3,1.4-.1.4.2.6.7.6,1.2h0c0,0-3.7,2.2-3.7,2.2ZM258.5,236.6c-.2,0-.5,0-.7.2-.8.5-1.5,1.6-1.6,2.6l3.2-1.8c0-.4-.2-.8-.4-.9-.1,0-.2,0-.4,0Z"/>
          </g>
        </g>
      </g>
    </g>
    <g id="Open_Box-2" data-name="Open Box">
      <g id="Box-6" data-name="Box">
        <g id="Back_box-4" data-name="Back box">
          <polygon class="cls-5" points="325.7 287 351.5 272.1 377.4 287 351.5 301.9 325.7 287"/>
          <polygon class="cls-26" points="351.5 272.1 351.5 246.6 325.2 261.8 347.2 274.6 351.5 272.1"/>
          <polygon class="cls-1" points="351.5 246.6 351.5 272.1 355.8 274.6 377.9 261.8 351.5 246.6"/>
        </g>
        <g id="Front_Box-4" data-name="Front Box">
          <polygon class="cls-1" points="325.2 261.8 325.2 286.7 351.5 301.9 351.5 277.1 325.2 261.8"/>
          <g>
            <polygon class="cls-4" points="325.2 261.8 316.8 273.5 343.2 288.8 351.5 277.1 325.2 261.8"/>
            <polygon class="cls-21" points="316.8 273.5 343 288.1 351.5 277.1 343.2 288.8 316.8 273.5"/>
          </g>
          <g>
            <polyline class="cls-26" points="377.9 261.8 377.9 286.7 351.5 301.9 351.5 277.1"/>
            <polygon class="cls-4" points="351.5 277.1 352.1 301 371.2 290.6 351.5 301.9 351.5 277.1"/>
          </g>
          <polygon class="cls-4" points="377.9 261.8 386.3 273.5 359.9 288.8 351.5 277.1 377.9 261.8"/>
          <g class="cls-30">
            <g>
              <path class="cls-20" d="M358.6,295.4c0,0-.1,0-.1-.1v-3.2c0,0,0-.1.1-.1s.1,0,.1.1v3.2c0,0,0,.1-.1.1Z"/>
              <path class="cls-20" d="M358.2,293.2s0,0,0,0c0,0-.1-.1,0-.2l.5-1.2.6.6c0,0,0,.1,0,.2,0,0-.1,0-.2,0l-.3-.3-.3.7c0,0,0,0-.1,0Z"/>
            </g>
            <g>
              <path class="cls-20" d="M359.9,294.7c0,0-.1,0-.1-.1v-3.2c0,0,0-.1.1-.1s.1,0,.1.1v3.2c0,0,0,.1-.1.1Z"/>
              <path class="cls-20" d="M359.5,292.5s0,0,0,0c0,0-.1-.1,0-.2l.5-1.2.6.6c0,0,0,.1,0,.2,0,0-.1,0-.2,0l-.3-.3-.3.7c0,0,0,0-.1,0Z"/>
            </g>
          </g>
          <g class="cls-30">
            <path class="cls-20" d="M354.9,297.5c0,0-.1,0-.2,0-.1,0-.2-.2-.2-.3v-.4c0,0,0-.1.1-.1s.1,0,.1.1v.4c0,0,0,0,0,0,0,0,0,0,0,0,.1,0,.3-.4.3-.6v-1.6c0,0,0-.1.1-.1s.1,0,.1.1v1.6c0,.4-.2.7-.4.9,0,0-.1,0-.2,0Z"/>
            <path class="cls-20" d="M353.4,296.2v-.2c0-1.1.8-2.5,1.8-3.1.5-.3,1-.3,1.4-.1.4.2.6.7.6,1.2h0c0,0-3.7,2.2-3.7,2.2ZM356,292.9c-.2,0-.5,0-.7.2-.8.5-1.5,1.6-1.6,2.6l3.2-1.8c0-.4-.2-.8-.4-.9-.1,0-.2,0-.4,0Z"/>
          </g>
        </g>
      </g>
    </g>
  </g>
  <g id="Gears">
    <g id="Gears-2" data-name="Gears">
      <g>
        <path class="cls-26" d="M304.3,372.5v-5.2c0-.6-.5-1.1-1.1-1.2l-8.3-.5v-11.7s0,0,0,0c0-.2-.1-.5-.4-.6l-8.8-5.1c-.5-.3-1.4-.3-1.9,0l-8.9,4.1c-.5.3-1.5.3-2,.1-2.2-.7-4.5-1.2-6.9-1.6-.6-.1-1.2-.7-1.3-1.2l-1.1-5.9c-.1-.6-.7-1.1-1.3-1.1h-12.9c-.6,0-1.2.5-1.3,1.1l-1.1,5.9c-.1.6-.7,1.1-1.3,1.2-2.4.4-4.7.9-6.9,1.6-.6.2-1.5.1-2-.1l-8.9-4.1c-.5-.3-1.4-.2-1.9,0l-8.8,5.1c-.3.2-.4.4-.4.6,0,0,0,0,0,0v11.7s-8.3.5-8.3.5c-.6,0-1.1.6-1.1,1.2v6.5s0,0,0,0v4.6s0,0,0,0v6.5s0,0,0,0h0c0,.2.1.3.2.4,0,.1,0,.3.2.4.1.2.4.2.6.3,0,0,.1,0,.2.1h.2s8.2.5,8.2.5h0s0,6.7,0,6.7h0,0s0,.1,0,.1v2.1s0,2.8,0,2.8h0s0,0,0,0c0,0,0,.2,0,.2,0,0,0,0,0,0,0,.1.2.2.3.3l8.8,5.1s0,0,0,0c.2.1.5.2.8.2,0,0,.1,0,.2,0,.1,0,.2,0,.3,0h0c.2,0,.4,0,.5-.1l8.9-4.1c.5-.3,1.5-.3,2-.1,2.2.7,4.5,1.2,6.9,1.6.6.1,1.2.7,1.3,1.2l1.1,5.9c0,.1.1.2.2.4h0c0,.2.1.2.2.3,0,0,.1.1.2.1.2.2.5.3.7.3h12.9c.3,0,.6-.1.8-.3h0c.2-.2.4-.5.5-.8l1.1-5.9c.1-.6.7-1.1,1.3-1.2,2.4-.4,4.7-.9,6.9-1.6.6-.2,1.5-.1,2,.1l8.9,4.1c.2.1.5.2.8.2h0c.4,0,.8,0,1.1-.2l8.8-5.1c.3-.2.4-.4.4-.6h0s0-11.7,0-11.7l8.3-.5c.6,0,1.1-.6,1.1-1.2v-12.2c0,0,0-.2,0-.2ZM272.4,377.9c-.5.4-1.1.8-1.7,1.1-8.2,4.7-21.4,4.7-29.6,0-.6-.4-1.2-.7-1.7-1.1.5-.4,1.1-.7,1.7-1.1,8.2-4.7,21.4-4.7,29.6,0,.6.4,1.2.7,1.7,1.1Z"/>
        <path class="cls-1" d="M304.3,372.7v12.2c0,.6-.5,1.1-1.1,1.2l-8.3.5v11.7c0,.2-.1.4-.4.6l-8.8,5.1c-.3.2-.7.2-1.1.2h0c-.3,0-.6,0-.8-.1l-8.9-4.1c-.2-.1-.5-.2-.8-.2h0c-.4,0-.9,0-1.2,0-2.2.7-4.5,1.2-6.9,1.6-.2,0-.4.1-.5.2h0c-.4.3-.7.6-.7,1l-1.1,5.9c0,.3-.2.6-.5.8h0c-.2.2-.5.3-.8.3h-12.9c0,0-.2,0-.2,0-.3,0-.6-.3-.8-.6h0c0-.3-.2-.3-.2-.5l-1.1-5.9c0-.3-.3-.6-.5-.8h0c-.2-.2-.5-.4-.8-.4-2.4-.4-4.7-.9-6.9-1.6-.4-.1-.9-.1-1.4,0h0c-.2,0-.5.1-.7.2l-8.9,4.1c-.1,0-.3,0-.5,0h0c0,0,0,0,0,0-.5,0-1,0-1.4-.2,0,0,0,0,0,0l-8.8-5.1c0,0-.1,0-.2-.1,0,0-.1-.1-.1-.2,0,0,0-.2,0-.3h0s0-2.8,0-2.8v-8.9s-1.5-.1-1.5-.1l-6.6-.4h-.2c-.6,0-1.1-.6-1.1-1.2v-11.1c0,.6.5,1.1,1.1,1.2l11.7.7c.6,0,1.3.5,1.6,1,.6,1.2,1.5,2.3,2.5,3.4.4.4.4,1.1-.1,1.4l-6.9,5c-.5.4-.5.9,0,1.2l8.8,5.1c.5.3,1.4.3,1.9,0l8.9-4.1c.6-.3,1.5-.3,2-.1,2.2.7,4.5,1.2,6.9,1.6.6.1,1.2.7,1.3,1.2l1.1,5.9c.1.6.7,1.1,1.3,1.1h12.9c.6,0,1.2-.5,1.3-1.1l1.1-5.9c.1-.6.7-1.1,1.3-1.2,2.4-.4,4.7-1,6.9-1.6.6-.2,1.5-.1,2,.1l8.9,4.1c.5.3,1.4.2,1.9,0l8.8-5.1c.5-.3.5-.8,0-1.2l-6.9-5c-.5-.3-.5-1-.1-1.4,1-1.1,1.8-2.3,2.5-3.4.3-.5,1-1,1.6-1l11.7-.7c.6,0,1.1-.6,1.1-1.2v-1.3c0,0,0,.2,0,.2Z"/>
        <path class="cls-1" d="M294.9,353.9v11.7l-3.4-.2c-.6,0-1.3-.5-1.6-1-.6-1.2-1.5-2.3-2.5-3.4-.4-.4-.4-1.1.1-1.4l6.9-5c.2-.2.3-.3.3-.5h0Z"/>
        <path class="cls-1" d="M224.2,360.8c-1,1.1-1.8,2.3-2.5,3.4-.3.5-1,1-1.6,1l-3.4.2v-11.7c0,.2.1.4.3.6l6.9,5c.5.4.5,1,.1,1.4Z"/>
        <path class="cls-4" d="M226,348.2l-8.8,5.1c-.5.3-.5.8,0,1.2l6.9,5c.5.4.5,1,.1,1.4-1,1.1-1.8,2.3-2.5,3.4-.3.5-1,1-1.6,1l-11.7.7c-.6,0-1.1.6-1.1,1.2v6.5c0,.6.5,1.1,1.1,1.2l11.7.7c.6,0,1.3.5,1.6,1,.6,1.2,1.5,2.3,2.5,3.4.4.4.4,1.1-.1,1.4l-6.9,5c-.5.4-.5.9,0,1.2l8.8,5.1c.5.3,1.4.3,1.9,0l8.9-4.1c.5-.3,1.5-.3,2-.1,2.2.7,4.5,1.2,6.9,1.6.6.1,1.2.7,1.3,1.2l1.1,5.9c.1.6.7,1.1,1.3,1.1h12.9c.6,0,1.2-.5,1.3-1.1l1.1-5.9c.1-.6.7-1.1,1.3-1.2,2.4-.4,4.7-.9,6.9-1.6.6-.2,1.5-.1,2,.1l8.9,4.1c.5.3,1.4.2,1.9,0l8.8-5.1c.5-.3.5-.8,0-1.2l-6.9-5c-.5-.4-.5-1-.1-1.4,1-1.1,1.8-2.3,2.5-3.4.3-.5,1-1,1.6-1l11.7-.7c.6,0,1.1-.6,1.1-1.2v-6.5c0-.6-.5-1.1-1.1-1.2l-11.7-.7c-.6,0-1.3-.5-1.6-1-.6-1.2-1.5-2.3-2.5-3.4-.4-.4-.4-1.1.1-1.4l6.9-5c.5-.4.5-.9,0-1.2l-8.8-5.1c-.5-.3-1.4-.3-1.9,0l-8.9,4.1c-.5.3-1.5.3-2,.1-2.2-.7-4.5-1.2-6.9-1.6-.6-.1-1.2-.7-1.3-1.2l-1.1-5.9c-.1-.6-.7-1.1-1.3-1.1h-12.9c-.6,0-1.2.5-1.3,1.1l-1.1,5.9c-.1.6-.7,1.1-1.3,1.2-2.4.4-4.7.9-6.9,1.6-.6.2-1.5.1-2-.1l-8.9-4.1c-.5-.3-1.4-.2-1.9,0ZM270.7,361.9c8.2,4.7,8.2,12.4,0,17.1-8.2,4.7-21.4,4.7-29.6,0-8.2-4.7-8.2-12.4,0-17.1,8.2-4.7,21.4-4.7,29.6,0Z"/>
        <path class="cls-26" d="M216.8,387.1c0-.2.1-.4.4-.6l3.5-2.5v-8.3c-.2,0-.3-.1-.5-.1l-11.7-.7c-.6,0-1.1-.6-1.1-1.2v11.1c0,.6.5,1.1,1.1,1.1h.2s6.6.4,6.6.4h1.5c0,.1,0,.9,0,.7Z"/>
        <path class="cls-26" d="M237.5,388.6c-.2,0-.5,0-.7.2l-8.9,4.1c-.3.1-.7.2-1.1.1v11.1c.2,0,.4,0,.6,0h0c.2,0,.4,0,.5-.1l8.9-4.1c.2,0,.4-.1.7-.2v-11.1Z"/>
        <path class="cls-26" d="M248.3,397.8c0-.1-.1-.3-.2-.4l-1.1-5.9c0-.2,0-.3-.2-.4v11.1c0,.1.1.3.2.4l1.1,5.9c0,.1,0,.2.2.3v-11Z"/>
        <path class="cls-12" d="M264.9,391.1c0,.1-.1.3-.2.4l-1.1,5.9c0,.1,0,.3-.2.4v11.1c0-.1.1-.3.2-.4l1.1-5.9c0-.1,0-.3.2-.4v-11.1Z"/>
        <path class="cls-12" d="M284.9,393c-.4,0-.8,0-1.1-.1l-8.9-4.1c-.2,0-.4-.1-.7-.2v11.1c.2,0,.5,0,.7.2l8.9,4.1c.2.1.5.2.8.2h0c.1,0,.2,0,.3,0v-11.1Z"/>
        <path class="cls-12" d="M303.2,374.9l-11.7.7c-.2,0-.3,0-.5.1v8.3l3.5,2.5c.2.2.3.4.3.6,0,.2,0-.6,0-.6l8.3-.5c.6,0,1.1-.6,1.1-1.2v-12.2c0,0,0-.2,0-.2v1.3c0,.6-.5,1.1-1.1,1.2Z"/>
      </g>
      <g>
        <path class="cls-26" d="M138.2,329c0,.5,0,9.7,0,9.9,0,0,0,.2,0,.2l3.9,5.4c.2.3.9.5,1.4.4l9-1.5c.6,0,1.3,0,1.6.3.7.5,1.4,1,2.2,1.4,0,0,0,7.3,0,7.5,0,.3.2.5.5.5l9.8,2.3c.5.1,1.2-.2,1.6-.6l4-4.2c.4-.4,1.1-.7,1.7-.7,2,.1,4.1.1,6.1,0,.5,0,1.2.2,1.5.5l4.5,4.7c.3.3,1,.4,1.5.3l9.4-2.3c.5-.1.8-.4.7-.7v-7.4c.6-.4,1.3-.8,1.8-1.2.5-.3,1.3-.6,1.8-.5l9.3,1.6c.5,0,1.1-.2,1.5-.7l3.6-5c.1-.2.2-.4.2-.6,0-.2,0-3.1,0-7.1,0,0,0-.2,0-.2,0,0,0-13.3,0-14.1,0,0,0,0,0,0,0,0,0-.2,0-.2l-3.9-5.4c-.2-.3-.9-.5-1.4-.4l-9,1.5c-.6,0-1.3,0-1.6-.3-.7-.5-1.4-1-2.2-1.4,0-3.4,0-6.9,0-7.3,0,0,0,0,0,0,0-.3-.2-.6-.5-.6l-9.8-2.3c-.5-.1-1.2.1-1.6.6l-4,4.2c-.4.4-1.1.8-1.7.7-2-.1-4.1-.1-6.1,0-.5,0-1.2-.2-1.5-.5l-4.5-4.7c-.3-.3-1-.4-1.5-.3l-9.4,2.3c-.5.1-.7.4-.7.7h0s0,7.4,0,7.4c-.6.4-1.3.8-1.8,1.2-.5.3-1.3.6-1.8.5l-9.3-1.6c-.5,0-1.1.2-1.5.7l-3.6,5c-.1.2-.2.4-.2.5,0,0,0,0,0,0,0,.4,0,7.4,0,11.4h0c0,0,0,.1,0,.2h0s0,0,0,0h0ZM189.2,330.2c-1.5.9-3.4,1.6-5.5,2.1-6.6,1.6-13.9.6-18.7-2.1-.5-.3-1-.6-1.5-1,.4-.3.9-.6,1.4-.9,6.7-3.9,17.6-3.9,24.4,0,.5.3,1,.6,1.4.9-.4.3-.9.6-1.4.9Z"/>
        <path class="cls-1" d="M195.6,309.9c.7.3,1.5.7,2.2,1.1,0-3.4,0-6.9,0-7.3,0,.1,0,.2-.1.4l-2.3,4.6c-.2.5-.1,1,.3,1.2Z"/>
        <path class="cls-12" d="M206.4,321.6c.2,1,.2,2.1,0,3.1,0,.5.2.9.6,1.1l8.5,2.7c.3,0,.4.3.4.5,0,.2,0,2.8,0,2.8,0,0,0-.1,0-.2,0-4.8,0-12.9,0-13.6v-.6c0,.3-.3.5-.7.6l-8,2.5c-.6.2-.9.6-.9,1.1Z"/>
        <path class="cls-12" d="M201.1,333.5v9.9c.1,0,.2,0,.3,0l9.3,1.6c.1,0,.3,0,.5,0v-9.9c-.2,0-.3,0-.5,0l-9.3-1.6c0,0-.2,0-.3,0Z"/>
        <path class="cls-1" d="M197.8,345.2c.6-.4,1.3-.8,1.8-1.2.4-.3,1-.5,1.4-.5v-9.9c-.5,0-1,.2-1.4.5-1.1.8-2.4,1.5-3.8,2.2-.6.3-.9.7-.7,1.1l2.6,5.1c0,0,0,.1,0,.2,0,.3,0,2.6,0,2.6Z"/>
        <path class="cls-12" d="M181,340.2v9.9c.2,0,.4.2.6.3l4.5,4.7c.2.2.5.3.8.3v-9.9c-.4,0-.7-.1-.8-.3l-4.5-4.7c-.1-.1-.3-.2-.5-.3Z"/>
        <path class="cls-1" d="M173.4,340.1v9.9c.2,0,.4-.1.6,0,2,.1,4.1.1,6.1,0,.3,0,.6,0,.9.1v-9.9c-.3-.1-.6-.2-.9-.1-2.1.1-4.1.1-6.1,0-.2,0-.4,0-.6,0Z"/>
        <path class="cls-12" d="M167.4,345.5v9.9c.3,0,.7-.3.9-.5l4-4.2c.3-.3.7-.5,1.1-.6v-9.9c-.4.1-.8.3-1.1.6l-4,4.2c-.2.2-.6.4-.9.5Z"/>
        <path class="cls-26" d="M156.4,342.7v2.5h0s0,1.2,0,2.6v1.3c0,1.8,0,3.5,0,3.6,0,.3.2.5.5.5l9.8,2.3c.2,0,.4,0,.7,0v-9.9c-.2,0-.5,0-.7,0l-9.8-2.3c-.3,0-.5-.3-.5-.5Z"/>
        <path class="cls-12" d="M153.3,333.6v9.9c.4,0,.8.1,1,.3.7.5,1.4.9,2.2,1.4,0,0,0-2.3,0-2.6,0-.1,0-.3.1-.4l2.4-4.7c.2-.5.1-1-.3-1.2-1.6-.7-3.1-1.6-4.4-2.5-.2-.2-.6-.3-1-.3Z"/>
        <path class="cls-26" d="M138.2,329c0,.5,0,9.7,0,9.9,0,0,0,.2,0,.2l3.9,5.4c.1.2.4.3.7.4v-9.9c-.3,0-.6-.2-.7-.4l-3.9-5.4c0,0,0-.2,0-.2Z"/>
        <path class="cls-4" d="M197.2,303.1l-9.8-2.3c-.5-.1-1.2.1-1.6.6l-4,4.2c-.4.4-1.1.8-1.7.7-2-.1-4.1-.1-6.1,0-.5,0-1.2-.2-1.5-.5l-4.5-4.7c-.3-.3-1-.4-1.5-.3l-9.4,2.3c-.5.1-.7.4-.7.7,0,0,0,.1,0,.2l2.6,5.1c.2.4-.1.8-.7,1.1-.7.3-1.3.7-1.9,1-.6.4-1.3.8-1.8,1.2-.5.3-1.3.6-1.8.5l-9.3-1.6c-.5,0-1.1.2-1.5.7l-3.6,5c-.1.2-.2.4-.2.5,0,0,0,0,0,0,0,.2.1.4.4.5l8.5,2.7c.4.1.7.6.6,1.1-.2,1-.2,2,0,3.1,0,.4-.3.9-.9,1.1l-8,2.5c-.3,0-.5.3-.6.4h0c0,0,0,.1,0,.2,0,0,0,0,0,0h0c0,0,0,.2,0,.2l3.9,5.4c.2.3.9.5,1.4.4l9-1.5c.6,0,1.3,0,1.6.3,1.3.9,2.8,1.8,4.3,2.5.4.2.5.7.3,1.2l-2.3,4.7c-.2.5,0,.9.4,1l9.8,2.3c.5.1,1.2-.2,1.6-.6l4-4.2c.4-.4,1.1-.7,1.7-.7,2,.1,4.1.1,6.1,0,.5,0,1.2.2,1.5.5l4.5,4.7c.3.3,1,.4,1.5.3l9.4-2.2c.6-.1.9-.5.7-.9l-2.6-5.1c-.2-.4.1-.8.7-1.1,1.4-.7,2.6-1.4,3.8-2.2.5-.4,1.3-.6,1.8-.5l9.3,1.6c.5,0,1.1-.2,1.5-.7l3.6-4.9c.1-.2.2-.4.2-.5,0-.3-.1-.5-.4-.5l-8.5-2.7c-.4-.1-.7-.6-.6-1.1.2-1,.2-2,0-3.1,0-.4.3-.9.9-1.1l8-2.5c.4-.1.7-.4.7-.6,0,0,0,0,0,0,0,0,0-.2,0-.2l-3.9-5.4c-.2-.3-.9-.5-1.4-.4l-9,1.5c-.6,0-1.3,0-1.6-.3-.7-.5-1.4-1-2.2-1.4-.7-.4-1.4-.8-2.2-1.1-.4-.2-.5-.7-.3-1.2l2.3-4.7c0-.1.1-.3.1-.4,0,0,0,0,0,0,0-.3-.2-.6-.5-.6ZM170.5,314c8.8-2.1,18.9.3,22.5,5.4,1.4,2,1.7,4.1.9,6,0,0,0,.1,0,.2,0,0,0,.1,0,.2,0,0,0,.1,0,.2,0,0,0,0,0,0-.6,1.2-1.6,2.3-2.9,3.3-.4.3-.9.6-1.4.9-1.5.9-3.4,1.6-5.5,2.1-6.6,1.6-13.9.6-18.7-2.1-.5-.3-1-.6-1.5-1-.9-.7-1.7-1.5-2.3-2.3-1.6-2.3-1.7-4.7-.5-6.9,0,0,0-.1,0-.2,0-.1.1-.2.2-.3.1-.2.2-.3.4-.5.1-.1.2-.3.3-.4,0,0,.1-.1.2-.2,0,0,.2-.2.2-.2,1.8-1.9,4.7-3.4,8.4-4.3Z"/>
      </g>
      <g>
        <path class="cls-26" d="M120.3,389.2c0,.5,0,9.7,0,9.9,0,0,0,.2,0,.2l3.9,5.4c.2.3.9.5,1.4.4l9-1.5c.6,0,1.3,0,1.6.3.7.5,1.4,1,2.2,1.4,0,0,0,7.3,0,7.5,0,.3.2.5.5.5l9.8,2.3c.5.1,1.2-.2,1.6-.6l4-4.2c.4-.4,1.1-.7,1.7-.7,2,.1,4.1.1,6.1,0,.5,0,1.2.2,1.5.5l4.5,4.7c.3.3,1,.4,1.5.3l9.4-2.3c.5-.1.8-.4.7-.7v-7.4c.6-.4,1.3-.8,1.8-1.2.5-.3,1.3-.6,1.8-.5l9.3,1.6c.5,0,1.1-.2,1.5-.7l3.6-5c.1-.2.2-.4.2-.6,0-.2,0-3.1,0-7.1,0,0,0-.2,0-.2,0,0,0-13.3,0-14.1,0,0,0,0,0,0,0,0,0-.2,0-.2l-3.9-5.4c-.2-.3-.9-.5-1.4-.4l-9,1.5c-.6,0-1.3,0-1.6-.3-.7-.5-1.4-1-2.2-1.4,0-3.4,0-6.9,0-7.3,0,0,0,0,0,0,0-.3-.2-.6-.5-.6l-9.8-2.3c-.5-.1-1.2.1-1.6.6l-4,4.2c-.4.4-1.1.8-1.7.7-2-.1-4.1-.1-6.1,0-.5,0-1.2-.2-1.5-.5l-4.5-4.7c-.3-.3-1-.4-1.5-.3l-9.4,2.3c-.5.1-.7.4-.7.7h0s0,7.4,0,7.4c-.6.4-1.3.8-1.8,1.2-.5.3-1.3.6-1.8.5l-9.3-1.6c-.5,0-1.1.2-1.5.7l-3.6,5c-.1.2-.2.4-.2.5,0,0,0,0,0,0,0,.4,0,7.4,0,11.4h0c0,0,0,.1,0,.2h0s0,0,0,0h0ZM171.3,390.4c-1.5.9-3.4,1.6-5.5,2.1-6.6,1.6-13.9.6-18.7-2.1-.5-.3-1-.6-1.5-1,.4-.3.9-.6,1.4-.9,6.7-3.9,17.6-3.9,24.4,0,.5.3,1,.6,1.4.9-.4.3-.9.6-1.4.9Z"/>
        <path class="cls-1" d="M177.7,370.1c.7.3,1.5.7,2.2,1.1,0-3.4,0-6.9,0-7.3,0,.1,0,.2-.1.4l-2.3,4.6c-.2.5-.1,1,.3,1.2Z"/>
        <path class="cls-12" d="M188.5,381.7c.2,1,.2,2.1,0,3.1,0,.5.2.9.6,1.1l8.5,2.7c.3,0,.4.3.4.5,0,.2,0,2.8,0,2.8,0,0,0-.1,0-.2,0-4.8,0-12.9,0-13.6v-.6c0,.3-.3.5-.7.6l-8,2.5c-.6.2-.9.6-.9,1.1Z"/>
        <path class="cls-12" d="M183.2,393.7v9.9c.1,0,.2,0,.3,0l9.3,1.6c.1,0,.3,0,.5,0v-9.9c-.2,0-.3,0-.5,0l-9.3-1.6c0,0-.2,0-.3,0Z"/>
        <path class="cls-1" d="M179.9,405.3c.6-.4,1.3-.8,1.8-1.2.4-.3,1-.5,1.4-.5v-9.9c-.5,0-1,.2-1.4.5-1.1.8-2.4,1.5-3.8,2.2-.6.3-.9.7-.7,1.1l2.6,5.1c0,0,0,.1,0,.2,0,.3,0,2.6,0,2.6Z"/>
        <path class="cls-12" d="M163.2,400.4v9.9c.2,0,.4.2.6.3l4.5,4.7c.2.2.5.3.8.3v-9.9c-.4,0-.7-.1-.8-.3l-4.5-4.7c-.1-.1-.3-.2-.5-.3Z"/>
        <path class="cls-1" d="M155.5,400.3v9.9c.2,0,.4-.1.6,0,2,.1,4.1.1,6.1,0,.3,0,.6,0,.9.1v-9.9c-.3-.1-.6-.2-.9-.1-2.1.1-4.1.1-6.1,0-.2,0-.4,0-.6,0Z"/>
        <path class="cls-12" d="M149.5,405.7v9.9c.3,0,.7-.3.9-.5l4-4.2c.3-.3.7-.5,1.1-.6v-9.9c-.4.1-.8.3-1.1.6l-4,4.2c-.2.2-.6.4-.9.5Z"/>
        <path class="cls-26" d="M138.5,402.9v2.5h0s0,1.2,0,2.6v1.3c0,1.8,0,3.5,0,3.6,0,.3.2.5.5.5l9.8,2.3c.2,0,.4,0,.7,0v-9.9c-.3,0-.5,0-.7,0l-9.8-2.3c-.3,0-.5-.3-.5-.5Z"/>
        <path class="cls-12" d="M135.4,393.7v9.9c.4,0,.8.1,1,.3.7.5,1.4.9,2.2,1.4,0,0,0-2.3,0-2.6,0-.1,0-.3.1-.4l2.4-4.7c.2-.5.1-1-.3-1.2-1.6-.7-3.1-1.6-4.4-2.5-.2-.2-.6-.3-1-.3Z"/>
        <path class="cls-26" d="M120.3,389.2c0,.5,0,9.7,0,9.9,0,0,0,.2,0,.2l3.9,5.4c.1.2.4.3.7.4v-9.9c-.3,0-.6-.2-.7-.4l-3.9-5.4c0,0,0-.2,0-.2Z"/>
        <path class="cls-4" d="M179.3,363.2l-9.8-2.3c-.5-.1-1.2.1-1.6.6l-4,4.2c-.4.4-1.1.8-1.7.7-2-.1-4.1-.1-6.1,0-.5,0-1.2-.2-1.5-.5l-4.5-4.7c-.3-.3-1-.4-1.5-.3l-9.4,2.3c-.5.1-.7.4-.7.7,0,0,0,.1,0,.2l2.6,5.1c.2.4-.1.8-.7,1.1-.7.3-1.3.7-1.9,1-.6.4-1.3.8-1.8,1.2-.5.3-1.3.6-1.8.5l-9.3-1.6c-.5,0-1.1.2-1.5.7l-3.6,5c-.1.2-.2.4-.2.5,0,0,0,0,0,0,0,.2.1.4.4.5l8.5,2.7c.4.1.7.6.6,1.1-.2,1-.2,2,0,3.1,0,.4-.3.9-.9,1.1l-8,2.5c-.3,0-.5.3-.6.4h0c0,0,0,.1,0,.2,0,0,0,0,0,0h0c0,0,0,.2,0,.2l3.9,5.4c.2.3.9.5,1.4.4l9-1.5c.6,0,1.3,0,1.6.3,1.3.9,2.8,1.8,4.3,2.5.4.2.5.7.3,1.2l-2.3,4.7c-.2.5,0,.9.4,1l9.8,2.3c.5.1,1.2-.2,1.6-.6l4-4.2c.4-.4,1.1-.7,1.7-.7,2,.1,4.1.1,6.1,0,.5,0,1.2.2,1.5.5l4.5,4.7c.3.3,1,.4,1.5.3l9.4-2.2c.6-.1.9-.5.7-.9l-2.6-5.1c-.2-.4.1-.8.7-1.1,1.4-.7,2.6-1.4,3.8-2.2.5-.4,1.3-.6,1.8-.5l9.3,1.6c.5,0,1.1-.2,1.5-.7l3.6-4.9c.1-.2.2-.4.2-.5,0-.3-.1-.5-.4-.5l-8.5-2.7c-.4-.1-.7-.6-.6-1.1.2-1,.2-2,0-3.1,0-.4.3-.9.9-1.1l8-2.5c.4-.1.7-.4.7-.6,0,0,0,0,0,0,0,0,0-.2,0-.2l-3.9-5.4c-.2-.3-.9-.5-1.4-.4l-9,1.5c-.6,0-1.3,0-1.6-.3-.7-.5-1.4-1-2.2-1.4-.7-.4-1.4-.8-2.2-1.1-.4-.2-.5-.7-.3-1.2l2.3-4.7c0-.1.1-.3.1-.4,0,0,0,0,0,0,0-.3-.2-.6-.5-.6ZM152.6,374.1c8.8-2.1,18.9.3,22.5,5.4,1.4,2,1.7,4.1.9,6,0,0,0,.1,0,.2,0,0,0,.1,0,.2,0,0,0,.1,0,.2,0,0,0,0,0,0-.6,1.2-1.6,2.3-2.9,3.3-.4.3-.9.6-1.4.9-1.5.9-3.4,1.6-5.5,2.1-6.6,1.6-13.9.6-18.7-2.1-.5-.3-1-.6-1.5-1-.9-.7-1.7-1.5-2.3-2.3-1.6-2.3-1.7-4.7-.5-6.9,0,0,0-.1,0-.2,0-.1.1-.2.2-.3.1-.2.2-.3.4-.5.1-.1.2-.3.3-.4,0,0,.1-.1.2-.2,0,0,.2-.2.2-.2,1.8-1.9,4.7-3.4,8.4-4.3Z"/>
      </g>
    </g>
  </g>
</svg>