<?xml version="1.0" encoding="UTF-8"?>
<svg xmlns="http://www.w3.org/2000/svg" version="1.1" viewBox="0 0 1100 820">
  <defs>
    <style>
      .cls-1 {
        fill: #e5d1bd;
      }

      .cls-1, .cls-2, .cls-3, .cls-4, .cls-5, .cls-6, .cls-7, .cls-8, .cls-9, .cls-10, .cls-11, .cls-12, .cls-13, .cls-14 {
        stroke-width: 0px;
      }

      .cls-2 {
        fill: #f2f2f2;
      }

      .cls-3 {
        fill: #b5d6ca;
      }

      .cls-4 {
        fill: #222323;
      }

      .cls-5 {
        fill: #f1f2f2;
      }

      .cls-6 {
        fill: #1a3151;
      }

      .cls-7 {
        fill: #c9a98d;
      }

      .cls-8 {
        fill: #145566;
      }

      .cls-9 {
        fill: #f7db5e;
      }

      .cls-10 {
        fill: #fff;
      }

      .cls-11 {
        fill: #edbd31;
      }

      .cls-12 {
        fill: #ffd559;
      }

      .cls-13 {
        fill: #3ababa;
      }

      .cls-14 {
        fill: #ebb044;
      }
    </style>
  </defs>
  <g id="Background">
    <rect class="cls-10" width="1100" height="820"/>
  </g>
  <g id="Shadow">
    <path class="cls-5" d="M514.8,644.1c-27.7,0-55.5.8-83.2,3.9-10.4,1.2-20.7,3.8-31.1,4.8-20.9,2.1-41.4,6-62.4,7.8-16.9,1.4-33.9,2.3-50.7,4.1-15.8,1.7-33.3,1.3-48.9-1.5-11.6-2.1-23.3-3.3-34.7-6.7-12.8-3.8-26.6-6.5-39.9-6.4-19,.1-37.4.2-55.6,6.8-6.4,2.3-14.2,6.2-19,11.1-11.1,11.3-12.6,39.4-1.5,51.1,18.6,19.7,58.3,27.4,84.4,27.8,28.6.4,56.4-1.8,85-3,26.6-1.2,53.2-2.9,79.8-2.8,54.4.1,108.9,0,163.2-3.7,51.1-3.5,102.2-2.3,153.4-2.3s104.6.4,156.7,7.5c22.7,3.1,45.8,4.2,68.6,6.3,20.4,1.9,40.1,0,60.4-1.8,17.1-1.5,34.1-6,49.6-13.5,12.3-6,34.2-24.5,38-38.8,10.6-39.9-148.9-39-173.3-38.9-27.4.1-55,1-82.3,0-11.5-.4-22.8-2.7-34.1-5.2-11.2-2.5-22.5-1.9-33.8-2.9-47.3-4.4-94.7-3.7-142.2-3.7-15.4,0-30.9-.1-46.4,0Z"/>
  </g>
  <g id="Object">
    <g>
      <path class="cls-10" d="M267.8,428.7c-.3,10.2-.7,21-6.3,29.5,10.2-.4,20.3-1.8,30.2-4.2.7-21.4,5.6-42.3,8.1-63.5,2.1-18.3,2.4-36.7,1.9-55.2-.3-14.9-1.1-29.9-3.9-44.5-2.1-11.3-4.5-19.4-10-29.6-.3-.5-.6-1.1-1.1-1.3-.5-.2-1-.2-1.5,0-8.9,1.2-7.3,3-6.7,10.4.5,6-.6,12-.9,18-.6,11.5-1.3,22.9-2.2,34.3-1.8,22.9-4,45.7-5.6,68.6-.9,12.5-1.7,25-2.1,37.6Z"/>
      <g>
        <g>
          <path class="cls-7" d="M728.7,242.1c.6,0,1.1-.1,1.6-.1,3.4-.2,6.8.1,10.2.9.6.1,1.2.3,1.7.7.4.3.7.7,1,1.1,3,4.3,6.3,7.7,9.9,11.4,2.7,2.8,6.8,7.2,4.5,11.3-.7,1.2-1.4,2.5-2.5,3.4-.9.7-2,1.1-3.1,1.5-.9.3-2.1.9-2.9.5-.9-.5-2-2.8-2.6-3.6-1.7-2.4-3.4-4.8-5.2-7.2-1.7-2.4-3.9-5-6.6-4.9-.6,0-1.2.2-1.7.1-.7,0-1.3-.4-1.9-.8-2.2-1.3-4.4-2.8-6.3-4.6-1.7-1.6-1.4-3.4-1.6-5.6-.2-2.7,2.9-3.7,5.5-4Z"/>
          <path class="cls-8" d="M791.6,320.5c-5.9-1.9-11.3-5.1-16.8-10-13.7-12-25.9-26-35.8-41.5,4.8-6.2,10.9-11.4,17.9-14.9,10.6,10.7,21.9,20.6,33.8,29.5,5.8,4.4,11.6,7.3,18.4,5.3,15.1-4.4,29.8-10.1,44-17,3.1-1.5,6.3-3.1,9.8-3.4,6.5-.6,13.2,3.5,17.2,9.3,4,5.8,5.4,13.1,4.9,19.9-.4,4.8-1.7,9.7-4.9,13-3.3,3.4-8,4.9-12.6,6-20.5,5.2-42.1,7.2-63.7,5.9-4.4-.3-8.3-.9-12.1-2.2Z"/>
        </g>
        <g>
          <g>
            <g>
              <path class="cls-1" d="M876.4,707.9c-2.8,0-5.6,0-8.4,0-1.9-10.2-3-20.8-3.2-31.3,4,1.9,9.3.4,10.3,7.5.4,2.3.7,23.8,1.3,23.8Z"/>
              <path class="cls-4" d="M867.9,703c-1.4.3-2.6,1.3-3.4,2.8-.5.9-.8,1.9-1.4,2.6-.6.7-1.3,1-2.1,1.3-3.5,1.5-6.2,1.9-9.5,4.2-1.2.8-2.5,1.4-3.8,1.8-.4.1-.8.2-1.2.5-.4.4-.5.9-.4,1.5,0,2.2,1.7,4.1,3.6,5,2.3,1.1,4.9,1.1,7.3,2,2.8,1.1,5.7.9,8.5.3,5.8-1.3,11-4.5,16.1-7.5.5-.3.9-.6,1.2-1.1.3-.6.3-1.4.3-2.2-.1-4.2-.2-10.6-4.5-10.5-1.8,0-3.4,1.6-5.4,1.6-1.6,0-4.3-2.4-5.5-2.2Z"/>
            </g>
            <path class="cls-8" d="M825.5,561.7c-.7,4.2-1.4,8.4-1.3,12.6.1,4.5,1.2,9,2.3,13.4,9.5,39.3,18.9,78.6,28.4,117.9,6.2-.5,12.4-1,18.6-1.5,2.8-.2,7.8-2.6,10.4-3.6,0,0,.3-3.8,0-6.5-4.9-47.4-12.5-83.3-10.3-125.2.6-10.5,6.5-17.6,11.6-26.7,17.2-31.1,20.6-57.2,28.4-77.7.5-1.3-51.5-6.6-54.1-6.9-6.5-.7-12.1-.5-15.7,5.9-3.9,7.1-4.2,17.3-5.6,25.1-2,11.5-4.1,23-6.1,34.6-2.2,12.8-4.4,25.7-6.6,38.5Z"/>
          </g>
          <g>
            <g>
              <path class="cls-1" d="M941.6,708.5l-9,.8c-3-10.3-5.2-21.1-6.6-31.8,4.4,1.6,9.9-.6,11.8,6.7.6,2.4,3.1,24.4,3.7,24.3Z"/>
              <path class="cls-4" d="M932,704.3c-1.4.4-2.6,1.6-3.3,3.2-.4.9-.6,2-1.2,2.8-.5.8-1.3,1.2-2.1,1.6-3.6,1.9-6.4,2.6-9.7,5.3-1.2.9-2.5,1.7-3.9,2.2-.4.2-.9.3-1.2.7-.4.4-.4,1-.3,1.6.3,2.2,2.2,4,4.4,4.8,2.6.8,5.4.6,8,1.3,3.1.8,6.2.4,9.2-.6,6.1-1.9,11.4-5.8,16.5-9.4.5-.3.9-.7,1.2-1.3.2-.7.2-1.5,0-2.3-.5-4.3-1.3-10.9-5.8-10.3-1.9.3-3.5,2-5.6,2.2-1.7.1-4.8-2.1-6.1-1.7Z"/>
            </g>
            <path class="cls-8" d="M901.7,617.3c6.6,27.4,15.8,54.5,17.6,82.7,0,1.3.2,2.8,1.1,3.7.9,1,2.3,1.2,3.6,1.3,8.4.8,16.9-.5,24.7-3.8.1-14.7-4.2-29.1-6.5-43.6-2.9-17.9-2.9-36.2-2.9-54.3.1-44.3,13.6-91.1,9.8-135.2-.7-8.4-14.6-14.5-17.8-22.2-17.5,3.6-35.8,3.1-53.1-1.6.7,9.1,2.7,17.1,4.1,25.9,1.9,11.6,1.9,23.8,2.9,35.5,2.1,23.9,4.6,47.8,8.5,71.6,2.2,13.4,4.8,26.7,8,39.9Z"/>
          </g>
          <path class="cls-8" d="M913.9,259.3c4,1.4,7.6,3.4,10.4,6,8.8,8.2,16,19.7,21.7,30.2,11.8,21.6,19.9,46,23.9,70.4,6.6,41.1,2.5,83.4-3.8,124.7-51.5-14-103.3-26.5-155.5-37.4,5.6,1.2,22.5-30.5,25-35.3,6.5-12.4,14-28.2,14.8-42.6,1.4-25.5-5.2-50.8-2.9-76.2.9-9.7,0-18.3,6.5-26,7-8.3,17.1-13.7,27.6-15.8,9-1.7,22.1-1.6,32.3,2.1Z"/>
          <path class="cls-10" d="M875.7,270.6c.1,1.9.3,4.1.2,6.4-.5,5.7-1.5,11.3-2.8,16.9-1.2,4.8-2.7,9.5-3.6,14.4-1.1,5.3-1.5,10.7-1.9,16-2.5,35.4-2.2,71.4-11.9,105.4-2.3,8-5.1,15.8-6.2,24-.2,1.8-.3,3.8.9,5.1,1,1.1,2.6,1.3,4.1,1.5,11.4,1.4,22.7,2.7,34.1,4-1-14.1,1.4-28.2,3-42.3,2.4-21.4,2.6-43,.8-64.5-1.5-16.8-4.2-33.6-5.6-50.4-.8-9.7-2.5-19.6-.8-29.2.8-4.6,5-9.3,5.6-13.3.7-5.4-5.9-3-10.3-2.1-5.4,1.1-5.7,4.1-5.5,8Z"/>
        </g>
        <g>
          <circle class="cls-12" cx="743.9" cy="390.4" r="143.7" transform="translate(-58.2 640.4) rotate(-45)"/>
          <circle class="cls-14" cx="743.9" cy="390.4" r="122"/>
          <path class="cls-11" d="M807.7,286.3c12.1,19,19.2,41.5,19.2,65.7,0,67.4-54.6,122-122,122s-45.2-6.6-63.8-18c21.7,33.8,59.6,56.3,102.8,56.3,67.4,0,122-54.6,122-122s-23.3-82.5-58.1-103.9Z"/>
          <path class="cls-9" d="M643.4,401.6c0-59.5,48.2-107.7,107.7-107.7s65.7,16.5,85.3,42c-18.6-32.3-53.4-54-93.3-54-59.5,0-107.7,48.2-107.7,107.7s8.3,47.5,22.3,65.6c-9.1-15.8-14.3-34.1-14.3-53.7Z"/>
        </g>
        <g>
          <path class="cls-7" d="M875.3,268.4c.3.5,10.5-2.1,11.6-2.4,3.5-.7,5.1-2.1,4.9-6-.2-4.3.3-8.3,1.8-12.3,1.2-3.2,3.4-5.8,4.7-9,1.1-2.8,2-5.7,2.5-8.7.9-4.8,1.1-9.8.9-14.7-.2-3.8-2.1-7.1-3.1-10.7-.8-2.7-1.6-5.6-3.3-7.8-3.1-3.9-8.4-5.2-13.4-5.6-14.2-1-39.5,5.5-38,23.8.3,4,1.3,7.9,2.3,11.8,2,8.2,3,24,13,26.8,2.8.8,6,.1,8.7,1.5,4.6,2.3,4.7,8.9,7.5,13.3Z"/>
          <path class="cls-6" d="M923.2,185.9c-4-1.1-7.4-4-10.6-6.6-3.2-2.7-6.8-5.3-10.9-5.9-3.8-.6-7.5.6-11.2.7-4,.1-7.9-1-11.9-1.4-11.4-1.3-23.2,3-30.6,11.3-4.4,4.9-11.5,16.4-7.7,23.2.8,1.5,2.3,2.6,4,2.9,2.2.5,4.6-.7,6.8,0,1.6.4,2.4,1.6,3.6,2.8,2.5,2.7,4.8,5.6,8.2,7.1,3.2,1.5,6.9,1.3,10.5,1.2.8,0,1.6,0,2.3-.5,1-.6,1.3-1.8,1.8-2.9,1-2,3.1-3.5,5.3-3.3,2.2.2,4,2.7,3.2,4.7-.8,2.1-3.4,2.6-5.6,3.1-.7.1-1.5.5-1.5,1.2,0,.5.3.8.7,1.2,3.4,3.3,6.9,6.7,10.3,10,2.1,2,6.8,9,9.8,5.7,5.1-5.6,5.3-13.1,10-18.5,2.1-2.4,4.1-5.1,5.8-7.8,3.3-5.3,4.9-11.4,9.1-16.1,1.6-1.8,3.6-3.2,5.2-4.9,2.7-2.9,4.2-6.9,4.2-10.9-1.6,3.7-6.6,4.9-10.6,3.8Z"/>
        </g>
        <path class="cls-7" d="M731.8,251.9c.5-.2.9-.7,1.3-1.1,1-1.2,2-2.3,2.9-3.5,1.3.6,2.4,1.7,2.9,3.1.3.9.5,2,1.4,2.2,1.1.3,1.8-1.1,2.1-2.2.2-.8.3-1.7.5-2.6.1-.8.2-1.7-.2-2.3-.4-.7-1.2-1-1.9-1.3-2.9-1.1-6-1.6-9.1-1.9-2.3-.2-5.9-1-7.8.6-1.5,1.3-1.8,3.4-.5,4.9,1.3,1.4,6.5,4.7,8.4,4Z"/>
        <path class="cls-13" d="M886.3,267c1,.3,2.1.8,2.6,1.7.8,1.4-.1,3.2-1.4,4.3-1.3,1-2.8,1.6-4.1,2.7-2.8,2.5-3.1,6.7-3.1,10.4-.2,41.2-1.9,82.3-4.8,123.4-3,1.2-6,2.5-9,3.7-2.4-7-4-14.4-4-21.9,0-5.5,1-11,1.9-16.5,3.5-20.9,6.4-41.9,9-62.9,1.3-10.4,2.7-20.8,3.7-31.3.4-3.4-.7-7.5-.2-10.7.8-4.7,4.6-4.3,9.3-2.9Z"/>
        <g>
          <path class="cls-7" d="M796.3,398.3c0-.6-.2-1.2-.3-1.8,0-.4,0-.7,0-1.1,0-.3.3-.6.5-.9,2.4-3.1,5.3-5.4,8.5-7.7,1.2-.9,1.2-1,2.7-.7,1.6.4,3.3,1,4.9,1.5,2.3,0,4.6,0,6.9-.1,5.8-.5,17.5-7.8,21.7-1.7.8,1.2,1.6,2.4,1.9,3.8.2,1.1.1,2.3,0,3.4-.1.9-.1,2.3-.9,2.8-.8.6-3.3.5-4.4.7-2.9.5-5.8.9-8.8,1.4-2.9.4-6.2,1.2-7.3,3.6-.2.5-.4,1.1-.7,1.6-.4.6-1,1-1.6,1.3-2.2,1.4-4.5,2.6-7,3.5-2.2.8-3.7-.3-5.7-1.1-2.1-.9-4.4-.4-6.6-1.1-2.2-.7-2.8-2.4-3.3-4.5-.2-1-.4-2-.6-3Z"/>
          <path class="cls-8" d="M903.9,379.4c-4.4,4.4-9.7,7.8-16.5,10.5-16.9,6.9-34.9,11.4-53.2,13.3-3.4-7.1-5.2-14.9-5.3-22.7,14.3-4.6,28.2-10.3,41.6-16.9,6.5-3.2,11.8-7.1,13-14.1,2.8-15.5,4.4-31.2,4.6-46.9,0-3.5,0-7,1.4-10.3,2.4-6,9-10.3,16-11.2,7-.9,14.1,1.1,19.9,4.6,4.2,2.5,7.9,5.9,9.4,10.2,1.6,4.5.8,9.3-.3,14-4.6,20.7-12.5,40.8-23.4,59.6-2.2,3.8-4.6,7-7.3,9.8Z"/>
        </g>
      </g>
      <path class="cls-8" d="M657.5,176c-24.6-32.5-61-53.1-102.4-57.8-6-.7-12.1-1-18.1-1-16,0-31.9,2.4-47.3,7.2-14.3,4.4-27.9,10.8-40.6,19l-11.5-26.4-3.2-7.4-2.4,7.7-19.2,61.5-1.3,4.1h4.3c0-.1,64.4-2.4,64.4-2.4l8.5-.3-6.7-5.1-19.7-15c22.8-14.2,48.6-21.8,74.9-21.8s10.5.3,15.7.9c35.7,4.1,66.9,21.7,88,49.6l1.8,2.4,2.4-1.8,12-9.1,1-.8.2-1.3.2-1.3-.8-1Z"/>
      <path class="cls-13" d="M411.2,622.4c24.8,32.8,61.5,53.5,103.2,58.2,6,.7,12.2,1,18.3,1,16.1,0,32.2-2.4,47.7-7.2,14.4-4.4,28.1-10.9,41-19.1l11.6,26.6,3.3,7.5,2.4-7.8,19.4-62,1.3-4.1h-4.3c0,.1-64.9,2.4-64.9,2.4l-8.5.3,6.8,5.2,19.8,15.1c-22.9,14.4-49,21.9-75.5,21.9s-10.6-.3-15.8-.9c-35.9-4.1-67.5-21.9-88.7-50l-1.8-2.4-2.4,1.8-12.1,9.1-1,.8-.2,1.3-.2,1.3.8,1Z"/>
      <g>
        <g>
          <path class="cls-1" d="M447.4,237.1c-.3-.1-.6-.3-1-.3-3.2-.8-5.4,1.7-8.3,1.8-1.3,0-4.4-2.4-5.1-.3-.3.8-1.3,3.2-2.3,5.8-1.5,1.7-2.9,3.5-4.5,5-4.1,3.9-17.5,7.3-15.2,14.8.4,1.5.9,2.9,1.8,4.1.7,1,1.8,1.7,2.8,2.4.8.5,1.9,1.6,2.9,1.4,1-.2,2.6-2.1,3.3-2.7,2.2-1.8,4.5-3.7,6.7-5.5,2.2-1.8,4.9-3.7,7.6-2.8.6.2,1.1.5,1.7.7.7.1,1.4,0,2.1-.2,2.5-.6,5-1.4,7.3-2.6,4.1-2.1,4.9-9.3,5.7-13.3.2-1,.4-2,0-3-.4-1.6-1.8-2.7-3.2-3.6-.8-.6-1.6-1.1-2.5-1.5Z"/>
          <path class="cls-3" d="M365.7,304.1c3.6.3,7.3.5,10.9-.1,2.8-.6,5.5-1.7,8.2-2.9,16.3-7.5,31.5-17.6,44.7-29.8-3.6-7.7-8.6-14.7-14.9-20.4-12.9,7.2-26.3,13.5-40.2,18.6-2.8,1-5.7,2.1-8.7,2.3-4.3.4-8.6-.9-12.8-2.1-16.2-4.7-32.4-9.4-48.6-14.1-9.8-2.8-19.9-5.7-30-4.2-27.9,4.2-26.7,40-1,45.9,28.8,6.7,62.9,4.5,92.5,6.7Z"/>
        </g>
        <g>
          <g>
            <g>
              <path class="cls-1" d="M104.3,667.4c2,2.6,4.6,4.6,6.9,7,9.2-6.8,17.6-13.7,25.2-22.5-6.5-1.1-7.5-6.9-15.4-1.2-2.5,1.8-12.3,14.1-16.7,16.7Z"/>
              <path class="cls-4" d="M116.7,671.2c1.6,1.4,1.7,2.9,1.6,4.7,0,1.1-.5,2.2-.3,3.2.2,1.1.7,1.9,1.4,2.8,3.3,5,12.3,15.6-.1,16.3-11.3.6-19.8-15.5-24.4-25-.3-.6-.7-1.2-.6-2,0-.7.5-1.4.9-2.1,2.6-3.6,5.7-8.3,10.4-5.4,2,1.3,2.2,3.8,4.3,5.1,1.8,1.1,5.2.8,6.8,2.2Z"/>
            </g>
            <path class="cls-6" d="M160.9,480.6c-2.5,21.9,30.3,44.8,23.6,62.5-13.9,36.9-42.1,67.9-65.4,96.5-1.7,2-12.5,13.4-14.8,16,5,7.1,12.4,12.1,19,18.2,33.3-25.2,93.1-71.9,109.1-93.4,21.8-29.1,26.4-83.8,36.8-121.6,1.7-6.3,4.3-15.3.4-21.2-3-4.6-7.5-6.7-13.3-8.4-15.4-4.5-36.3-13.6-51.4-4.6-16.5,9.8-42,39.2-44,56.1Z"/>
          </g>
          <g>
            <g>
              <path class="cls-1" d="M322.8,679.3c3.4.7,6.8.4,10.1.7,2.7-11.8,4.8-23.3,5-35.5-5.9,3.9-10.4.2-12.7,10.2-.7,3.2-.6,19.5-2.4,24.6Z"/>
              <path class="cls-4" d="M335.1,673.8c2.1,0,3.2,1.2,4.3,2.7.7.8,1,2,1.8,2.8.8.7,1.7,1,2.9,1.2,5.9,1.5,19.7,3.6,10.7,12.4-8.2,8-25.2,1.4-35-2.7-.6-.3-1.4-.5-1.8-1.1s-.6-1.4-.7-2.2c-.5-4.4-1.2-10.2,4.3-11.2,2.4-.4,4.3,1.4,6.9,1,2.1-.4,4.5-2.9,6.6-2.9Z"/>
            </g>
            <path class="cls-6" d="M234.9,500.6c16.2,15.9,62.5,27.6,70,45.9,3,7.3,10.5,63.6,12,101.8.1,2.7-2.6,18.5-2.6,22.1,8.6,2.4,19.3-.3,28.6.3,6.8-44,14.8-129.6,14.8-129.6-9.2-38.5-53.6-82.7-78.3-117.4-4.1-5.7-8.9-13.6-16.2-14.6-5.6-.7-10.1,1.2-15.1,4.4-13.5,8.7-54.4,22.5-57.4,39.7-3.3,18.8,31.7,35,44.1,47.3Z"/>
          </g>
          <path class="cls-3" d="M241.8,258.9c-14.1,12.4-35.3,23.7-43.8,41-20.5,41.7-32.9,86.6-39.3,132.4-1.9,13.4-3.8,26.8-5.7,40.2-1.9,13.2-1.4,16.2,9.4,17.2,21.8,2,45.3-5.2,66.2-10.8,5.3-1.4,10.7-3,15.4-6,7-4.5,11.9-12.1,19.6-15.3,3.6-1.5,7.6-1.9,11.6-2.3,8.4-.8,17.8-1.4,24.3,4,3.8,3.2,5.7,8.2,9.6,11.1,2.7-3.7-1-15.2-1.7-19.8-1-7.1-1.9-14.1-2-21.3-.3-14.5.6-29,1.9-43.4,2.2-25.1,3.4-50.4,5.4-75.5,1.5-18,5.2-32-7-47.2-6.7-8.3-18.9-22.6-29.9-22.4-11.7.2-25.5,10.7-33.8,18Z"/>
          <path class="cls-1" d="M306.8,235.4c-4.1,3.9-9.2,6.4-13.9,9.5-4.5,3.1-7.1,6.5-9.8,11.1-2,3.3-4.3,5.6-8.8,4.4-8.5-2.1-3.5-7.8-3.4-13.4.1-6.4-2.5-12.5-3.6-18.7-3.2-17.9,10.7-44.9,31.7-43.4,23,1.7,20.1,38.7,7.7,50.4Z"/>
          <path class="cls-6" d="M279.5,204.6c-2.3,1.5-3.6,4.7-2.3,7.1.7,1.3,2,2.2,2.7,3.4,2.3,3.6-.4,8.5-3.7,11.2-3.4,2.7-7.6,4.5-9.9,8.2-11.5-9.3-20.2-22.8-21-37.6-.6-10.7,3.7-21.8,11.6-29,9.3-8.5,18.7-8,30.8-9,4.6-.4,9.3-.8,13.8.3,4.1,1,7.2,4,11,5.3,6.4,2.2,17,0,21.9-4.8,3-2.9,4.8-7.2,8.7-8.9,3.7-1.6,8.3.2,10.6,3.6,2.2,3.4,2.2,7.9.5,11.6-1.1,2.4-2.8,4.5-3.8,6.9-2.2,5.1-1.2,11.2-3.7,16.1-2.6,5.2-8.5,7.9-14.1,9.7-5.8,1.9-12.1,3.5-16.3,8.2.8-3.2-4.3-10.2-7.6-10.9-4.3-.9-11.1,4-15.6,5-4.3,1-9.8.9-13.6,3.4Z"/>
        </g>
        <path class="cls-10" d="M281,289.7c-5.5,7-9.6,15.7-8.5,24.5,1.1,9.4,8.1,17.9,7.2,27.4-.4,4.3-2.4,8.2-3.6,12.3-1.2,4.1-1.5,8.9,1,12.3,2,2.7,5.6,4.3,6.4,7.5,6.2-8,12.6-16.4,14.7-26.4,1.5-7.1.7-14.7-2.2-21.4-2.8-6.7-7.7-12.9-7.3-20.1.3-6.7,4.9-12.1,8.4-17.5,4-6.1,0-15.7-2.8-21.9-1.3-3-3.4-6.1-6.6-6.6-1-.2-1.9,0-2.9,0-1.1.1-2.3.2-3.3.8-1,.5-1.9,1.6-1.8,2.7,1.7-.6,3.5.4,4.6,1.8,2.3,3,3.2,9.6,2.7,13.4-.6,4.3-3.4,7.9-6,11.2Z"/>
        <g>
          <circle class="cls-12" cx="385.6" cy="379.1" r="142.6" transform="translate(-155.2 383.7) rotate(-45)"/>
          <circle class="cls-14" cx="385.6" cy="379.1" r="121"/>
          <path class="cls-11" d="M453.9,279.1c11.1,19.4,17,42.1,15.8,66-3.3,66.7-60,118.2-126.8,114.9-23.2-1.1-44.5-8.7-62.3-21,19.8,34.6,56.3,58.7,99.1,60.8,66.7,3.3,123.5-48.2,126.8-114.9,2.1-43.6-19-82.9-52.6-105.8Z"/>
          <path class="cls-9" d="M285.3,385.3c2.9-58.9,53-104.3,111.9-101.4,34.4,1.7,64.3,19.5,82.5,45.8-16.8-32.9-50.3-56.1-89.9-58.1-58.9-2.9-109,42.5-111.9,101.4-1.2,24.5,5.9,47.4,18.9,66.1-8.2-16.1-12.5-34.5-11.6-53.9Z"/>
        </g>
        <g>
          <path class="cls-1" d="M309.5,445.9c.1-.3.2-.7.3-1,.6-3.2-2.1-5.2-2.4-8.1-.1-1.3,2-4.5,0-5.1-.8-.2-3.3-1.1-5.9-1.8-1.8-1.4-3.7-2.6-5.3-4.1-4.2-3.8-8.6-16.9-15.9-14.1-1.4.5-2.9,1.1-4,2.1-.9.8-1.6,1.9-2.2,3-.5.8-1.4,2.1-1.2,3,.3,1,2.3,2.4,3,3.1,2,2.1,4,4.2,6,6.3,2,2.1,4.1,4.7,3.4,7.4-.2.6-.4,1.2-.5,1.8,0,.7.1,1.4.3,2.1.8,2.4,1.8,4.9,3.1,7.1,2.4,3.9,9.6,4.2,13.6,4.7,1,.1,2,.2,3-.1,1.5-.5,2.5-2,3.4-3.4.5-.8,1-1.7,1.3-2.6Z"/>
          <g>
            <path class="cls-2" d="M281,432.3c.3,0,.6-.2.9-.4,4.8-3.2,9-7.1,12.5-11.6-1.7-1.7-3.3-3.5-5-5.2-.1-.1-.3-.3-.4-.3-.4-.1-.7.1-1,.4-3.2,2.6-6.4,5.2-9.5,7.8-1.4,1.2-4,2.7-3.3,4.8.4,1.1,4.7,4.6,5.8,4.6Z"/>
            <path class="cls-3" d="M236.8,369.2c0,3.6,0,7.3,1,10.8.8,2.8,2.1,5.4,3.5,7.9,8.7,15.8,18.5,28.9,31.6,41.2,7.4-4.1,13.3-11.4,18.5-18-8.2-12.3-13.4-22.4-19.5-35.9-1.3-2.8-2.5-5.6-2.9-8.6-.7-4.3.2-8.7,1.1-13,3.5-16.5,6.9-33.1,10.4-49.6,2.1-10,4.2-20.3,1.9-30.3-6.3-27.6-41.7-23.7-45.8,2.4-4.5,29.3.2,63.2.2,92.9Z"/>
            <path class="cls-2" d="M286.7,409.6c-1.1-.6-2.8-.1-2.9,1.2,0,1,.9,1.9,1.9,1.8,1.6-.1,2.5-2.1,1.1-3,0,0,0,0,0,0Z"/>
            <path class="cls-2" d="M283.1,404.7c-1.1-.6-2.8-.1-2.9,1.2,0,1,.9,1.9,1.9,1.8,1.6-.1,2.5-2.1,1.1-3,0,0,0,0,0,0Z"/>
          </g>
        </g>
      </g>
    </g>
  </g>
</svg>