<?xml version="1.0" encoding="UTF-8"?>
<svg id="Layer_1" data-name="Layer 1" xmlns="http://www.w3.org/2000/svg" version="1.1" xmlns:xlink="http://www.w3.org/1999/xlink" viewBox="0 0 1200 1200">
  <defs>
    <style>
      .cls-1 {
        fill: #bcbec0;
      }

      .cls-1, .cls-2, .cls-3, .cls-4, .cls-5, .cls-6, .cls-7, .cls-8, .cls-9, .cls-10, .cls-11, .cls-12, .cls-13, .cls-14, .cls-15, .cls-16, .cls-17, .cls-18, .cls-19, .cls-20, .cls-21, .cls-22, .cls-23, .cls-24, .cls-25, .cls-26, .cls-27, .cls-28, .cls-29, .cls-30 {
        stroke-width: 0px;
      }

      .cls-2 {
        fill: #f8ca4d;
      }

      .cls-3 {
        fill: #2a354d;
      }

      .cls-4 {
        fill: #b55c4a;
      }

      .cls-5, .cls-31 {
        fill: #000;
      }

      .cls-6 {
        fill: #ad8463;
      }

      .cls-7 {
        fill: #311908;
      }

      .cls-8 {
        fill: #29354d;
      }

      .cls-31 {
        font-family: MyriadPro-Regular, 'Myriad Pro';
        font-size: 36px;
      }

      .cls-9 {
        fill: #2f3440;
      }

      .cls-10 {
        fill: #c2946e;
      }

      .cls-11 {
        fill: #dbac2e;
      }

      .cls-12 {
        fill: #b38866;
      }

      .cls-13 {
        fill: #2d323d;
      }

      .cls-14 {
        fill: #bf926d;
      }

      .cls-15 {
        fill: #fff8f0;
      }

      .cls-16 {
        fill: #20232b;
      }

      .cls-17 {
        fill: #402516;
      }

      .cls-18 {
        fill: #303540;
      }

      .cls-19 {
        fill: #33415e;
      }

      .cls-20 {
        fill: #967456;
      }

      .cls-21 {
        fill: #2c3852;
      }

      .cls-22 {
        fill: #1f2738;
      }

      .cls-23 {
        fill: #292e38;
      }

      .cls-24 {
        fill: #cf9e76;
      }

      .cls-25 {
        fill: #fff;
      }

      .cls-32 {
        display: none;
      }

      .cls-26 {
        fill: #f8e8bc;
      }

      .cls-27 {
        fill: #26160d;
      }

      .cls-28 {
        fill: #1c1f26;
      }

      .cls-29 {
        fill: #542514;
      }

      .cls-30 {
        fill: #343a47;
      }
    </style>
    <path id="path" d="M587.6,88.2c0,17.9-39.2,32.3-87.5,32.3s-87.5-14.5-87.5-32.3,39.2-32.3,87.5-32.3,87.5,14.5,87.5,32.3Z"/>
  </defs>
  <g class="cls-32">
    <path class="cls-19" d="M450.3,278.9c12.5-9,39.9-37,39.9-37,0,0-7.4-27.2-24-21.6,0,0-23.4,30.7-30.4,37.1,0,0-23.6,10.7-54.8,5.6l-1.3,15.5s50.3,15.1,70.7.4Z"/>
    <g>
      <path class="cls-24" d="M380,277.4c-1.6,2.1-8.1,2-12,1-3.7.7-7,.4-7.9-2-1.1-2.9-.5-3.4-.5-5.5-.5-1.4-.1-3.1.2-4.5-.1-1.1-.6-3.6,0-4.6.2-1.3-1.5-5.6,3.3-5.8,2.4-.1,8,1.6,8.5-5.2.7-8.4,6.9-9.3,6.3-5.2-.6,4.2-1.5,10.9.3,12.9,4.4,4.9,5.9,13.8,1.8,19Z"/>
      <path class="cls-12" d="M368.8,258.7s.2,1.9,0,3.5c-.1.9-1.3,1.1-1.7,1.2-1,.1-4,.4-4.8,0s-2-2-2-2c.9,2.6,2.3,2.9,2.3,2.9.9.2,2.7,0,2.7,0,3.2-.3,3.8-.9,4-2.2.2-1.2-.5-3.1-.5-3.1Z"/>
      <path class="cls-12" d="M368.8,263.6s.2,1.9,0,3.5c-.1.9-1.3,1.1-1.7,1.2-1,.1-4,.4-4.8,0s-2-2-2-2c.9,2.6,2.3,2.9,2.3,2.9.9.2,2.7,0,2.7,0,3.2-.3,3.8-.9,4-2.2.2-1.2-.5-3.1-.5-3.1Z"/>
      <path class="cls-12" d="M368.8,268.3s.2,1.9,0,3.5c-.1.9-1.3,1.1-1.7,1.2-1,.1-4,.4-4.8,0-1-.5-2-2-2-2,.9,2.6,2.3,2.9,2.3,2.9.9.2,2.7,0,2.7,0,3.2-.3,3.8-.9,4-2.2.2-1.2-.5-3.1-.5-3.1Z"/>
      <path class="cls-12" d="M366.2,277.9s1.4,0,1.6-.9c.2-1.2,0-2.7,0-2.7,0,0,.6,1.5.4,2.4-.2,1-.7,1.5-3.5,1.7l1.5-.5Z"/>
      <path class="cls-12" d="M370.9,261.4s0,4.4,2.5,6c0,0-1.3.8-1.6,2.8,0,0,0-2.4-.6-3.6s-.4-5.1-.4-5.1Z"/>
    </g>
    <path class="cls-16" d="M530.6,441.8s-.5,4.7-1.9,6.6c-1.4,1.9-5.5,5.1-4.4,9,1,3.9,7.8,5.3,7.8,5.3,0,0,7.5,1.7,14-4.8,0,0,.2-1.3,0-3.4l.6-1.2s0-6.4-3.8-11.5c-5.5-2.9-12.4,0-12.4,0Z"/>
    <path class="cls-16" d="M470,440s-4.8,2.1-12.1,1.5c-5.2-.4-12.3,2.3-15.9,10.3,0,0,3.8,6.1,16.5,4.5,12.6-1.5,10.5-4.3,13.9-4,3.4.3,9.2.9,11.3-.7,0,0-.2-4.1-1.9-7.9-1.7-3.8-11.8-3.8-11.8-3.8Z"/>
    <path class="cls-16" d="M544.5,442.2c-5.4,5-16.5.5-16.5.5,1.2-6.8-5.8-32.8-9.9-41.9-2.7-6-5-24.6-7.5-37.3-.8-3.8-1.5-7.1-2.4-9.4-.6-1.6-1.2-2.7-1.8-3.1-4.5-3.2-11.9-3.2-18,0-2,1-3.5,5.7-4.6,12-.1.8-.2,1.6-.4,2.4-1.9,13.3-2,31.9.2,39.5,3.3,11.8-1.2,40.1-1.2,40.1-6.2-.5-17.2-3.7-17.2-3.7,5.2-5.4-3-46.2-3-46.2-1.4-11.2-2.3-21.3-3-30-.8-10.2-1.1-18.5-1.3-25-.1-4.2-.1-7.7-.1-10.2,0-.3,0-.5,0-.8,0-3.2.1-4.9.1-4.9,0,0,1.6-13.1,31-13.1s44.6,13.9,44.6,13.9c.1.6.2,1.3.4,2.1,0,.3,0,.6.1,1,.5,5,.6,12.5.5,20.8,0,5.6-.1,11.6-.1,17.5,0,12.8.3,24.9,2.3,31.2,4.5,14.6,7.8,44.6,7.8,44.6Z"/>
    <path class="cls-19" d="M532,317c-16.4,7-28.1,6.1-39.9,6l-8.4-.4c-16.5-1.4-24.8-3.8-24.8-3.8-4-70.7,9.6-98.9,9.6-98.9,16.2-4.9,55.5-10.9,81.2,4,0,21.2-3.9,34.9-11.4,57.2-6.7,19.9-6.5,35.9-6.5,35.9Z"/>
    <path class="cls-24" d="M567.2,329.7s-.9,6.5-3.8,9.7c-2.9,3.2-.8,4.9-1.6,6.3-.8,1.4,1,4.4,2.4,5.2,1.5.7,1.6,1,2.9,1.9s4.3.2,5.6,0c1.3-.1,3.5-.4,5.1-1,1.6-.5,3-1.2,4.6-2,1.6-.8,2.6-4.9,1.1-8.4s-3-10.8-4.1-12.4c-1.1-1.6-12.1.5-12.1.5Z"/>
    <path class="cls-19" d="M549.8,223.9s-22.5,2.9-22.5,21.6c0,0,24.2,27.2,28.2,36.5,4.1,9.3,9.1,33.5,10,49.4,0,0,6.8,1.8,15.5-1.8,0,0,.6-39.2-3.9-55.1-4.6-15.9-27.3-50.5-27.3-50.5Z"/>
    <path class="cls-14" d="M516.9,204.9v1.8s0,.6,0,.6v1.2s-.2,12-.2,12c-8.1,3.2-16.6,7.1-20.3,6.5-4.7-.7-3.4-6.5-3.4-6.5.6-.7,1.1-1.5,1.6-2.5.4-1,.8-2,1.1-3.1.2-.7.3-1.4.5-2,.8-4,.9-7.9.9-7.9h20Z"/>
    <polygon class="cls-16" points="493.6 223.8 492.3 233.7 498.7 234 502.7 225.1 497.6 226.2 493.6 223.8"/>
    <path class="cls-20" d="M516.9,204.9v1.8c-6.9,3.3-15.1,5.4-20.8,6.2.8-4,.9-7.9.9-7.9h20Z"/>
    <path class="cls-16" d="M492.3,233.7s-9.4,28.4-14.7,58.2c1.7,9.3,4.8,19.1,4.8,19.1l11-18.7,5.3-58.3-6.5-.3Z"/>
    <polygon class="cls-8" points="497.6 226.2 484.3 231.3 489.1 215.4 496.1 212.6 497.6 226.2"/>
    <path class="cls-8" d="M497.6,226.2l13.6,7.8,7.9-10.6s2.2-4.4,3.2-8.4l-5.5-3.2-19.3,14.4Z"/>
    <g>
      <path class="cls-10" d="M481.8,160.1s-4.8-5-10.2.5c-5.8,5.9,1.6,23.5,9.7,21.8,0,0,1.8-.4,2.4-2.5s-2-19.7-2-19.7Z"/>
      <path class="cls-24" d="M540.6,171.5c-.2,2.5-.6,4.9-1.1,7.1-5.6,25.6-27.3,31-43.3,30.1-3-.2-5.9-.9-8.6-2.1-11.2-5-18.7-18-16.1-29.6,3.2-14.5,2.9-30.6,2.9-30.6.3-36.8,33.8-47,54.4-36.3,19.8,10.4,13.7,40.4,11.8,61.3Z"/>
      <path class="cls-29" d="M507.4,178.2s0,.7-.5,1.8c-.2.6-.5,1.3-.9,2.1-.2.4-.4.8-.7,1.2,0,0,0,0,0,0,0,.1-.2.3-.3.4-2.4,3.2-7.2,6.2-13.9,5.7-2.5-.2-4.5-.7-6.1-1.5-1-.5-1.8-1.2-2.5-1.9-1.3-1.3-2.1-2.9-2.6-4.3h0c-.9-2.5-.8-4.7-.8-4.7,0,0,.5,0,3.3,0,3.5,0,10.7.3,24.9,1.1Z"/>
      <path class="cls-4" d="M505,183.8c-2.4,3.2-7.2,6.2-13.9,5.7-2.5-.2-4.5-.7-6.1-1.5-1-.5-1.8-1.2-2.5-1.9,2.6-1.5,6.1-2.9,10.8-3.3,4.7-.4,8.6.1,11.7.9Z"/>
      <path class="cls-25" d="M507.4,178.3s0,.7-.5,1.8c-11.3,1.2-24-.1-24-.1l-.5-2.8c3.5,0,10.7.3,24.9,1.1Z"/>
      <path class="cls-7" d="M500.4,146.6s7.5-8.4,19.7-1.9c0,0-.4-4.2-5.9-6.1-5.2-1.8-10.6,0-12.5,2.1-2.4,2.7-1.3,5.9-1.3,5.9Z"/>
      <path class="cls-7" d="M487,145.5s-2.9-7.3-14-2.3c0,0,.5-3.3,4.2-4.9,4.8-2.1,8.7-.5,9.7,1.8,1.3,2.8.1,5.5.1,5.5Z"/>
      <g>
        <path class="cls-15" d="M487.3,157.3s-.7-5-4.5-5.2-5.7,4.9-5.7,4.9c0,0,1.1,1.3,4.5,1.7,3.4.5,5.7-1.4,5.7-1.4Z"/>
        <g>
          <path class="cls-7" d="M486.2,155.6c0,1.6-1.2,2.9-2.8,3-1.6,0-3-1.2-3.1-2.8s1.2-2.9,2.8-3c1.6,0,3,1.2,3.1,2.8Z"/>
          <path class="cls-27" d="M484.8,155.6c0,.8-.6,1.5-1.4,1.5s-1.5-.6-1.6-1.4c0-.8.6-1.5,1.4-1.5s1.5.6,1.6,1.4Z"/>
          <path class="cls-15" d="M483.4,154.5c0,.6-.5,1.2-1.1,1.2-.6,0-1.2-.5-1.2-1.1,0-.6.5-1.2,1.1-1.2.6,0,1.2.5,1.2,1.1Z"/>
          <path class="cls-15" d="M485.2,156.9c0,.4-.3.8-.8.8-.4,0-.8-.3-.8-.8,0-.4.3-.8.8-.8.4,0,.8.3.8.8Z"/>
        </g>
        <path class="cls-17" d="M487.3,157.3s0-.2-.2-.6c-.1-.4-.4-.9-.7-1.5-.3-.6-.7-1.2-1.4-1.8-.3-.3-.7-.5-1.1-.7-.2,0-.4-.1-.7-.2-.2,0-.5,0-.7,0-.3,0-.6,0-.8,0-.2,0-.4.1-.6.2-.2,0-.4.2-.6.3-.2.1-.4.2-.6.4-.3.3-.7.6-.9.8-.3.3-.5.6-.7.8-.4.5-.8,1-1,1.4-.2.3-.3.5-.3.5,0,0,.1-.9.8-2.1.3-.6.8-1.3,1.5-1.9.4-.3.8-.6,1.4-.8.5-.2,1.3-.4,1.8-.4.4,0,.6,0,1,0,.3,0,.6.2.9.3.3.1.5.3.7.4.2.2.4.3.6.5.7.7,1,1.4,1.2,2.1.4,1.3.4,2.2.4,2.2Z"/>
      </g>
      <g>
        <path class="cls-15" d="M503.7,157.6s.7-4.7,4.5-4.9c3.8-.2,5.7,4.6,5.7,4.6,0,0-1.1,1.2-4.5,1.6-3.4.4-5.7-1.3-5.7-1.3Z"/>
        <g>
          <path class="cls-7" d="M504.5,155.9c0,1.6,1.1,2.9,2.7,2.9s2.9-1.2,3-2.7-1.1-2.9-2.7-2.9c-1.6,0-2.9,1.2-3,2.7Z"/>
          <path class="cls-27" d="M505.9,156c0,.8.6,1.4,1.3,1.5.8,0,1.5-.6,1.5-1.4,0-.8-.6-1.4-1.3-1.5-.8,0-1.5.6-1.5,1.4Z"/>
          <path class="cls-15" d="M507.3,155.1c0,.5.4.9,1.1,1,.6,0,1.1-.4,1.2-.9,0-.5-.4-.9-1.1-1-.6,0-1.1.4-1.2.9Z"/>
          <path class="cls-15" d="M505.5,157.1c0,.4.3.6.7.7.4,0,.8-.3.8-.6,0-.4-.3-.6-.7-.7-.4,0-.8.3-.8.6Z"/>
        </g>
        <path class="cls-17" d="M503.7,157.6s0-.2.2-.5c.1-.3.4-.8.7-1.4.3-.5.7-1.2,1.4-1.7.3-.3.7-.5,1.1-.7.2,0,.4-.1.7-.2.2,0,.5,0,.7,0,.3,0,.6,0,.8,0,.2,0,.4,0,.6.2.2,0,.4.2.6.3.2.1.4.2.6.3.3.3.7.5.9.8.3.3.5.5.7.8.4.5.8,1,1,1.3.2.3.3.5.3.5,0,0-.1-.8-.8-2-.3-.6-.8-1.2-1.5-1.8-.4-.3-.8-.6-1.4-.8-.5-.2-1.3-.4-1.8-.3-.4,0-.6,0-1,0-.3,0-.6.2-.9.3-.3.1-.5.2-.7.4-.2.1-.4.3-.6.5-.7.7-1,1.4-1.2,2-.4,1.2-.4,2-.4,2Z"/>
      </g>
      <path class="cls-12" d="M483.3,165.9s6.5-3,6.5-8.9c0-6.4-1.7-9.5-1.7-9.5,0,0,3.3,12.5-4.8,18.3Z"/>
      <path class="cls-12" d="M491.4,171.1s-9.3,2.1-8.2-5c0,0,1.4,5.7,8.2,5Z"/>
      <path class="cls-10" d="M549.3,159.3c-.6-.6-1.1-1-1.7-1.4-1.6-1.1-3.1-1.3-4.3-1.1-2.5.3-4.2,2-4.2,2,0,0-2.7,17.6-2,19.7.6,2.1,2.4,2.5,2.4,2.5,6.9,1.4,4.3-5.2,8-8.1,4.5-3.5,4.9-10.4,1.7-13.6Z"/>
      <path class="cls-12" d="M487.3,157.8s-3,4.6-9.2,1.7c0,0,5.2,2,9.2-1.7Z"/>
      <path class="cls-12" d="M503.4,158.4s3,4.6,9.2,1.7c0,0-5.2,2-9.2-1.7Z"/>
      <path class="cls-12" d="M525.7,166.6s-1.5,2-4.2,5.1-3.5,7.6-3.5,7.6c0,0,3.2-4.2,5.3-5.9,2.1-1.7,2.5-6.9,2.5-6.9Z"/>
      <path class="cls-12" d="M540.8,171.6c0-.9.6-1.9,2.1-2.4s2.2-.3,2.8-3.2c0,0,2.6,2.4,0,5.4s-2.7.9-3.8,1.4c-1.1.5-1.2-.3-1.2-1.2Z"/>
      <path class="cls-12" d="M527.1,134.9s-.5,6.8.4,8.7,1.1,4,1.1,4c0,0,.8-2.7.1-5.8-.7-3-1.6-6.9-1.6-6.9Z"/>
      <path class="cls-12" d="M489.9,171s.9-.9,3.1.2c2.1,1.1,4.5-.4,3.6-2.6-1-2.5-2.4-2.6-2.4-2.6,0,0,3.6,4.3-.2,4.5-2.3,0-3-.5-4.1.6Z"/>
      <path class="cls-12" d="M487.3,171.3s-1.5-.8-3.7-.3-3.2-1.9-1.3-4.1c0,0-.7,3.7,1,3.4,3.1-.5,4,1,4,1Z"/>
      <path class="cls-12" d="M485.9,171s0,1.5-.5,4.9c0,0,1.5-2.5,1.5-4.9h-1Z"/>
      <path class="cls-12" d="M488.8,171.2s0,1.4-.4,4.8c0,0,1.3-2.4,1.3-4.8h-.9Z"/>
      <path class="cls-12" d="M490.1,168s.4-1.6,2-2c0,0-.7,0-1.2.2-.9.6-.8,1.7-.8,1.7Z"/>
      <path class="cls-12" d="M505.3,183.4c-.3.6-3.5,11.5-17.5,9.6-10.3-1.4-7.9-10.8-7.9-11.2.5,1.4,1.3,3,2.6,4.3.7.7,1.5,1.4,2.5,1.9,1.6.8,3.6,1.3,6.1,1.5,6.6.5,11.4-2.5,13.9-5.7.1-.1.2-.3.3-.4Z"/>
      <path class="cls-6" d="M539.8,161.7c.3,4.8,1,8.5-.2,16.9-5.6,25.6-27.3,31-43.3,30.1-3-.2-5.9-.9-8.6-2.1,1.9.2,4,.3,6.3.4,34.1,1.1,37.3-36.3,38.3-37.6s4.7-6.5,4.7-6.5l2.8-1.2Z"/>
      <path class="cls-12" d="M486.6,151.8s-4.6-4.8-9.6.6c0,0,4.8-3.5,9.6-.6Z"/>
      <path class="cls-12" d="M513.5,151.8s-4.6-4.8-9.6.6c0,0,4.8-3.5,9.6-.6Z"/>
      <path class="cls-7" d="M539.8,162l-3.2,1.6-1.6,2.2s3.1-.6,5-1.3l-.2-2.5Z"/>
      <path class="cls-7" d="M510.2,97.8c-.8,0-2.7.6-4.7.9-1.5.2-3.2.2-4.7.6-2,.5-3.1,2.5-3.6,3.1-.7.7-3.3,1.7-3.6,3.4-.2,1.4.3,3.9,1.8,5.2.9.8,2.8,1,4.7,1.6,1.2.4,3-.9,4.7-.7,1.3.2,2.7.7,4.4.8,1.2,0,2.5.2,3.8.2,1.3,0,2.6-.4,3.9-.3,1.3,0,2.5,1.4,3.8,1.5,1.3.1,2.8-.9,4-.6,1.3.2,2.4,1.4,3.5,1.9,1.4.5,3.1.4,4.4,1.1,1.3.8,2.5,1.9,3.4,3.1,1,1.2.3,3.3.9,4.7.5,1.4,2.8,2.4,3.2,3.9.3,1.3-.6,3-.4,4.3.2,1.4.3,2.7.4,4.1.1,1.4-.6,2.7-.5,4.1,0,1.4,0,2.7-.2,4-.1,1.4.5,2.8.2,4.1-.3,1.3-.5,2.7-1,4-.9,2.4-1.5,4.5-1.7,6-.2,1.5-1.8,3.2,0,4.2,1.3.7,2.5.7,3.6-.4,1.9-1.9.9-4.6,1.4-5.9,1-.4,2.9-.8,3.9-2.3.7-1,.1-3,.7-4.4.5-1.2,1.1-2.5,1.5-3.9.4-1.3,1.2-2.6,1.5-4,.2-1.4.7-2.8.8-4.2,0-1.4-.4-2.8-.4-4.3,0-1.4-.2-2.8-.4-4.2-.2-1.4.8-3.1.5-4.4-.3-1.4-2.1-2.4-2.6-3.7-.5-1.3-1.8-2.2-2.5-3.4-.6-1.2.1-3.3-.7-4.5-.8-1.1-1.7-2.4-2.7-3.4-.9-1-2.6-1.3-3.7-2.2-1.1-.9-2.6-.9-3.9-1.7-1.2-.7-2.3-1.2-3.7-1.8-1.2-.6-2-2.5-3.4-2.9-1.3-.4-2.8-.3-4.2-.6-1.3-.3-2.5-1.9-4-2.1-1.4-.2-2.8-.2-4.3-.3-1.4-.1-2.8-.4-4.3-.5Z"/>
    </g>
    <path class="cls-28" d="M457.8,316.6s-.6,4.2,0,8c0,0,25.9,8.7,75.7.4,0,0,.4-3,0-8.1,0,0-30.5,5.7-75.7-.3Z"/>
    <path class="cls-8" d="M525.1,215s-1.8,2.1-2.5,4.1l21.6,6.4s1.8-3.2,3-4.3c0,0-13.3-4.4-22-6.2Z"/>
    <path class="cls-8" d="M488.2,215s-1.2,2.2-2,4.5l-19.2,4.5s1-3.1,2.3-4.8c0,0,7.9-2.9,18.9-4.2Z"/>
    <g>
      <path class="cls-2" d="M476.6,125.1l.5-2.7s13.7-2,73.2,7.4v2.7s-51.2-1-73.7-7.4Z"/>
      <path class="cls-16" d="M550.3,132.5s-2.2.4-6,1c0,0-.1,0-.1,0-16.8,2.6-63.7,8.5-87.2-3.5,0,0,7.4-2.5,19.6-4.9,0,0,0,0,0,0,50.7,4.7,62.9,6.1,73.7,7.4Z"/>
      <path class="cls-3" d="M477.1,122.5s-1.6-7.2-10.8-13.2c-5.5-10.3,17.4-21.6,33.3-21.2,40.8,1.1,64,34.9,61.5,36.9-3.5,2.7-10.7,1.6-10.9,4.7l-73-7.2Z"/>
      <path class="cls-16" d="M477.1,122.5s-6.4-15.6,14.6-15.6c24.6,0,50.3,18.5,58.6,22.9l-73.2-7.2Z"/>
      <polygon class="cls-26" points="476.6 125.1 477.7 123.5 512.9 126.1 477.1 122.5 476.6 125.1"/>
      <g>
        <path class="cls-2" d="M498.7,111.5c0,4.3-3.3,7.9-7.3,7.9s-6.3-2.5-7.1-5.9c-.1-.6-.2-1.3-.2-1.9,0-4.3,3.3-7.9,7.3-7.9s1,0,1.5.2c3.3.7,5.9,3.9,5.9,7.7Z"/>
        <polygon class="cls-11" points="490.9 105.2 492.5 109 496.3 109.7 493.4 112.5 493.9 116.6 490.5 114.5 487 116.3 487.8 112.3 485.1 109.3 489 108.9 490.9 105.2"/>
        <polygon class="cls-26" points="490.9 105.2 489.3 109.2 485.5 109.4 488.2 112.1 487 116.3 487.6 112.2 485.1 109.3 489 108.7 490.9 105.2"/>
        <path class="cls-26" d="M492.8,103.8c-2.9,0-8.6,1.1-8.6,9.6-.1-.6-.2-1.3-.2-1.9,0-4.3,3.3-7.9,7.3-7.9s1,0,1.5.2Z"/>
      </g>
      <path class="cls-18" d="M544.1,133.5c-16.8,2.6-63.7,8.5-87.2-3.5,0,0,7.4-2.5,19.6-4.9-9.9,2.7-17.6,5-14.8,5.8,28.4,8.3,63,5,82.4,2.7Z"/>
    </g>
    <g>
      <path class="cls-2" d="M521.3,248.5c1.4-1.2,8.2-2.5,8.9-7,.3-1.7-.2-3.3-1.3-4.6-.2-.2-.4-.6-.4-1,0-1.4,1.7-1.8,1.7-1.8,0,0-.1-2.1-.6-3.2-4,1.1-5.5-1-5.5-1l-2.9,18.6Z"/>
      <path class="cls-2" d="M521.3,248.5c-1-1.6-7.1-4.8-6.4-9.3.3-1.7,1.2-3.1,2.7-4,.3-.2.5-.4.7-.9.5-1.3-1.1-2.2-1.1-2.2,0,0,.8-1.9,1.6-2.9,3.5,2.2,5.5.7,5.5.7l-2.9,18.6Z"/>
      <path class="cls-26" d="M519.5,246.7c-.6-.6-1.3-1.1-1.9-1.8-.3-.3-.6-.6-.8-.9-.3-.3-.5-.7-.8-1-.2-.4-.4-.7-.6-1.1,0-.2-.2-.4-.2-.6,0-.2-.1-.4-.1-.6v-.6c0-.2,0-.4,0-.6,0-.4.1-.8.3-1.2.3-.8.7-1.5,1.3-2.1.3-.3.6-.5,1-.8.4-.2.7-.7.8-1.1.1-.5,0-1-.3-1.4-.2-.3-.5-.6-.9-.8.2-.5.4-.9.6-1.4.2-.5.5-.9.8-1.3l.5.3c.2.1.4.2.7.3.2,0,.5.2.7.2.2,0,.5.1.7.2.2,0,.5,0,.7,0,.2,0,.5,0,.7,0,.5,0,1-.2,1.4-.5-.4.3-.9.4-1.4.4-.2,0-.5,0-.7,0-.2,0-.5,0-.7-.1-.2,0-.5-.1-.7-.2-.2,0-.4-.2-.7-.3-.2-.1-.4-.2-.6-.3l-.6-.4h-.1c0,0,0,0,0,0-.4.4-.7.9-.9,1.4-.3.5-.5,1-.7,1.5h0c0,.1.1.2.1.2.3.2.7.5.9.8.2.3.3.7.2,1.1-.1.4-.3.7-.7.9-.4.2-.7.5-1,.8-.6.6-1.1,1.4-1.4,2.2-.1.4-.3.8-.3,1.3,0,.2,0,.4,0,.6v.7c0,.2.2.4.2.6,0,.2.1.4.2.6.2.4.4.8.6,1.2.3.4.5.7.8,1,.3.3.6.6.9.9.3.3.6.6,1,.9.3.3.7.5,1,.8.3.3.7.5,1,.8.3.3.6.6.9.9-.2-.4-.5-.7-.8-1-.3-.3-.6-.6-.9-.9Z"/>
      <path class="cls-11" d="M523.6,247.3c.8-.4,1.6-.7,2.3-1.1.4-.2.7-.4,1.1-.6.4-.2.7-.5,1-.7.3-.3.6-.6.9-.9.1-.2.3-.3.4-.5.1-.2.2-.3.3-.5l.2-.6c0-.2.1-.4.2-.6,0-.4.1-.8.1-1.2,0-.8-.3-1.6-.6-2.4-.2-.4-.4-.7-.7-1-.3-.4-.5-.9-.4-1.3,0-.5.3-1,.7-1.2.3-.3.7-.4,1.1-.5,0-.5,0-1-.2-1.5,0-.5-.2-1-.4-1.5h-.6c-.2.2-.5.2-.7.2-.2,0-.5,0-.7,0-.2,0-.5,0-.7,0-.2,0-.5,0-.7-.2-.2,0-.5-.2-.7-.3-.4-.2-.9-.5-1.1-.9.3.4.8.6,1.2.8.2,0,.5.2.7.2.2,0,.5,0,.7.1.2,0,.5,0,.7,0,.2,0,.5,0,.7,0,.2,0,.5,0,.7-.1l.7-.2h.1s0,0,0,0c.2.5.4,1.1.5,1.6.1.6.2,1.1.2,1.7v.2s-.2,0-.2,0c-.4,0-.8.3-1.1.5-.3.2-.5.6-.5,1,0,.4,0,.8.4,1,.3.3.5.7.7,1.1.4.8.6,1.7.7,2.6,0,.4,0,.9-.1,1.3,0,.2,0,.4-.2.6l-.3.6c0,.2-.2.4-.3.6-.1.2-.3.4-.4.5-.3.3-.6.6-1,.9-.4.3-.7.5-1.1.7-.4.2-.8.4-1.1.6-.4.2-.8.4-1.2.5-.4.2-.8.3-1.2.5-.4.2-.8.3-1.2.5-.4.2-.8.3-1.1.6.3-.3.7-.5,1.1-.7.4-.2.8-.4,1.2-.5Z"/>
      <polygon class="cls-26" points="524.1 230.2 523 230.7 521.8 232.2 523.4 231.2 524.1 230.2"/>
      <path class="cls-26" d="M521.3,248.5l2.9-18.6s-1.9,1.1-4.5-.2c0,0,1.1,1.1,3.5,1.2l-1.9,17.6Z"/>
      <polygon class="cls-26" points="517.9 235.2 519.5 234.1 518.1 234.6 517.9 235.2"/>
      <polygon class="cls-11" points="523.5 234.3 524.3 237.1 527 238 524.7 239.7 524.7 242.6 522.5 240.9 519.9 241.9 520.8 239.1 519.1 236.8 521.9 236.8 523.5 234.3"/>
      <polygon class="cls-26" points="523.5 234.3 522.1 237 519.4 236.9 521 239 519.9 241.9 520.6 239 519.1 236.8 521.9 236.7 523.5 234.3"/>
    </g>
    <path class="cls-1" d="M491.6,318.1l-12.1-.5c-.8,0-1.4.6-1.5,1.4l-.4,8.6c0,.8.6,1.5,1.4,1.5l12.1.5c.8,0,1.5-.6,1.5-1.4l.4-8.6c0-.8-.6-1.5-1.4-1.5ZM490.7,327.1c0,.2-.2.4-.4.4l-10.2-.5c-.2,0-.4-.2-.4-.4l.3-6.6c0-.2.2-.4.4-.4l10.2.5c.2,0,.4.2.4.4l-.3,6.6Z"/>
    <polygon class="cls-21" points="481.6 257 463.3 255.6 464.5 248 483.1 249 481.6 257"/>
    <path class="cls-22" d="M475.2,252.7c-.1,1.3-1.3,2.2-2.5,2.1-1.3-.1-2.2-1.3-2.1-2.5.1-1.3,1.3-2.2,2.5-2.1,1.3.1,2.2,1.3,2.1,2.5Z"/>
    <polygon class="cls-21" points="526 261 507.6 259.6 509 251.1 527.5 253 526 261"/>
    <path class="cls-22" d="M519.5,256.7c-.1,1.3-1.3,2.2-2.5,2.1-1.3-.1-2.2-1.3-2.1-2.5.1-1.3,1.3-2.2,2.5-2.1,1.3.1,2.2,1.3,2.1,2.5Z"/>
    <path class="cls-22" d="M467.6,238.8l-.6,3.2s6.5.5,13.9.8c0,0,.7-3.2.7-3.2l-13.9-.8Z"/>
    <path class="cls-2" d="M481.3,218.9l-.2-2.3,1.3-.8s-1.9.3-3.2.6l-.9.6.2,2.4,2.8-.5Z"/>
    <path class="cls-2" d="M476,220.1l-.2-2.3,1.4-1s-1.7.3-3.3.8l-.9.6.2,2.4,2.8-.5Z"/>
    <path class="cls-2" d="M528.1,219.4l2.6-2.7-.3-.7s1.3.4,2.4.7l.7.8-2.5,2.9-2.9-.9Z"/>
    <path class="cls-2" d="M536.1,221.6l2.3-2.5-1-1.2s1.5.4,2.4.7l1.2,1.6-2.2,2.2-2.7-.7Z"/>
    <text>
      <textPath startOffset="1953.9%" xlink:href="#path"><tspan class="cls-31"><tspan x="0" y="0">Notify()!</tspan></tspan>
      </textPath></text>
  </g>
  <g>
    <g>
      <path class="cls-12" d="M207,596.6s-2.3-28.8-2.3-30.1c-.1-17-9.8-35.2,3.3-36.4,0,0,7.5,43.6,9.2,54.2,1.7,10.6-10.2,12.4-10.2,12.4Z"/>
      <path class="cls-24" d="M208.8,591s-.7-30.7-.7-32c-.1-17-9.9-35.2,3.3-36.4,0,0,7.5,43.6,9.2,54.2,1.7,10.6-11.9,14.3-11.9,14.3Z"/>
      <path class="cls-24" d="M211.2,610.5s-7.2-7.4-2.8-24.5c2.5-9.8,6.4-25.5,6.6-30.3.2-4.8-11.6-39.8,3.7-40.5,1.9,10.2,4,23.6,7.7,29.5,3.7,5.9,9.1,39.5,13.5,48.1,4.4,8.6,4.8,23.1,4.8,23.1l-33.5-5.4Z"/>
      <path class="cls-12" d="M213.6,564.3s.2-2.6.6-6.5c0-1,.2-2,0-3.1-.2-1-.5-2.2-.8-3.4-.6-2.4-1.2-5-1.7-7.6-.5-2.6-.9-5.3-1.2-7.7-.3-2.5-.3-4.8-.2-6.8,0-2,.4-3.6.6-4.8.3-1.1.5-1.8.5-1.8,0,0,0,.7,0,1.8,0,.6,0,1.3,0,2.1,0,.8.1,1.7.2,2.7.3,3.9,1.3,9.1,2.3,14.3.5,2.6,1,5.2,1.5,7.7.2,1.2.4,2.4.5,3.6.1,1.1-.1,2.3-.3,3.3-.4,2-.9,3.5-1.2,4.6-.3,1.1-.6,1.7-.6,1.7Z"/>
      <path class="cls-24" d="M263.8,591.9c6.4,8.8,5.7,35.2,5.7,35.2,0,0-10,1-28.3-1-18.4-2-29.9-15.7-29.9-15.7,0,0,5.9-3.5,12.8-7.3-4.7-7.7-5.9-17.9-.5-29.1,3-6.2,3.2-12.2,3.5-18.6.3-6.4,6.9-10.6,7.3-5.8.4,4.8,7.2,22.6,7.2,22.6,0,0,2.9,13.8,6.6,22,8.8-1.3,15.9-2.4,15.9-2.4Z"/>
      <path class="cls-12" d="M224,603.2s-.1-.2-.3-.5c-.2-.3-.6-.8-.9-1.4-.7-1.2-1.7-3-2.4-5.3-.7-2.3-1.3-5-1.3-8,0-1.5,0-3,.3-4.5.2-1.5.6-3.1,1.1-4.6.5-1.5,1.1-3,1.7-4.4.6-1.4,1.3-2.7,1.8-4,1-2.7,1.6-5.2,1.9-7.5.4-2.3.6-4.2.8-5.5.2-1.3.3-2.1.3-2.1,0,0,0,.8.1,2.1,0,1.3.1,3.3,0,5.6-.2,2.3-.5,5-1.4,7.9-.4,1.4-1.1,2.9-1.7,4.2-.6,1.4-1.2,2.8-1.6,4.2-.5,1.4-.8,2.9-1.1,4.3-.3,1.5-.4,2.9-.5,4.3,0,1.4,0,2.8,0,4.1.1,1.3.3,2.5.6,3.6.5,2.2,1.1,4.1,1.7,5.4.5,1.3.9,2,.9,2Z"/>
    </g>
    <path class="cls-19" d="M393.1,620.2c36.5-2.4,144.5-15.2,144.5-15.2,0,0-9-94.7-52-80.1,0,0-60.5,22.5-116.2,46.3,0,0-27.2-2.7-120.6,20.7v38.6s80.4,1.7,144.5-10.4Z"/>
    <path class="cls-16" d="M652.8,1099.8s-1.3,12.1-5.1,17.2c-3.7,5.1-14.2,13.2-11.5,23.3,2.7,10.1,20.2,13.8,20.2,13.8,0,0,19.6,4.4,36.4-12.5,0,0,.5-3.4.2-8.9l1.7-3s0-16.5-9.8-29.8c-14.3-7.4-32.2,0-32.2,0Z"/>
    <path class="cls-16" d="M495.7,1095.1s-12.4,5.4-31.3,3.8c-13.5-1.1-32,5.8-41.3,26.7,0,0,9.9,15.8,42.7,11.8,32.8-4,27.1-11.2,36-10.3,8.9.9,23.9,2.2,29.2-1.8,0,0-.4-10.6-4.9-20.4-4.4-9.7-30.6-9.7-30.6-9.7Z"/>
    <path class="cls-16" d="M688.9,1100.7c-13.9,13-42.8,1.2-42.8,1.2,3.2-17.7-15-85-25.7-108.7-7.1-15.7-12.9-63.7-19.5-96.7-2-9.9-4-18.4-6.2-24.3-1.5-4.1-3-6.9-4.6-8.1-11.8-8.3-30.7-8.3-46.8,0-5.1,2.6-9.1,14.8-11.9,31-.3,2-.6,4.1-1,6.2-5,34.4-5.1,82.8.4,102.5,8.6,30.7-3.2,104-3.2,104-16-1.2-44.5-9.6-44.5-9.6,13.5-14-7.7-119.9-7.7-119.9-3.6-29.2-6-55.2-7.7-77.7-2-26.4-3-48.1-3.4-64.9-.3-11-.3-19.9-.3-26.5,0-.7,0-1.4,0-2.1,0-8.4.3-12.8.3-12.8,0,0,4.2-33.9,80.3-33.9s115.6,36.1,115.6,36.1c.3,1.6.6,3.4.9,5.3.1.8.2,1.7.3,2.6,1.4,13,1.6,32.4,1.4,54-.1,14.6-.3,30.1-.3,45.4,0,33.1.9,64.6,6,81.1,11.8,37.8,20.3,115.7,20.3,115.7Z"/>
    <path class="cls-19" d="M657.2,776.2c-42.6,18-73.6,15.4-104.2,15.2l-21.7-1c-42.7-3.6-64.2-9.9-64.2-9.9-10.3-183.3,25-256.6,25-256.6,41.9-12.6,144-28.4,210.7,10.3-.2,54.9-10.1,90.5-29.5,148.4-17.4,51.7-16,93.6-16,93.6Z"/>
    <path class="cls-24" d="M747.9,808.8s-2.2,16.9-9.4,25.1c-7.2,8.2-1.9,12.6-3.8,16.2-1.9,3.7,2.5,11.5,6.2,13.4,3.7,1.9,4.1,2.6,7.2,5.1,3.1,2.4,10.9.6,14,.3,3.2-.3,8.7-1.1,12.7-2.4,3.9-1.3,7.5-2.9,11.6-5,4.1-2.1,6.5-12.6,2.5-21.6-4-9-7.7-28-10.5-32.3-2.8-4.3-30.3,1.1-30.3,1.1Z"/>
    <path class="cls-19" d="M702.6,534.4s-58.4,7.4-58.3,56.1c0,0,62.7,70.5,73.3,94.7,10.6,24.2,23.7,86.9,26,128.1,0,0,17.7,4.7,40.2-4.7,0,0,1.6-101.7-10.2-143-11.8-41.3-70.9-131.1-70.9-131.1Z"/>
    <path class="cls-14" d="M617.3,485.2v4.6c0,0,0,1.6,0,1.6v3.1c0,0-.4,31.1-.4,31.1-21,8.4-43.1,18.4-52.7,16.9-12.2-1.9-8.9-16.9-8.9-16.9,1.6-1.7,3-4,4.1-6.5,1.1-2.5,2-5.2,2.8-8,.5-1.7.9-3.5,1.2-5.3,2-10.5,2.2-20.5,2.2-20.5h51.8Z"/>
    <polygon class="cls-16" points="556.8 534.2 553.4 559.9 570.2 560.6 580.6 537.5 567.3 540.3 556.8 534.2"/>
    <path class="cls-20" d="M617.3,485.2v4.6c-17.9,8.5-39.1,14-54,16,2-10.5,2.2-20.5,2.2-20.5h51.8Z"/>
    <path class="cls-16" d="M553.4,559.9s-24.3,73.7-38.1,151.1c4.5,24.2,12.4,49.5,12.4,49.5l28.6-48.5,13.8-151.3-16.8-.7Z"/>
    <polygon class="cls-8" points="567.3 540.3 532.7 553.6 545.3 512.4 563.4 505.2 567.3 540.3"/>
    <path class="cls-8" d="M567.3,540.3l35.3,20.3,20.5-27.6s5.8-11.3,8.4-21.7l-14.2-8.3-50,37.3Z"/>
    <g>
      <path class="cls-10" d="M526.3,368.9s-12.4-12.9-26.3,1.3c-15.1,15.4,4.1,60.9,25.3,56.4,0,0,4.6-1,6.3-6.5,1.7-5.5-5.3-51.2-5.3-51.2Z"/>
      <path class="cls-24" d="M678.9,398.5c-.6,6.6-1.5,12.7-2.8,18.5-14.5,66.5-70.8,80.5-112.3,78.2-7.8-.4-15.3-2.4-22.2-5.4-29.2-13-48.5-46.8-41.8-76.7,8.4-37.6,7.4-79.5,7.4-79.5.8-95.5,87.8-122,141-94.2,51.3,26.9,35.6,104.9,30.7,159.1Z"/>
      <path class="cls-29" d="M558.5,423c3.3-2.5,6.9-4.5,10.4-6.5-18.2-.8-23.2-.6-30.3-.6-7.3,0-17.8.6-17.8.6,0,0-1.7,2.3.6,8.9h0c1.3,3.8,3.4,7.8,6.8,11.2,1.8,1.8,4,3.5,6.5,4.9,1.9,1,4.1-3,6.5-2.4,4.5-7.7,10.4-10.8,17.2-16Z"/>
      <path class="cls-7" d="M572.3,325.6s25.6-14.1,49.8,12.3c0,0,2.7-10.6-9.2-20-11.2-8.9-25.9-9.1-32.4-5.6-8.3,4.5-8.2,13.2-8.2,13.2Z"/>
      <path class="cls-7" d="M538.1,328.8s-14.9-13.9-35.3,10.3c0,0-2.5-8.3,4.3-16.2,8.8-10.2,19.8-10.9,24.7-6.8,6.2,5.2,6.4,12.6,6.4,12.6Z"/>
      <g>
        <path class="cls-15" d="M540.6,361.7s-1.8-13-11.7-13.5c-9.9-.5-14.8,12.6-14.8,12.6,0,0,2.8,3.3,11.7,4.5,8.8,1.2,14.8-3.7,14.8-3.7Z"/>
        <g>
          <path class="cls-7" d="M537.7,357.2c.2,4.2-3,7.6-7.2,7.8-4.2.1-7.8-3.1-8-7.3-.2-4.2,3-7.6,7.2-7.8,4.2-.1,7.8,3.1,8,7.3Z"/>
          <path class="cls-27" d="M534,357.3c.1,2.1-1.5,3.9-3.6,3.9-2.1,0-3.9-1.6-4-3.7-.1-2.1,1.5-3.9,3.6-3.9,2.1,0,3.9,1.6,4,3.7Z"/>
          <path class="cls-15" d="M530.3,354.4c0,1.7-1.2,3.1-2.9,3.1-1.7,0-3.1-1.3-3.2-2.9,0-1.7,1.2-3.1,2.9-3.1,1.7,0,3.1,1.3,3.2,2.9Z"/>
          <path class="cls-15" d="M535.1,360.7c0,1.2-.8,2.1-2,2.2-1.1,0-2.1-.9-2.2-2,0-1.2.8-2.1,2-2.2,1.1,0,2.1.9,2.2,2Z"/>
        </g>
        <path class="cls-17" d="M540.6,361.7s-.2-.5-.5-1.5c-.3-.9-.9-2.3-1.7-3.8-.8-1.5-1.9-3.2-3.5-4.7-.8-.8-1.8-1.4-2.8-1.9-.5-.2-1.1-.4-1.7-.5-.6,0-1.3-.2-1.8-.2-.7,0-1.5,0-2,.2-.5,0-1.1.3-1.7.5-.6.2-1.1.5-1.6.8-.5.3-1,.6-1.4,1-.9.7-1.7,1.4-2.4,2.2-.7.8-1.3,1.5-1.9,2.2-1.1,1.4-2,2.6-2.5,3.5-.5.9-.9,1.4-.9,1.4,0,0,.4-2.2,2.1-5.4.9-1.6,2.1-3.4,4-5,1-.8,2.1-1.6,3.5-2.2,1.3-.6,3.4-1,4.6-.9,1,0,1.7.2,2.5.3.8.2,1.6.4,2.2.8.7.3,1.4.7,1.9,1.1.6.4,1,.8,1.5,1.3,1.7,1.8,2.6,3.7,3.2,5.4,1.1,3.3.9,5.6.9,5.6Z"/>
      </g>
      <g>
        <path class="cls-15" d="M583,362.5s1.8-12.2,11.7-12.6c9.9-.5,14.8,11.8,14.8,11.8,0,0-2.8,3.1-11.7,4.3-8.8,1.2-14.8-3.5-14.8-3.5Z"/>
        <g>
          <path class="cls-7" d="M585.3,358.1c-.2,4,2.9,7.4,6.9,7.5,4,.1,7.5-3.1,7.7-7.1.2-4-2.9-7.4-6.9-7.5-4-.1-7.5,3.1-7.7,7.1Z"/>
          <path class="cls-27" d="M588.9,358.2c-.1,2,1.4,3.7,3.5,3.8,2,0,3.8-1.6,3.9-3.6.1-2-1.4-3.7-3.5-3.8-2,0-3.8,1.6-3.9,3.6Z"/>
          <path class="cls-15" d="M592.4,355.9c0,1.3,1.2,2.4,2.8,2.5,1.6,0,3-1,3-2.3s-1.2-2.4-2.8-2.5c-1.6,0-3,1-3,2.3Z"/>
          <path class="cls-15" d="M587.8,361.1c0,.9.8,1.7,1.9,1.7,1.1,0,2-.7,2.1-1.6,0-.9-.8-1.7-1.9-1.7-1.1,0-2,.7-2.1,1.6Z"/>
        </g>
        <path class="cls-17" d="M583,362.5s.2-.5.5-1.4c.3-.9.9-2.1,1.7-3.5.8-1.4,1.9-3,3.5-4.4.8-.7,1.8-1.3,2.8-1.7.5-.2,1.1-.3,1.7-.5.6,0,1.3-.2,1.8-.1.7,0,1.5,0,2,.2.5,0,1.1.3,1.7.5.6.2,1.1.5,1.6.7.5.3,1,.6,1.4.9.9.7,1.7,1.3,2.4,2,.7.7,1.3,1.4,1.9,2.1,1.1,1.3,2,2.5,2.5,3.3.5.8.9,1.3.9,1.3,0,0-.4-2.1-2.1-5.1-.9-1.5-2.1-3.1-4-4.7-1-.8-2.1-1.5-3.5-2.1-1.3-.6-3.4-.9-4.6-.9-1,0-1.7.2-2.5.2-.8.2-1.6.4-2.2.7-.7.3-1.4.6-1.9,1-.6.4-1,.8-1.5,1.2-1.7,1.7-2.6,3.5-3.2,5.1-1.1,3.1-.9,5.2-.9,5.2Z"/>
      </g>
      <path class="cls-12" d="M530.2,384s17-7.8,16.9-23c0-16.7-4.4-24.6-4.4-24.6,0,0,8.5,32.4-12.6,47.6Z"/>
      <path class="cls-12" d="M551.2,397.5s-24.1,5.5-21.2-12.9c0,0,3.6,14.7,21.2,12.9Z"/>
      <path class="cls-10" d="M701.3,366.8c-1.5-1.5-2.9-2.7-4.3-3.6-4.1-2.7-8-3.3-11.2-3-6.4.8-10.8,5.3-10.8,5.3,0,0-7,45.7-5.3,51.2,1.7,5.5,6.3,6.5,6.3,6.5,17.8,3.7,11.1-13.5,20.9-21,11.7-9.1,12.7-26.9,4.4-35.4Z"/>
      <path class="cls-12" d="M540.6,363s-7.8,12-23.8,4.5c0,0,13.5,5.3,23.8-4.5Z"/>
      <path class="cls-12" d="M582.2,364.5s7.8,12,23.8,4.5c0,0-13.5,5.3-23.8-4.5Z"/>
      <path class="cls-12" d="M640.2,385.6s-3.9,5.2-11,13.3-9.2,19.8-9.2,19.8c0,0,8.2-10.9,13.6-15.3,5.4-4.4,6.6-17.8,6.6-17.8Z"/>
      <path class="cls-12" d="M679.3,398.6c0-2.4,1.5-5,5.4-6.2,3.9-1.2,5.8-.9,7.1-8.4,0,0,6.7,6.2.2,13.9-6.5,7.7-6.9,2.3-9.7,3.7s-3-.7-3-3Z"/>
      <path class="cls-12" d="M643.8,303.5s-1.3,17.6,1,22.6c2.3,5,2.9,10.4,2.9,10.4,0,0,2.1-7.1.3-15-1.7-7.9-4.3-18-4.3-18Z"/>
      <path class="cls-12" d="M547.3,397.2s2.4-2.4,8,.5c5.6,2.9,11.6-1.1,9.4-6.8-2.5-6.4-6.2-6.8-6.2-6.8,0,0,9.3,11.2-.6,11.6-5.9.2-7.8-1.4-10.5,1.5Z"/>
      <path class="cls-12" d="M540.5,397.8s-3.9-2-9.6-.7c-5.6,1.3-8.2-5-3.4-10.7,0,0-1.8,9.6,2.5,8.9,7.9-1.2,10.5,2.6,10.5,2.6Z"/>
      <path class="cls-12" d="M537,397.3s0,3.9-1.3,12.8c0,0,4-6.4,3.9-12.6l-2.5-.2Z"/>
      <path class="cls-12" d="M544.4,397.6s0,3.6-1.2,12.5c0,0,3.5-6.1,3.4-12.4l-2.2-.2Z"/>
      <path class="cls-12" d="M547.8,389.4s.9-4.1,5.1-5.1c0,0-1.8-.2-3,.5-2.4,1.5-2.1,4.5-2.1,4.5Z"/>
      <path class="cls-6" d="M676.6,373.2c.8,12.5,2.5,22.1-.6,43.8-14.5,66.5-70.8,80.5-112.3,78.2-7.8-.4-15.3-2.4-22.2-5.4,5,.4,10.4.8,16.4,1,88.5,2.9,96.8-94.2,99.4-97.5s12.2-16.9,12.2-16.9l7.2-3.1Z"/>
      <path class="cls-12" d="M538.6,347.3s-11.9-12.5-24.9,1.5c0,0,12.5-9.1,24.9-1.5Z"/>
      <path class="cls-12" d="M608.6,347.3s-11.9-12.5-24.9,1.5c0,0,12.5-9.1,24.9-1.5Z"/>
      <path class="cls-7" d="M676.7,373.8l-8.3,4.1-4,5.6s8-1.4,12.9-3.3l-.5-6.4Z"/>
      <path class="cls-7" d="M600,207.4c-2,0-7,1.4-12.3,2.2-3.9.6-8.4.6-12.2,1.5-5.3,1.3-8,6.6-9.4,8.1-1.7,1.9-8.6,4.4-9.4,8.8-.6,3.5.9,10.2,4.7,13.5,2.3,2,7.4,2.6,12.2,4.1,3.2.9,7.7-2.3,12.3-1.8,3.5.4,7.1,1.8,11.5,2,3.2.1,6.5.4,10,.5,3.3,0,6.7-1,10.1-.9,3.3,0,6.5,3.7,9.9,4,3.4.3,7.2-2.2,10.4-1.6,3.4.6,6.2,3.7,9.2,4.8,3.5,1.3,8.2,1,11.4,2.9,3.3,2,6.4,5.1,8.8,8,2.6,3.1.9,8.5,2.3,12.2,1.4,3.7,7.3,6.1,8.2,10,.8,3.5-1.6,7.7-1,11.2.6,3.5.7,7.1,1,10.7.3,3.6-1.4,7.1-1.4,10.7,0,3.6-.2,6.9-.5,10.4-.4,3.6,1.4,7.3.6,10.8-.8,3.5-1.4,7-2.6,10.4-2.4,6.3-3.9,11.6-4.5,15.6-.6,4-4.6,8.4.2,10.9,3.5,1.8,6.6,1.7,9.3-1,4.9-5,2.2-12,3.6-15.2,2.6-1.1,7.6-2,10.1-5.8,1.8-2.7.3-7.7,1.9-11.4,1.3-3.2,2.8-6.4,3.8-10.1.9-3.4,3.2-6.6,3.8-10.4.6-3.5,1.8-7.1,2.1-10.9.3-3.6-1-7.3-1.1-11.1,0-3.6-.5-7.2-1-10.9-.4-3.6,2.1-7.9,1.2-11.5-.8-3.5-5.4-6.1-6.6-9.6-1.2-3.4-4.7-5.6-6.4-8.9-1.7-3.2.4-8.6-1.8-11.6-2.1-2.9-4.3-6.1-6.9-8.8-2.5-2.6-6.8-3.4-9.7-5.8-2.8-2.2-6.8-2.4-10-4.4-3-1.8-6-3.2-9.5-4.8-3.2-1.5-5.1-6.4-8.7-7.6-3.4-1.1-7.3-.7-11-1.6-3.4-.8-6.5-5-10.3-5.5-3.5-.5-7.4-.4-11.2-.7-3.5-.3-7.3-1.1-11.1-1.2Z"/>
      <path class="cls-12" d="M562.4,435.1s-18.1-17.2-31.1-7c-13.1,10.1-12.3,10.6-8.8,13.6,3.5,3,17.8-.2,21.9-3.4,4.1-3.2,18.1-3.1,18.1-3.1Z"/>
      <g>
        <path class="cls-9" d="M531.1,415.8v7s-13.6,3.6-18.7,11.6v-18.5h18.7Z"/>
        <path class="cls-9" d="M497.6,415.8c-.1,0-.2,0-.3,0h0s.3,0,.3,0Z"/>
        <path class="cls-9" d="M512.4,415.8v30.3h-14.8c-2.4,0-4.6-.5-6.6-1.5-1.7-.8-3.2-1.9-4.4-3.2-2.6-2.7-4.2-6.4-4.2-10.4,0-8.3,6.6-15,14.8-15.1.1,0,.2,0,.3,0h14.8Z"/>
        <path class="cls-13" d="M512.4,441.4v4.7h-14.8c-4.3,0-8.2-1.8-11-4.7h25.8Z"/>
        <path class="cls-23" d="M512.4,444.6v1.5h-14.8c-2.4,0-4.6-.5-6.6-1.5h21.4Z"/>
        <path class="cls-23" d="M545.9,415.8v7s-13.8,3.7-18.8,11.7c0,0,0,0,0,0-1.6,6.6-7.5,11.6-14.7,11.6s-15.1-6.8-15.1-15.1,6.8-15.1,15.1-15.1h33.5Z"/>
        <path class="cls-30" d="M512.4,443.5s-.2,0-.4,0c-.3,0-.7,0-1.3,0-1.1,0-2.7-.3-4.4-1.2-1.7-.8-3.5-2.2-4.9-4.2-.7-1-1.2-2.1-1.6-3.3-.4-1.2-.6-2.5-.6-3.8,0-1.2.2-2.6.6-3.8.4-1.2.9-2.3,1.6-3.3,1.3-2,3.2-3.4,4.9-4.2,1.7-.8,3.3-1.1,4.4-1.2.5,0,1,0,1.3,0,.3,0,.4,0,.4,0,0,0-.6,0-1.7.3-1.1.2-2.5.7-4.1,1.5-1.6.9-3.1,2.4-4.3,4.2-.6.9-1,2-1.4,3.1-.3,1.1-.4,2.2-.5,3.5,0,1.1.1,2.3.5,3.4.3,1.1.8,2.2,1.4,3.1,1.2,1.9,2.7,3.3,4.3,4.2,1.6.9,3,1.4,4.1,1.5,1,.2,1.7.3,1.7.3Z"/>
      </g>
      <path class="cls-24" d="M564.1,436.4s-9.3-4.8-13.7-11.9c-4.8-7.8-5.5-12.3,3-14.4,4.4-1.1,24.8-1,24.8-1l-14.2,27.3Z"/>
      <path class="cls-12" d="M531.1,415.8s12.5-1.7,14.5.9c2,2.6,5.1,11,9.7,14.3,0,0-6.4-10.2-7.5-13.8-1.1-3.6-4.6-4-4.6-4,0,0-9.8-1.5-12.1,2.5Z"/>
      <path class="cls-12" d="M553.7,442.9s-13.6,8.6-31.1,4.6c0,0,13.3,2,31.1-4.6Z"/>
    </g>
    <path class="cls-28" d="M464,774.9s-1.6,11,0,20.8c0,0,67.3,22.6,196.3.9,0,0,1-7.7.2-21,0,0-79.2,14.9-196.4-.7Z"/>
    <path class="cls-8" d="M638.6,511.2s-4.5,5.4-6.5,10.7l55.9,16.7s4.7-8.2,7.7-11.3c0,0-34.4-11.4-57.1-16.1Z"/>
    <path class="cls-8" d="M542.8,511.2s-3.1,5.6-5.2,11.7l-49.8,11.8s2.5-8.1,5.9-12.6c0,0,20.5-7.4,49-10.9Z"/>
    <g>
      <path class="cls-2" d="M512.7,278.1l1.3-7s35.4-5.2,189.8,19.1v7.1s-132.7-2.5-191.2-19.2Z"/>
      <path class="cls-16" d="M703.9,297.3s-5.7,1.1-15.6,2.6c-.1,0-.3,0-.4,0-43.5,6.8-165.1,21.9-226.3-9.1,0,0,19.1-6.6,51-12.8,0,0,.1,0,.1,0,131.6,12.1,163.2,15.8,191.2,19.2Z"/>
      <path class="cls-3" d="M514.2,271.4s-4.2-18.6-28.1-34.2c-14.2-26.8,45.2-56.1,86.4-55,105.8,2.9,166.1,90.7,159.5,95.8-9,7-27.8,4-28.4,12.1l-189.4-18.8Z"/>
      <path class="cls-16" d="M514,271.4s-16.6-40.5,37.8-40.6c63.8,0,130.6,48.1,152,59.4l-189.9-18.8Z"/>
      <polygon class="cls-26" points="512.7 278.1 515.8 274.1 606.9 280.6 514 271.4 512.7 278.1"/>
      <g>
        <path class="cls-2" d="M570.1,242.9c0,11.3-8.5,20.4-19,20.4s-16.4-6.6-18.4-15.4c-.4-1.6-.6-3.3-.6-5,0-11.3,8.5-20.4,19-20.4s2.6.1,3.8.4c8.7,1.9,15.2,10.1,15.2,20Z"/>
        <polygon class="cls-11" points="549.9 226.6 554 236.3 564 238.2 556.4 245.4 557.8 255.9 549 250.6 539.8 255.3 541.9 244.8 534.9 237.1 545 236 549.9 226.6"/>
        <polygon class="cls-26" points="549.9 226.6 545.8 236.8 535.9 237.4 542.9 244.4 539.8 255.3 541.4 244.7 534.9 237.1 544.9 235.6 549.9 226.6"/>
        <path class="cls-26" d="M554.9,222.9c-7.5,0-22.3,2.9-22.3,25-.4-1.6-.6-3.3-.6-5,0-11.3,8.5-20.4,19-20.4s2.6.1,3.8.4Z"/>
      </g>
      <path class="cls-18" d="M687.9,300c-43.5,6.8-165.1,21.9-226.3-9.1,0,0,19.1-6.6,51-12.8-25.7,7-45.6,12.9-38.4,15,73.8,21.6,163.4,12.9,213.7,6.9Z"/>
    </g>
    <g>
      <path class="cls-2" d="M628.8,598.3c3.7-3.2,21.3-6.4,23.1-18.1.7-4.4-.6-8.6-3.4-12-.5-.6-.9-1.5-1-2.7-.1-3.6,4.5-4.5,4.5-4.5,0,0-.3-5.4-1.6-8.4-10.4,2.8-14.2-2.5-14.2-2.5l-7.5,48.3Z"/>
      <path class="cls-2" d="M628.8,598.3c-2.5-4.2-18.4-12.5-16.6-24.2.7-4.4,3.2-8.1,6.9-10.4.7-.4,1.3-1.2,1.7-2.3,1.2-3.4-2.9-5.7-2.9-5.7,0,0,1.9-5,4.1-7.5,9.1,5.8,14.3,1.9,14.3,1.9l-7.5,48.3Z"/>
      <path class="cls-26" d="M624.2,593.5c-1.6-1.5-3.3-3-4.8-4.6-.7-.8-1.5-1.6-2.2-2.5-.7-.8-1.3-1.7-1.9-2.6-.5-.9-1.1-1.9-1.5-2.9-.2-.5-.4-1-.5-1.5-.1-.5-.3-1-.4-1.6l-.2-1.6c0-.5,0-1.1.1-1.7,0-1,.4-2.1.7-3.1.7-2,1.9-3.8,3.4-5.4.8-.8,1.6-1.4,2.5-2,1-.6,1.8-1.8,2.1-2.9.4-1.2,0-2.6-.7-3.6-.6-.9-1.4-1.6-2.3-2.1.5-1.2,1-2.4,1.6-3.5.6-1.2,1.2-2.3,2-3.3l1.4.8c.6.3,1.2.6,1.7.8.6.2,1.2.5,1.8.6.6.2,1.2.3,1.9.4.6.1,1.3.2,1.9.2.6,0,1.3,0,1.9-.1,1.3-.2,2.5-.6,3.5-1.3-1.1.7-2.3.9-3.6,1.1-.6,0-1.2,0-1.9,0-.6,0-1.2-.1-1.8-.3-.6-.1-1.2-.3-1.8-.5-.6-.2-1.2-.5-1.7-.7-.6-.3-1.1-.6-1.7-.8l-1.6-1-.3-.2-.2.2c-1,1.1-1.7,2.4-2.4,3.7-.7,1.3-1.3,2.6-1.9,3.9l-.2.4.4.2c.9.5,1.7,1.2,2.2,2.1.6.8.8,1.8.5,2.7-.3,1-.8,1.8-1.7,2.3-.9.6-1.9,1.3-2.7,2.1-1.6,1.6-2.9,3.6-3.6,5.8-.4,1.1-.7,2.2-.7,3.4,0,.6,0,1.1,0,1.7l.2,1.8c0,.6.3,1.1.4,1.7.1.6.4,1.1.6,1.6.4,1.1,1,2,1.6,3,.7.9,1.3,1.8,2.1,2.7.7.9,1.5,1.6,2.3,2.4.8.8,1.6,1.5,2.5,2.3.8.7,1.7,1.4,2.6,2.1.9.7,1.7,1.4,2.6,2.1.8.7,1.7,1.5,2.3,2.4-.6-.9-1.4-1.8-2.2-2.5-.8-.8-1.6-1.5-2.5-2.3Z"/>
      <path class="cls-11" d="M634.7,595.2c2-.9,4-1.8,6-2.9,1-.5,1.9-1.1,2.8-1.7.9-.6,1.8-1.3,2.7-1.9.8-.7,1.6-1.4,2.3-2.3.4-.4.7-.8,1-1.3.3-.5.6-.9.8-1.4l.6-1.4c.2-.5.3-1.1.4-1.6.3-1,.3-2.1.3-3.2,0-2.1-.7-4.2-1.6-6.2-.5-1-1.1-1.8-1.8-2.7-.8-.9-1.2-2.2-1.1-3.4,0-1.3.8-2.5,1.7-3.2.8-.7,1.8-1.1,2.8-1.4,0-1.3-.2-2.6-.4-3.8-.2-1.3-.5-2.6-.9-3.8l-1.5.3c-.6,0-1.3.2-1.9.2-.6,0-1.3.1-1.9,0-.6,0-1.3,0-1.9-.2-.6,0-1.3-.2-1.9-.4-.6-.2-1.2-.4-1.8-.7-1.1-.6-2.2-1.3-3-2.3.8,1,1.9,1.6,3.1,2.1.6.2,1.2.4,1.8.6.6.1,1.2.3,1.8.3.6,0,1.2,0,1.9,0,.6,0,1.2,0,1.9-.1.6,0,1.2-.2,1.8-.3l1.8-.4h.3c0,0,.1.2.1.2.6,1.4.9,2.8,1.2,4.2.3,1.4.5,2.9.6,4.3v.4s-.4.1-.4.1c-1,.2-2,.7-2.8,1.3-.8.6-1.3,1.5-1.3,2.5,0,1,.3,2,.9,2.7.7.9,1.4,1.9,1.9,2.9,1.1,2,1.7,4.3,1.7,6.6,0,1.2,0,2.3-.3,3.5-.1.5-.3,1.1-.4,1.6l-.7,1.6c-.2.5-.6,1-.9,1.5-.3.5-.7.9-1.1,1.4-.7.9-1.6,1.6-2.5,2.4-.9.7-1.8,1.3-2.8,1.9-.9.6-2,1.1-3,1.6-1,.5-2,1-3.1,1.4-1,.4-2.1.8-3.1,1.2-1,.4-2.1.8-3.1,1.2-1,.4-2,.9-2.9,1.5.9-.7,1.8-1.3,2.8-1.7,1-.5,2-.9,3-1.4Z"/>
      <polygon class="cls-26" points="635.9 550.7 633.1 552.2 630 556 634.3 553.2 635.9 550.7"/>
      <path class="cls-26" d="M628.8,598.3l7.5-48.3s-5,2.8-11.7-.4c0,0,2.9,2.9,9.2,3.1l-5,45.6Z"/>
      <polygon class="cls-26" points="620 563.7 624 560.8 620.5 562.2 620 563.7"/>
      <polygon class="cls-11" points="634.5 561.5 636.7 568.7 643.6 570.9 637.6 575.4 637.7 583 631.9 578.5 625 581 627.4 573.8 623.1 567.8 630.3 567.8 634.5 561.5"/>
      <polygon class="cls-26" points="634.5 561.5 630.8 568.4 623.7 568 628.1 573.6 625 581 627 573.7 623.1 567.8 630.3 567.5 634.5 561.5"/>
    </g>
    <path class="cls-1" d="M551.8,778.9l-31.5-1.4c-2,0-3.7,1.5-3.9,3.5l-1,22.2c0,2,1.5,3.8,3.5,3.9l31.5,1.4c2.1,0,3.8-1.5,3.9-3.5l1-22.2c0-2-1.5-3.8-3.5-3.9ZM549.3,802.2c0,.6-.5,1-1.1,1l-26.4-1.2c-.6,0-1-.5-1-1.1l.8-17.1c0-.6.5-1.1,1.1-1l26.4,1.2c.6,0,1,.5,1,1.1l-.8,17.1Z"/>
    <polygon class="cls-21" points="525.8 620.2 478.3 616.6 481.4 596.9 529.8 599.4 525.8 620.2"/>
    <path class="cls-22" d="M509.1,609.1c-.3,3.3-3.2,5.8-6.6,5.5-3.3-.3-5.8-3.2-5.5-6.6.3-3.3,3.2-5.8,6.6-5.5,3.3.3,5.8,3.2,5.5,6.6Z"/>
    <polygon class="cls-21" points="640.9 630.6 593.3 627 596.7 605 644.8 609.8 640.9 630.6"/>
    <path class="cls-22" d="M624.1,619.5c-.3,3.3-3.2,5.8-6.6,5.5-3.3-.3-5.8-3.2-5.5-6.6.3-3.3,3.2-5.8,6.6-5.5,3.3.3,5.8,3.2,5.5,6.6Z"/>
    <path class="cls-22" d="M489.5,573l-1.7,8.3s16.8,1.4,36.1,2.1c0,0,1.7-8.3,1.7-8.3l-36.2-2.1Z"/>
    <path class="cls-2" d="M525.1,521.3l-.5-6,3.3-2.1s-4.9.8-8.2,1.6l-2.3,1.6.5,6.2,7.2-1.4Z"/>
    <path class="cls-2" d="M511.2,524.6l-.5-6,3.6-2.5s-4.5.9-8.5,2.1l-2.3,1.6.5,6.2,7.2-1.4Z"/>
    <path class="cls-2" d="M646.3,522.7l6.7-6.9-.8-1.9s3.5.9,6.2,1.8l1.8,2-6.4,7.4-7.5-2.4Z"/>
    <path class="cls-2" d="M667.1,528.4l6-6.4-2.5-3.2s3.8,1.1,6.3,1.8l3.1,4.1-5.8,5.7-7.1-1.9Z"/>
    <polygon class="cls-19" points="441.6 388.6 469.4 415.8 437.3 390.2 441.6 388.6"/>
    <polygon class="cls-19" points="414 438.4 462.8 427.5 415.5 441.4 414 438.4"/>
    <polygon class="cls-19" points="413.5 410.3 462.8 420.3 411.8 413.2 413.5 410.3"/>
    <g>
      <path class="cls-5" d="M499.6,103.2l-24-60.3,8.5-1.1,11.5,30.6c2.9,7.5,5.6,15.1,7.5,21h.2c.2-6.4,1.2-14,2.3-22.4l4.2-32.6,8.4-1.1,11.7,30.7c2.7,7.2,5.4,14.4,7.2,20.8h.2c.4-7,1.2-14.2,2.2-22.3l4.1-32.6,8.2-1.1-9.5,64.7-8.4,1.1-12.1-31.5c-3-7.7-5.1-13.6-6.7-19.8h-.2c-.3,6.4-.9,12.7-2.1,21l-4.6,33.7-8.4,1.1Z"/>
      <path class="cls-5" d="M588,95.5l-.8-5.7h-.3c-2.4,3.6-7.2,7-13.6,7.1-9.1.3-14-6-14.2-12.6-.3-10.9,9.2-17.2,26.7-17.6v-.9c-.1-3.7-1.4-10.4-10.6-10.1-4.2.1-8.5,1.6-11.7,3.7l-2-5.4c3.7-2.5,9-4.3,14.7-4.5,13.8-.4,17.5,8.9,17.7,18l.5,16.9c.1,3.9.4,7.7,1.1,10.8l-7.5.2ZM586.1,72.5c-9,0-19.1,2-18.8,10.8.2,5.3,3.8,7.7,8,7.6,5.9-.2,9.5-4,10.7-7.9.3-.8.4-1.8.4-2.6l-.2-7.8Z"/>
      <path class="cls-5" d="M607.2,95.6l1-45.2,8.2.2-1,45.2-8.2-.2ZM617.7,37.9c0,2.8-2.1,5-5.3,4.9-2.9,0-4.9-2.4-4.8-5.2,0-2.9,2.3-5.1,5.2-5,3.1,0,5,2.4,4.9,5.2Z"/>
      <path class="cls-5" d="M642,38.8l-.8,13,11.7.8-.4,6.2-11.7-.8-1.6,24.3c-.4,5.6,1,8.9,5.6,9.2,2.1.1,3.7,0,4.8-.2v6.2c-1.7.5-4.2.9-7.4.6-3.8-.2-6.8-1.7-8.6-4-2.2-2.6-2.8-6.6-2.4-11.9l1.6-24.6-7-.5.4-6.2,7,.5.7-10.8,8.2-1.6Z"/>
      <path class="cls-5" d="M683.5,36.2c-7.8,8.3-14.1,19.8-16,36.6-1.9,16.5,1.8,29,7.4,39l-6.4-.7c-5-8.4-9.9-21-7.8-39.1,2.2-18.3,9.8-29.4,16.5-36.5l6.4.7Z"/>
      <path class="cls-5" d="M677.2,112.1c8.1-8,15.1-19.2,17.9-35.8,2.7-16.5-.3-29.1-5.4-39.3l6.3,1c4.6,8.5,8.9,21.4,5.8,39.5-3,18.1-11.1,28.7-18.3,35.6l-6.3-1Z"/>
      <path class="cls-5" d="M708.7,101.4c.7-3.3,3.5-5.2,6.6-4.5,3.3.7,4.9,3.6,4.1,6.8-.7,3.2-3.3,5.2-6.6,4.5-3.2-.7-4.8-3.6-4.1-6.8ZM713.9,88.8l8.3-44.1,8.8,1.9-10.9,43.5-6.2-1.4Z"/>
    </g>
  </g>
</svg>