<?xml version="1.0" encoding="UTF-8"?>
<svg id="Layer_1" data-name="Layer 1" xmlns="http://www.w3.org/2000/svg" version="1.1" viewBox="0 0 1200 1200">
  <defs>
    <style>
      .cls-1 {
        fill: #bcbec0;
      }

      .cls-1, .cls-2, .cls-3, .cls-4, .cls-5, .cls-6, .cls-7, .cls-8, .cls-9, .cls-10, .cls-11, .cls-12, .cls-13, .cls-14, .cls-15, .cls-16, .cls-17, .cls-18, .cls-19, .cls-20, .cls-21, .cls-22, .cls-23, .cls-24, .cls-25, .cls-26, .cls-27, .cls-28, .cls-29, .cls-30 {
        stroke-width: 0px;
      }

      .cls-2 {
        fill: #f8ca4d;
      }

      .cls-3 {
        fill: #2a354d;
      }

      .cls-4 {
        fill: #b55c4a;
      }

      .cls-5 {
        fill: #000;
      }

      .cls-6 {
        fill: #ad8463;
      }

      .cls-7 {
        fill: #311908;
      }

      .cls-8 {
        fill: #29354d;
      }

      .cls-9 {
        fill: #2f3440;
      }

      .cls-10 {
        fill: #c2946e;
      }

      .cls-11 {
        fill: #dbac2e;
      }

      .cls-12 {
        fill: #b38866;
      }

      .cls-13 {
        fill: #2d323d;
      }

      .cls-14 {
        fill: #bf926d;
      }

      .cls-15 {
        fill: #fff8f0;
      }

      .cls-16 {
        fill: #20232b;
      }

      .cls-17 {
        fill: #402516;
      }

      .cls-18 {
        fill: #303540;
      }

      .cls-19 {
        fill: #33415e;
      }

      .cls-20 {
        fill: #967456;
      }

      .cls-21 {
        fill: #2c3852;
      }

      .cls-22 {
        fill: #1f2738;
      }

      .cls-23 {
        fill: #292e38;
      }

      .cls-24 {
        fill: #cf9e76;
      }

      .cls-25 {
        fill: #fff;
      }

      .cls-31 {
        display: none;
      }

      .cls-26 {
        fill: #f8e8bc;
      }

      .cls-27 {
        fill: #26160d;
      }

      .cls-28 {
        fill: #1c1f26;
      }

      .cls-29 {
        fill: #542514;
      }

      .cls-30 {
        fill: #343a47;
      }
    </style>
  </defs>
  <g>
    <path class="cls-19" d="M443.6,671.9c32.7-23.5,103.8-96.5,103.8-96.5,0,0-19.4-71-62.6-56.3,0,0-61,80.1-79.3,96.7,0,0-61.5,27.8-142.8,14.5l-3.4,40.4s131.1,39.3,184.2,1.1Z"/>
    <g>
      <path class="cls-24" d="M260.6,668.2c-4.1,5.3-21.2,5.2-31.2,2.5-9.7,1.9-18.2,1.1-20.6-5.2-2.8-7.6-1.4-8.9-1.4-14.3-1.3-3.8-.3-8,.4-11.8-.3-2.8-1.6-9.3,0-12,.4-3.5-3.9-14.5,8.7-15.1,6.1-.3,20.8,4.2,22.2-13.6,1.8-22,17.9-24.2,16.3-13.5-1.7,10.9-3.8,28.4.7,33.6,11.4,12.7,15.3,35.9,4.8,49.5Z"/>
      <path class="cls-12" d="M231.5,619.3s.6,4.9,0,9c-.3,2.4-3.4,2.9-4.4,3-2.6.3-10.4,1-12.5,0s-5.2-5.3-5.2-5.3c2.4,6.7,6.1,7.5,6.1,7.5,2.3.5,7-.2,7-.2,8.3-.8,9.8-2.5,10.4-5.7.6-3.2-1.3-8.2-1.3-8.2Z"/>
      <path class="cls-12" d="M231.5,632.2s.6,4.9,0,9c-.3,2.4-3.4,2.9-4.4,3-2.6.3-10.4,1-12.5,0-2.5-1.3-5.2-5.3-5.2-5.3,2.4,6.7,6.1,7.5,6.1,7.5,2.3.5,7-.2,7-.2,8.3-.8,9.8-2.5,10.4-5.7.6-3.2-1.3-8.2-1.3-8.2Z"/>
      <path class="cls-12" d="M231.5,644.5s.6,4.9,0,9c-.3,2.4-3.4,2.9-4.4,3-2.6.3-10.4,1-12.5,0-2.5-1.3-5.2-5.3-5.2-5.3,2.4,6.7,6.1,7.5,6.1,7.5,2.3.5,7-.2,7-.2,8.3-.8,9.8-2.5,10.4-5.7.6-3.2-1.3-8.2-1.3-8.2Z"/>
      <path class="cls-12" d="M224.6,669.4s3.7-.2,4.1-2.4c.5-3.2,0-7,0-7,0,0,1.6,3.8,1.2,6.4-.5,2.5-1.8,3.8-9.1,4.4l3.8-1.4Z"/>
      <path class="cls-12" d="M236.8,626.4s.1,11.4,6.5,15.6c0,0-3.3,2.1-4.1,7.2,0,0,0-6.3-1.6-9.4s-.9-13.4-.9-13.4Z"/>
    </g>
    <path class="cls-16" d="M652.8,1096.4s-1.4,12.2-5.1,17.3c-3.7,5.1-14.2,13.2-11.5,23.4,2.7,10.2,20.3,13.9,20.3,13.9,0,0,19.6,4.4,36.6-12.5,0,0,.5-3.4.2-9l1.7-3s0-16.6-9.8-30c-14.4-7.5-32.3,0-32.3,0Z"/>
    <path class="cls-16" d="M495,1091.7s-12.4,5.4-31.4,3.8c-13.6-1.1-32.1,5.9-41.4,26.8,0,0,10,15.8,42.9,11.8,32.9-4,27.3-11.3,36.2-10.4,8.9.9,24,2.2,29.4-1.8,0,0-.4-10.7-4.9-20.5-4.4-9.8-30.7-9.8-30.7-9.8Z"/>
    <path class="cls-16" d="M689,1097.4c-14,13.1-43,1.2-43,1.2,3.2-17.8-15-85.4-25.8-109.1-7.1-15.7-13-64-19.6-97.1-2-9.9-4-18.5-6.2-24.4-1.5-4.1-3-7-4.7-8.1-11.8-8.3-30.9-8.3-47,0-5.2,2.7-9.2,14.8-12,31.2-.3,2-.7,4.1-1,6.2-5,34.6-5.1,83.2.4,102.9,8.6,30.8-3.2,104.4-3.2,104.4-16.1-1.2-44.7-9.6-44.7-9.6,13.6-14.1-7.8-120.4-7.8-120.4-3.6-29.3-6-55.4-7.8-78-2-26.5-3-48.3-3.4-65.1-.3-11-.3-20-.3-26.6,0-.7,0-1.4,0-2.1,0-8.5.3-12.8.3-12.8,0,0,4.2-34.1,80.7-34.1s116.1,36.3,116.1,36.3c.3,1.6.7,3.4.9,5.3.1.8.2,1.7.3,2.6,1.4,13,1.6,32.5,1.4,54.2-.1,14.6-.3,30.3-.3,45.6,0,33.2.9,64.9,6,81.4,11.8,37.9,20.4,116.2,20.4,116.2Z"/>
    <path class="cls-19" d="M656.5,771.1c-42.8,18.1-73.2,15.9-103.9,15.6l-21.8-1c-42.9-3.6-64.5-9.9-64.5-9.9-10.4-184.1,25.1-257.7,25.1-257.7,42.1-12.7,144.6-28.5,211.6,10.4-.2,55.2-10.1,90.9-29.6,149.1-17.4,51.9-16.8,93.6-16.8,93.6Z"/>
    <path class="cls-24" d="M748.1,804.3s-2.4,17-10,25.4c-7.6,8.3-2,12.7-4.1,16.4-2,3.7,2.5,11.5,6.3,13.4,3.8,1.9,4.2,2.6,7.4,5s11.3.5,14.5.2c3.3-.3,9.1-1.1,13.2-2.5,4.1-1.4,7.8-3,12.1-5.1,4.3-2.1,6.8-12.8,2.7-21.8-4.1-9-7.7-28.1-10.6-32.4-2.9-4.3-31.5,1.4-31.5,1.4Z"/>
    <path class="cls-19" d="M702.8,528.7s-58.7,7.4-58.6,56.4c0,0,62.9,70.8,73.6,95.1,10.7,24.3,23.8,87.2,26.1,128.6,0,0,17.8,4.7,40.3-4.7,0,0,1.6-102.1-10.2-143.6-11.9-41.5-71.2-131.7-71.2-131.7Z"/>
    <path class="cls-14" d="M617.1,479.3v4.6c0,0,0,1.6,0,1.6v3.1c0,0-.4,31.2-.4,31.2-21.1,8.4-43.3,18.5-52.9,17-12.2-1.9-8.9-17-8.9-17,1.6-1.7,3-4,4.1-6.5,1.1-2.5,2.1-5.2,2.8-8.1.5-1.7.9-3.5,1.2-5.3,2.1-10.5,2.2-20.6,2.2-20.6h52Z"/>
    <polygon class="cls-16" points="556.4 528.5 553 554.3 569.9 555 580.3 531.8 566.9 534.6 556.4 528.5"/>
    <path class="cls-20" d="M617.1,479.3v4.6c-17.9,8.5-39.3,14.1-54.2,16,2.1-10.5,2.2-20.6,2.2-20.6h52Z"/>
    <path class="cls-16" d="M553,554.3s-24.4,74-38.3,151.7c4.5,24.3,12.5,49.7,12.5,49.7l28.8-48.7,13.9-151.9-16.9-.7Z"/>
    <polygon class="cls-8" points="567 534.6 532.2 548 544.9 506.6 563 499.3 567 534.6"/>
    <path class="cls-8" d="M567,534.6l35.4,20.4,20.6-27.7s5.9-11.4,8.5-21.8l-14.3-8.4-50.2,37.5Z"/>
    <g>
      <path class="cls-10" d="M525.8,362.5s-12.5-13-26.5,1.3c-15.1,15.5,4.1,61.1,25.4,56.7,0,0,4.7-1,6.3-6.6,1.7-5.5-5.3-51.4-5.3-51.4Z"/>
      <path class="cls-24" d="M679,392.2c-.6,6.6-1.5,12.8-2.8,18.6-14.6,66.7-71.1,80.8-112.8,78.5-7.9-.4-15.4-2.4-22.3-5.5-29.3-13.1-48.7-47-42-77,8.4-37.8,7.5-79.8,7.5-79.8.8-95.9,88.1-122.5,141.6-94.6,51.6,27,35.7,105.3,30.8,159.7Z"/>
      <path class="cls-29" d="M592.4,409.8s-.2,1.8-1.2,4.8c-.5,1.5-1.2,3.4-2.3,5.4-.5,1-1.1,2.1-1.8,3.2,0,0,0,0,0,0-.2.3-.5.7-.8,1.1-6.3,8.4-18.8,16.2-36.1,15-6.6-.5-11.8-1.7-15.9-3.9-2.6-1.4-4.8-3.1-6.6-4.9-3.4-3.5-5.5-7.5-6.8-11.3h0c-2.3-6.6-2.1-12.2-2.1-12.2,0,0,1.3-.1,8.7,0,9.2.2,27.8.8,64.9,2.8Z"/>
      <path class="cls-4" d="M586.3,424.2c-6.3,8.4-18.8,16.2-36.1,15-6.6-.5-11.8-1.7-15.9-3.9-2.6-1.4-4.8-3.1-6.6-4.9,6.7-4,15.9-7.5,28.2-8.6,12.3-1.1,22.5.3,30.4,2.4Z"/>
      <path class="cls-25" d="M592.4,409.8s-.2,1.8-1.2,4.8c-29.6,3.1-62.4-.3-62.4-.3l-1.2-7.3c9.2.2,27.8.8,64.9,2.8Z"/>
      <path class="cls-7" d="M574.2,327.4s19.6-21.8,51.3-4.8c0,0-1-10.9-15.3-15.9-13.6-4.8-27.5,0-32.6,5.5-6.4,7-3.3,15.3-3.3,15.3Z"/>
      <path class="cls-7" d="M539.2,324.4s-7.5-19.1-36.5-6c0,0,1.4-8.6,10.9-12.8,12.4-5.4,22.6-1.3,25.3,4.6,3.4,7.4.3,14.2.3,14.2Z"/>
      <g>
        <path class="cls-15" d="M540.2,355.3s-1.8-13-11.7-13.5c-9.9-.5-14.8,12.7-14.8,12.7,0,0,2.9,3.3,11.7,4.6,8.8,1.2,14.9-3.7,14.9-3.7Z"/>
        <g>
          <path class="cls-7" d="M537.3,350.7c.2,4.2-3,7.7-7.2,7.8-4.2.1-7.8-3.2-8-7.3-.2-4.2,3-7.7,7.2-7.8,4.2-.1,7.8,3.2,8,7.3Z"/>
          <path class="cls-27" d="M533.5,350.9c.1,2.1-1.5,3.9-3.6,3.9s-3.9-1.6-4-3.7c-.1-2.1,1.5-3.9,3.6-3.9s3.9,1.6,4,3.7Z"/>
          <path class="cls-15" d="M529.8,347.9c0,1.7-1.2,3.1-2.9,3.1-1.7,0-3.1-1.3-3.2-3,0-1.7,1.2-3.1,2.9-3.1,1.7,0,3.1,1.3,3.2,2.9Z"/>
          <path class="cls-15" d="M534.6,354.3c0,1.2-.8,2.1-2,2.2-1.2,0-2.1-.9-2.2-2,0-1.2.8-2.1,2-2.2,1.2,0,2.1.9,2.2,2Z"/>
        </g>
        <path class="cls-17" d="M540.2,355.3s-.2-.5-.5-1.5c-.3-.9-.9-2.3-1.7-3.8-.8-1.5-1.9-3.2-3.6-4.7-.8-.8-1.8-1.4-2.8-1.9-.5-.3-1.1-.4-1.7-.5-.6,0-1.3-.2-1.8-.2-.7,0-1.5,0-2,.2-.5,0-1.1.3-1.7.5-.6.2-1.1.5-1.6.8-.5.3-1,.6-1.5,1-.9.7-1.7,1.4-2.4,2.2-.7.8-1.3,1.5-1.9,2.2-1.1,1.4-2,2.6-2.5,3.5-.5.9-.9,1.4-.9,1.4,0,0,.4-2.3,2.1-5.4.9-1.6,2.1-3.4,4-5,1-.8,2.1-1.6,3.5-2.2,1.3-.6,3.4-1,4.6-.9,1,0,1.7.2,2.5.3.8.2,1.6.4,2.2.8.7.3,1.4.7,1.9,1.1.6.4,1.1.8,1.5,1.3,1.7,1.8,2.6,3.8,3.2,5.4,1.1,3.3.9,5.6.9,5.6Z"/>
      </g>
      <g>
        <path class="cls-15" d="M582.7,356.1s1.8-12.2,11.7-12.7c9.9-.5,14.8,11.9,14.8,11.9,0,0-2.9,3.1-11.7,4.3-8.8,1.2-14.9-3.5-14.9-3.5Z"/>
        <g>
          <path class="cls-7" d="M585,351.6c-.2,4.1,2.9,7.5,6.9,7.6s7.5-3.1,7.7-7.2c.2-4.1-2.9-7.5-6.9-7.6-4-.1-7.5,3.1-7.7,7.2Z"/>
          <path class="cls-27" d="M588.6,351.7c-.1,2.1,1.5,3.8,3.5,3.8,2,0,3.8-1.6,3.9-3.6.1-2.1-1.5-3.8-3.5-3.8-2,0-3.8,1.6-3.9,3.6Z"/>
          <path class="cls-15" d="M592.1,349.4c0,1.3,1.2,2.4,2.8,2.5,1.6,0,3-1,3-2.3,0-1.3-1.2-2.4-2.8-2.5-1.6,0-3,1-3,2.3Z"/>
          <path class="cls-15" d="M587.5,354.6c0,.9.8,1.7,1.9,1.7,1.1,0,2-.7,2.1-1.6,0-.9-.8-1.7-1.9-1.7-1.1,0-2,.7-2.1,1.6Z"/>
        </g>
        <path class="cls-17" d="M582.7,356.1s.2-.5.5-1.4c.3-.9.9-2.1,1.7-3.6.8-1.4,1.9-3,3.6-4.4.8-.7,1.8-1.3,2.8-1.7.5-.2,1.1-.3,1.7-.5.6,0,1.3-.2,1.8-.1.7,0,1.5,0,2,.2.5,0,1.1.3,1.7.5.6.2,1.1.5,1.6.7.5.3,1,.6,1.5.9.9.7,1.7,1.3,2.4,2.1.7.7,1.3,1.4,1.9,2.1,1.1,1.3,2,2.5,2.5,3.3.5.8.9,1.3.9,1.3,0,0-.4-2.1-2.1-5.1-.9-1.5-2.1-3.2-4-4.7-1-.8-2.1-1.5-3.5-2.1-1.3-.6-3.4-.9-4.6-.9-1,0-1.7.2-2.5.2-.8.2-1.6.4-2.2.7-.7.3-1.4.6-1.9,1-.6.4-1.1.8-1.5,1.2-1.7,1.7-2.6,3.5-3.2,5.1-1.1,3.1-.9,5.3-.9,5.3Z"/>
      </g>
      <path class="cls-12" d="M529.7,377.7s17-7.8,17-23.1c0-16.8-4.4-24.7-4.4-24.7,0,0,8.5,32.6-12.6,47.8Z"/>
      <path class="cls-12" d="M550.8,391.2s-24.2,5.5-21.2-13c0,0,3.6,14.7,21.2,13Z"/>
      <path class="cls-10" d="M701.5,360.4c-1.5-1.5-2.9-2.7-4.4-3.6-4.1-2.8-8-3.4-11.3-3-6.5.8-10.8,5.3-10.8,5.3,0,0-7,45.9-5.3,51.4,1.7,5.5,6.3,6.6,6.3,6.6,17.9,3.7,11.2-13.5,21-21.1,11.7-9.1,12.8-27,4.4-35.5Z"/>
      <path class="cls-12" d="M540.2,356.5s-7.8,12.1-23.9,4.5c0,0,13.6,5.3,23.9-4.5Z"/>
      <path class="cls-12" d="M581.9,358s7.8,12.1,23.9,4.5c0,0-13.6,5.3-23.9-4.5Z"/>
      <path class="cls-12" d="M640.2,379.3s-3.9,5.2-11.1,13.4-9.2,19.9-9.2,19.9c0,0,8.2-11,13.7-15.4,5.5-4.4,6.6-17.9,6.6-17.9Z"/>
      <path class="cls-12" d="M679.4,392.4c0-2.4,1.5-5,5.4-6.2s5.9-.9,7.2-8.5c0,0,6.7,6.3.2,14-6.5,7.7-6.9,2.3-9.8,3.7-2.8,1.4-3-.7-3-3Z"/>
      <path class="cls-12" d="M643.7,296.8s-1.3,17.7,1,22.7,2.9,10.4,2.9,10.4c0,0,2.1-7.1.3-15-1.7-7.9-4.3-18.1-4.3-18.1Z"/>
      <path class="cls-12" d="M546.8,390.9s2.4-2.4,8,.5c5.6,2.9,11.7-1.1,9.4-6.8-2.5-6.4-6.2-6.9-6.2-6.9,0,0,9.3,11.2-.6,11.6-5.9.2-7.9-1.4-10.6,1.5Z"/>
      <path class="cls-12" d="M540.1,391.5s-4-2-9.6-.7c-5.6,1.3-8.2-5-3.5-10.8,0,0-1.8,9.6,2.5,8.9,8-1.2,10.5,2.6,10.5,2.6Z"/>
      <path class="cls-12" d="M536.5,391s0,3.9-1.4,12.9c0,0,4-6.4,3.9-12.7l-2.6-.2Z"/>
      <path class="cls-12" d="M543.9,391.3s0,3.6-1.2,12.6c0,0,3.5-6.1,3.4-12.4l-2.2-.2Z"/>
      <path class="cls-12" d="M547.4,383.1s.9-4.1,5.2-5.1c0,0-1.9-.2-3,.5-2.4,1.5-2.2,4.5-2.2,4.5Z"/>
      <path class="cls-12" d="M587,423.2c-.9,1.6-9.1,29.9-45.5,25.1-26.8-3.6-20.6-28.1-20.6-29.1,1.3,3.8,3.4,7.8,6.8,11.3,1.8,1.8,4,3.5,6.6,4.9,4.1,2.2,9.3,3.4,15.9,3.9,17.3,1.2,29.8-6.6,36.1-15,.3-.4.5-.7.8-1.1Z"/>
      <path class="cls-6" d="M676.7,366.8c.9,12.5,2.5,22.2-.6,44-14.6,66.7-71.1,80.8-112.8,78.5-7.9-.4-15.4-2.4-22.3-5.5,5,.4,10.5.8,16.4,1,88.9,2.9,97.3-94.6,99.9-97.9s12.2-16.9,12.2-16.9l7.2-3.1Z"/>
      <path class="cls-12" d="M538.2,340.8s-11.9-12.6-25,1.6c0,0,12.6-9.2,25-1.6Z"/>
      <path class="cls-12" d="M608.5,340.8s-11.9-12.6-25,1.6c0,0,12.6-9.2,25-1.6Z"/>
      <path class="cls-7" d="M676.8,367.4l-8.4,4.1-4,5.7s8.1-1.4,12.9-3.3l-.5-6.4Z"/>
      <path class="cls-7" d="M599.8,200.3c-2.1,0-7.1,1.4-12.4,2.3-3.9.6-8.4.6-12.2,1.5-5.3,1.3-8,6.6-9.4,8.1-1.7,1.9-8.6,4.4-9.4,8.9-.6,3.5.9,10.2,4.7,13.5,2.3,2,7.4,2.7,12.3,4.1,3.2.9,7.8-2.3,12.3-1.8,3.5.4,7.2,1.8,11.6,2,3.2.1,6.5.4,10,.5,3.3,0,6.7-1,10.1-.9,3.4,0,6.6,3.7,9.9,4,3.4.3,7.2-2.2,10.4-1.6,3.4.6,6.2,3.7,9.2,4.8,3.6,1.3,8.2,1,11.5,3,3.3,2,6.4,5.1,8.9,8,2.6,3.1.9,8.5,2.3,12.3,1.4,3.7,7.4,6.2,8.2,10.1.8,3.5-1.6,7.7-1,11.3.6,3.6.7,7.1,1,10.7.3,3.6-1.4,7.1-1.4,10.7,0,3.6-.2,6.9-.5,10.5-.4,3.6,1.4,7.3.6,10.8-.8,3.5-1.4,7-2.6,10.4-2.4,6.3-3.9,11.7-4.5,15.6-.6,4-4.6,8.4.2,10.9,3.5,1.8,6.6,1.8,9.4-1,4.9-5,2.2-12.1,3.6-15.3,2.6-1.1,7.6-2,10.1-5.9,1.8-2.7.3-7.7,1.9-11.5,1.3-3.2,2.8-6.4,3.9-10.2.9-3.4,3.2-6.7,3.8-10.4.6-3.5,1.8-7.2,2.1-10.9.3-3.6-1-7.4-1.1-11.1,0-3.6-.5-7.3-1-11-.4-3.6,2.1-7.9,1.2-11.6-.8-3.6-5.4-6.2-6.7-9.7-1.2-3.4-4.7-5.6-6.4-8.9-1.7-3.2.4-8.6-1.8-11.7-2.1-3-4.4-6.1-6.9-8.9-2.5-2.6-6.8-3.4-9.7-5.8-2.8-2.2-6.8-2.4-10.1-4.4-3-1.8-6.1-3.2-9.5-4.8-3.2-1.5-5.1-6.5-8.7-7.7-3.4-1.1-7.3-.7-11-1.6-3.5-.8-6.5-5-10.3-5.5-3.5-.5-7.4-.4-11.2-.7-3.6-.3-7.4-1.1-11.2-1.2Z"/>
    </g>
    <path class="cls-28" d="M463.3,770.2s-1.7,11.1,0,20.8c0,0,67.6,22.7,197.1.9,0,0,1-7.7.2-21,0,0-79.5,14.9-197.3-.7Z"/>
    <path class="cls-8" d="M638.6,505.4s-4.6,5.4-6.5,10.7l56.2,16.8s4.7-8.2,7.7-11.3c0,0-34.6-11.5-57.4-16.2Z"/>
    <path class="cls-8" d="M542.3,505.4s-3.2,5.7-5.2,11.8l-50,11.8s2.5-8.1,6-12.6c0,0,20.6-7.5,49.2-11Z"/>
    <g>
      <path class="cls-2" d="M512.2,271.3l1.4-7s35.6-5.3,190.6,19.2v7.1s-133.3-2.5-192-19.3Z"/>
      <path class="cls-16" d="M704.1,290.6s-5.8,1.1-15.6,2.6c-.1,0-.3,0-.4,0-43.7,6.8-165.8,22-227.3-9.1,0,0,19.2-6.6,51.2-12.8,0,0,.1,0,.1,0,132.1,12.2,163.9,15.8,192,19.3Z"/>
      <path class="cls-3" d="M513.7,264.6s-4.3-18.7-28.2-34.3c-14.3-26.9,45.3-56.3,86.8-55.2,106.3,2.9,166.8,91,160.2,96.2-9,7-27.9,4-28.5,12.2l-190.2-18.9Z"/>
      <path class="cls-16" d="M513.5,264.6s-16.6-40.7,38-40.7c64.1,0,131.1,48.3,152.7,59.6l-190.7-18.9Z"/>
      <polygon class="cls-26" points="512.2 271.3 515.2 267.3 606.7 273.8 513.5 264.6 512.2 271.3"/>
      <g>
        <path class="cls-2" d="M569.8,235.9c0,11.3-8.6,20.5-19.1,20.5s-16.5-6.6-18.5-15.5c-.4-1.6-.6-3.3-.6-5,0-11.3,8.6-20.5,19.1-20.5s2.6.1,3.9.4c8.7,1.9,15.3,10.2,15.3,20.1Z"/>
        <polygon class="cls-11" points="549.4 219.6 553.6 229.3 563.6 231.2 556 238.4 557.4 249.1 548.6 243.7 539.4 248.4 541.5 237.9 534.4 230.2 544.6 229 549.4 219.6"/>
        <polygon class="cls-26" points="549.4 219.6 545.4 229.8 535.4 230.4 542.4 237.5 539.4 248.4 541 237.8 534.4 230.2 544.5 228.6 549.4 219.6"/>
        <path class="cls-26" d="M554.5,215.9c-7.6,0-22.4,2.9-22.4,25.1-.4-1.6-.6-3.3-.6-5,0-11.3,8.6-20.5,19.1-20.5s2.6.1,3.9.4Z"/>
      </g>
      <path class="cls-18" d="M688.1,293.3c-43.7,6.8-165.8,22-227.3-9.1,0,0,19.2-6.6,51.2-12.8-25.8,7-45.8,13-38.6,15.1,74.1,21.6,164.1,13,214.6,6.9Z"/>
    </g>
    <g>
      <path class="cls-2" d="M628.7,592.9c3.7-3.2,21.4-6.4,23.2-18.1.7-4.4-.6-8.7-3.4-12.1-.5-.6-.9-1.5-1-2.7-.1-3.6,4.5-4.6,4.5-4.6,0,0-.3-5.4-1.6-8.5-10.4,2.8-14.2-2.5-14.2-2.5l-7.5,48.5Z"/>
      <path class="cls-2" d="M628.7,592.9c-2.5-4.2-18.5-12.6-16.7-24.3.7-4.4,3.2-8.1,6.9-10.5.7-.4,1.3-1.2,1.7-2.3,1.2-3.4-2.9-5.7-2.9-5.7,0,0,2-5.1,4.1-7.6,9.1,5.8,14.3,1.9,14.3,1.9l-7.5,48.5Z"/>
      <path class="cls-26" d="M624.1,588.1c-1.7-1.5-3.3-3-4.9-4.6-.8-.8-1.5-1.6-2.2-2.5-.7-.8-1.3-1.8-2-2.7-.5-1-1.1-1.9-1.5-2.9-.2-.5-.4-1-.5-1.5-.1-.5-.3-1-.4-1.6l-.2-1.6c0-.5,0-1.1.1-1.7,0-1,.4-2.1.7-3.1.7-2,1.9-3.9,3.4-5.4.8-.8,1.6-1.4,2.5-2,1-.6,1.8-1.8,2.1-3,.4-1.2,0-2.6-.7-3.6-.6-.9-1.4-1.6-2.3-2.2.5-1.2,1-2.4,1.6-3.5.6-1.2,1.2-2.3,2-3.3l1.4.8c.6.3,1.2.6,1.8.8.6.2,1.2.5,1.8.6.6.2,1.2.3,1.9.4.6.1,1.3.2,1.9.2.6,0,1.3,0,1.9-.1,1.3-.2,2.5-.6,3.6-1.3-1.1.7-2.4.9-3.6,1.1-.6,0-1.3,0-1.9,0-.6,0-1.2-.1-1.9-.3-.6-.1-1.2-.3-1.8-.5-.6-.2-1.2-.5-1.7-.7-.6-.3-1.1-.6-1.7-.8l-1.6-1-.3-.2-.2.2c-1,1.1-1.7,2.4-2.4,3.7-.7,1.3-1.3,2.6-1.9,4l-.2.4.4.2c.9.5,1.7,1.3,2.3,2.1.6.8.8,1.8.5,2.8-.3,1-.8,1.8-1.7,2.3-.9.6-1.9,1.4-2.7,2.2-1.7,1.6-2.9,3.7-3.7,5.8-.4,1.1-.7,2.2-.7,3.4,0,.6,0,1.1,0,1.7l.2,1.8c0,.6.3,1.1.4,1.7.1.6.4,1.1.6,1.6.4,1.1,1.1,2,1.6,3,.7.9,1.3,1.8,2.1,2.7.7.9,1.5,1.6,2.3,2.4.8.8,1.6,1.5,2.5,2.3.9.7,1.7,1.4,2.6,2.1.9.7,1.7,1.4,2.6,2.1.8.7,1.7,1.5,2.3,2.4-.6-.9-1.4-1.8-2.2-2.5-.8-.8-1.6-1.5-2.5-2.3Z"/>
      <path class="cls-11" d="M634.6,589.7c2-.9,4.1-1.9,6-2.9,1-.5,1.9-1.1,2.9-1.7.9-.6,1.8-1.3,2.7-1.9.8-.7,1.6-1.5,2.3-2.3.4-.4.7-.8,1-1.3.3-.5.6-.9.8-1.4l.6-1.4c.2-.5.3-1.1.4-1.6.3-1,.3-2.1.3-3.2,0-2.2-.7-4.3-1.6-6.2-.5-1-1.1-1.8-1.8-2.7-.8-.9-1.2-2.2-1.1-3.5,0-1.3.8-2.5,1.7-3.2.8-.7,1.8-1.1,2.8-1.4,0-1.3-.2-2.6-.4-3.8-.2-1.3-.5-2.6-.9-3.8l-1.5.3c-.6,0-1.3.2-1.9.2-.6,0-1.3.1-1.9,0-.6,0-1.3,0-1.9-.2-.6,0-1.3-.2-1.9-.4-.6-.2-1.2-.4-1.8-.7-1.1-.6-2.2-1.3-3-2.3.8,1,2,1.6,3.1,2.1.6.2,1.2.4,1.8.6.6.1,1.2.3,1.8.3.6,0,1.2,0,1.9,0,.6,0,1.2,0,1.9-.1.6,0,1.2-.2,1.9-.3l1.8-.4h.3c0,0,.1.2.1.2.6,1.4.9,2.8,1.2,4.2.3,1.4.5,2.9.6,4.3v.4s-.4.1-.4.1c-1,.2-2,.7-2.8,1.3-.8.6-1.3,1.5-1.3,2.5,0,1,.3,2,.9,2.7.7.9,1.4,1.9,1.9,2.9,1.1,2,1.7,4.4,1.7,6.7,0,1.2,0,2.3-.3,3.5-.1.5-.3,1.1-.4,1.6l-.7,1.6c-.2.6-.6,1-.9,1.5-.3.5-.7.9-1.1,1.4-.7.9-1.6,1.6-2.5,2.4-.9.7-1.8,1.4-2.8,1.9-1,.6-2,1.1-3,1.6-1,.5-2,1-3.1,1.4-1,.4-2.1.8-3.1,1.3-1,.4-2.1.8-3.1,1.2-1,.4-2,.9-3,1.5.9-.7,1.9-1.3,2.9-1.8,1-.5,2-1,3-1.4Z"/>
      <polygon class="cls-26" points="635.9 545.1 633 546.5 629.9 550.4 634.3 547.6 635.9 545.1"/>
      <path class="cls-26" d="M628.7,592.9l7.5-48.5s-5,2.8-11.7-.4c0,0,2.9,2.9,9.2,3.1l-5,45.8Z"/>
      <polygon class="cls-26" points="619.9 558.1 623.9 555.2 620.4 556.6 619.9 558.1"/>
      <polygon class="cls-11" points="634.5 555.9 636.6 563.2 643.6 565.4 637.6 569.9 637.7 577.5 631.8 573 624.9 575.5 627.3 568.3 622.9 562.2 630.2 562.2 634.5 555.9"/>
      <polygon class="cls-26" points="634.5 555.9 630.7 562.8 623.6 562.5 628 568.1 624.9 575.5 626.9 568.2 622.9 562.2 630.2 561.9 634.5 555.9"/>
    </g>
    <path class="cls-1" d="M551.4,774.2l-31.6-1.4c-2,0-3.8,1.5-3.9,3.5l-1,22.3c0,2,1.5,3.8,3.6,3.9l31.6,1.4c2.1,0,3.8-1.5,3.9-3.5l1-22.3c0-2-1.5-3.8-3.5-3.9ZM548.8,797.6c0,.6-.5,1-1.1,1l-26.5-1.2c-.6,0-1-.5-1-1.1l.8-17.1c0-.6.5-1.1,1.1-1l26.5,1.2c.6,0,1,.5,1,1.1l-.8,17.1Z"/>
    <polygon class="cls-21" points="525.3 614.9 477.6 611.2 480.6 591.5 529.3 594 525.3 614.9"/>
    <path class="cls-22" d="M508.5,603.7c-.3,3.3-3.3,5.8-6.6,5.5-3.3-.3-5.8-3.3-5.5-6.6.3-3.3,3.3-5.8,6.6-5.5,3.3.3,5.8,3.3,5.5,6.6Z"/>
    <polygon class="cls-21" points="640.8 625.3 593.1 621.6 596.5 599.6 644.8 604.4 640.8 625.3"/>
    <path class="cls-22" d="M624,614.1c-.3,3.3-3.3,5.8-6.6,5.5-3.3-.3-5.8-3.3-5.5-6.6.3-3.3,3.3-5.8,6.6-5.5,3.3.3,5.8,3.3,5.5,6.6Z"/>
    <path class="cls-22" d="M488.8,567.5l-1.7,8.4s16.9,1.4,36.3,2.1c0,0,1.7-8.3,1.7-8.3l-36.3-2.2Z"/>
    <path class="cls-2" d="M524.6,515.6l-.5-6,3.3-2.1s-4.9.8-8.2,1.6l-2.3,1.6.5,6.2,7.2-1.4Z"/>
    <path class="cls-2" d="M510.6,518.8l-.5-6,3.6-2.6s-4.5.9-8.5,2.1l-2.3,1.6.5,6.2,7.2-1.4Z"/>
    <path class="cls-2" d="M646.3,517l6.7-7-.8-1.9s3.5.9,6.2,1.8l1.8,2-6.4,7.5-7.5-2.4Z"/>
    <path class="cls-2" d="M667.2,522.7l6.1-6.5-2.5-3.2s3.8,1.1,6.3,1.8l3.1,4.2-5.8,5.7-7.1-1.9Z"/>
    <g>
      <path class="cls-5" d="M449.3,103.8l-11.4-62.2,8.8-1.6,25.7,27.8c5.9,6.4,10.7,12.3,14.9,18.2h.2c-2.3-8.3-3.8-15.8-5.6-25.5l-4.8-26,7.6-1.4,11.4,62.2-8.1,1.5-25.5-27.9c-5.6-6.1-11.1-12.5-15.4-18.6h-.3c1.9,7.9,3.4,15.3,5.3,25.7l4.9,26.6-7.6,1.4Z"/>
      <path class="cls-5" d="M547.5,67.9c1.3,16.7-9.8,24.9-20.7,25.8-12.2.9-22.4-7.3-23.5-21.6-1.2-15.1,8.1-24.8,20.6-25.7,13-1,22.5,7.8,23.6,21.6ZM511.6,71.1c.8,9.9,7,17,15.1,16.3,7.9-.6,13.2-8.4,12.4-18.6-.6-7.7-5.2-17.1-14.9-16.4-9.7.7-13.2,10-12.6,18.6Z"/>
      <path class="cls-5" d="M568,32.4v13c.1,0,11.9-.1,11.9-.1v6.3c0,0-11.8.1-11.8.1l.2,24.5c0,5.6,1.7,8.8,6.3,8.8,2.2,0,3.7-.3,4.8-.6l.4,6.2c-1.6.7-4.1,1.2-7.3,1.2-3.8,0-7-1.1-8.9-3.4-2.4-2.4-3.3-6.4-3.3-11.8l-.2-24.8h-7c0,0,0-6.2,0-6.2h7c0,0-.1-10.9-.1-10.9l8-2.2Z"/>
      <path class="cls-5" d="M589,91l1.4-45.4,8.2.3-1.4,45.4-8.2-.3ZM600,33.2c0,2.8-2.1,5-5.4,4.9-2.9,0-4.9-2.4-4.8-5.2,0-2.9,2.3-5.1,5.3-5,3.1,0,5,2.4,4.9,5.3Z"/>
      <path class="cls-5" d="M611.2,92l2.8-39-6.4-.5.4-6.3,6.4.5.2-2.2c.5-6.4,2.3-12.1,6.4-15.4,3.3-2.8,7.5-3.7,11.3-3.4,2.9.2,5.4,1,6.9,1.8l-1.6,6.3c-1.2-.6-2.8-1.2-5.2-1.4-7-.5-9.2,5.5-9.7,12.5l-.2,2.4,10.9.8-.4,6.3-10.9-.8-2.8,39-8.1-.6Z"/>
      <path class="cls-5" d="M645.7,49.3l6.3,27.9c.6,3.1,1.3,6.8,1.6,9.6h.2c1.2-2.6,2.6-5.9,4.1-9l12.5-25.2,8.6,1.2-16.6,30.4c-7.9,14.6-13,22-19.2,26.1-4.5,3-8.7,3.8-10.8,3.9l-1.1-7.2c2.1-.4,5-1.3,7.7-3,2.5-1.5,5.7-4.2,8.1-8.2.5-.8.9-1.4.9-1.9s0-1.1-.3-2.2l-11-43.7,8.9,1.2Z"/>
      <path class="cls-5" d="M710,40.3c-8.6,7.6-15.9,18.5-19.4,35.1-3.4,16.3-.8,29.1,3.8,39.7l-6.3-1.3c-4.2-8.8-8-21.9-4.2-39.8,3.9-18.1,12.5-28.5,19.9-35l6.3,1.3Z"/>
      <path class="cls-5" d="M696.4,115.6c8.9-7.2,17.1-17.5,21.7-33.8,4.5-16.2,2.8-29.1-1.2-39.9l6.1,1.7c3.7,9,6.6,22.3,1.6,40.1-4.9,17.7-14.2,27.5-22.1,33.6l-6.1-1.7Z"/>
      <path class="cls-5" d="M728.7,108.3c1.1-3.2,4.2-4.7,7.2-3.6,3.2,1.1,4.4,4.2,3.2,7.3-1.1,3.1-4,4.7-7.2,3.6-3.1-1.1-4.4-4.3-3.2-7.3ZM735.5,96.5l14-42.8,8.5,3-16.4,41.9-6-2.2Z"/>
    </g>
  </g>
  <g class="cls-31">
    <g>
      <path class="cls-12" d="M207,596.6s-2.3-28.8-2.3-30.1c-.1-17-9.8-35.2,3.3-36.4,0,0,7.5,43.6,9.2,54.2,1.7,10.6-10.2,12.4-10.2,12.4Z"/>
      <path class="cls-24" d="M208.8,591s-.7-30.7-.7-32c-.1-17-9.9-35.2,3.3-36.4,0,0,7.5,43.6,9.2,54.2,1.7,10.6-11.9,14.3-11.9,14.3Z"/>
      <path class="cls-24" d="M211.2,610.5s-7.2-7.4-2.8-24.5c2.5-9.8,6.4-25.5,6.6-30.3.2-4.8-11.6-39.8,3.7-40.5,1.9,10.2,4,23.6,7.7,29.5,3.7,5.9,9.1,39.5,13.5,48.1,4.4,8.6,4.8,23.1,4.8,23.1l-33.5-5.4Z"/>
      <path class="cls-12" d="M213.6,564.3s.2-2.6.6-6.5c0-1,.2-2,0-3.1-.2-1-.5-2.2-.8-3.4-.6-2.4-1.2-5-1.7-7.6-.5-2.6-.9-5.3-1.2-7.7-.3-2.5-.3-4.8-.2-6.8,0-2,.4-3.6.6-4.8.3-1.1.5-1.8.5-1.8,0,0,0,.7,0,1.8,0,.6,0,1.3,0,2.1,0,.8.1,1.7.2,2.7.3,3.9,1.3,9.1,2.3,14.3.5,2.6,1,5.2,1.5,7.7.2,1.2.4,2.4.5,3.6.1,1.1-.1,2.3-.3,3.3-.4,2-.9,3.5-1.2,4.6-.3,1.1-.6,1.7-.6,1.7Z"/>
      <path class="cls-24" d="M263.8,591.9c6.4,8.8,5.7,35.2,5.7,35.2,0,0-10,1-28.3-1-18.4-2-29.9-15.7-29.9-15.7,0,0,5.9-3.5,12.8-7.3-4.7-7.7-5.9-17.9-.5-29.1,3-6.2,3.2-12.2,3.5-18.6.3-6.4,6.9-10.6,7.3-5.8.4,4.8,7.2,22.6,7.2,22.6,0,0,2.9,13.8,6.6,22,8.8-1.3,15.9-2.4,15.9-2.4Z"/>
      <path class="cls-12" d="M224,603.2s-.1-.2-.3-.5c-.2-.3-.6-.8-.9-1.4-.7-1.2-1.7-3-2.4-5.3-.7-2.3-1.3-5-1.3-8,0-1.5,0-3,.3-4.5.2-1.5.6-3.1,1.1-4.6.5-1.5,1.1-3,1.7-4.4.6-1.4,1.3-2.7,1.8-4,1-2.7,1.6-5.2,1.9-7.5.4-2.3.6-4.2.8-5.5.2-1.3.3-2.1.3-2.1,0,0,0,.8.1,2.1,0,1.3.1,3.3,0,5.6-.2,2.3-.5,5-1.4,7.9-.4,1.4-1.1,2.9-1.7,4.2-.6,1.4-1.2,2.8-1.6,4.2-.5,1.4-.8,2.9-1.1,4.3-.3,1.5-.4,2.9-.5,4.3,0,1.4,0,2.8,0,4.1.1,1.3.3,2.5.6,3.6.5,2.2,1.1,4.1,1.7,5.4.5,1.3.9,2,.9,2Z"/>
    </g>
    <path class="cls-19" d="M393.1,620.2c36.5-2.4,144.5-15.2,144.5-15.2,0,0-9-94.7-52-80.1,0,0-60.5,22.5-116.2,46.3,0,0-27.2-2.7-120.6,20.7v38.6s80.4,1.7,144.5-10.4Z"/>
    <path class="cls-16" d="M652.8,1099.8s-1.3,12.1-5.1,17.2c-3.7,5.1-14.2,13.2-11.5,23.3,2.7,10.1,20.2,13.8,20.2,13.8,0,0,19.6,4.4,36.4-12.5,0,0,.5-3.4.2-8.9l1.7-3s0-16.5-9.8-29.8c-14.3-7.4-32.2,0-32.2,0Z"/>
    <path class="cls-16" d="M495.7,1095.1s-12.4,5.4-31.3,3.8c-13.5-1.1-32,5.8-41.3,26.7,0,0,9.9,15.8,42.7,11.8,32.8-4,27.1-11.2,36-10.3,8.9.9,23.9,2.2,29.2-1.8,0,0-.4-10.6-4.9-20.4-4.4-9.7-30.6-9.7-30.6-9.7Z"/>
    <path class="cls-16" d="M688.9,1100.7c-13.9,13-42.8,1.2-42.8,1.2,3.2-17.7-15-85-25.7-108.7-7.1-15.7-12.9-63.7-19.5-96.7-2-9.9-4-18.4-6.2-24.3-1.5-4.1-3-6.9-4.6-8.1-11.8-8.3-30.7-8.3-46.8,0-5.1,2.6-9.1,14.8-11.9,31-.3,2-.6,4.1-1,6.2-5,34.4-5.1,82.8.4,102.5,8.6,30.7-3.2,104-3.2,104-16-1.2-44.5-9.6-44.5-9.6,13.5-14-7.7-119.9-7.7-119.9-3.6-29.2-6-55.2-7.7-77.7-2-26.4-3-48.1-3.4-64.9-.3-11-.3-19.9-.3-26.5,0-.7,0-1.4,0-2.1,0-8.4.3-12.8.3-12.8,0,0,4.2-33.9,80.3-33.9s115.6,36.1,115.6,36.1c.3,1.6.6,3.4.9,5.3.1.8.2,1.7.3,2.6,1.4,13,1.6,32.4,1.4,54-.1,14.6-.3,30.1-.3,45.4,0,33.1.9,64.6,6,81.1,11.8,37.8,20.3,115.7,20.3,115.7Z"/>
    <path class="cls-19" d="M657.2,776.2c-42.6,18-73.6,15.4-104.2,15.2l-21.7-1c-42.7-3.6-64.2-9.9-64.2-9.9-10.3-183.3,25-256.6,25-256.6,41.9-12.6,144-28.4,210.7,10.3-.2,54.9-10.1,90.5-29.5,148.4-17.4,51.7-16,93.6-16,93.6Z"/>
    <path class="cls-24" d="M747.9,808.8s-2.2,16.9-9.4,25.1c-7.2,8.2-1.9,12.6-3.8,16.2-1.9,3.7,2.5,11.5,6.2,13.4,3.7,1.9,4.1,2.6,7.2,5.1,3.1,2.4,10.9.6,14,.3,3.2-.3,8.7-1.1,12.7-2.4,3.9-1.3,7.5-2.9,11.6-5,4.1-2.1,6.5-12.6,2.5-21.6-4-9-7.7-28-10.5-32.3-2.8-4.3-30.3,1.1-30.3,1.1Z"/>
    <path class="cls-19" d="M702.6,534.4s-58.4,7.4-58.3,56.1c0,0,62.7,70.5,73.3,94.7,10.6,24.2,23.7,86.9,26,128.1,0,0,17.7,4.7,40.2-4.7,0,0,1.6-101.7-10.2-143-11.8-41.3-70.9-131.1-70.9-131.1Z"/>
    <path class="cls-14" d="M617.3,485.2v4.6c0,0,0,1.6,0,1.6v3.1c0,0-.4,31.1-.4,31.1-21,8.4-43.1,18.4-52.7,16.9-12.2-1.9-8.9-16.9-8.9-16.9,1.6-1.7,3-4,4.1-6.5,1.1-2.5,2-5.2,2.8-8,.5-1.7.9-3.5,1.2-5.3,2-10.5,2.2-20.5,2.2-20.5h51.8Z"/>
    <polygon class="cls-16" points="556.8 534.2 553.4 559.9 570.2 560.6 580.6 537.5 567.3 540.3 556.8 534.2"/>
    <path class="cls-20" d="M617.3,485.2v4.6c-17.9,8.5-39.1,14-54,16,2-10.5,2.2-20.5,2.2-20.5h51.8Z"/>
    <path class="cls-16" d="M553.4,559.9s-24.3,73.7-38.1,151.1c4.5,24.2,12.4,49.5,12.4,49.5l28.6-48.5,13.8-151.3-16.8-.7Z"/>
    <polygon class="cls-8" points="567.3 540.3 532.7 553.6 545.3 512.4 563.4 505.2 567.3 540.3"/>
    <path class="cls-8" d="M567.3,540.3l35.3,20.3,20.5-27.6s5.8-11.3,8.4-21.7l-14.2-8.3-50,37.3Z"/>
    <g>
      <path class="cls-10" d="M526.3,368.9s-12.4-12.9-26.3,1.3c-15.1,15.4,4.1,60.9,25.3,56.4,0,0,4.6-1,6.3-6.5,1.7-5.5-5.3-51.2-5.3-51.2Z"/>
      <path class="cls-24" d="M678.9,398.5c-.6,6.6-1.5,12.7-2.8,18.5-14.5,66.5-70.8,80.5-112.3,78.2-7.8-.4-15.3-2.4-22.2-5.4-29.2-13-48.5-46.8-41.8-76.7,8.4-37.6,7.4-79.5,7.4-79.5.8-95.5,87.8-122,141-94.2,51.3,26.9,35.6,104.9,30.7,159.1Z"/>
      <path class="cls-29" d="M558.5,423c3.3-2.5,6.9-4.5,10.4-6.5-18.2-.8-23.2-.6-30.3-.6-7.3,0-17.8.6-17.8.6,0,0-1.7,2.3.6,8.9h0c1.3,3.8,3.4,7.8,6.8,11.2,1.8,1.8,4,3.5,6.5,4.9,1.9,1,4.1-3,6.5-2.4,4.5-7.7,10.4-10.8,17.2-16Z"/>
      <path class="cls-7" d="M572.3,325.6s25.6-14.1,49.8,12.3c0,0,2.7-10.6-9.2-20-11.2-8.9-25.9-9.1-32.4-5.6-8.3,4.5-8.2,13.2-8.2,13.2Z"/>
      <path class="cls-7" d="M538.1,328.8s-14.9-13.9-35.3,10.3c0,0-2.5-8.3,4.3-16.2,8.8-10.2,19.8-10.9,24.7-6.8,6.2,5.2,6.4,12.6,6.4,12.6Z"/>
      <g>
        <path class="cls-15" d="M540.6,361.7s-1.8-13-11.7-13.5c-9.9-.5-14.8,12.6-14.8,12.6,0,0,2.8,3.3,11.7,4.5,8.8,1.2,14.8-3.7,14.8-3.7Z"/>
        <g>
          <path class="cls-7" d="M537.7,357.2c.2,4.2-3,7.6-7.2,7.8-4.2.1-7.8-3.1-8-7.3-.2-4.2,3-7.6,7.2-7.8,4.2-.1,7.8,3.1,8,7.3Z"/>
          <path class="cls-27" d="M534,357.3c.1,2.1-1.5,3.9-3.6,3.9-2.1,0-3.9-1.6-4-3.7-.1-2.1,1.5-3.9,3.6-3.9,2.1,0,3.9,1.6,4,3.7Z"/>
          <path class="cls-15" d="M530.3,354.4c0,1.7-1.2,3.1-2.9,3.1-1.7,0-3.1-1.3-3.2-2.9,0-1.7,1.2-3.1,2.9-3.1,1.7,0,3.1,1.3,3.2,2.9Z"/>
          <path class="cls-15" d="M535.1,360.7c0,1.2-.8,2.1-2,2.2-1.1,0-2.1-.9-2.2-2,0-1.2.8-2.1,2-2.2,1.1,0,2.1.9,2.2,2Z"/>
        </g>
        <path class="cls-17" d="M540.6,361.7s-.2-.5-.5-1.5c-.3-.9-.9-2.3-1.7-3.8-.8-1.5-1.9-3.2-3.5-4.7-.8-.8-1.8-1.4-2.8-1.9-.5-.2-1.1-.4-1.7-.5-.6,0-1.3-.2-1.8-.2-.7,0-1.5,0-2,.2-.5,0-1.1.3-1.7.5-.6.2-1.1.5-1.6.8-.5.3-1,.6-1.4,1-.9.7-1.7,1.4-2.4,2.2-.7.8-1.3,1.5-1.9,2.2-1.1,1.4-2,2.6-2.5,3.5-.5.9-.9,1.4-.9,1.4,0,0,.4-2.2,2.1-5.4.9-1.6,2.1-3.4,4-5,1-.8,2.1-1.6,3.5-2.2,1.3-.6,3.4-1,4.6-.9,1,0,1.7.2,2.5.3.8.2,1.6.4,2.2.8.7.3,1.4.7,1.9,1.1.6.4,1,.8,1.5,1.3,1.7,1.8,2.6,3.7,3.2,5.4,1.1,3.3.9,5.6.9,5.6Z"/>
      </g>
      <g>
        <path class="cls-15" d="M583,362.5s1.8-12.2,11.7-12.6c9.9-.5,14.8,11.8,14.8,11.8,0,0-2.8,3.1-11.7,4.3-8.8,1.2-14.8-3.5-14.8-3.5Z"/>
        <g>
          <path class="cls-7" d="M585.3,358.1c-.2,4,2.9,7.4,6.9,7.5,4,.1,7.5-3.1,7.7-7.1.2-4-2.9-7.4-6.9-7.5-4-.1-7.5,3.1-7.7,7.1Z"/>
          <path class="cls-27" d="M588.9,358.2c-.1,2,1.4,3.7,3.5,3.8,2,0,3.8-1.6,3.9-3.6.1-2-1.4-3.7-3.5-3.8-2,0-3.8,1.6-3.9,3.6Z"/>
          <path class="cls-15" d="M592.4,355.9c0,1.3,1.2,2.4,2.8,2.5,1.6,0,3-1,3-2.3s-1.2-2.4-2.8-2.5c-1.6,0-3,1-3,2.3Z"/>
          <path class="cls-15" d="M587.8,361.1c0,.9.8,1.7,1.9,1.7,1.1,0,2-.7,2.1-1.6,0-.9-.8-1.7-1.9-1.7-1.1,0-2,.7-2.1,1.6Z"/>
        </g>
        <path class="cls-17" d="M583,362.5s.2-.5.5-1.4c.3-.9.9-2.1,1.7-3.5.8-1.4,1.9-3,3.5-4.4.8-.7,1.8-1.3,2.8-1.7.5-.2,1.1-.3,1.7-.5.6,0,1.3-.2,1.8-.1.7,0,1.5,0,2,.2.5,0,1.1.3,1.7.5.6.2,1.1.5,1.6.7.5.3,1,.6,1.4.9.9.7,1.7,1.3,2.4,2,.7.7,1.3,1.4,1.9,2.1,1.1,1.3,2,2.5,2.5,3.3.5.8.9,1.3.9,1.3,0,0-.4-2.1-2.1-5.1-.9-1.5-2.1-3.1-4-4.7-1-.8-2.1-1.5-3.5-2.1-1.3-.6-3.4-.9-4.6-.9-1,0-1.7.2-2.5.2-.8.2-1.6.4-2.2.7-.7.3-1.4.6-1.9,1-.6.4-1,.8-1.5,1.2-1.7,1.7-2.6,3.5-3.2,5.1-1.1,3.1-.9,5.2-.9,5.2Z"/>
      </g>
      <path class="cls-12" d="M530.2,384s17-7.8,16.9-23c0-16.7-4.4-24.6-4.4-24.6,0,0,8.5,32.4-12.6,47.6Z"/>
      <path class="cls-12" d="M551.2,397.5s-24.1,5.5-21.2-12.9c0,0,3.6,14.7,21.2,12.9Z"/>
      <path class="cls-10" d="M701.3,366.8c-1.5-1.5-2.9-2.7-4.3-3.6-4.1-2.7-8-3.3-11.2-3-6.4.8-10.8,5.3-10.8,5.3,0,0-7,45.7-5.3,51.2,1.7,5.5,6.3,6.5,6.3,6.5,17.8,3.7,11.1-13.5,20.9-21,11.7-9.1,12.7-26.9,4.4-35.4Z"/>
      <path class="cls-12" d="M540.6,363s-7.8,12-23.8,4.5c0,0,13.5,5.3,23.8-4.5Z"/>
      <path class="cls-12" d="M582.2,364.5s7.8,12,23.8,4.5c0,0-13.5,5.3-23.8-4.5Z"/>
      <path class="cls-12" d="M640.2,385.6s-3.9,5.2-11,13.3-9.2,19.8-9.2,19.8c0,0,8.2-10.9,13.6-15.3,5.4-4.4,6.6-17.8,6.6-17.8Z"/>
      <path class="cls-12" d="M679.3,398.6c0-2.4,1.5-5,5.4-6.2,3.9-1.2,5.8-.9,7.1-8.4,0,0,6.7,6.2.2,13.9-6.5,7.7-6.9,2.3-9.7,3.7s-3-.7-3-3Z"/>
      <path class="cls-12" d="M643.8,303.5s-1.3,17.6,1,22.6c2.3,5,2.9,10.4,2.9,10.4,0,0,2.1-7.1.3-15-1.7-7.9-4.3-18-4.3-18Z"/>
      <path class="cls-12" d="M547.3,397.2s2.4-2.4,8,.5c5.6,2.9,11.6-1.1,9.4-6.8-2.5-6.4-6.2-6.8-6.2-6.8,0,0,9.3,11.2-.6,11.6-5.9.2-7.8-1.4-10.5,1.5Z"/>
      <path class="cls-12" d="M540.5,397.8s-3.9-2-9.6-.7c-5.6,1.3-8.2-5-3.4-10.7,0,0-1.8,9.6,2.5,8.9,7.9-1.2,10.5,2.6,10.5,2.6Z"/>
      <path class="cls-12" d="M537,397.3s0,3.9-1.3,12.8c0,0,4-6.4,3.9-12.6l-2.5-.2Z"/>
      <path class="cls-12" d="M544.4,397.6s0,3.6-1.2,12.5c0,0,3.5-6.1,3.4-12.4l-2.2-.2Z"/>
      <path class="cls-12" d="M547.8,389.4s.9-4.1,5.1-5.1c0,0-1.8-.2-3,.5-2.4,1.5-2.1,4.5-2.1,4.5Z"/>
      <path class="cls-6" d="M676.6,373.2c.8,12.5,2.5,22.1-.6,43.8-14.5,66.5-70.8,80.5-112.3,78.2-7.8-.4-15.3-2.4-22.2-5.4,5,.4,10.4.8,16.4,1,88.5,2.9,96.8-94.2,99.4-97.5s12.2-16.9,12.2-16.9l7.2-3.1Z"/>
      <path class="cls-12" d="M538.6,347.3s-11.9-12.5-24.9,1.5c0,0,12.5-9.1,24.9-1.5Z"/>
      <path class="cls-12" d="M608.6,347.3s-11.9-12.5-24.9,1.5c0,0,12.5-9.1,24.9-1.5Z"/>
      <path class="cls-7" d="M676.7,373.8l-8.3,4.1-4,5.6s8-1.4,12.9-3.3l-.5-6.4Z"/>
      <path class="cls-7" d="M600,207.4c-2,0-7,1.4-12.3,2.2-3.9.6-8.4.6-12.2,1.5-5.3,1.3-8,6.6-9.4,8.1-1.7,1.9-8.6,4.4-9.4,8.8-.6,3.5.9,10.2,4.7,13.5,2.3,2,7.4,2.6,12.2,4.1,3.2.9,7.7-2.3,12.3-1.8,3.5.4,7.1,1.8,11.5,2,3.2.1,6.5.4,10,.5,3.3,0,6.7-1,10.1-.9,3.3,0,6.5,3.7,9.9,4,3.4.3,7.2-2.2,10.4-1.6,3.4.6,6.2,3.7,9.2,4.8,3.5,1.3,8.2,1,11.4,2.9,3.3,2,6.4,5.1,8.8,8,2.6,3.1.9,8.5,2.3,12.2,1.4,3.7,7.3,6.1,8.2,10,.8,3.5-1.6,7.7-1,11.2.6,3.5.7,7.1,1,10.7.3,3.6-1.4,7.1-1.4,10.7,0,3.6-.2,6.9-.5,10.4-.4,3.6,1.4,7.3.6,10.8-.8,3.5-1.4,7-2.6,10.4-2.4,6.3-3.9,11.6-4.5,15.6-.6,4-4.6,8.4.2,10.9,3.5,1.8,6.6,1.7,9.3-1,4.9-5,2.2-12,3.6-15.2,2.6-1.1,7.6-2,10.1-5.8,1.8-2.7.3-7.7,1.9-11.4,1.3-3.2,2.8-6.4,3.8-10.1.9-3.4,3.2-6.6,3.8-10.4.6-3.5,1.8-7.1,2.1-10.9.3-3.6-1-7.3-1.1-11.1,0-3.6-.5-7.2-1-10.9-.4-3.6,2.1-7.9,1.2-11.5-.8-3.5-5.4-6.1-6.6-9.6-1.2-3.4-4.7-5.6-6.4-8.9-1.7-3.2.4-8.6-1.8-11.6-2.1-2.9-4.3-6.1-6.9-8.8-2.5-2.6-6.8-3.4-9.7-5.8-2.8-2.2-6.8-2.4-10-4.4-3-1.8-6-3.2-9.5-4.8-3.2-1.5-5.1-6.4-8.7-7.6-3.4-1.1-7.3-.7-11-1.6-3.4-.8-6.5-5-10.3-5.5-3.5-.5-7.4-.4-11.2-.7-3.5-.3-7.3-1.1-11.1-1.2Z"/>
      <path class="cls-12" d="M562.4,435.1s-18.1-17.2-31.1-7c-13.1,10.1-12.3,10.6-8.8,13.6,3.5,3,17.8-.2,21.9-3.4,4.1-3.2,18.1-3.1,18.1-3.1Z"/>
      <g>
        <path class="cls-9" d="M531.1,415.8v7s-13.6,3.6-18.7,11.6v-18.5h18.7Z"/>
        <path class="cls-9" d="M497.6,415.8c-.1,0-.2,0-.3,0h0s.3,0,.3,0Z"/>
        <path class="cls-9" d="M512.4,415.8v30.3h-14.8c-2.4,0-4.6-.5-6.6-1.5-1.7-.8-3.2-1.9-4.4-3.2-2.6-2.7-4.2-6.4-4.2-10.4,0-8.3,6.6-15,14.8-15.1.1,0,.2,0,.3,0h14.8Z"/>
        <path class="cls-13" d="M512.4,441.4v4.7h-14.8c-4.3,0-8.2-1.8-11-4.7h25.8Z"/>
        <path class="cls-23" d="M512.4,444.6v1.5h-14.8c-2.4,0-4.6-.5-6.6-1.5h21.4Z"/>
        <path class="cls-23" d="M545.9,415.8v7s-13.8,3.7-18.8,11.7c0,0,0,0,0,0-1.6,6.6-7.5,11.6-14.7,11.6s-15.1-6.8-15.1-15.1,6.8-15.1,15.1-15.1h33.5Z"/>
        <path class="cls-30" d="M512.4,443.5s-.2,0-.4,0c-.3,0-.7,0-1.3,0-1.1,0-2.7-.3-4.4-1.2-1.7-.8-3.5-2.2-4.9-4.2-.7-1-1.2-2.1-1.6-3.3-.4-1.2-.6-2.5-.6-3.8,0-1.2.2-2.6.6-3.8.4-1.2.9-2.3,1.6-3.3,1.3-2,3.2-3.4,4.9-4.2,1.7-.8,3.3-1.1,4.4-1.2.5,0,1,0,1.3,0,.3,0,.4,0,.4,0,0,0-.6,0-1.7.3-1.1.2-2.5.7-4.1,1.5-1.6.9-3.1,2.4-4.3,4.2-.6.9-1,2-1.4,3.1-.3,1.1-.4,2.2-.5,3.5,0,1.1.1,2.3.5,3.4.3,1.1.8,2.2,1.4,3.1,1.2,1.9,2.7,3.3,4.3,4.2,1.6.9,3,1.4,4.1,1.5,1,.2,1.7.3,1.7.3Z"/>
      </g>
      <path class="cls-24" d="M564.1,436.4s-9.3-4.8-13.7-11.9c-4.8-7.8-5.5-12.3,3-14.4,4.4-1.1,24.8-1,24.8-1l-14.2,27.3Z"/>
      <path class="cls-12" d="M531.1,415.8s12.5-1.7,14.5.9c2,2.6,5.1,11,9.7,14.3,0,0-6.4-10.2-7.5-13.8-1.1-3.6-4.6-4-4.6-4,0,0-9.8-1.5-12.1,2.5Z"/>
      <path class="cls-12" d="M553.7,442.9s-13.6,8.6-31.1,4.6c0,0,13.3,2,31.1-4.6Z"/>
    </g>
    <path class="cls-28" d="M464,774.9s-1.6,11,0,20.8c0,0,67.3,22.6,196.3.9,0,0,1-7.7.2-21,0,0-79.2,14.9-196.4-.7Z"/>
    <path class="cls-8" d="M638.6,511.2s-4.5,5.4-6.5,10.7l55.9,16.7s4.7-8.2,7.7-11.3c0,0-34.4-11.4-57.1-16.1Z"/>
    <path class="cls-8" d="M542.8,511.2s-3.1,5.6-5.2,11.7l-49.8,11.8s2.5-8.1,5.9-12.6c0,0,20.5-7.4,49-10.9Z"/>
    <g>
      <path class="cls-2" d="M512.7,278.1l1.3-7s35.4-5.2,189.8,19.1v7.1s-132.7-2.5-191.2-19.2Z"/>
      <path class="cls-16" d="M703.9,297.3s-5.7,1.1-15.6,2.6c-.1,0-.3,0-.4,0-43.5,6.8-165.1,21.9-226.3-9.1,0,0,19.1-6.6,51-12.8,0,0,.1,0,.1,0,131.6,12.1,163.2,15.8,191.2,19.2Z"/>
      <path class="cls-3" d="M514.2,271.4s-4.2-18.6-28.1-34.2c-14.2-26.8,45.2-56.1,86.4-55,105.8,2.9,166.1,90.7,159.5,95.8-9,7-27.8,4-28.4,12.1l-189.4-18.8Z"/>
      <path class="cls-16" d="M514,271.4s-16.6-40.5,37.8-40.6c63.8,0,130.6,48.1,152,59.4l-189.9-18.8Z"/>
      <polygon class="cls-26" points="512.7 278.1 515.8 274.1 606.9 280.6 514 271.4 512.7 278.1"/>
      <g>
        <path class="cls-2" d="M570.1,242.9c0,11.3-8.5,20.4-19,20.4s-16.4-6.6-18.4-15.4c-.4-1.6-.6-3.3-.6-5,0-11.3,8.5-20.4,19-20.4s2.6.1,3.8.4c8.7,1.9,15.2,10.1,15.2,20Z"/>
        <polygon class="cls-11" points="549.9 226.6 554 236.3 564 238.2 556.4 245.4 557.8 255.9 549 250.6 539.8 255.3 541.9 244.8 534.9 237.1 545 236 549.9 226.6"/>
        <polygon class="cls-26" points="549.9 226.6 545.8 236.8 535.9 237.4 542.9 244.4 539.8 255.3 541.4 244.7 534.9 237.1 544.9 235.6 549.9 226.6"/>
        <path class="cls-26" d="M554.9,222.9c-7.5,0-22.3,2.9-22.3,25-.4-1.6-.6-3.3-.6-5,0-11.3,8.5-20.4,19-20.4s2.6.1,3.8.4Z"/>
      </g>
      <path class="cls-18" d="M687.9,300c-43.5,6.8-165.1,21.9-226.3-9.1,0,0,19.1-6.6,51-12.8-25.7,7-45.6,12.9-38.4,15,73.8,21.6,163.4,12.9,213.7,6.9Z"/>
    </g>
    <g>
      <path class="cls-2" d="M628.8,598.3c3.7-3.2,21.3-6.4,23.1-18.1.7-4.4-.6-8.6-3.4-12-.5-.6-.9-1.5-1-2.7-.1-3.6,4.5-4.5,4.5-4.5,0,0-.3-5.4-1.6-8.4-10.4,2.8-14.2-2.5-14.2-2.5l-7.5,48.3Z"/>
      <path class="cls-2" d="M628.8,598.3c-2.5-4.2-18.4-12.5-16.6-24.2.7-4.4,3.2-8.1,6.9-10.4.7-.4,1.3-1.2,1.7-2.3,1.2-3.4-2.9-5.7-2.9-5.7,0,0,1.9-5,4.1-7.5,9.1,5.8,14.3,1.9,14.3,1.9l-7.5,48.3Z"/>
      <path class="cls-26" d="M624.2,593.5c-1.6-1.5-3.3-3-4.8-4.6-.7-.8-1.5-1.6-2.2-2.5-.7-.8-1.3-1.7-1.9-2.6-.5-.9-1.1-1.9-1.5-2.9-.2-.5-.4-1-.5-1.5-.1-.5-.3-1-.4-1.6l-.2-1.6c0-.5,0-1.1.1-1.7,0-1,.4-2.1.7-3.1.7-2,1.9-3.8,3.4-5.4.8-.8,1.6-1.4,2.5-2,1-.6,1.8-1.8,2.1-2.9.4-1.2,0-2.6-.7-3.6-.6-.9-1.4-1.6-2.3-2.1.5-1.2,1-2.4,1.6-3.5.6-1.2,1.2-2.3,2-3.3l1.4.8c.6.3,1.2.6,1.7.8.6.2,1.2.5,1.8.6.6.2,1.2.3,1.9.4.6.1,1.3.2,1.9.2.6,0,1.3,0,1.9-.1,1.3-.2,2.5-.6,3.5-1.3-1.1.7-2.3.9-3.6,1.1-.6,0-1.2,0-1.9,0-.6,0-1.2-.1-1.8-.3-.6-.1-1.2-.3-1.8-.5-.6-.2-1.2-.5-1.7-.7-.6-.3-1.1-.6-1.7-.8l-1.6-1-.3-.2-.2.2c-1,1.1-1.7,2.4-2.4,3.7-.7,1.3-1.3,2.6-1.9,3.9l-.2.4.4.2c.9.5,1.7,1.2,2.2,2.1.6.8.8,1.8.5,2.7-.3,1-.8,1.8-1.7,2.3-.9.6-1.9,1.3-2.7,2.1-1.6,1.6-2.9,3.6-3.6,5.8-.4,1.1-.7,2.2-.7,3.4,0,.6,0,1.1,0,1.7l.2,1.8c0,.6.3,1.1.4,1.7.1.6.4,1.1.6,1.6.4,1.1,1,2,1.6,3,.7.9,1.3,1.8,2.1,2.7.7.9,1.5,1.6,2.3,2.4.8.8,1.6,1.5,2.5,2.3.8.7,1.7,1.4,2.6,2.1.9.7,1.7,1.4,2.6,2.1.8.7,1.7,1.5,2.3,2.4-.6-.9-1.4-1.8-2.2-2.5-.8-.8-1.6-1.5-2.5-2.3Z"/>
      <path class="cls-11" d="M634.7,595.2c2-.9,4-1.8,6-2.9,1-.5,1.9-1.1,2.8-1.7.9-.6,1.8-1.3,2.7-1.9.8-.7,1.6-1.4,2.3-2.3.4-.4.7-.8,1-1.3.3-.5.6-.9.8-1.4l.6-1.4c.2-.5.3-1.1.4-1.6.3-1,.3-2.1.3-3.2,0-2.1-.7-4.2-1.6-6.2-.5-1-1.1-1.8-1.8-2.7-.8-.9-1.2-2.2-1.1-3.4,0-1.3.8-2.5,1.7-3.2.8-.7,1.8-1.1,2.8-1.4,0-1.3-.2-2.6-.4-3.8-.2-1.3-.5-2.6-.9-3.8l-1.5.3c-.6,0-1.3.2-1.9.2-.6,0-1.3.1-1.9,0-.6,0-1.3,0-1.9-.2-.6,0-1.3-.2-1.9-.4-.6-.2-1.2-.4-1.8-.7-1.1-.6-2.2-1.3-3-2.3.8,1,1.9,1.6,3.1,2.1.6.2,1.2.4,1.8.6.6.1,1.2.3,1.8.3.6,0,1.2,0,1.9,0,.6,0,1.2,0,1.9-.1.6,0,1.2-.2,1.8-.3l1.8-.4h.3c0,0,.1.2.1.2.6,1.4.9,2.8,1.2,4.2.3,1.4.5,2.9.6,4.3v.4s-.4.1-.4.1c-1,.2-2,.7-2.8,1.3-.8.6-1.3,1.5-1.3,2.5,0,1,.3,2,.9,2.7.7.9,1.4,1.9,1.9,2.9,1.1,2,1.7,4.3,1.7,6.6,0,1.2,0,2.3-.3,3.5-.1.5-.3,1.1-.4,1.6l-.7,1.6c-.2.5-.6,1-.9,1.5-.3.5-.7.9-1.1,1.4-.7.9-1.6,1.6-2.5,2.4-.9.7-1.8,1.3-2.8,1.9-.9.6-2,1.1-3,1.6-1,.5-2,1-3.1,1.4-1,.4-2.1.8-3.1,1.2-1,.4-2.1.8-3.1,1.2-1,.4-2,.9-2.9,1.5.9-.7,1.8-1.3,2.8-1.7,1-.5,2-.9,3-1.4Z"/>
      <polygon class="cls-26" points="635.9 550.7 633.1 552.2 630 556 634.3 553.2 635.9 550.7"/>
      <path class="cls-26" d="M628.8,598.3l7.5-48.3s-5,2.8-11.7-.4c0,0,2.9,2.9,9.2,3.1l-5,45.6Z"/>
      <polygon class="cls-26" points="620 563.7 624 560.8 620.5 562.2 620 563.7"/>
      <polygon class="cls-11" points="634.5 561.5 636.7 568.7 643.6 570.9 637.6 575.4 637.7 583 631.9 578.5 625 581 627.4 573.8 623.1 567.8 630.3 567.8 634.5 561.5"/>
      <polygon class="cls-26" points="634.5 561.5 630.8 568.4 623.7 568 628.1 573.6 625 581 627 573.7 623.1 567.8 630.3 567.5 634.5 561.5"/>
    </g>
    <path class="cls-1" d="M551.8,778.9l-31.5-1.4c-2,0-3.7,1.5-3.9,3.5l-1,22.2c0,2,1.5,3.8,3.5,3.9l31.5,1.4c2.1,0,3.8-1.5,3.9-3.5l1-22.2c0-2-1.5-3.8-3.5-3.9ZM549.3,802.2c0,.6-.5,1-1.1,1l-26.4-1.2c-.6,0-1-.5-1-1.1l.8-17.1c0-.6.5-1.1,1.1-1l26.4,1.2c.6,0,1,.5,1,1.1l-.8,17.1Z"/>
    <polygon class="cls-21" points="525.8 620.2 478.3 616.6 481.4 596.9 529.8 599.4 525.8 620.2"/>
    <path class="cls-22" d="M509.1,609.1c-.3,3.3-3.2,5.8-6.6,5.5-3.3-.3-5.8-3.2-5.5-6.6.3-3.3,3.2-5.8,6.6-5.5,3.3.3,5.8,3.2,5.5,6.6Z"/>
    <polygon class="cls-21" points="640.9 630.6 593.3 627 596.7 605 644.8 609.8 640.9 630.6"/>
    <path class="cls-22" d="M624.1,619.5c-.3,3.3-3.2,5.8-6.6,5.5-3.3-.3-5.8-3.2-5.5-6.6.3-3.3,3.2-5.8,6.6-5.5,3.3.3,5.8,3.2,5.5,6.6Z"/>
    <path class="cls-22" d="M489.5,573l-1.7,8.3s16.8,1.4,36.1,2.1c0,0,1.7-8.3,1.7-8.3l-36.2-2.1Z"/>
    <path class="cls-2" d="M525.1,521.3l-.5-6,3.3-2.1s-4.9.8-8.2,1.6l-2.3,1.6.5,6.2,7.2-1.4Z"/>
    <path class="cls-2" d="M511.2,524.6l-.5-6,3.6-2.5s-4.5.9-8.5,2.1l-2.3,1.6.5,6.2,7.2-1.4Z"/>
    <path class="cls-2" d="M646.3,522.7l6.7-6.9-.8-1.9s3.5.9,6.2,1.8l1.8,2-6.4,7.4-7.5-2.4Z"/>
    <path class="cls-2" d="M667.1,528.4l6-6.4-2.5-3.2s3.8,1.1,6.3,1.8l3.1,4.1-5.8,5.7-7.1-1.9Z"/>
    <polygon class="cls-19" points="441.6 388.6 469.4 415.8 437.3 390.2 441.6 388.6"/>
    <polygon class="cls-19" points="414 438.4 462.8 427.5 415.5 441.4 414 438.4"/>
    <polygon class="cls-19" points="413.5 410.3 462.8 420.3 411.8 413.2 413.5 410.3"/>
    <g>
      <path class="cls-5" d="M499.6,103.2l-24-60.3,8.5-1.1,11.5,30.6c2.9,7.5,5.6,15.1,7.5,21h.2c.2-6.4,1.2-14,2.3-22.4l4.2-32.6,8.4-1.1,11.7,30.7c2.7,7.2,5.4,14.4,7.2,20.8h.2c.4-7,1.2-14.2,2.2-22.3l4.1-32.6,8.2-1.1-9.5,64.7-8.4,1.1-12.1-31.5c-3-7.7-5.1-13.6-6.7-19.8h-.2c-.3,6.4-.9,12.7-2.1,21l-4.6,33.7-8.4,1.1Z"/>
      <path class="cls-5" d="M588,95.5l-.8-5.7h-.3c-2.4,3.6-7.2,7-13.6,7.1-9.1.3-14-6-14.2-12.6-.3-10.9,9.2-17.2,26.7-17.6v-.9c-.1-3.7-1.4-10.4-10.6-10.1-4.2.1-8.5,1.6-11.7,3.7l-2-5.4c3.7-2.5,9-4.3,14.7-4.5,13.8-.4,17.5,8.9,17.7,18l.5,16.9c.1,3.9.4,7.7,1.1,10.8l-7.5.2ZM586.1,72.5c-9,0-19.1,2-18.8,10.8.2,5.3,3.8,7.7,8,7.6,5.9-.2,9.5-4,10.7-7.9.3-.8.4-1.8.4-2.6l-.2-7.8Z"/>
      <path class="cls-5" d="M607.2,95.6l1-45.2,8.2.2-1,45.2-8.2-.2ZM617.7,37.9c0,2.8-2.1,5-5.3,4.9-2.9,0-4.9-2.4-4.8-5.2,0-2.9,2.3-5.1,5.2-5,3.1,0,5,2.4,4.9,5.2Z"/>
      <path class="cls-5" d="M642,38.8l-.8,13,11.7.8-.4,6.2-11.7-.8-1.6,24.3c-.4,5.6,1,8.9,5.6,9.2,2.1.1,3.7,0,4.8-.2v6.2c-1.7.5-4.2.9-7.4.6-3.8-.2-6.8-1.7-8.6-4-2.2-2.6-2.8-6.6-2.4-11.9l1.6-24.6-7-.5.4-6.2,7,.5.7-10.8,8.2-1.6Z"/>
      <path class="cls-5" d="M683.5,36.2c-7.8,8.3-14.1,19.8-16,36.6-1.9,16.5,1.8,29,7.4,39l-6.4-.7c-5-8.4-9.9-21-7.8-39.1,2.2-18.3,9.8-29.4,16.5-36.5l6.4.7Z"/>
      <path class="cls-5" d="M677.2,112.1c8.1-8,15.1-19.2,17.9-35.8,2.7-16.5-.3-29.1-5.4-39.3l6.3,1c4.6,8.5,8.9,21.4,5.8,39.5-3,18.1-11.1,28.7-18.3,35.6l-6.3-1Z"/>
      <path class="cls-5" d="M708.7,101.4c.7-3.3,3.5-5.2,6.6-4.5,3.3.7,4.9,3.6,4.1,6.8-.7,3.2-3.3,5.2-6.6,4.5-3.2-.7-4.8-3.6-4.1-6.8ZM713.9,88.8l8.3-44.1,8.8,1.9-10.9,43.5-6.2-1.4Z"/>
    </g>
  </g>
</svg>