<?xml version="1.0" encoding="UTF-8"?>
<svg id="Traffic_Light" data-name="Traffic Light" xmlns="http://www.w3.org/2000/svg" version="1.1" viewBox="0 0 1920 1920">
  <defs>
    <style>
      .cls-1 {
        fill: #69947b;
      }

      .cls-1, .cls-2, .cls-3, .cls-4, .cls-5, .cls-6, .cls-7, .cls-8 {
        stroke-width: 0px;
      }

      .cls-2 {
        fill: #edd27d;
      }

      .cls-3 {
        fill: #262e61;
      }

      .cls-9 {
        fill: #393e70;
      }

      .cls-9, .cls-10, .cls-11 {
        stroke: #393e70;
        stroke-miterlimit: 10;
      }

      .cls-10 {
        fill: #21234b;
      }

      .cls-4 {
        fill: #2e325b;
      }

      .cls-5 {
        fill: #e15d5c;
      }

      .cls-6 {
        fill: #e6e6e6;
      }

      .cls-7 {
        fill: #506391;
      }

      .cls-8 {
        fill: #0d0d34;
      }

      .cls-11 {
        fill: #2e315e;
      }
    </style>
  </defs>
  <g>
    <rect class="cls-7" x="286.3" y="1797" width="60.6" height="20.7"/>
    <rect class="cls-3" x="269.4" y="1812.8" width="94.3" height="15.8"/>
  </g>
  <g>
    <path class="cls-3" d="M337.7,1797.3h-38.6V447c0-177.7,144.5-322.2,322.2-322.2h1126.4v38.6H621.3c-156.4,0-283.7,127.2-283.7,283.7v1350.3Z"/>
    <rect class="cls-9" x="1257.5" y="102.7" width="490.2" height="327.7"/>
    <polygon class="cls-10" points="1747.7 430.4 1257.5 430.4 1280.2 123.1 1726.2 124.3 1747.7 430.4"/>
    <rect class="cls-9" x="284.6" y="628.2" width="63.3" height="422.1"/>
    <rect class="cls-11" x="348" y="667.5" width="111.1" height="34.9"/>
    <rect class="cls-11" x="348" y="981.4" width="111.1" height="34.9"/>
    <g>
      <rect class="cls-6" x="405.1" y="588.5" width="134.9" height="490.2"/>
      <rect class="cls-9" x="394.8" y="601" width="155.6" height="465.2"/>
      <g>
        <g>
          <path class="cls-4" d="M529.7,693.2c0,31.5-25.5,51.3-57,51.3s-57-19.8-57-51.3,25.5-57,57-57,57,25.5,57,57Z"/>
          <path class="cls-8" d="M472.6,665.9c24.1,0,45.2,9.7,57,24.1-1.6-30-26.5-53.9-57-53.9s-55.3,23.8-57,53.9c11.7-14.5,32.8-24.1,57-24.1Z"/>
          <path class="cls-5" d="M523.9,693.2c0,28.4-23,51.3-51.3,51.3s-51.3-23-51.3-51.3,23-51.3,51.3-51.3,51.3,23,51.3,51.3Z"/>
        </g>
        <g>
          <path class="cls-4" d="M529.7,836.5c0,31.5-25.5,51.3-57,51.3s-57-19.8-57-51.3,25.5-57,57-57,57,25.5,57,57Z"/>
          <path class="cls-8" d="M472.6,809.2c24.1,0,45.2,9.7,57,24.1-1.6-30-26.5-53.9-57-53.9s-55.3,23.9-57,53.9c11.7-14.5,32.8-24.1,57-24.1Z"/>
          <path class="cls-2" d="M523.9,836.5c0,28.4-23,51.3-51.3,51.3s-51.3-23-51.3-51.3,23-51.3,51.3-51.3,51.3,23,51.3,51.3Z"/>
        </g>
        <g>
          <path class="cls-4" d="M529.7,979.7c0,31.5-25.5,51.3-57,51.3s-57-19.8-57-51.3,25.5-57,57-57,57,25.5,57,57Z"/>
          <path class="cls-8" d="M472.6,952.4c24.1,0,45.2,9.7,57,24.1-1.6-30-26.5-53.9-57-53.9s-55.3,23.8-57,53.9c11.7-14.5,32.8-24.1,57-24.1Z"/>
          <path class="cls-1" d="M523.9,979.7c0,28.4-23,51.3-51.3,51.3s-51.3-23-51.3-51.3,23-51.3,51.3-51.3,51.3,23,51.3,51.3Z"/>
        </g>
      </g>
    </g>
    <g>
      <rect class="cls-11" x="178.8" y="667.5" width="111.1" height="34.9"/>
      <rect class="cls-11" x="178.8" y="981.4" width="111.1" height="34.9"/>
      <g>
        <polygon class="cls-8" points="148.8 741.2 94.8 741.2 54.7 640.2 148.8 640.2 148.8 741.2"/>
        <rect class="cls-4" x="138" y="636.8" width="23" height="107.7"/>
      </g>
      <g>
        <polygon class="cls-8" points="148.8 884.1 94.8 884.1 54.7 783.1 148.8 783.1 148.8 884.1"/>
        <rect class="cls-4" x="138" y="779.7" width="23" height="107.7"/>
      </g>
      <g>
        <polygon class="cls-8" points="148.8 1026.6 94.8 1026.6 54.7 925.5 148.8 925.5 148.8 1026.6"/>
        <rect class="cls-4" x="138" y="922.2" width="23" height="107.7"/>
      </g>
      <g>
        <rect class="cls-6" x="161" y="588.5" width="76.2" height="490.2"/>
        <rect class="cls-9" x="155.2" y="601" width="87.9" height="465.2"/>
      </g>
    </g>
    <path class="cls-5" d="M1515.7,200.7h21.7v21.7h-21.7v-21.7ZM1515.7,331.1h21.7v21.7h-21.7v-21.7ZM1541.8,174.6h21.7v21.7h-21.7v-21.7ZM1541.8,357.2h21.7v21.7h-21.7v-21.7ZM1567.9,174.6h21.7v21.7h-21.7v-21.7ZM1567.9,252.9h21.7v21.7h-21.7v-21.7ZM1567.9,357.2h21.7v21.7h-21.7v-21.7ZM1594,174.6h21.7v21.7h-21.7v-21.7ZM1594,252.9h21.7v21.7h-21.7v-21.7ZM1594,357.2h21.7v21.7h-21.7v-21.7ZM1620.1,200.7h21.7v21.7h-21.7v-21.7ZM1620.1,226.8h21.7v21.7h-21.7v-21.7ZM1620.1,278.9h21.7v21.7h-21.7v-21.7ZM1620.1,305h21.7v21.7h-21.7v-21.7ZM1620.1,331.1h21.7v21.7h-21.7v-21.7Z"/>
  </g>
</svg>