<?xml version="1.0" encoding="UTF-8"?>
<svg id="_Layer_" data-name="&amp;lt;Layer&amp;gt;" xmlns="http://www.w3.org/2000/svg" version="1.1" viewBox="0 0 3311 1540">
  <defs>
    <style>
      .cls-1 {
        fill: #2a4e96;
      }

      .cls-1, .cls-2, .cls-3, .cls-4, .cls-5, .cls-6, .cls-7, .cls-8, .cls-9, .cls-10, .cls-11, .cls-12, .cls-13, .cls-14, .cls-15, .cls-16, .cls-17, .cls-18 {
        stroke-width: 0px;
      }

      .cls-2 {
        fill: #2c3a64;
      }

      .cls-3 {
        fill: #4a75cb;
      }

      .cls-4 {
        fill: #e9f3fe;
      }

      .cls-5 {
        fill: #233862;
      }

      .cls-6 {
        fill: #9b3d38;
      }

      .cls-7 {
        fill: #e58638;
      }

      .cls-8 {
        fill: #1e3d70;
      }

      .cls-9 {
        fill: #2b478b;
      }

      .cls-10 {
        fill: #ed975d;
      }

      .cls-11 {
        fill: #a9453d;
      }

      .cls-12 {
        fill: #ee9849;
      }

      .cls-13 {
        fill: #9c5f33;
      }

      .cls-14 {
        fill: #ab7041;
      }

      .cls-15 {
        fill: #2e3552;
      }

      .cls-16 {
        fill: #739af0;
      }

      .cls-17 {
        fill: #ffb27d;
      }

      .cls-18 {
        fill: #699dee;
      }
    </style>
  </defs>
  <path class="cls-4" d="M2066,1158.2s-240.7-365.3,42.6-539.6c158.1-97.3,373.9,75.4,534.2-185.7,93.3-151.9,419.7-198.1,583,9.4,163.2,207.4,303.6,206.4,416.2,168,129.2-44,185.9-176.5,388.1-148.5,233.7,32.4,202.4,228.6,374.6,194.5,332.1-65.9,578.1,310.6,348.6,504.5l-2687.3-2.6Z"/>
  <path class="cls-15" d="M4849.9,1163.6H1938.4c-1.6,0-2.8-1.3-2.8-2.8h0c0-1.6,1.3-2.8,2.8-2.8h2911.5c1.6,0,2.8,1.3,2.8,2.8h0c0,1.6-1.3,2.8-2.8,2.8Z"/>
  <g>
    <path class="cls-10" d="M4059.9,629.3s-74.9,78.7-95.4,85.5c-32.6,10.9-57.3,17.9-71,22.6h0s-16.9-2-22.4,2.4c-5.5,4.3-7.1,6.8-4.9,8.7,2.3,1.9,23.4.5,27.3,0,3.9-.5,15.7-1.6,15.7-1.6l-.4-.3c22.8-1.1,53.5-5.4,66.3-8.8,21.1-5.5,87.1-57.8,95.6-69.2,23.5-31.4,4.3-46.8-10.8-39.4Z"/>
    <path class="cls-17" d="M4138.2,621c-3.8-.8-10.4-14.6-10.2-37l-1.7.3-28.8,5.7s.6,9.1.6,17.6c0,4.4-.2,8.6-.7,11.4-5.6.2-9.3.5-9.3.5,0,0-22.5,20-24.3,30.7-1.8,10.7,41.1,10.4,55.7,9.1s18.8-38.2,18.8-38.2h0Z"/>
    <path class="cls-10" d="M4097.4,590.1s.6,9.1.6,17.6c16.1-.4,24.7-15.1,28.2-23.3l-28.8,5.7Z"/>
    <path class="cls-2" d="M4165.6,503.8c-6.4-3.9-16.6.7-16.6.7,3.5-5,16.4-3.3,16.4-3.3-25.7-5.5-31.1,11-31.5,12.4-16.2-14.7-41,10.6-47.1,17.3-6,5.2-11.9,15.5-2.7,38.3l2.7,8.9,34.8,2.5,6.5,8.6s3.9-9,9.1-6.2c8,4.4,23.6-13.3,18.7-36.7-.5-2.5-1.2-4.8-1.9-7,1.7.7,3.6,1.3,5.3,1.3,4.7,0,11.8-11.9,12.7-15.9,1-4,0-17.2-6.5-21.1Z"/>
    <path class="cls-17" d="M4092,598.1s38.2.7,38.2-23.1c0-23.8,5-39.7-19.3-41.1-24.4-1.5-29.1,7.6-31.1,15.5-2,7.9,2.2,47.9,12.2,48.7Z"/>
    <path class="cls-2" d="M4120,565.4c16,4.2,23-.1,23-.1,0,0-12.3-9.8-14.8-26.9,0,0-24.5-14.6-34.3-5.6-2.5-2.1-6.9-3.7-12.8,3.4-8.9,10.7-1,29.7-1,29.7,3.6.4,4.5-12,6.4-18.1,1.4-4.5,6-9,8.3-11.1.7,2.7,8.4,29.5,27.5,38.4,0,0-8.8-7.9-15.3-18.7,3.7,4.2,8.1,7.7,13,9Z"/>
    <path class="cls-9" d="M4092,846.9c-10.9,24.7-24.7,56.8-36.8,85.2-2.5,5.8-4.9,11.5-7.2,16.9-12.2,28.6-21.2,50-21.2,50,.8,67.4-93.7,149.6-93.7,149.6l-10.7-7.5s51.1-70,58.1-150.2c5.3-61.3,19.8-115.4,32-152.1,6.7-20.1,12.7-35,16.1-43.1,2.6-.9,5.4-1.4,8.3-1.7l52.4,51.2,2.8,1.7Z"/>
    <path class="cls-5" d="M4092,846.9c-10.9,24.7-24.7,56.8-36.8,85.2l-42.8-93.3c6.7-20.1,12.7-35,16.1-43.1,2.6-.9,5.4-1.4,8.3-1.7l52.4,51.2,2.8,1.7Z"/>
    <path class="cls-9" d="M4197.4,1138.4l-11.5,4.1s-43-123.2-60.8-142.1c-34.4-36.6-85-196.4-85-196.4l78-22.2c10.1,9.8,29.9,31.5,31.8,75.4,2.1,48.4,6.8,104.5,7.7,115.4,0,0,0,0,0,0,0,.8.5,1.6,1.1,2.2,53.2,59.2,38.7,163.5,38.7,163.5Z"/>
    <path class="cls-18" d="M4166.7,663.2c-4.4,12.3-10.2,22.8-10.2,22.8,0,0-38.1,61.4-36.8,67.3,1.3,5.9,20.6,48.8,16.4,51.6-22.4,14.4-112.4,8.3-110.8-2.9,1.7-11.2,14.1-32.7,14.8-57,.4-13.2-1.3-29.7-.8-45.3,0-.6,0-1.1,0-1.7-4.3-4-7.4-7.9-9.7-11.6-7.5-12-6.2-21.6-6.2-21.6,0,0,25-30.8,34.6-37.7,9.6-6.9,30-7.5,30-7.5,0,0-15.7,20-16,26.9-.3,6.9,41.2,9.4,47.6,4.9,6.5-4.5,18.5-30.3,18.5-30.3,0,0,25.9,1,31.1,10.7,4.1,7.5,1.3,20.2-2.7,31.4Z"/>
    <path class="cls-3" d="M4039.3,689.1c.3,7.3,0,10.6,0,10.6,0-.6,0-1.1,0-1.7-4.3-4-7.4-7.9-9.7-11.6-.5-3.7.8-7.9,5.6-12.2,14.9-13.4,18.9-15.6,18.9-15.6,0,0-15.3,23.2-14.9,30.5Z"/>
    <path class="cls-3" d="M4156.5,686s-38.1,61.4-36.8,67.3c-36.5-69.7,25-86.4,47-90.1-4.4,12.3-10.2,22.8-10.2,22.8Z"/>
    <path class="cls-5" d="M3953.9,1155.2s-.7-1.7-1.5-4c-1.3-3.9-3-9.6-2.5-12.7.4-2.2-.1-4-.7-5.2-.8-1.6-7.5,4.2-10.8,1.5-6.4-5.4-7.9-5.8-8.2-5.8h0s-14.1,8.9-17.7,12.3c-6.5,5.9-13.7,6.9-17.3,7.9-1.5.4-2.6,1.5-3.2,2.9-.8,2.1-1.6,4.9-.8,6.2h34.1c0,0,0-.1,0-.2.4-.4,2.3-2.1,6.5-1.6,2.8.4,4.8,1.1,7.4,1.5h8c6.9-.9,6.5-2.8,6.5-2.8Z"/>
    <path class="cls-5" d="M4204.7,1155.4s-.7-1.7-1.5-4c-1.3-3.9-3-9.6-2.4-12.7.4-2.2,0-4-.7-5.2-.8-1.6-1.8-2.5-1.8-2.5,0,0-5.6,6.7-9,3.9-6.4-5.4-7.9-5.9-8.2-5.9h0s-14.1,8.9-17.8,12.2c-6.5,5.9-13.7,6.8-17.3,7.9-1.5.4-2.7,1.5-3.2,2.9-.8,2.1-1.6,4.9-.8,6.2h34.1s0,0,0,0c.4-.4,2.3-2.1,6.5-1.6,2.8.4,4.7,1.1,7.4,1.6h8c6.9-.9,6.5-2.8,6.5-2.8Z"/>
  </g>
  <path class="cls-12" d="M3052.6,753.3l-4.7,2.3c-.2-.3-.3-.5-.4-.6,0,0,4.8-1.6,5.1-1.7Z"/>
  <g>
    <path class="cls-6" d="M2938.7,491.6s-14.4-12-31.1-10c-16.7,1.9-35.5,9-37.9,42.5-2.4,33.5,9.6,47.9-9,61-18.7,13.1-15,26.2-10.7,39.1,0,0,8.1-20.2,18.3-18.3,0,0-13.5,17-12.1,29,1.4,12,14.2,23,20.9,27,0,0,5.9-7.1,16.8-4.8,21.9,4.8,51-29.8,48.1-44.2-2.9-14.4-3.3-121.3-3.3-121.3Z"/>
    <path class="cls-12" d="M3137.7,1137.8l-14.4.9s-15.8-37.8-27.2-79.6c-5.7-20.9-10.3-42.8-11.2-61.4-.8-15.7-1.3-27.7-1.3-27.7-.6-.7-3.9-4-9.1-9.6-1.7-1.9-3.6-4-5.7-6.4-11.8-13.6-29-35.5-44.9-64.3,0,0,0,0,0,0-7.7-14-15.2-29.6-21.6-46.7,0,0,0-.1,0-.2,0,0-14-32.2-17-50,0,0,0,0,0,0-.2-1.2-.3-2.3-.4-3.3,0-1.1-.1-2.1-.1-2.9l.6-.3,62.8-30.6c2.6,3.7,17,22.7,29.3,49.9.9,2.1,1.9,4.2,2.8,6.3.7,1.6,1.4,3.2,2.1,4.8.2.4.3.8.5,1.2,22.1,50.2,44.8,123.2,49.7,153.4,1.9,11.7,3.2,44.3,4,77.6,1.1,43.9,1.4,89,1.4,89Z"/>
    <path class="cls-7" d="M3082.7,817.8l-8.3,142.7c-1.7-1.9-3.6-4-5.7-6.4-11.8-13.6-29-35.5-44.9-64.3,0,0,0,0,0,0-7.7-14.6-15.2-30.8-21.6-48.3,0-.1,0-.2-.1-.2,0,0-12.1-28.3-17-48.4,0,0,0,0,0,0-.2-1.2-.3-2.3-.4-3.3,0-1.1-.1-2.1-.1-2.9l.6-.3s62.1-30.2,65.3-31.2c.7,1.3,13.6,21.2,26.9,50.5.9,2.1,1.9,4.2,2.8,6.3.7,1.6,1.4,3.2,2.1,4.8.2.4.3.8.5,1.2Z"/>
    <path class="cls-12" d="M3054.6,983.1c-4.8,12.9-21.5,51.1-37,85.9-15.3,34.4-29.4,65.5-29.4,65.5l-14.3,1.5s-1.8-34.9,1.1-72.6c2.5-32.6,8.5-67.3,22.1-83.5.6-.7.4-1.7.1-2.6h0c-1.9-5.8-9.6-29.3-17.3-59-1.9-7.2-3.8-14.8-5.6-22.6-2.6-11.3-5.1-23-7.2-34.6,0-.2,0-.4-.1-.6-1-2.6-2.6-7-4.3-12.8-2.4-8-5.1-18.6-7.3-31.2,0-.4-.1-.7-.2-1.1-4.5-27.7-1.2-44.1-1.2-44.1,0,0,51.8-6.8,68.4-12.5,16.6-5.7,26.7-4.6,26.7-4.6,0,0,15.8,199.8,5.1,228.8Z"/>
    <path class="cls-10" d="M3159,739.4c-1.1-1.8-10-10.7-30-14.7,0,0-1.2-.2-7.3-4.5,0,0,0,0,0,0-18.5-13.8-37.9-29.1-60.4-43.6-11.9-7.7-29.8-25.3-48.5-43-9.4-8.9-19-17.9-28.1-25.5-4.9-4.1-43.7,20.7-40.2,25.2,18.3,24.1,64.9,51.5,91.1,68.6,23,15,57,27.1,73.3,32.4,0,0,0,0,0,0,0,0,8.7,2.7,9.3,3.2.6.5,10.7,9.3,16.2,12.3,5.5,2.9,13.6,1.9,22.5-.8,5.9-1.8,3.9-6.6,2.1-9.5Z"/>
    <path class="cls-5" d="M3012.9,633.6c-2.1,8.4-8.2,23.9-25.2,25.2-21.8,1.7-34-49.8-10.7-57.3,3.1,2.6,2.9,2.4,7.8,6.5,9.1,7.6,18.7,16.6,28.1,25.5Z"/>
    <path class="cls-11" d="M2958,494.1c-8-6.6-42-32.2-54.9-5.7,0,0-13.1,8-14.6,32.6-1.5,25.1,20.7,43.4,28.4,37.5,4.9-3.8,11.3,5.5,11.3,5.5l6.3-13.8,30.9-7,1.5-9.7c6-25.2-1.8-35-8.9-39.5Z"/>
    <path class="cls-9" d="M2952.7,810.2c-13.8-32.9-67-159.7-27.6-217.3.3-.2.7-.3,1-.5,14.8-6.5,40.2-2.8,47.1,2.9,34.2,28.5,39.8,46.6,43.3,70.4,3.7,24.7,8.3,50.2,27.8,77.2,2.5,3.4,5.2,6.8,8.3,10.3,24.8,27.7-92.6,74.6-100,56.9Z"/>
    <path class="cls-17" d="M2965.8,592.5c1.3,1.8,10.6,7.4-11.6,7.4s-29.8-6.1-29.2-7.1c2.3-3.4,4.8-12.2.8-35.4h1.8c0,0,31,.9,31,.9,0,0,.9,9.5,2.4,18.4,1.2,7.5,3.6,14.2,4.7,15.7Z"/>
    <path class="cls-10" d="M2958.7,558.4s.9,9.5,2.4,18.4c-16.8,2.4-28.3-11.4-33.3-19.3l31,.9Z"/>
    <path class="cls-17" d="M2964.5,566.4s-39.7,6.7-43.5-18.1c-3.8-24.8-11.5-40.6,13.7-45.9,25.2-5.3,31.5,3.4,34.8,11.3,3.3,8,5.2,50.3-5,52.6Z"/>
    <path class="cls-11" d="M2966.2,500.2c-7.3-6.5-11.7-4.2-13.9-1.5-24.6-8-34.9,11.2-34.9,11.2,0,18.2-11.2,30.3-11.2,30.3,0,0,7.9,3.4,24-3.5,4.9-2.1,8.9-6.4,12.1-11.4-5,12.4-13,21.9-13,21.9,18.6-12.3,22.3-41.2,22.7-44.3,2.8,1.8,8.3,5.8,10.4,10.2,2.9,6,5.8,18.9,9.5,17.8,0,0,5.2-21-5.7-30.8Z"/>
    <path class="cls-5" d="M3044.3,743c-94-23.9-122.7-105.7-122.7-105.7,0,0,87.9,23.9,98.9,32.6,3.7,24.7,4.8,46.1,23.8,73.1Z"/>
    <path class="cls-17" d="M3017.6,1069c-15.3,34.4-29.4,65.5-29.4,65.5l-14.3,1.5s-1.8-34.9,1.1-72.6c7.6,3.9,21.1,8,42.5,5.6Z"/>
    <path class="cls-17" d="M3137.7,1137.8l-14.4.9s-15.8-37.8-27.2-79.6c9.8.5,29.7,0,40.3-10.3,1.1,43.9,1.4,89,1.4,89Z"/>
    <g>
      <path class="cls-9" d="M3177.8,1152.2c-.6-1.5-1.8-2.6-3.3-3.1-3.8-1.1-11.3-2.2-18.1-8.5-3.8-3.5-18.6-13-18.6-13h0c-.3,0-1.9.4-8.7,6.1-3.5,2.9-9.4-4.2-9.4-4.2,0,0-1.1.9-2,2.6-.7,1.4-1.2,3.2-.8,5.5.5,3.2-1.3,9.3-2.7,13.3-.9,2.5-1.6,4.2-1.6,4.2,0,0-.4,2,6.9,3h8.5c2.8-.4,4.9-1.2,7.9-1.5,4.4-.5,6.4,1.3,6.8,1.7,0,0,0,0,0,0l36,.3c.9-1.3,0-4.3-.8-6.5Z"/>
      <path class="cls-9" d="M3029,1148.3c-3.8-1.1-11.3-2-18.3-8.2-3.9-3.5-18.8-12.8-18.8-12.8h0c-.3,0-1.9.5-8.6,6.2-3.5,3-9.5-4.1-9.5-4.1,0,0-1.1.9-1.9,2.7-.7,1.4-1.1,3.2-.7,5.5.6,3.2-1.1,9.3-2.5,13.4-.8,2.5-1.5,4.2-1.5,4.2,0,0-.4,2,6.9,2.9h8.5c2.8-.5,4.9-1.3,7.8-1.7,4.4-.6,6.5,1.2,6.9,1.6,0,0,0,0,0,0l36-.2c.9-1.3,0-4.3-.9-6.5-.6-1.5-1.8-2.6-3.4-3.1Z"/>
    </g>
  </g>
  <polygon class="cls-5" points="2234.9 755 2234.9 747.7 4362 741.5 4362 748.8 2402.4 753.1 2234.9 755"/>
  <g id="man">
    <path class="cls-17" d="M3471.2,730.7s-25.6-5.4-36.2,1.5c-10.6,7-18.4,18.5-11.8,21.2,6.6,2.6,26.9-2.9,30.4-5.1,3.5-2.1,14.1-5.1,15.3-6.4,1.2-1.3,2.2-11.1,2.2-11.1Z"/>
    <path class="cls-7" d="M3729.9,565.5s107.1,77,107.1,111.5-26,64.5-86.5,71.2l-9-16.6s51-40.4,48.1-44.6c-3-4.2-69.9-46.3-69.9-73s10.3-48.5,10.3-48.5Z"/>
    <path class="cls-5" d="M3467.8,1120.8s-18.1,19.3-42.4,22.4c0,0-16.2.1-16.2,15.1h86s1.4-7.2,2-20.1c.4-9.9,14.2-20.1,14.2-20.1l-43.5,2.7Z"/>
    <path class="cls-5" d="M3709.5,1128.8s-5,14.4-24.8,17c0,0-13.3.1-13.3,12.3h70.2s.2-8.2-3.5-18.1c-3.1-8.2-8.6-18.1-8.6-18.1l-20,6.9Z"/>
    <path class="cls-5" d="M3770.2,841.7s-69,130.2-57.8,150.7c23.6,43.5,30.6,132.4,27.9,138.6,0,0-17.9,13.8-42.5,7.3,0,0-64.5-134.7-63-178.7,2-60.4,72.5-153.8,72.5-153.8l62.9,35.8Z"/>
    <path class="cls-17" d="M3741.4,573.5s-8.2,31-36.4,32.9c0,0-10.9-10-15.3-19-.5-1.1-1.1-2.2-1.6-3.2-5-10.2-8-15.8-8-15.8,0,0,0,0,0,0,.9-1,29.3-32.1,29.9-30.9,12.5,28.1,31.4,36.1,31.4,36.1Z"/>
    <path class="cls-10" d="M3709.6,545.8c-.4,7.9-6.3,25.7-21.4,38.4-5-10.2-8-15.8-8-15.8,0,0,0,0,0,0,.9-.7,29.6-24.9,29.4-22.6Z"/>
    <path class="cls-17" d="M3672.2,570.8s44.1-9.4,37.8-36.7c-6.3-27.4-4.8-47-33.2-42.2-28.4,4.8-31.5,16.5-31.6,26.2-.1,9.6,15.4,54.5,27,52.7Z"/>
    <path class="cls-9" d="M3641.5,825.4s-119.1,214-185.4,297.4c0,0,19.1,16,49.7,6.8,0,0,99.3-80.4,127.5-126,28.2-45.6,91-123.4,132.5-154.9l-124.3-23.2Z"/>
    <path class="cls-12" d="M3796.8,735.3s-6.3,101.1-26.7,113.5c-23.4,14.3-142.6-5.4-135.1-19.1,3.6-6.5,10.2-19.2,15.5-38.3,5.9-21.4,10.3-50.9,6.9-88.9-1.2-13.4-1.2-27-.2-39.9,2-24.7,8.1-46.5,17.7-58.3,14.7-17.9,54.8-38.8,54.8-38.8,0,0,71.7,29.7,66.9,169.8Z"/>
    <path class="cls-7" d="M3650.6,791.4c5.9-21.4,10.3-50.9,6.9-88.9-1.2-13.4-1.2-27-.2-39.9,8.4-12.8,20.4-20.8,37.5-20.1,0,0,30.7,90-44.3,148.9Z"/>
    <path class="cls-12" d="M3687.2,594.4s-68.1,64-104.8,90.1c0,0-115,39-118,43,0,0-.7,9.9,4.5,16.2,0,0,113.2-9.1,133-16.5,19.8-7.4,98.6-50.4,105.2-59.3,6.6-9,13.1-79.8-19.9-73.6Z"/>
    <path class="cls-9" d="M3718.5,478.7c.3-.5,1.2-1.1,3.3-1.5,0,0-1.8-.8-4.1-.6-.9-2.9-3.2-7.9-8.4-8.5,0,0,2.9,1.1,3.7,4.2-6.7-5.2-19.8-7.9-53.8-.2-44.9,10.1-25.8,37.5-19.4,40.2,6.4,2.7,19.8-9.1,30.9-9.7,11.1-.7,15.5,15.1,19.5,16.8,4,1.7,2-2,6.7-5,4.7-3,6.4,5.4,5.7,11.1-.7,5.7,7.3,12,7.3,12l5.9-8.6c5.9-8.6,7.9-41.9,3.7-48.4-.4-.6-.7-1.1-1.1-1.7Z"/>
  </g>
  <path class="cls-9" d="M4806.8,1074.6c-25.8,0-48.9-5.5-69.1-16.4-24.8-13.4-40.2-32.7-48.8-46.5-8.8-14.2-12.4-25.6-12.8-27.1-22.5-59.8-53.1-109.4-90.7-147.4-30.1-30.4-64.8-53.5-103.2-68.7-65.3-25.9-119.1-19.8-119.7-19.8l-.9-7.2c.6,0,14.2-1.7,36.3,0,20.3,1.6,51.9,6.3,86.9,20.2,39.3,15.6,74.9,39.3,105.7,70.4,38.4,38.8,69.5,89.3,92.4,150.1v.3c.1.1,3.4,11.5,12.3,25.6,8.1,13,22.7,31.1,46,43.7,34.7,18.7,78.1,16.2,130.3.7,2.9-.9,5.9.9,6.6,3.8h0c.8,3.4-1.2,6.9-4.6,7.9-23.9,6.9-46.1,10.4-66.7,10.4Z"/>
  <path class="cls-12" d="M3300.7,773.5c-2.3-5.7-8.9-14.9-12.4-19.6.5,0,.9-.2,1.2-.4,1.5-1.2,6.4-8.7,5.7-9.6-.7-.9-6.7-5.3-9.1-3.9,0,0-8.8,2.8-3.9,13.1-4.4,1.6-11.6,5.3-11.3,12.2.5,9.9,0,15.5,0,15.5,0,0,8-.6,10.9-10.3,2.1-6.9,3.1-13.4,3.5-16.5.5,0,1,0,1.4,0,.7,3.4,1.2,9.5-.8,17.5-3.2,12.7,13,23.8,13.2,29.8,0,0,4.7-19.9,1.5-27.8Z"/>
  <g>
    <path class="cls-5" d="M2829.4,1107.4s18.1,13.6,45.9,6.4c0,0,22.4-5.1,27.3,6.1,0,0-34.3,17.4-43,22.2-6.5,3.6-13.4,9.3-18.2,13.7-3.8,3.5-9.8,3-13-1-1.5-1.9-3.2-4.1-5.1-6.6-5.3-7.2-17.6-30.3-17.6-30.3l23.8-10.3Z"/>
    <path class="cls-9" d="M2840,1100.5s-11,25.4-36.5,20.8c0,0-52-42.9-87.6-87.5-11.6-14.5-21.4-29.1-27.2-42.6-23.6-54.7-87.4-136.4-128-177.7l101.5-36.7s32.5,65.4,75.8,145.7c31.2,57.9,67.9,123.5,102.1,178Z"/>
    <path class="cls-5" d="M2737.9,922.5l-22,111.3c-11.6-14.5-21.4-29.1-27.2-42.6-23.6-54.7-87.4-136.4-128-177.7l101.5-36.7s32.5,65.4,75.8,145.7Z"/>
    <g>
      <path class="cls-13" d="M2745.1,717.7l8.1,6.6s22.1-7.9,27.1,18.3c0,0,1.3,11.2-5.8,11.2-7.1,0-4.2-1.2-14.2-.9-10,.3-18.4-5-19.8-13.2l-4.8-6.9,9.4-15.1Z"/>
      <path class="cls-3" d="M2744.2,731.8c6.4-6.7,5.9-11.7,5.9-11.7,0,0-74.7-61.1-82.2-66.1-5.2-3.4-60.1-52.1-85.9-81.9-12.8-14.7-28.5-9-46.6-3.8l-14.9,4.3c-18,5.2-22.6,30.3-7.9,42.5,41.5,34.4,110.6,73.1,123.5,81.2,32.1,20.2,94.9,44.2,94.9,44.2,0,0,7.6-2.8,13.2-8.6Z"/>
    </g>
    <path class="cls-5" d="M2655,1122.1s-1.1,20.3,23.5,23c0,0,14.1,0,14.1,13l-71.5.2s-2.1-5.2-2.6-16.4c-.4-8.6,8.3-31,8.3-31l28.2,11.1Z"/>
    <path class="cls-9" d="M2628.9,776.7s45.2,49.7,73.9,139.2c15.6,48.7-28.6,171.2-37.2,213.7,0,0-29.7,2.5-50-5.3,0,0-1.5-87.9,10.3-155.6,6.6-37.9-59.5-81.1-88.5-149.6-19.7-46.6,4.3-45.8,33.7-46.9l57.8,4.5Z"/>
    <path class="cls-13" d="M2555.3,544.1c-.8-18.8-2.9-29.5-2.9-29.5l-41-20.8c9.5,38.5-11.4,62.4-11.4,62.4,0,0,51.5,13.1,76.7-1.1,0,0-8.4-7.1-21.3-11Z"/>
    <path class="cls-14" d="M2565.3,508.2s-37.5,26.9-53.9,3.3c-16.4-23.6-32.3-36-9-54.2,23.2-18.2,34.2-12.4,41.6-5.9,7.4,6.5,30.7,49.2,21.3,56.8Z"/>
    <path class="cls-16" d="M2668.9,774.2c0,4.4-5.1,6.5-6.2,6.8-10.1,1.9-38.5,12.9-64,15.4-21.5,2.2-41.4.1-63.4-4.3-2.9-.6-9.7-2.4-10.2-5.2-.6-3-84.6-171.1-19.3-243.3,1.5-1.7,14.4,1.4,26.2,4.2,10.9,2.6,20.9,1.1,29.8-2.4l11,5.8c13.6,7.6,39.2,34.4,42.2,55.5,1.5,10.7,7.7,18.7,9.4,28.1.7,3.5,1.3,6.9,2,10.2,1.3,6.5,2.7,12.7,4.1,18.6,3.8,15.9,7.9,29.7,11.9,41.5,4.2,12.6,8.4,23.1,12.1,31.8,4.8,11.4,8.9,19.8,11.4,26.3,1.8,4.6,2.8,8.2,2.8,11.1Z"/>
    <path class="cls-3" d="M2666.1,763.1c-118.5-55.8-159.5-163-159.5-163,0,0,96.3,35.5,120,44.8,1.3,6.5,2.7,12.7,4.1,18.6,3.8,15.9,7.9,29.7,11.9,41.5,4.2,12.6,8.4,23.1,12.1,31.8,4.8,11.4,8.9,19.8,11.4,26.3Z"/>
    <g>
      <path class="cls-14" d="M2735.4,730.7l10.2,3.8s20.5-14.5,33.3,9.1c0,0,4.6,10.3-2.7,12.5-7.3,2.2-4.7.1-14.9,3.6-10.3,3.4-20.4,1-24.3-6.4l-7-5.1,5.3-17.4Z"/>
      <path class="cls-16" d="M2743.9,745.2c3.8-9.9,5.5-14.4,5.5-14.4,0,0-77.4-63.1-85.3-68.5-5.4-3.7-58.9-43.7-84.9-74.8-12.9-15.5-33.3-22.5-53.1-18.4l-16.2,3.4c-19.6,4.1-26,28.9-10.8,42,42.8,36.7,115.1,79.3,128.6,88.2,33.5,22,107.4,52.8,107.4,52.8,0,0,5.7-2.6,8.7-10.4Z"/>
    </g>
    <path class="cls-5" d="M2547.9,430.1c-1.3-9.1-4.4-15.5-4.4-15.5,0,0-2.4,9.7-20.2,8.4-17.8-1.3-46,1.8-55.4,22-.6,1.3-1.1,2.6-1.6,4-1.7-4.5-2.1-11.2-2.1-11.2-3.4,8.7,0,19.7,0,19.7h0c0,.3,0,.6-.1,1-3.9,3.3-7.2,13.7-7.2,13.7,1.2-2.9,4.1-4.8,6.7-5.9,0,15.8,6.3,31.2,17.6,35.8,16.4,6.7,16.3,1.6,32.8,12.6,0,0,4.4-5.5,1.4-9.2-3-3.7-14.4-9.1-8.1-14.4s8.7.7,11.1-3c2.4-3.7-9.4-14.4,5.7-24.5,15.1-10.1,25.2-24.2,23.9-33.3Z"/>
  </g>
  <path class="cls-5" d="M1984,1057.3c-4-13.7-87.9-72.1-34.2-153.1,30.5-46,67.6-118.8,110-145.2,53-33,107.7-10.3,175.1-11.3v7.3c-66,1-117.3-23.9-169.1,8.4-41.5,25.8-81.9,97.8-109.5,144.3-50.1,84.2,38.8,131.8,38.3,147.8-.2,7.4-9.7,4.5-10.5,1.8Z"/>
  <g>
    <path class="cls-5" d="M2146.1,1128.1s5.1,14.8,25.4,17.4c0,0,13.6.1,13.6,12.6h-72s-.2-8.4,3.6-18.5c3.2-8.4,8.9-18.5,8.9-18.5l20.5,7Z"/>
    <path class="cls-12" d="M2209.5,1014c-18.9,56.1-51.3,123.8-51.3,123.8-25.3,6.7-43.6-7.5-43.6-7.5-2.7-6.4,4.4-97.6,28.7-142.2,3.8-7-1.5-26.4-10.2-49.2-17.6-45.9-49.2-105.5-49.2-105.5l64.6-36.8s72.3,95.8,74.4,157.8c.4,13.6-5.2,35.5-13.3,59.6Z"/>
    <path class="cls-17" d="M2374.5,733.8s22.3-4.1,30.7,3.7c8.4,7.7,15.2,17.9,4.1,18.4-11.5.6-18.5-.7-21.4-3.1-2.8-2.4-11.6-6.1-12.5-7.5-.9-1.4-1-11.5-1-11.5Z"/>
    <path class="cls-8" d="M2125.2,549.8s-109.9,83.2-109.9,114.4c0,17.8,31,60.9,103.6,76.2l12.8-18s-63.5-48-60.5-52.3c3-4.3,64.6-43.2,64.6-70.6s-10.5-49.7-10.5-49.7Z"/>
    <path class="cls-5" d="M2394.2,1119.8s18.6,19.8,43.5,23c0,0,16.7.1,16.7,15.5h-88.3s-1.5-7.4-2-20.6c-.4-10.2-14.6-20.6-14.6-20.6l44.7,2.8Z"/>
    <path class="cls-7" d="M2209.5,1014l-76.5-75.1c-17.6-45.9-49.2-105.5-49.2-105.5l64.6-36.8s72.3,95.8,74.4,157.8c.4,13.6-5.2,35.5-13.3,59.6Z"/>
    <path class="cls-17" d="M2113.3,558s8.4,31.8,37.3,33.8c0,0,11.2-10.2,15.7-19.6.6-1.1,1.1-2.3,1.6-3.3,5.1-10.5,8.2-16.2,8.2-16.2,0,0,0,0,0,0-.9-1-30.1-32.9-30.6-31.7-12.8,28.8-32.3,37-32.3,37Z"/>
    <path class="cls-10" d="M2146,529.5c.4,8.1,6.5,26.4,22,39.4,5.1-10.5,8.2-16.2,8.2-16.2,0,0,0,0,0,0-.9-.7-30.4-25.6-30.2-23.2Z"/>
    <path class="cls-17" d="M2184.4,555.2s-45.2-9.6-38.8-37.7c6.4-28.1,4.9-48.2,34.1-43.3,29.2,5,32.3,17,32.4,26.8.1,9.9-15.8,55.9-27.7,54.1Z"/>
    <path class="cls-12" d="M2215.9,816.6s122.3,219.7,190.3,305.3c0,0-19.7,16.4-51,7,0,0-101.9-82.5-130.9-129.4-29-46.8-93.4-126.7-136-159.1l127.6-23.8Z"/>
    <path class="cls-1" d="M2056.5,724.1s6.5,103.7,27.4,116.5c24,14.7,146.4-5.5,138.7-19.6-3.7-6.6-10.5-19.7-15.9-39.4-6.1-22-10.6-52.3-7.1-91.3,1.2-13.8,1.2-27.8.2-41-2.1-25.4-8.3-47.8-18.2-59.9-15.1-18.4-56.3-39.8-56.3-39.8,0,0-73.6,30.4-68.7,174.3Z"/>
    <path class="cls-8" d="M2206.6,781.7c-6.1-22-10.6-52.3-7.1-91.3,1.2-13.8,1.2-27.8.2-41-8.6-13.1-21-21.4-38.5-20.6,0,0-31.5,92.4,45.4,152.8Z"/>
    <path class="cls-1" d="M2169,578.6s64.7,70.8,100.2,100.4c0,0,114.6,48.9,117.5,53.3,0,0,0,10.2-5.9,16.3,0,0-115.2-18.2-134.9-27.3-19.7-9.1-96.9-59.3-103-69-6.1-9.7-7.1-82.7,26.2-73.7Z"/>
    <path class="cls-11" d="M2143.7,525c-.7,0-10.8-1.3-11.8-42.2-.2-6.4,3.4-18.5,14.1-25.5,10.7-7.1,36-4.7,55.4.3,19.5,5,19,17.1,18.5,29.2-.6,12.7,8.1,27.5,8.1,27.5-19.5,1.3-32.3-19.7-39.6-20.7-7.4-1-14.4,8.1-16.5,11.1-2,3-4,5.4-10.8-1.3-6.7-6.7-9.1,9.7-9.1,13.1,0,0-2.4,7.8-8.4,8.6Z"/>
  </g>
  <path class="cls-17" d="M3143.8,735.8c-2-.6-10.8-.2-30.9-3.5,0,0-1.2-.1-7.4-4.2,0,0,0,0,0,0-19-13.1-38.9-27.7-61.9-41.4-16.1-9.6-43.2-36.1-68.5-57.1-3.6-3-7.1-5.9-10.6-8.5-3.8-3-7.2-5.6-10-7.8-5.9-4.6-14.1-4.8-20.2-.5-6.5,4.6-13.4,12-14.3,23-.3,3.4,1.7,7.4,5.3,11.8,4.6,5.6,10.9,11.4,18.1,17.1,22.8,18.1,55.1,35.8,75.4,48.1,23.5,14.1,58,25,74.5,29.7,0,0,0,0,0,0,0,0,8.8,2.4,9.4,2.8.6.4,13.9,5.2,19.5,7.9,5.6,2.7,25.6,5.1,32.1-4,6.5-9.1-6.2-12.5-10.4-13.6Z"/>
  <path class="cls-9" d="M2975.9,629.4s-7.9,23.3-32.7,36.3c-7.4-5.9-13.9-11.9-18.6-17.7-3.7-4.6-5.7-8.7-5.4-12.2,1-12.4,9.4-20.3,16.6-24.9,5.6-3.6,12.8-3.2,18,.8,3,2.4,6.9,5.4,11.3,8.8,3.6,2.8,7.2,5.7,10.9,8.8Z"/>
  <path class="cls-17" d="M3974.9,733.1c-.7.2-13.2,3-21.7,1.7-8.6-1.3-21.9,8.9-22.6,11.7-.8,2.8,2.6,9.3,7.3,9.3s8.1-2.2,9.7-4.5c1.5-2.3,9.1-.4,13.2-3.1,4.2-2.7,14.2-15.2,14.2-15.2Z"/>
  <path class="cls-17" d="M4162.2,671.5c-3.6,4.8-19.5,17.2-38.3,30.4h0c-25.9,18.2-57.3,37.8-69.5,41-21.1,5.5-106.9,8.4-106.9,1.5s78.8-24.9,99.9-29.6c9.6-2.1,30-20.6,49.3-40.1,22.9-23.1,44.3-47.7,44.3-47.7,15.1-7.5,44.7,13.1,21.2,44.4Z"/>
  <path class="cls-18" d="M4162.2,671.5c-3.6,4.8-19.5,17.2-38.3,30.4h0c-19.9-6.4-25.6-19.9-27.3-27.2,22.9-23.1,44.3-47.7,44.3-47.7,15.1-7.5,44.7,13.1,21.2,44.4Z"/>
  <path class="cls-10" d="M4395.5,730.2s-25.3-5-35.6,2.1c-10.3,7-17.9,18.6-11.3,21,6.6,2.5,26.5-3.3,29.9-5.5,3.4-2.2,13.8-5.3,15-6.6,1.2-1.3,2-11,2-11Z"/>
  <path class="cls-8" d="M4604,592.5s-79.5,64.9-115.2,91.3c0,0-112.7,40.3-115.7,44.4,0,0-.5,9.8,4.7,15.9,0,0,111.5-10.8,130.9-18.4,19.4-7.6,96.4-51.2,102.8-60.2,6.4-9,24.9-79.7-7.5-73Z"/>
  <g>
    <path class="cls-5" d="M4301.2,1121.3s-17.9,19-41.8,22.1c0,0-16,.1-16,14.9h84.8s1.4-7.1,2-19.8c.4-9.8,14-19.8,14-19.8l-42.9,2.7Z"/>
    <path class="cls-9" d="M4626.4,861c-41,31.1-129.3,110.6-157.1,155.6-6.2,9.9-16,21-27.5,32.3-40.7,39.6-103.1,81.1-103.1,81.1-30.1,9.1-49-6.7-49-6.7,45.8-58.6,94.9-117.6,136.7-166.7,59.8-70.2,104.9-120.1,104.9-120.1l95.2,24.6Z"/>
    <path class="cls-5" d="M4626.4,861c-41,31.1-129.3,110.6-157.1,155.6-6.2,9.9-16,21-27.5,32.3l-15.4-92.3c59.8-70.2,104.9-120.1,104.9-120.1l95.2,24.6Z"/>
    <path class="cls-5" d="M4524.9,1123.2s-5.9,17.3-29.7,20.3c0,0-15.9.1-15.9,14.7h84s.3-9.8-4.2-21.6c-3.7-9.8-10.4-21.6-10.4-21.6l-24,8.2Z"/>
    <path class="cls-9" d="M4558.2,843.4s-110.3,93.5-106.9,126.3c4.4,42.8,65,165.8,65,165.8,0,0,10.6,6.2,37.2-9.1,0,0-2.1-93.9-30.3-149.8-5.8-11.6,110.7-59.6,123.9-92.4,13.3-32.8,16.5-51.3,0-51.6-16.5-.3-89,10.8-89,10.8Z"/>
    <path class="cls-17" d="M4384.5,742s-29.3-11.3-38.4-7.5c-11.5,4.8-18.6,13.2-12.6,16.8,6,3.6,19.9,6.9,31,4.9,4-.7,14.6-2.7,16-3.7,1.4-1.1,4-10.5,4-10.5Z"/>
    <path class="cls-17" d="M4603.4,578.5s-5.3,31.1-32.8,35.5c0,0-11.6-8.8-16.7-17.4-.6-1.1-1.2-2.1-1.8-3-5.8-9.6-9.3-14.8-9.3-14.8,0,0,0,0,0,0,.8-1,26-34.1,26.6-32.9,14.8,26.5,34.1,32.6,34.1,32.6Z"/>
    <path class="cls-10" d="M4569.7,554.1c.3,7.8-3.9,25.8-17.6,39.6-5.8-9.6-9.3-14.8-9.3-14.8,0,0,0,0,0,0,.8-.8,26.8-27.1,26.9-24.8Z"/>
    <path class="cls-17" d="M4531.5,583.4s44-5.8,40-33.2c-4-27.4-1-46.6-29.3-44-28.3,2.5-32.2,13.8-33.1,23.2-.9,9.5,10.8,54.7,22.4,53.9Z"/>
    <path class="cls-1" d="M4672.1,732.5s2.7,99.8-16.2,113.8c-21.7,16.1-140.5,7.3-134.3-6.8,2.7-6.2,7.6-17.9,11.1-35,.3-1.3.5-2.7.8-4.1,4-21.6,5.6-50.9-1-87.9-.4-2.4-.8-4.8-1.2-7.3-1.6-10.7-2.4-21.5-2.5-31.9-.2-24.5,3.8-46.4,12.2-58.8,12.8-18.9,50.4-42.9,50.4-42.9,0,0,73,22.8,80.7,160.8Z"/>
    <path class="cls-8" d="M4588.8,643.9s5.9,110.2-56.1,160.7c.3-1.3.5-2.7.8-4.1,4-21.6,5.6-50.9-1-87.9-.4-2.4-.8-4.8-1.2-7.3,16.8-32.8,38.4-60.4,57.6-61.5Z"/>
    <path class="cls-1" d="M4593.9,599.8s-24.4,2.2-104.8,93.6c0,0-112.7,40.3-115.7,44.4,0,0-.5,9.8,4.7,15.9,0,0,111.5-10.8,130.9-18.4,19.4-7.6,96.4-51.2,102.8-60.2,6.4-9,14.5-82-17.9-75.3Z"/>
    <path class="cls-9" d="M4573.8,553.9s-5-.5-4.7-7.4c.4-6.9-.2-15.9-5.7-13.8-5.5,2-5.5,6.5-7.9,4-2.5-2.5-3.2-13.4-19.8-13.2-16.6.3-23,6.5-30.9,3.5-7.9-2.9-9.1-14.6-9.1-14.6,0,0,2.5,4,5.8,5.2,0,0-14-16.8.2-29.8,14.1-13,29.8-6,38.5-6,19.1,0,31.4.3,38.4,12.4,7,12.1,6.6,46.9-4.9,59.7Z"/>
  </g>
</svg>